<svg xmlns="http://www.w3.org/2000/svg" width="1436" height="649" viewBox="0 0 1436 649">
  <g fill="none" fill-rule="evenodd">
    <g transform="translate(17 54)">
      <g fill-rule="nonzero" stroke="#979797" transform="translate(0 498)">
        <rect width="319" height="69" x=".5" y=".5" fill="#D8D8D8"/>
        <g fill="#4F4F4F" transform="translate(6 5)">
          <rect width="56" height="59" x="251.5" y=".5"/>
          <rect width="56" height="59" x="189.5" y=".5"/>
          <rect width="56" height="59" x="127.5" y=".5"/>
          <rect width="56" height="59" x="63.5" y=".5"/>
          <rect width="56" height="59" x=".5" y=".5"/>
        </g>
      </g>
      <g fill="#4F4F4F" fill-rule="nonzero" stroke="#979797" transform="translate(0 363)">
        <rect width="160" height="68" x="159.5" y=".5"/>
        <rect width="160" height="68" x=".5" y=".5"/>
        <rect width="160" height="68" x="159.5" y="68.5"/>
        <rect width="160" height="68" x=".5" y="68.5"/>
      </g>
      <rect width="319" height="49" x=".5" y=".5" fill="#F0F1F1" fill-rule="nonzero" stroke="#979797"/>
      <rect width="148" height="29" x="11.5" y="10.5" fill="#FFF" fill-rule="nonzero" stroke="#979797"/>
      <rect width="136" height="29" x="11.5" y="383.5" fill="#FFF" fill-rule="nonzero" stroke="#979797"/>
      <rect width="136" height="29" x="170.5" y="383.5" fill="#FFF" fill-rule="nonzero" stroke="#979797"/>
      <rect width="136" height="29" x="170.5" y="450.5" fill="#FFF" fill-rule="nonzero" stroke="#979797"/>
      <rect width="136" height="29" x="11.5" y="450.5" fill="#FFF" fill-rule="nonzero" stroke="#979797"/>
      <rect width="34" height="34" x="272.5" y="8.5" fill="#FFF" fill-rule="nonzero" stroke="#979797"/>
      <rect width="319" height="314" x=".5" y="49.5" fill="#F0F1F1" fill-rule="nonzero" stroke="#979797"/>
      <g transform="translate(138 489)">
        <circle cx="2" cy="2" r="2" fill="#D8D8D8"/>
        <circle cx="12" cy="2" r="2" fill="#565656"/>
        <circle cx="22" cy="2" r="2" fill="#D8D8D8"/>
        <circle cx="32" cy="2" r="2" fill="#D8D8D8"/>
        <circle cx="42" cy="2" r="2" fill="#D8D8D8"/>
      </g>
    </g>
    <g transform="translate(375 54)">
      <g fill-rule="nonzero" stroke="#979797" transform="translate(0 498)">
        <rect width="319" height="69" x=".5" y=".5" fill="#D8D8D8"/>
        <g fill="#4F4F4F" transform="translate(6 5)">
          <rect width="56" height="59" x="251.5" y=".5"/>
          <rect width="56" height="59" x="189.5" y=".5"/>
          <rect width="56" height="59" x="127.5" y=".5"/>
          <rect width="56" height="59" x="63.5" y=".5"/>
          <rect width="56" height="59" x=".5" y=".5"/>
        </g>
      </g>
      <g fill="#4F4F4F" fill-rule="nonzero" stroke="#979797" transform="translate(0 363)">
        <rect width="160" height="68" x="159.5" y=".5"/>
        <rect width="160" height="68" x=".5" y=".5"/>
        <rect width="160" height="68" x="159.5" y="68.5"/>
        <rect width="160" height="68" x=".5" y="68.5"/>
      </g>
      <rect width="319" height="49" x=".5" y=".5" fill="#F0F1F1" fill-rule="nonzero" stroke="#979797"/>
      <rect width="148" height="29" x="11.5" y="10.5" fill="#FFF" fill-rule="nonzero" stroke="#979797"/>
      <rect width="136" height="29" x="11.5" y="383.5" fill="#FFF" fill-rule="nonzero" stroke="#979797"/>
      <rect width="136" height="29" x="170.5" y="383.5" fill="#FFF" fill-rule="nonzero" stroke="#979797"/>
      <rect width="136" height="29" x="170.5" y="450.5" fill="#FFF" fill-rule="nonzero" stroke="#979797"/>
      <rect width="136" height="29" x="11.5" y="450.5" fill="#FFF" fill-rule="nonzero" stroke="#979797"/>
      <rect width="34" height="34" x="272.5" y="8.5" fill="#FFF" fill-rule="nonzero" stroke="#979797"/>
      <g transform="translate(138 489)">
        <circle cx="2" cy="2" r="2" fill="#D8D8D8"/>
        <circle cx="12" cy="2" r="2" fill="#565656"/>
        <circle cx="22" cy="2" r="2" fill="#D8D8D8"/>
        <circle cx="32" cy="2" r="2" fill="#D8D8D8"/>
        <circle cx="42" cy="2" r="2" fill="#D8D8D8"/>
      </g>
      <g transform="translate(0 49)">
        <rect width="319" height="105" x=".5" y=".5" fill="#F0F1F1" fill-rule="nonzero" stroke="#979797"/>
        <rect width="23" height="66" x="11.5" y="20.5" fill="#D8D8D8" fill-rule="nonzero" stroke="#979797"/>
        <rect width="212" height="29" x="43.5" y="20.5" fill="#D8D8D8" fill-rule="nonzero" stroke="#979797"/>
        <rect width="212" height="29" x="43.5" y="57.5" fill="#D8D8D8" fill-rule="nonzero" stroke="#979797"/>
        <polyline stroke="#383B41" stroke-linecap="round" stroke-width="2" points="6 10 12 16 18 10" transform="matrix(0 -1 1 0 278 64.556)"/>
      </g>
      <g transform="translate(0 154)">
        <rect width="319" height="105" x=".5" y=".5" fill="#F0F1F1" fill-rule="nonzero" stroke="#979797"/>
        <rect width="23" height="66" x="11.5" y="20.5" fill="#D8D8D8" fill-rule="nonzero" stroke="#979797"/>
        <rect width="212" height="29" x="43.5" y="20.5" fill="#D8D8D8" fill-rule="nonzero" stroke="#979797"/>
        <rect width="212" height="29" x="43.5" y="57.5" fill="#D8D8D8" fill-rule="nonzero" stroke="#979797"/>
        <polyline stroke="#383B41" stroke-linecap="round" stroke-width="2" points="6 10 12 16 18 10" transform="matrix(0 -1 1 0 278 64.556)"/>
      </g>
      <g transform="translate(0 259)">
        <rect width="319" height="105" x=".5" y=".5" fill="#F0F1F1" fill-rule="nonzero" stroke="#979797"/>
        <rect width="23" height="66" x="11.5" y="20.5" fill="#D8D8D8" fill-rule="nonzero" stroke="#979797"/>
        <rect width="212" height="29" x="43.5" y="20.5" fill="#D8D8D8" fill-rule="nonzero" stroke="#979797"/>
        <rect width="212" height="29" x="43.5" y="57.5" fill="#D8D8D8" fill-rule="nonzero" stroke="#979797"/>
        <polyline stroke="#383B41" stroke-linecap="round" stroke-width="2" points="6 10 12 16 18 10" transform="matrix(0 -1 1 0 278 64.556)"/>
      </g>
    </g>
    <g transform="translate(1098 54)">
      <g fill-rule="nonzero" stroke="#979797" transform="translate(0 498)">
        <rect width="319" height="69" x=".5" y=".5" fill="#D8D8D8"/>
        <g fill="#4F4F4F" transform="translate(6 5)">
          <rect width="56" height="59" x="251.5" y=".5"/>
          <rect width="56" height="59" x="189.5" y=".5"/>
          <rect width="56" height="59" x="127.5" y=".5"/>
          <rect width="56" height="59" x="63.5" y=".5"/>
          <rect width="56" height="59" x=".5" y=".5"/>
        </g>
      </g>
      <g fill="#4F4F4F" fill-rule="nonzero" stroke="#979797" transform="translate(0 363)">
        <rect width="160" height="68" x="159.5" y=".5"/>
        <rect width="160" height="68" x=".5" y=".5"/>
        <rect width="160" height="68" x="159.5" y="68.5"/>
        <rect width="160" height="68" x=".5" y="68.5"/>
      </g>
      <rect width="319" height="49" x=".5" y=".5" fill="#F0F1F1" fill-rule="nonzero" stroke="#979797"/>
      <rect width="148" height="29" x="11.5" y="10.5" fill="#FFF" fill-rule="nonzero" stroke="#979797"/>
      <rect width="136" height="29" x="11.5" y="383.5" fill="#FFF" fill-rule="nonzero" stroke="#979797"/>
      <rect width="136" height="29" x="170.5" y="383.5" fill="#FFF" fill-rule="nonzero" stroke="#979797"/>
      <rect width="136" height="29" x="170.5" y="450.5" fill="#FFF" fill-rule="nonzero" stroke="#979797"/>
      <rect width="136" height="29" x="11.5" y="450.5" fill="#FFF" fill-rule="nonzero" stroke="#979797"/>
      <rect width="34" height="34" x="272.5" y="8.5" fill="#FFF" fill-rule="nonzero" stroke="#979797"/>
      <rect width="319" height="314" x=".5" y="49.5" fill="#F0F1F1" fill-rule="nonzero" stroke="#979797"/>
      <g transform="translate(138 489)">
        <circle cx="2" cy="2" r="2" fill="#D8D8D8"/>
        <circle cx="12" cy="2" r="2" fill="#565656"/>
        <circle cx="22" cy="2" r="2" fill="#D8D8D8"/>
        <circle cx="32" cy="2" r="2" fill="#D8D8D8"/>
        <circle cx="42" cy="2" r="2" fill="#D8D8D8"/>
      </g>
      <g fill="#D8D8D8" fill-rule="nonzero" stroke="#979797" transform="translate(40 92)">
        <rect width="143" height="29" x="48.5" y=".5"/>
        <rect width="239" height="35" x=".5" y="46.5"/>
      </g>
      <g fill="#D8D8D8" fill-rule="nonzero" stroke="#979797" transform="translate(40 208)">
        <rect width="143" height="29" x="48.5" y=".5"/>
        <rect width="239" height="35" x=".5" y="46.5"/>
      </g>
      <rect width="136" height="21" x="170.5" y="324.5" fill="#D8D8D8" fill-rule="nonzero" stroke="#979797"/>
    </g>
    <g transform="translate(733 54)">
      <g fill-rule="nonzero" stroke="#979797" transform="translate(0 498)">
        <rect width="319" height="69" x=".5" y=".5" fill="#D8D8D8"/>
        <g fill="#4F4F4F" transform="translate(6 5)">
          <rect width="56" height="59" x="251.5" y=".5"/>
          <rect width="56" height="59" x="189.5" y=".5"/>
          <rect width="56" height="59" x="127.5" y=".5"/>
          <rect width="56" height="59" x="63.5" y=".5"/>
          <rect width="56" height="59" x=".5" y=".5"/>
        </g>
      </g>
      <g fill-rule="nonzero" stroke="#979797">
        <rect width="319" height="49" x=".5" y=".5" fill="#F0F1F1"/>
        <rect width="148" height="29" x="11.5" y="10.5" fill="#FFF"/>
        <rect width="34" height="34" x="272.5" y="8.5" fill="#FFF"/>
      </g>
      <rect width="319" height="314" x=".5" y="49.5" fill="#E0E0E0" fill-rule="nonzero" stroke="#979797"/>
      <polyline stroke="#383B41" stroke-linecap="round" stroke-width="2" points="6 10 12 16 18 10" transform="translate(278 62)"/>
      <g transform="translate(0 363)">
        <g fill="#4F4F4F" fill-rule="nonzero" stroke="#979797">
          <rect width="160" height="68" x="159.5" y=".5"/>
          <rect width="160" height="68" x=".5" y=".5"/>
          <rect width="160" height="68" x="159.5" y="68.5"/>
          <rect width="160" height="68" x=".5" y="68.5"/>
        </g>
        <rect width="136" height="29" x="11.5" y="20.5" fill="#FFF" fill-rule="nonzero" stroke="#979797"/>
        <rect width="136" height="29" x="170.5" y="20.5" fill="#FFF" fill-rule="nonzero" stroke="#979797"/>
        <rect width="136" height="29" x="170.5" y="87.5" fill="#FFF" fill-rule="nonzero" stroke="#979797"/>
        <rect width="136" height="29" x="11.5" y="87.5" fill="#FFF" fill-rule="nonzero" stroke="#979797"/>
        <g transform="translate(138 126)">
          <circle cx="2" cy="2" r="2" fill="#D8D8D8"/>
          <circle cx="12" cy="2" r="2" fill="#565656"/>
          <circle cx="22" cy="2" r="2" fill="#D8D8D8"/>
          <circle cx="32" cy="2" r="2" fill="#D8D8D8"/>
          <circle cx="42" cy="2" r="2" fill="#D8D8D8"/>
        </g>
      </g>
      <rect width="221" height="29" x="11.5" y="59.5" fill="#FFF" fill-rule="nonzero" stroke="#979797"/>
      <rect width="295" height="224" x="11.5" y="121.5" fill="#FFF" fill-rule="nonzero" stroke="#979797"/>
    </g>
  </g>
</svg>
