<svg xmlns="http://www.w3.org/2000/svg" width="1083" height="661" viewBox="0 0 1083 661">
  <g fill="none" fill-rule="evenodd">
    <g fill-rule="nonzero" stroke="#979797" transform="translate(739 64)">
      <rect width="319" height="449" x=".5" y="49.5" fill="#F0F1F1"/>
      <g fill="#FFF" transform="translate(11 111)">
        <rect width="221" height="23" x=".5" y="24.5"/>
        <rect width="148" height="17" x=".5" y=".5"/>
        <g transform="translate(0 73)">
          <rect width="221" height="23" x=".5" y="24.5"/>
          <rect width="148" height="17" x=".5" y=".5"/>
        </g>
        <g transform="translate(0 146)">
          <rect width="221" height="23" x=".5" y="24.5"/>
          <rect width="148" height="17" x=".5" y=".5"/>
        </g>
        <g transform="translate(0 219)">
          <rect width="221" height="23" x=".5" y="24.5"/>
          <rect width="148" height="17" x=".5" y=".5"/>
        </g>
        <g transform="translate(0 292)">
          <rect width="221" height="23" x=".5" y="24.5"/>
          <rect width="148" height="17" x=".5" y=".5"/>
        </g>
        <g transform="translate(0 365)">
          <rect width="221" height="23" x=".5" y="24.5"/>
          <rect width="148" height="17" x=".5" y=".5"/>
        </g>
      </g>
      <g transform="translate(0 498)">
        <rect width="319" height="69" x=".5" y=".5" fill="#D8D8D8"/>
        <g fill="#4F4F4F" transform="translate(6 5)">
          <rect width="56" height="59" x="251.5" y=".5"/>
          <rect width="56" height="59" x="189.5" y=".5"/>
          <rect width="56" height="59" x="127.5" y=".5"/>
          <rect width="56" height="59" x="63.5" y=".5"/>
          <rect width="56" height="59" x=".5" y=".5"/>
        </g>
      </g>
      <rect width="319" height="49" x=".5" y=".5" fill="#F0F1F1"/>
      <rect width="148" height="29" x="11.5" y="10.5" fill="#FFF"/>
      <rect width="34" height="34" x="272.5" y="8.5" fill="#FFF"/>
      <rect width="221" height="29" x="11.5" y="59.5" fill="#FFF"/>
    </g>
    <g transform="translate(16 64)">
      <g fill-rule="nonzero" stroke="#979797" transform="translate(0 498)">
        <rect width="319" height="69" x=".5" y=".5" fill="#D8D8D8"/>
        <g fill="#4F4F4F" transform="translate(6 5)">
          <rect width="56" height="59" x="251.5" y=".5"/>
          <rect width="56" height="59" x="189.5" y=".5"/>
          <rect width="56" height="59" x="127.5" y=".5"/>
          <rect width="56" height="59" x="63.5" y=".5"/>
          <rect width="56" height="59" x=".5" y=".5"/>
        </g>
      </g>
      <g fill="#4F4F4F" fill-rule="nonzero" stroke="#979797" transform="translate(0 363)">
        <rect width="160" height="68" x="159.5" y=".5"/>
        <rect width="160" height="68" x=".5" y=".5"/>
        <rect width="160" height="68" x="159.5" y="68.5"/>
        <rect width="160" height="68" x=".5" y="68.5"/>
      </g>
      <rect width="319" height="49" x=".5" y=".5" fill="#F0F1F1" fill-rule="nonzero" stroke="#979797"/>
      <rect width="148" height="29" x="11.5" y="10.5" fill="#FFF" fill-rule="nonzero" stroke="#979797"/>
      <rect width="136" height="29" x="11.5" y="383.5" fill="#FFF" fill-rule="nonzero" stroke="#979797"/>
      <rect width="136" height="29" x="170.5" y="383.5" fill="#FFF" fill-rule="nonzero" stroke="#979797"/>
      <rect width="136" height="29" x="170.5" y="450.5" fill="#FFF" fill-rule="nonzero" stroke="#979797"/>
      <rect width="136" height="29" x="11.5" y="450.5" fill="#FFF" fill-rule="nonzero" stroke="#979797"/>
      <rect width="34" height="34" x="272.5" y="8.5" fill="#FFF" fill-rule="nonzero" stroke="#979797"/>
      <g transform="translate(138 489)">
        <circle cx="2" cy="2" r="2" fill="#D8D8D8"/>
        <circle cx="12" cy="2" r="2" fill="#565656"/>
        <circle cx="22" cy="2" r="2" fill="#D8D8D8"/>
        <circle cx="32" cy="2" r="2" fill="#D8D8D8"/>
        <circle cx="42" cy="2" r="2" fill="#D8D8D8"/>
      </g>
      <g transform="translate(0 311)">
        <rect width="319" height="51.859" x=".5" y=".5" fill="#E0E0E0" fill-rule="nonzero" stroke="#979797"/>
        <rect width="244" height="20.593" x="11.5" y="6.389" fill="#FFF" fill-rule="nonzero" stroke="#979797"/>
        <rect width="244" height="16.667" x="11.5" y="29.944" fill="#FFF" fill-rule="nonzero" stroke="#979797"/>
        <polyline stroke="#383B41" stroke-linecap="round" stroke-width="2" points="6 10 12 16 18 10" transform="matrix(0 -1 1 0 278 38.278)"/>
      </g>
      <g transform="translate(0 259)">
        <rect width="319" height="51.859" x=".5" y=".5" fill="#E0E0E0" fill-rule="nonzero" stroke="#979797"/>
        <rect width="244" height="20.593" x="11.5" y="6.389" fill="#FFF" fill-rule="nonzero" stroke="#979797"/>
        <rect width="244" height="16.667" x="11.5" y="29.944" fill="#FFF" fill-rule="nonzero" stroke="#979797"/>
        <polyline stroke="#383B41" stroke-linecap="round" stroke-width="2" points="6 10 12 16 18 10" transform="matrix(0 -1 1 0 278 38.278)"/>
      </g>
      <g transform="translate(0 206)">
        <rect width="319" height="51.859" x=".5" y=".5" fill="#E0E0E0" fill-rule="nonzero" stroke="#979797"/>
        <rect width="244" height="20.593" x="11.5" y="6.389" fill="#FFF" fill-rule="nonzero" stroke="#979797"/>
        <rect width="244" height="16.667" x="11.5" y="29.944" fill="#FFF" fill-rule="nonzero" stroke="#979797"/>
        <polyline stroke="#383B41" stroke-linecap="round" stroke-width="2" points="6 10 12 16 18 10" transform="matrix(0 -1 1 0 278 38.278)"/>
      </g>
      <g transform="translate(0 153)">
        <rect width="319" height="51.859" x=".5" y=".5" fill="#E0E0E0" fill-rule="nonzero" stroke="#979797"/>
        <rect width="244" height="20.593" x="11.5" y="6.389" fill="#FFF" fill-rule="nonzero" stroke="#979797"/>
        <rect width="244" height="16.667" x="11.5" y="29.944" fill="#FFF" fill-rule="nonzero" stroke="#979797"/>
        <polyline stroke="#383B41" stroke-linecap="round" stroke-width="2" points="6 10 12 16 18 10" transform="matrix(0 -1 1 0 278 38.278)"/>
      </g>
      <g transform="translate(0 100)">
        <rect width="319" height="51.859" x=".5" y=".5" fill="#E0E0E0" fill-rule="nonzero" stroke="#979797"/>
        <rect width="244" height="20.593" x="11.5" y="6.389" fill="#FFF" fill-rule="nonzero" stroke="#979797"/>
        <rect width="244" height="16.667" x="11.5" y="29.944" fill="#FFF" fill-rule="nonzero" stroke="#979797"/>
        <polyline stroke="#383B41" stroke-linecap="round" stroke-width="2" points="6 10 12 16 18 10" transform="matrix(0 -1 1 0 278 38.278)"/>
      </g>
      <g transform="translate(0 49)">
        <rect width="319" height="51.859" x=".5" y=".5" fill="#E0E0E0" fill-rule="nonzero" stroke="#979797"/>
        <rect width="244" height="20.593" x="11.5" y="6.389" fill="#FFF" fill-rule="nonzero" stroke="#979797"/>
        <rect width="244" height="16.667" x="11.5" y="29.944" fill="#FFF" fill-rule="nonzero" stroke="#979797"/>
        <polyline stroke="#383B41" stroke-linecap="round" stroke-width="2" points="6 10 12 16 18 10" transform="matrix(0 -1 1 0 278 38.278)"/>
      </g>
    </g>
    <g transform="translate(374 64)">
      <g fill-rule="nonzero" stroke="#979797" transform="translate(0 498)">
        <rect width="319" height="69" x=".5" y=".5" fill="#D8D8D8"/>
        <g fill="#4F4F4F" transform="translate(6 5)">
          <rect width="56" height="59" x="251.5" y=".5"/>
          <rect width="56" height="59" x="189.5" y=".5"/>
          <rect width="56" height="59" x="127.5" y=".5"/>
          <rect width="56" height="59" x="63.5" y=".5"/>
          <rect width="56" height="59" x=".5" y=".5"/>
        </g>
      </g>
      <rect width="319" height="49" x=".5" y=".5" fill="#F0F1F1" fill-rule="nonzero" stroke="#979797"/>
      <rect width="319" height="449" x=".5" y="49.5" fill="#E0E0E0" fill-rule="nonzero" stroke="#979797"/>
      <path stroke="#383B41" stroke-linecap="round" stroke-width="2" d="M29.3333333 14.6666667L0 14.6666667M14.6666667 0L14.6666667 29.3333333" transform="rotate(45 81.833 369.155)"/>
      <rect width="295" height="353" x="11.5" y="121.5" fill="#FFF" fill-rule="nonzero" stroke="#979797"/>
      <rect width="148" height="29" x="11.5" y="10.5" fill="#FFF" fill-rule="nonzero" stroke="#979797"/>
      <rect width="221" height="29" x="11.5" y="59.5" fill="#FFF" fill-rule="nonzero" stroke="#979797"/>
    </g>
  </g>
</svg>
