<svg xmlns="http://www.w3.org/2000/svg" width="40" height="40" viewBox="0 0 74 74">
  <g fill="none" fill-rule="evenodd" transform="translate(-3 -4)">
    <text fill="#fbfbfb" font-family="Gibson-SemiBold, Gibson" font-size="14" font-weight="500" transform="rotate(135 29.133 42.802)">
      <tspan x="0" y="13">MENU</tspan>
    </text>
    <text fill="#fbfbfb" font-family="Gibson-SemiBold, Gibson" font-size="14" font-weight="500" transform="rotate(-44 36.3 14.664)">
      <tspan x="0" y="13">MENU</tspan>
    </text>
    <g fill="#231F20" transform="translate(10 11)">
      <path d="M29.9999326,0 L0,30.0000674 L29.9999326,60 L60,30.0000674 L29.9999326,0 Z M3.26423928,30.0000674 L29.9999326,3.26423928 L56.7357607,30.0000674 L29.9999326,56.7357607 L3.26423928,30.0000674 Z"/>
      <g transform="translate(23.617 11.49)">
        <path d="M2.37729929,31.3255798 L2.37729929,5.78422823 L14.5937721,18.5549706 L12.4872189,20.7569375 C13.2778383,20.9672131 14.0139139,21.3118572 14.6702922,21.7651681 L17.7412898,18.5549706 L0.109233097,0.122902648 L0.109233097,36.9870386 L5.00797541,31.8659839 C4.53164444,31.2226394 4.16148842,30.4953977 3.92239622,29.7103602 L2.37729929,31.3255798 Z"/>
        <path d="M14.6702922 21.7652347L13.0619139 23.4465067C14.5004388 24.2804176 15.4732236 25.839839 15.4732236 27.6263153 15.4732236 30.2866536 13.3216586 32.4508002 10.6772142 32.4508002 8.96676501 32.4508002 7.46681229 31.5425804 6.61754515 30.1833136L5.00797541 31.8659173C6.29557825 33.6055178 8.35553097 34.7322697 10.6772142 34.7322697 14.5785475 34.7322697 17.7412898 31.550837 17.7412898 27.6263153 17.7412898 25.1928988 16.5245144 23.0459311 14.6702922 21.7652347M10.5234723 22.8097807L12.4871792 20.7569642C11.9094392 20.6032859 11.3029712 20.5205873 10.6771745 20.5205873 6.77570875 20.5205873 3.61296643 23.7018869 3.61296643 27.6262754 3.61296643 28.3516527 3.72165674 29.0513282 3.9223565 29.7103868L5.88275366 27.6610328C5.88262128 27.6493138 5.88103262 27.6379943 5.88103262 27.6262754 5.88103262 25.0182729 7.95038487 22.8923461 10.5234723 22.8097807M5.88279338 27.6610594L3.92239622 29.7104134C4.16148842 30.4953178 4.53164444 31.2225595 5.00797541 31.865904L6.61754515 30.1833003C6.15948369 29.4503323 5.88941277 28.5875235 5.88279338 27.6610594"/>
        <path d="M10.5234723,22.8097807 C10.5749712,22.8080494 10.6254109,22.8019236 10.6771745,22.8019236 C11.5456378,22.8019236 12.3584983,23.0388332 13.0618742,23.4465999 L14.6702525,21.7651947 C14.0138742,21.3118838 13.277931,20.9672397 12.4871792,20.7569642 L10.5234723,22.8097807 Z"/>
      </g>
    </g>
  </g>
</svg>
