<svg xmlns="http://www.w3.org/2000/svg" width="130" height="130" viewBox="0 0 130 130">
  <g fill="#231F20" fill-rule="evenodd">
    <path d="M64.999854,0 L0,65.000146 L64.999854,130 L130,65.000146 L64.999854,0 Z M7.07251844,65.000146 L64.999854,7.07251844 L122.927482,65.000146 L64.999854,122.927482 L7.07251844,65.000146 Z"/>
    <g transform="translate(51.17 24.894)">
      <path d="M5.15081513,67.8720896 L5.15081513,12.5324945 L31.6198396,40.2024363 L27.055641,44.9733647 C28.7686496,45.4289617 30.3634802,46.1756906 31.7856331,47.1578642 L38.4394613,40.2024363 L0.23667171,0.266289071 L0.23667171,80.1385836 L10.8506134,69.0429652 C9.81856296,67.649052 9.01655823,66.0733616 8.49852514,64.372447 L5.15081513,67.8720896 Z"/>
      <path d="M31.7856331 47.1580084L28.3008136 50.8007644C31.4176173 52.6075714 33.5253179 55.9863178 33.5253179 59.8570165 33.5253179 65.6210828 28.8635937 70.3100672 23.1339641 70.3100672 19.4279909 70.3100672 16.1780933 68.3422576 14.3380145 65.3971795L10.8506134 69.0428209C13.6404195 72.8119553 18.1036504 75.253251 23.1339641 75.253251 31.586853 75.253251 38.4394613 68.3601468 38.4394613 59.8570165 38.4394613 54.5846141 35.8031146 49.9328508 31.7856331 47.1580084M22.8008567 49.4211914L27.0555549 44.9734224C25.803785 44.6404529 24.4897708 44.4612725 23.133878 44.4612725 14.6807023 44.4612725 7.82809393 51.3540882 7.82809393 59.85693 7.82809393 61.4285808 8.0635896 62.9445444 8.49843909 64.3725047L12.7459663 59.9322376C12.7456794 59.9068465 12.7422374 59.8823211 12.7422374 59.85693 12.7422374 54.206258 17.2258339 49.6000832 22.8008567 49.4211914M12.7460523 59.9322953L8.49852514 64.3725625C9.01655823 66.0731885 9.81856296 67.6488788 10.8506134 69.0427921L14.3380145 65.3971507C13.345548 63.8090533 12.7603943 61.9396342 12.7460523 59.9322953"/>
      <path d="M22.8008567,49.4211914 C22.9124375,49.4174405 23.0217236,49.4041678 23.133878,49.4041678 C25.0155486,49.4041678 26.7767464,49.9174718 28.3007275,50.8009664 L31.785547,47.1579219 C30.3633942,46.1757483 28.7688504,45.4290194 27.0555549,44.9734224 L22.8008567,49.4211914 Z"/>
    </g>
  </g>
</svg>
