<svg width="375" height="812" viewBox="0 0 375 812" fill="none" xmlns="http://www.w3.org/2000/svg">
<g clip-path="url(#clip0)">
<rect width="375" height="812" fill="url(#paint0_linear)"/>
<path opacity="0.5" d="M441 -25C441 238.992 223.187 453 -45.5 453C-314.187 453 -532 238.992 -532 -25C-532 -288.992 -314.187 -503 -45.5 -503C223.187 -503 441 -288.992 441 -25Z" fill="#33C2FF"/>
<path d="M86.4893 200H103.542C111.452 200 122.895 198.317 122.895 187.603C122.895 183.957 121.549 180.142 115.659 177.954V177.842C120.147 176.272 121.773 173.13 121.773 169.708C121.773 160.004 108.871 159.387 102.757 159.387H86.4893V200ZM103.206 175.879V170.83H103.823C105.898 170.83 106.964 171.896 106.964 173.355C106.964 174.757 105.954 175.879 103.823 175.879H103.206ZM103.206 189.117V182.835H103.935C106.515 182.835 107.806 184.237 107.806 185.976C107.806 187.715 106.571 189.117 103.935 189.117H103.206Z" fill="white"/>
<path d="M136.479 200H165.761V185.583H153.196V159.387H136.479V200Z" fill="white"/>
<path d="M177.983 200H194.587L196.158 194.671H205.47L206.872 200H224.935L209.452 159.387H193.465L177.983 200ZM199.075 184.462L200.87 176.215H200.982L202.777 184.462H199.075Z" fill="white"/>
<path d="M237.719 200H254.435V185.191H262.85V200H279.566V159.387H262.85V171.952H254.435V159.387H237.719V200Z" fill="white"/>
<g opacity="0.870703" filter="url(#filter0_d)">
<path d="M358.055 212.228C357.987 208.826 360.71 206 364.113 206H388.88C392.194 206 394.88 208.686 394.88 212V223C394.88 226.314 392.194 229 388.88 229H355C355 229 357.353 228.246 357.88 224.038C358.17 221.717 358.14 216.469 358.055 212.228Z" fill="#F9FAFB"/>
</g>
<g opacity="0.870703" filter="url(#filter1_d)">
<path d="M258.055 330.228C257.987 326.826 260.71 324 264.113 324H288.88C292.194 324 294.88 326.686 294.88 330V341C294.88 344.314 292.194 347 288.88 347H255C255 347 257.353 346.246 257.88 342.038C258.17 339.717 258.14 334.469 258.055 330.228Z" fill="#F9FAFB"/>
</g>
<g opacity="0.870703" filter="url(#filter2_d)">
<path d="M298.055 806.228C297.987 802.826 300.71 800 304.113 800H328.88C332.194 800 334.88 802.686 334.88 806V817C334.88 820.314 332.194 823 328.88 823H295C295 823 297.353 822.246 297.88 818.038C298.17 815.717 298.14 810.469 298.055 806.228Z" fill="#F9FAFB"/>
</g>
<g opacity="0.870703" filter="url(#filter3_d)">
<path d="M38.0552 698.228C37.9867 694.826 40.7095 692 44.1128 692H68.8799C72.1936 692 74.8799 694.686 74.8799 698V709C74.8799 712.314 72.1936 715 68.8799 715H35C35 715 37.3531 714.246 37.8799 710.038C38.1705 707.717 38.1405 702.469 38.0552 698.228Z" fill="#F9FAFB"/>
</g>
<g opacity="0.6707" filter="url(#filter4_d)">
<path d="M318.055 615.228C317.987 611.826 320.71 609 324.113 609H348.88C352.194 609 354.88 611.686 354.88 615V626C354.88 629.314 352.194 632 348.88 632H315C315 632 317.353 631.246 317.88 627.038C318.17 624.717 318.14 619.469 318.055 615.228Z" fill="#F9FAFB"/>
</g>
<g opacity="0.5707" filter="url(#filter5_d)">
<path d="M131.055 55.2282C130.987 51.8256 133.71 49 137.113 49H161.88C165.194 49 167.88 51.6863 167.88 55V66C167.88 69.3137 165.194 72 161.88 72H128C128 72 130.353 71.2456 130.88 67.0381C131.17 64.7173 131.14 59.4687 131.055 55.2282Z" fill="#F9FAFB"/>
</g>
<path fill-rule="evenodd" clip-rule="evenodd" d="M188 721C210.091 721 228 703.091 228 681C228 658.909 210.091 641 188 641C165.909 641 148 658.909 148 681C148 703.091 165.909 721 188 721Z" fill="#FF5722"/>
<path fill-rule="evenodd" clip-rule="evenodd" d="M188 720.5C209.815 720.5 227.5 702.815 227.5 681C227.5 659.185 209.815 641.5 188 641.5C166.185 641.5 148.5 659.185 148.5 681C148.5 702.815 166.185 720.5 188 720.5ZM228 681C228 703.091 210.091 721 188 721C165.909 721 148 703.091 148 681C148 658.909 165.909 641 188 641C210.091 641 228 658.909 228 681Z" fill="url(#paint1_linear)"/>
<path fill-rule="evenodd" clip-rule="evenodd" d="M188 720.5C209.815 720.5 227.5 702.815 227.5 681C227.5 659.185 209.815 641.5 188 641.5C166.185 641.5 148.5 659.185 148.5 681C148.5 702.815 166.185 720.5 188 720.5ZM228 681C228 703.091 210.091 721 188 721C165.909 721 148 703.091 148 681C148 658.909 165.909 641 188 641C210.091 641 228 658.909 228 681Z" fill="url(#paint2_linear)"/>
<path fill-rule="evenodd" clip-rule="evenodd" d="M197.472 674.021C200.607 674.927 202.661 676.131 203.761 677.231C204.861 678.331 204.906 678.917 204.887 679.446C204.868 679.976 204.393 681.975 204.325 682.328C204.256 682.681 203.728 683.761 202.498 683.54C201.268 683.319 198.862 682.812 197.239 682.499C194.841 682.156 195.058 680.736 194.962 680.111C194.785 678.96 194.901 678.516 194.086 677.702C193.271 676.887 188.679 676.849 187.564 676.823C186.457 676.797 182.198 677.077 181.389 677.674C180.574 678.275 180.375 679.973 180.364 680.364C180.126 682.177 178.95 682.159 178.218 682.372C177.487 682.585 174.023 683.389 172.914 683.602C171.843 683.776 171.189 683.045 171.189 683.045C171.189 683.045 170.34 681.309 170.347 679.324C170.349 678.835 170.478 678.133 171.529 677.082C172.579 676.032 173.893 675.102 178.026 673.902C181.408 672.92 185.368 672.719 187.557 672.73C189.785 672.702 193.892 672.986 197.472 674.021Z" fill="white"/>
<mask id="mask0" mask-type="alpha" maskUnits="userSpaceOnUse" x="170" y="672" width="35" height="12">
<path fill-rule="evenodd" clip-rule="evenodd" d="M197.472 674.021C200.607 674.927 202.661 676.131 203.761 677.231C204.861 678.331 204.906 678.917 204.887 679.446C204.868 679.976 204.393 681.975 204.325 682.328C204.256 682.681 203.728 683.761 202.498 683.54C201.268 683.319 198.862 682.812 197.239 682.499C194.841 682.156 195.058 680.736 194.962 680.111C194.785 678.96 194.901 678.516 194.086 677.702C193.271 676.887 188.679 676.849 187.564 676.823C186.457 676.797 182.198 677.077 181.389 677.674C180.574 678.275 180.375 679.973 180.364 680.364C180.126 682.177 178.95 682.159 178.218 682.372C177.487 682.585 174.023 683.389 172.914 683.602C171.843 683.776 171.189 683.045 171.189 683.045C171.189 683.045 170.34 681.309 170.347 679.324C170.349 678.835 170.478 678.133 171.529 677.082C172.579 676.032 173.893 675.102 178.026 673.902C181.408 672.92 185.368 672.719 187.557 672.73C189.785 672.702 193.892 672.986 197.472 674.021Z" fill="white"/>
</mask>
<g mask="url(#mask0)">
</g>
<path d="M170.374 256.036C172.421 256.036 174.24 255.177 175.427 253.56C176.564 251.994 177.095 249.821 177.095 246.613C177.095 243.404 176.564 241.232 175.427 239.665C174.24 238.048 172.421 237.189 170.374 237.189C168.353 237.189 166.509 238.048 165.322 239.665C164.185 241.232 163.654 243.404 163.654 246.613C163.654 249.821 164.185 251.994 165.322 253.56C166.509 255.177 168.353 256.036 170.374 256.036ZM170.374 252.449C169.566 252.449 168.934 252.019 168.53 251.463C167.924 250.604 167.671 249.139 167.671 246.638C167.671 244.289 167.899 242.672 168.53 241.762C168.934 241.181 169.566 240.777 170.374 240.777C171.208 240.777 171.814 241.181 172.219 241.762C172.876 242.697 173.078 244.289 173.078 246.588C173.078 249.164 172.825 250.604 172.219 251.463C171.814 252.019 171.208 252.449 170.374 252.449Z" fill="white"/>
<path d="M182.171 247.396C183.358 247.396 184.344 246.411 184.344 245.223C184.344 244.036 183.358 243.051 182.171 243.051C180.983 243.051 179.998 244.036 179.998 245.223C179.998 246.411 180.983 247.396 182.171 247.396ZM179.998 253.864C179.998 255.051 180.983 256.036 182.171 256.036C183.358 256.036 184.344 255.051 184.344 253.864C184.344 252.676 183.358 251.691 182.171 251.691C180.983 251.691 179.998 252.676 179.998 253.864Z" fill="white"/>
<path d="M193.961 256.036C196.007 256.036 197.826 255.177 199.013 253.56C200.15 251.994 200.681 249.821 200.681 246.613C200.681 243.404 200.15 241.232 199.013 239.665C197.826 238.048 196.007 237.189 193.961 237.189C191.939 237.189 190.095 238.048 188.908 239.665C187.771 241.232 187.24 243.404 187.24 246.613C187.24 249.821 187.771 251.994 188.908 253.56C190.095 255.177 191.939 256.036 193.961 256.036ZM193.961 252.449C193.152 252.449 192.52 252.019 192.116 251.463C191.51 250.604 191.257 249.139 191.257 246.638C191.257 244.289 191.485 242.672 192.116 241.762C192.52 241.181 193.152 240.777 193.961 240.777C194.794 240.777 195.401 241.181 195.805 241.762C196.462 242.697 196.664 244.289 196.664 246.588C196.664 249.164 196.411 250.604 195.805 251.463C195.401 252.019 194.794 252.449 193.961 252.449Z" fill="white"/>
<path d="M207.247 255.758H211.264V237.189L203.534 239.994V243.632L207.247 242.293V255.758Z" fill="white"/>
</g>
<defs>
<filter id="filter0_d" x="347" y="200" width="55.8799" height="39" filterUnits="userSpaceOnUse" color-interpolation-filters="sRGB">
<feFlood flood-opacity="0" result="BackgroundImageFix"/>
<feColorMatrix in="SourceAlpha" type="matrix" values="0 0 0 0 0 0 0 0 0 0 0 0 0 0 0 0 0 0 127 0"/>
<feOffset dy="2"/>
<feGaussianBlur stdDeviation="4"/>
<feColorMatrix type="matrix" values="0 0 0 0 0.466119 0 0 0 0 0.463443 0 0 0 0 0.463443 0 0 0 0.5 0"/>
<feBlend mode="normal" in2="BackgroundImageFix" result="effect1_dropShadow"/>
<feBlend mode="normal" in="SourceGraphic" in2="effect1_dropShadow" result="shape"/>
</filter>
<filter id="filter1_d" x="247" y="318" width="55.8799" height="39" filterUnits="userSpaceOnUse" color-interpolation-filters="sRGB">
<feFlood flood-opacity="0" result="BackgroundImageFix"/>
<feColorMatrix in="SourceAlpha" type="matrix" values="0 0 0 0 0 0 0 0 0 0 0 0 0 0 0 0 0 0 127 0"/>
<feOffset dy="2"/>
<feGaussianBlur stdDeviation="4"/>
<feColorMatrix type="matrix" values="0 0 0 0 0.466119 0 0 0 0 0.463443 0 0 0 0 0.463443 0 0 0 0.5 0"/>
<feBlend mode="normal" in2="BackgroundImageFix" result="effect1_dropShadow"/>
<feBlend mode="normal" in="SourceGraphic" in2="effect1_dropShadow" result="shape"/>
</filter>
<filter id="filter2_d" x="287" y="794" width="55.8799" height="39" filterUnits="userSpaceOnUse" color-interpolation-filters="sRGB">
<feFlood flood-opacity="0" result="BackgroundImageFix"/>
<feColorMatrix in="SourceAlpha" type="matrix" values="0 0 0 0 0 0 0 0 0 0 0 0 0 0 0 0 0 0 127 0"/>
<feOffset dy="2"/>
<feGaussianBlur stdDeviation="4"/>
<feColorMatrix type="matrix" values="0 0 0 0 0.466119 0 0 0 0 0.463443 0 0 0 0 0.463443 0 0 0 0.5 0"/>
<feBlend mode="normal" in2="BackgroundImageFix" result="effect1_dropShadow"/>
<feBlend mode="normal" in="SourceGraphic" in2="effect1_dropShadow" result="shape"/>
</filter>
<filter id="filter3_d" x="27" y="686" width="55.8799" height="39" filterUnits="userSpaceOnUse" color-interpolation-filters="sRGB">
<feFlood flood-opacity="0" result="BackgroundImageFix"/>
<feColorMatrix in="SourceAlpha" type="matrix" values="0 0 0 0 0 0 0 0 0 0 0 0 0 0 0 0 0 0 127 0"/>
<feOffset dy="2"/>
<feGaussianBlur stdDeviation="4"/>
<feColorMatrix type="matrix" values="0 0 0 0 0.466119 0 0 0 0 0.463443 0 0 0 0 0.463443 0 0 0 0.5 0"/>
<feBlend mode="normal" in2="BackgroundImageFix" result="effect1_dropShadow"/>
<feBlend mode="normal" in="SourceGraphic" in2="effect1_dropShadow" result="shape"/>
</filter>
<filter id="filter4_d" x="307" y="603" width="55.8799" height="39" filterUnits="userSpaceOnUse" color-interpolation-filters="sRGB">
<feFlood flood-opacity="0" result="BackgroundImageFix"/>
<feColorMatrix in="SourceAlpha" type="matrix" values="0 0 0 0 0 0 0 0 0 0 0 0 0 0 0 0 0 0 127 0"/>
<feOffset dy="2"/>
<feGaussianBlur stdDeviation="4"/>
<feColorMatrix type="matrix" values="0 0 0 0 0.466119 0 0 0 0 0.463443 0 0 0 0 0.463443 0 0 0 0.5 0"/>
<feBlend mode="normal" in2="BackgroundImageFix" result="effect1_dropShadow"/>
<feBlend mode="normal" in="SourceGraphic" in2="effect1_dropShadow" result="shape"/>
</filter>
<filter id="filter5_d" x="120" y="43" width="55.8799" height="39" filterUnits="userSpaceOnUse" color-interpolation-filters="sRGB">
<feFlood flood-opacity="0" result="BackgroundImageFix"/>
<feColorMatrix in="SourceAlpha" type="matrix" values="0 0 0 0 0 0 0 0 0 0 0 0 0 0 0 0 0 0 127 0"/>
<feOffset dy="2"/>
<feGaussianBlur stdDeviation="4"/>
<feColorMatrix type="matrix" values="0 0 0 0 0.466119 0 0 0 0 0.463443 0 0 0 0 0.463443 0 0 0 0.5 0"/>
<feBlend mode="normal" in2="BackgroundImageFix" result="effect1_dropShadow"/>
<feBlend mode="normal" in="SourceGraphic" in2="effect1_dropShadow" result="shape"/>
</filter>
<linearGradient id="paint0_linear" x1="104.403" y1="133.795" x2="564.098" y2="495.531" gradientUnits="userSpaceOnUse">
<stop stop-color="#05A8FF"/>
<stop offset="1" stop-color="#24BDFF"/>
</linearGradient>
<linearGradient id="paint1_linear" x1="148.391" y1="641" x2="148.391" y2="720.217" gradientUnits="userSpaceOnUse">
<stop stop-opacity="0.01"/>
<stop offset="0.8" stop-opacity="0.02"/>
<stop offset="1" stop-opacity="0.04"/>
</linearGradient>
<linearGradient id="paint2_linear" x1="148" y1="641" x2="148" y2="721" gradientUnits="userSpaceOnUse">
<stop stop-color="white" stop-opacity="0.12"/>
<stop offset="0.2" stop-color="white" stop-opacity="0.06"/>
<stop offset="1" stop-color="white" stop-opacity="0.01"/>
</linearGradient>
<clipPath id="clip0">
<rect width="375" height="812" fill="white"/>
</clipPath>
</defs>
</svg>
