<svg width="375" height="812" viewBox="0 0 375 812" fill="none" xmlns="http://www.w3.org/2000/svg">
<g clip-path="url(#clip0)">
<rect width="375" height="812" fill="url(#paint0_linear)"/>
<path opacity="0.5" d="M441 -25C441 238.992 223.187 453 -45.5 453C-314.187 453 -532 238.992 -532 -25C-532 -288.992 -314.187 -503 -45.5 -503C223.187 -503 441 -288.992 441 -25Z" fill="#33C2FF"/>
<path d="M63.168 406H85.056C95.208 406 109.896 403.84 109.896 390.088C109.896 385.408 108.168 380.512 100.608 377.704V377.56C106.368 375.544 108.456 371.512 108.456 367.12C108.456 354.664 91.896 353.872 84.048 353.872H63.168V406ZM84.624 375.04V368.56H85.416C88.08 368.56 89.448 369.928 89.448 371.8C89.448 373.6 88.152 375.04 85.416 375.04H84.624ZM84.624 392.032V383.968H85.56C88.872 383.968 90.528 385.768 90.528 388C90.528 390.232 88.944 392.032 85.56 392.032H84.624Z" fill="white"/>
<path d="M124.496 406H162.08V387.496H145.952V353.872H124.496V406Z" fill="white"/>
<path d="M174.932 406H196.244L198.26 399.16H210.212L212.012 406H235.196L215.324 353.872H194.804L174.932 406ZM202.004 386.056L204.308 375.472H204.452L206.756 386.056H202.004Z" fill="white"/>
<path d="M248.77 406H270.226V386.992H281.026V406H302.482V353.872H281.026V370H270.226V353.872H248.77V406Z" fill="white"/>
<g opacity="0.870703" filter="url(#filter0_d)">
<path d="M358.055 212.228C357.987 208.826 360.71 206 364.113 206H388.88C392.194 206 394.88 208.686 394.88 212V223C394.88 226.314 392.194 229 388.88 229H355C355 229 357.353 228.246 357.88 224.038C358.17 221.717 358.14 216.469 358.055 212.228Z" fill="#F9FAFB"/>
</g>
<g opacity="0.870703" filter="url(#filter1_d)">
<path d="M171.055 235.228C170.987 231.826 173.71 229 177.113 229H201.88C205.194 229 207.88 231.686 207.88 235V246C207.88 249.314 205.194 252 201.88 252H168C168 252 170.353 251.246 170.88 247.038C171.17 244.717 171.14 239.469 171.055 235.228Z" fill="#F9FAFB"/>
</g>
<g opacity="0.870703" filter="url(#filter2_d)">
<path d="M298.055 806.228C297.987 802.826 300.71 800 304.113 800H328.88C332.194 800 334.88 802.686 334.88 806V817C334.88 820.314 332.194 823 328.88 823H295C295 823 297.353 822.246 297.88 818.038C298.17 815.717 298.14 810.469 298.055 806.228Z" fill="#F9FAFB"/>
</g>
<g opacity="0.870703" filter="url(#filter3_d)">
<path d="M38.0552 698.228C37.9867 694.826 40.7095 692 44.1128 692H68.8799C72.1936 692 74.8799 694.686 74.8799 698V709C74.8799 712.314 72.1936 715 68.8799 715H35C35 715 37.3531 714.246 37.8799 710.038C38.1705 707.717 38.1405 702.469 38.0552 698.228Z" fill="#F9FAFB"/>
</g>
<g opacity="0.6707" filter="url(#filter4_d)">
<path d="M318.055 615.228C317.987 611.826 320.71 609 324.113 609H348.88C352.194 609 354.88 611.686 354.88 615V626C354.88 629.314 352.194 632 348.88 632H315C315 632 317.353 631.246 317.88 627.038C318.17 624.717 318.14 619.469 318.055 615.228Z" fill="#F9FAFB"/>
</g>
<g opacity="0.870703" filter="url(#filter5_d)">
<path d="M58.0552 144.228C57.9867 140.826 60.7095 138 64.1128 138H88.8799C92.1936 138 94.8799 140.686 94.8799 144V155C94.8799 158.314 92.1936 161 88.8799 161H55C55 161 57.3531 160.246 57.8799 156.038C58.1705 153.717 58.1405 148.469 58.0552 144.228Z" fill="#F9FAFB"/>
</g>
<g opacity="0.5707" filter="url(#filter6_d)">
<path d="M131.055 55.2282C130.987 51.8256 133.71 49 137.113 49H161.88C165.194 49 167.88 51.6863 167.88 55V66C167.88 69.3137 165.194 72 161.88 72H128C128 72 130.353 71.2456 130.88 67.0381C131.17 64.7173 131.14 59.4687 131.055 55.2282Z" fill="#F9FAFB"/>
</g>
<g filter="url(#filter7_d)">
<path d="M68 514C68 509.582 71.5817 506 76 506H299C303.418 506 307 509.582 307 514V548C307 552.418 303.418 556 299 556H76C71.5817 556 68 552.418 68 548V514Z" fill="#0073CB"/>
</g>
<path d="M126.522 536H130.607C132.07 536 133.248 535.829 134.198 535.468C135.946 534.803 136.82 533.549 136.82 531.858C136.82 530.167 135.946 529.027 134.198 528.514V528.476C135.452 528.02 136.269 527.165 136.269 525.683C136.269 524.543 135.775 523.612 134.711 523.023C133.78 522.51 132.393 522.244 130.531 522.244H126.522V536ZM129.543 527.944V524.828H130.474C131.272 524.828 132.108 524.885 132.602 525.17C133.115 525.455 133.248 525.93 133.248 526.367C133.248 527.488 132.374 527.944 131.139 527.944H129.543ZM129.543 533.416V530.015H131.348C132.963 530.015 133.799 530.566 133.799 531.763C133.799 532.371 133.59 532.884 132.944 533.15C132.488 533.34 131.747 533.416 130.664 533.416H129.543Z" fill="white"/>
<path d="M147.32 532.086C147.358 531.839 147.377 531.421 147.377 531.098C147.377 527.963 145.211 526.443 142.912 526.443C140.328 526.443 138.01 528.381 138.01 531.364C138.01 534.29 140.233 536.209 143.311 536.209C144.546 536.209 145.952 535.924 146.864 535.354V532.941C145.876 533.606 144.736 533.967 143.691 533.967C142.361 533.967 141.297 533.378 140.974 532.086H147.32ZM140.955 530.262C141.202 529.198 141.981 528.647 142.874 528.647C143.805 528.647 144.546 529.255 144.717 530.262H140.955Z" fill="white"/>
<path d="M150.01 539.705C150.827 540.104 152.005 540.389 153.202 540.389C156.185 540.389 158.199 538.755 158.199 535.81V526.576L155.938 526.975C155.273 526.652 154.494 526.443 153.601 526.443C150.694 526.443 148.737 528.59 148.737 531.326C148.737 534.157 150.827 535.905 153.088 535.905C153.867 535.905 154.722 535.677 155.273 535.278L155.311 535.297V535.81C155.311 537.197 154.437 537.919 153.031 537.919C152.043 537.919 150.96 537.558 150.01 536.969V539.705ZM155.311 533.15C154.912 533.397 154.361 533.549 153.848 533.549C152.499 533.549 151.663 532.58 151.663 531.212C151.663 529.996 152.385 528.894 153.886 528.894C154.399 528.894 154.95 529.046 155.311 529.236V533.15Z" fill="white"/>
<path d="M160.396 523.688C160.396 524.6 161.156 525.341 162.068 525.341C162.98 525.341 163.74 524.6 163.74 523.688C163.74 522.776 162.98 522.035 162.068 522.035C161.156 522.035 160.396 522.776 160.396 523.688ZM160.624 536H163.512V526.652H160.624V536Z" fill="white"/>
<path d="M165.912 536H168.8V529.711C169.313 529.312 170.016 528.932 170.757 528.932C171.156 528.932 171.498 529.046 171.745 529.331C171.973 529.597 172.068 529.939 172.068 530.642V536H174.956V530.167C174.956 528.818 174.709 528.001 174.139 527.393C173.55 526.785 172.676 526.443 171.688 526.443C170.51 526.443 169.522 526.937 168.8 527.526L168.762 527.507V526.652H165.912V536Z" fill="white"/>
<path d="M185.191 536H188.231L193.475 522.244H190.378L188.117 528.267C187.642 529.54 187.186 530.775 186.749 532.029H186.711C186.293 530.794 185.837 529.521 185.381 528.286L183.177 522.244H179.928L185.191 536Z" fill="white"/>
<path d="M201.76 532.086C201.798 531.839 201.817 531.421 201.817 531.098C201.817 527.963 199.651 526.443 197.352 526.443C194.768 526.443 192.45 528.381 192.45 531.364C192.45 534.29 194.673 536.209 197.751 536.209C198.986 536.209 200.392 535.924 201.304 535.354V532.941C200.316 533.606 199.176 533.967 198.131 533.967C196.801 533.967 195.737 533.378 195.414 532.086H201.76ZM195.395 530.262C195.642 529.198 196.421 528.647 197.314 528.647C198.245 528.647 198.986 529.255 199.157 530.262H195.395Z" fill="white"/>
<path d="M203.689 536H206.577V529.711C207.09 529.312 207.793 528.932 208.534 528.932C208.933 528.932 209.275 529.046 209.522 529.331C209.75 529.597 209.845 529.939 209.845 530.642V536H212.733V530.167C212.733 528.818 212.486 528.001 211.916 527.393C211.327 526.785 210.453 526.443 209.465 526.443C208.287 526.443 207.299 526.937 206.577 527.526L206.539 527.507V526.652H203.689V536Z" fill="white"/>
<path d="M221.143 533.397C220.763 533.587 220.231 533.777 219.756 533.777C218.882 533.777 218.673 533.093 218.673 532.181V529.046H221.143V526.652H218.673V523.726L215.785 524.22V526.652H214.265V529.046H215.785V532.485C215.785 533.967 216.108 534.746 216.602 535.278C217.191 535.905 218.084 536.209 219.034 536.209C219.851 536.209 220.706 535.981 221.143 535.696V533.397Z" fill="white"/>
<path d="M222.647 523.688C222.647 524.6 223.407 525.341 224.319 525.341C225.231 525.341 225.991 524.6 225.991 523.688C225.991 522.776 225.231 522.035 224.319 522.035C223.407 522.035 222.647 522.776 222.647 523.688ZM222.875 536H225.763V526.652H222.875V536Z" fill="white"/>
<path d="M228.163 536H231.051V529.711C231.564 529.312 232.267 528.932 233.008 528.932C233.407 528.932 233.749 529.046 233.996 529.331C234.224 529.597 234.319 529.939 234.319 530.642V536H237.207V530.167C237.207 528.818 236.96 528.001 236.39 527.393C235.801 526.785 234.927 526.443 233.939 526.443C232.761 526.443 231.773 526.937 231.051 527.526L231.013 527.507V526.652H228.163V536Z" fill="white"/>
<path d="M240.315 539.705C241.132 540.104 242.31 540.389 243.507 540.389C246.49 540.389 248.504 538.755 248.504 535.81V526.576L246.243 526.975C245.578 526.652 244.799 526.443 243.906 526.443C240.999 526.443 239.042 528.59 239.042 531.326C239.042 534.157 241.132 535.905 243.393 535.905C244.172 535.905 245.027 535.677 245.578 535.278L245.616 535.297V535.81C245.616 537.197 244.742 537.919 243.336 537.919C242.348 537.919 241.265 537.558 240.315 536.969V539.705ZM245.616 533.15C245.217 533.397 244.666 533.549 244.153 533.549C242.804 533.549 241.968 532.58 241.968 531.212C241.968 529.996 242.69 528.894 244.191 528.894C244.704 528.894 245.255 529.046 245.616 529.236V533.15Z" fill="white"/>
</g>
<defs>
<filter id="filter0_d" x="347" y="200" width="55.8799" height="39" filterUnits="userSpaceOnUse" color-interpolation-filters="sRGB">
<feFlood flood-opacity="0" result="BackgroundImageFix"/>
<feColorMatrix in="SourceAlpha" type="matrix" values="0 0 0 0 0 0 0 0 0 0 0 0 0 0 0 0 0 0 127 0"/>
<feOffset dy="2"/>
<feGaussianBlur stdDeviation="4"/>
<feColorMatrix type="matrix" values="0 0 0 0 0.466119 0 0 0 0 0.463443 0 0 0 0 0.463443 0 0 0 0.5 0"/>
<feBlend mode="normal" in2="BackgroundImageFix" result="effect1_dropShadow"/>
<feBlend mode="normal" in="SourceGraphic" in2="effect1_dropShadow" result="shape"/>
</filter>
<filter id="filter1_d" x="160" y="223" width="55.8799" height="39" filterUnits="userSpaceOnUse" color-interpolation-filters="sRGB">
<feFlood flood-opacity="0" result="BackgroundImageFix"/>
<feColorMatrix in="SourceAlpha" type="matrix" values="0 0 0 0 0 0 0 0 0 0 0 0 0 0 0 0 0 0 127 0"/>
<feOffset dy="2"/>
<feGaussianBlur stdDeviation="4"/>
<feColorMatrix type="matrix" values="0 0 0 0 0.466119 0 0 0 0 0.463443 0 0 0 0 0.463443 0 0 0 0.5 0"/>
<feBlend mode="normal" in2="BackgroundImageFix" result="effect1_dropShadow"/>
<feBlend mode="normal" in="SourceGraphic" in2="effect1_dropShadow" result="shape"/>
</filter>
<filter id="filter2_d" x="287" y="794" width="55.8799" height="39" filterUnits="userSpaceOnUse" color-interpolation-filters="sRGB">
<feFlood flood-opacity="0" result="BackgroundImageFix"/>
<feColorMatrix in="SourceAlpha" type="matrix" values="0 0 0 0 0 0 0 0 0 0 0 0 0 0 0 0 0 0 127 0"/>
<feOffset dy="2"/>
<feGaussianBlur stdDeviation="4"/>
<feColorMatrix type="matrix" values="0 0 0 0 0.466119 0 0 0 0 0.463443 0 0 0 0 0.463443 0 0 0 0.5 0"/>
<feBlend mode="normal" in2="BackgroundImageFix" result="effect1_dropShadow"/>
<feBlend mode="normal" in="SourceGraphic" in2="effect1_dropShadow" result="shape"/>
</filter>
<filter id="filter3_d" x="27" y="686" width="55.8799" height="39" filterUnits="userSpaceOnUse" color-interpolation-filters="sRGB">
<feFlood flood-opacity="0" result="BackgroundImageFix"/>
<feColorMatrix in="SourceAlpha" type="matrix" values="0 0 0 0 0 0 0 0 0 0 0 0 0 0 0 0 0 0 127 0"/>
<feOffset dy="2"/>
<feGaussianBlur stdDeviation="4"/>
<feColorMatrix type="matrix" values="0 0 0 0 0.466119 0 0 0 0 0.463443 0 0 0 0 0.463443 0 0 0 0.5 0"/>
<feBlend mode="normal" in2="BackgroundImageFix" result="effect1_dropShadow"/>
<feBlend mode="normal" in="SourceGraphic" in2="effect1_dropShadow" result="shape"/>
</filter>
<filter id="filter4_d" x="307" y="603" width="55.8799" height="39" filterUnits="userSpaceOnUse" color-interpolation-filters="sRGB">
<feFlood flood-opacity="0" result="BackgroundImageFix"/>
<feColorMatrix in="SourceAlpha" type="matrix" values="0 0 0 0 0 0 0 0 0 0 0 0 0 0 0 0 0 0 127 0"/>
<feOffset dy="2"/>
<feGaussianBlur stdDeviation="4"/>
<feColorMatrix type="matrix" values="0 0 0 0 0.466119 0 0 0 0 0.463443 0 0 0 0 0.463443 0 0 0 0.5 0"/>
<feBlend mode="normal" in2="BackgroundImageFix" result="effect1_dropShadow"/>
<feBlend mode="normal" in="SourceGraphic" in2="effect1_dropShadow" result="shape"/>
</filter>
<filter id="filter5_d" x="47" y="132" width="55.8799" height="39" filterUnits="userSpaceOnUse" color-interpolation-filters="sRGB">
<feFlood flood-opacity="0" result="BackgroundImageFix"/>
<feColorMatrix in="SourceAlpha" type="matrix" values="0 0 0 0 0 0 0 0 0 0 0 0 0 0 0 0 0 0 127 0"/>
<feOffset dy="2"/>
<feGaussianBlur stdDeviation="4"/>
<feColorMatrix type="matrix" values="0 0 0 0 0.466119 0 0 0 0 0.463443 0 0 0 0 0.463443 0 0 0 0.5 0"/>
<feBlend mode="normal" in2="BackgroundImageFix" result="effect1_dropShadow"/>
<feBlend mode="normal" in="SourceGraphic" in2="effect1_dropShadow" result="shape"/>
</filter>
<filter id="filter6_d" x="120" y="43" width="55.8799" height="39" filterUnits="userSpaceOnUse" color-interpolation-filters="sRGB">
<feFlood flood-opacity="0" result="BackgroundImageFix"/>
<feColorMatrix in="SourceAlpha" type="matrix" values="0 0 0 0 0 0 0 0 0 0 0 0 0 0 0 0 0 0 127 0"/>
<feOffset dy="2"/>
<feGaussianBlur stdDeviation="4"/>
<feColorMatrix type="matrix" values="0 0 0 0 0.466119 0 0 0 0 0.463443 0 0 0 0 0.463443 0 0 0 0.5 0"/>
<feBlend mode="normal" in2="BackgroundImageFix" result="effect1_dropShadow"/>
<feBlend mode="normal" in="SourceGraphic" in2="effect1_dropShadow" result="shape"/>
</filter>
<filter id="filter7_d" x="59" y="500" width="257" height="68" filterUnits="userSpaceOnUse" color-interpolation-filters="sRGB">
<feFlood flood-opacity="0" result="BackgroundImageFix"/>
<feColorMatrix in="SourceAlpha" type="matrix" values="0 0 0 0 0 0 0 0 0 0 0 0 0 0 0 0 0 0 127 0"/>
<feOffset dy="3"/>
<feGaussianBlur stdDeviation="4.5"/>
<feColorMatrix type="matrix" values="0 0 0 0 0 0 0 0 0 0 0 0 0 0 0 0 0 0 0.5 0"/>
<feBlend mode="normal" in2="BackgroundImageFix" result="effect1_dropShadow"/>
<feBlend mode="normal" in="SourceGraphic" in2="effect1_dropShadow" result="shape"/>
</filter>
<linearGradient id="paint0_linear" x1="104.403" y1="133.795" x2="564.098" y2="495.531" gradientUnits="userSpaceOnUse">
<stop stop-color="#05A8FF"/>
<stop offset="1" stop-color="#24BDFF"/>
</linearGradient>
<clipPath id="clip0">
<rect width="375" height="812" fill="white"/>
</clipPath>
</defs>
</svg>
