<svg width="375" height="812" viewBox="0 0 375 812" fill="none" xmlns="http://www.w3.org/2000/svg">
<g clip-path="url(#clip0)">
<rect width="375" height="812" fill="url(#paint0_linear)"/>
<path opacity="0.5" d="M1101 458C1101 721.992 883.187 936 614.5 936C345.813 936 128 721.992 128 458C128 194.008 345.813 -20 614.5 -20C883.187 -20 1101 194.008 1101 458Z" fill="#33C2FF"/>
<path d="M48.8195 427.08C50.0795 427.84 51.7795 428.22 53.1795 428.22C56.0795 428.22 58.0195 426.66 58.0195 424.02C58.0195 421.26 55.9395 420.42 53.8395 419.82C52.0795 419.32 50.3995 419.02 50.3995 417.22C50.3995 415.74 51.5395 415.04 53.1595 415.04C54.3995 415.04 56.0395 415.46 57.3595 416.38V414.38C56.1995 413.64 54.5595 413.3 53.1995 413.3C50.3795 413.3 48.5195 414.78 48.5195 417.34C48.5195 419.98 50.4995 420.82 52.5395 421.4C54.4395 421.94 56.1395 422.26 56.1395 424.12C56.1395 425.7 54.9195 426.48 53.1995 426.48C51.9195 426.48 50.1795 426.04 48.8195 425V427.08Z" fill="white"/>
<path d="M62.1905 427.7L62.2305 427.68C62.8505 427.98 63.6705 428.22 64.6505 428.22C67.4905 428.22 69.7905 426.2 69.7905 423.04C69.7905 420 67.6705 417.94 65.0305 417.94C63.8705 417.94 62.9105 418.34 62.2305 418.82L62.1905 418.8V418.16H60.3905V432.4H62.1905V427.7ZM62.1905 425.96V420.46C62.8905 419.88 63.8505 419.56 64.7305 419.56C66.6905 419.56 67.9705 421.18 67.9705 423.18C67.9705 425.2 66.6505 426.64 64.6905 426.64C63.7305 426.64 62.8105 426.3 62.1905 425.96Z" fill="white"/>
<path d="M80.925 423.6C80.965 423.36 80.985 423 80.985 422.7C80.985 419.62 78.905 417.94 76.505 417.94C73.865 417.94 71.605 419.98 71.605 423.08C71.605 426.18 73.885 428.22 76.925 428.22C78.205 428.22 79.565 427.86 80.445 427.3V425.38C79.545 426.06 78.405 426.6 77.045 426.6C75.105 426.6 73.665 425.54 73.405 423.6H80.925ZM76.465 419.56C77.645 419.56 79.085 420.22 79.245 422.18H73.445C73.765 420.36 75.165 419.56 76.465 419.56Z" fill="white"/>
<path d="M86.2745 428.22C87.5945 428.22 88.7345 427.66 89.2945 427.14H89.3345C89.7145 427.84 90.4545 428.18 91.2345 428.18C91.6145 428.18 91.9545 428.1 92.1945 428V426.5C92.0345 426.58 91.8145 426.64 91.6145 426.64C91.0745 426.64 90.8545 426.2 90.8545 425.6V421.42C90.8545 420.2 90.4545 419.36 89.8745 418.84C89.1745 418.2 88.1345 417.94 86.9345 417.94C85.4745 417.94 84.4145 418.32 83.6545 418.78V420.54C84.3945 420 85.4345 419.56 86.6745 419.56C87.5145 419.56 88.1145 419.76 88.4945 420.1C88.8745 420.46 89.0545 421 89.0545 421.72V422.54C88.4145 422.38 87.7145 422.28 86.9545 422.28C85.9345 422.28 84.9345 422.46 84.1945 422.94C83.4145 423.44 82.8945 424.24 82.8945 425.34C82.8945 426.3 83.2945 427.04 83.9345 427.52C84.5945 428.02 85.4745 428.22 86.2745 428.22ZM86.5945 426.62C85.5345 426.62 84.7145 426.14 84.7145 425.18C84.7145 424.02 85.9145 423.66 87.1345 423.66C87.7545 423.66 88.5145 423.76 89.0545 423.92V425.76C88.4545 426.24 87.5345 426.62 86.5945 426.62Z" fill="white"/>
<path d="M94.1991 428H95.9991V422.68L96.0391 422.66L100.859 428H103.219L98.2391 422.56L102.739 418.16H100.439L96.0391 422.5L95.9991 422.48V412.72H94.1991V428Z" fill="white"/>
<path d="M111.109 427.3C111.749 428.04 112.629 428.22 113.349 428.22C114.029 428.22 114.729 428.06 115.129 427.86V426.16C114.749 426.4 114.169 426.58 113.649 426.58C112.349 426.58 112.169 425.46 112.169 424.24V419.78H115.129V418.16H112.169V415.18L110.369 415.48V418.16H108.549V419.78H110.369V424.58C110.369 425.96 110.629 426.76 111.109 427.3Z" fill="white"/>
<path d="M116.468 423.08C116.468 425.98 118.688 428.22 121.668 428.22C124.648 428.22 126.868 425.98 126.868 423.08C126.868 420.18 124.648 417.94 121.668 417.94C118.688 417.94 116.468 420.18 116.468 423.08ZM118.268 423.08C118.268 421.1 119.708 419.58 121.668 419.58C123.628 419.58 125.068 421.1 125.068 423.08C125.068 425.06 123.628 426.58 121.668 426.58C119.708 426.58 118.268 425.06 118.268 423.08Z" fill="white"/>
<path d="M136.459 432.4L143.119 418.16H141.219L139.499 421.88C139.039 422.88 138.599 423.86 138.159 424.84H138.119C137.719 423.94 137.239 422.88 136.779 421.88L135.059 418.16H133.059L137.159 426.94L134.499 432.4H136.459Z" fill="white"/>
<path d="M143.695 423.08C143.695 425.98 145.915 428.22 148.895 428.22C151.875 428.22 154.095 425.98 154.095 423.08C154.095 420.18 151.875 417.94 148.895 417.94C145.915 417.94 143.695 420.18 143.695 423.08ZM145.495 423.08C145.495 421.1 146.935 419.58 148.895 419.58C150.855 419.58 152.295 421.1 152.295 423.08C152.295 425.06 150.855 426.58 148.895 426.58C146.935 426.58 145.495 425.06 145.495 423.08Z" fill="white"/>
<path d="M157.342 427.12C158.002 427.88 159.022 428.22 160.022 428.22C161.382 428.22 162.562 427.6 163.422 426.74L163.462 426.76V428H165.262V418.16H163.462V424.88C162.762 425.76 161.602 426.56 160.382 426.56C159.802 426.56 159.222 426.38 158.822 425.88C158.482 425.48 158.342 424.92 158.342 423.84V418.16H156.542V424.18C156.542 425.58 156.782 426.46 157.342 427.12Z" fill="white"/>
<path d="M168.418 428H170.218V421.6C170.838 420.54 171.778 419.86 173.118 419.86C173.338 419.86 173.578 419.88 173.818 419.94V418.16C173.598 418.1 173.378 418.08 173.178 418.08C172.018 418.08 170.938 418.66 170.258 419.62L170.218 419.6V418.16H168.418V428Z" fill="white"/>
<path d="M175.482 427.42C176.502 427.96 177.902 428.22 179.162 428.22C181.262 428.22 183.302 427.36 183.302 425.08C183.302 423.04 181.742 422.52 179.862 422.2C178.402 421.94 177.002 421.94 177.002 420.82C177.002 419.94 177.882 419.56 179.142 419.56C180.282 419.56 181.642 419.88 182.742 420.52V418.72C181.762 418.2 180.402 417.94 179.222 417.94C176.942 417.94 175.202 418.92 175.182 420.96C175.182 422.9 176.662 423.46 178.542 423.78C180.062 424.04 181.482 424.06 181.482 425.24C181.482 426.2 180.602 426.6 179.242 426.6C178.022 426.6 176.602 426.26 175.482 425.54V427.42Z" fill="white"/>
<path d="M194.382 423.6C194.422 423.36 194.442 423 194.442 422.7C194.442 419.62 192.362 417.94 189.962 417.94C187.322 417.94 185.062 419.98 185.062 423.08C185.062 426.18 187.342 428.22 190.382 428.22C191.662 428.22 193.022 427.86 193.902 427.3V425.38C193.002 426.06 191.862 426.6 190.502 426.6C188.562 426.6 187.122 425.54 186.862 423.6H194.382ZM189.922 419.56C191.102 419.56 192.542 420.22 192.702 422.18H186.902C187.222 420.36 188.622 419.56 189.922 419.56Z" fill="white"/>
<path d="M197.012 428H198.812V412.72H197.012V428Z" fill="white"/>
<path d="M202.473 428H204.273V419.78H206.792V418.16H204.273V416.02C204.273 414.98 204.492 414.14 205.732 414.14C206.112 414.14 206.753 414.22 207.133 414.32V412.7C206.793 412.6 206.212 412.5 205.652 412.5C204.812 412.5 203.973 412.72 203.353 413.32C202.653 414 202.473 415 202.473 416.28V418.16H200.913V419.78H202.473V428Z" fill="white"/>
<path d="M207.743 430.94H209.063L210.683 425.28H208.863L207.743 430.94Z" fill="white"/>
<path d="M219.426 428H221.226V419.78H223.746V418.16H221.226V416.02C221.226 414.98 221.446 414.14 222.686 414.14C223.066 414.14 223.706 414.22 224.086 414.32V412.7C223.746 412.6 223.166 412.5 222.606 412.5C221.766 412.5 220.926 412.72 220.306 413.32C219.606 414 219.426 415 219.426 416.28V418.16H217.866V419.78H219.426V428Z" fill="white"/>
<path d="M225.023 423.08C225.023 425.98 227.243 428.22 230.223 428.22C233.203 428.22 235.423 425.98 235.423 423.08C235.423 420.18 233.203 417.94 230.223 417.94C227.243 417.94 225.023 420.18 225.023 423.08ZM226.823 423.08C226.823 421.1 228.263 419.58 230.223 419.58C232.183 419.58 233.623 421.1 233.623 423.08C233.623 425.06 232.183 426.58 230.223 426.58C228.263 426.58 226.823 425.06 226.823 423.08Z" fill="white"/>
<path d="M237.91 428H239.71V421.6C240.33 420.54 241.27 419.86 242.61 419.86C242.83 419.86 243.07 419.88 243.31 419.94V418.16C243.09 418.1 242.87 418.08 242.67 418.08C241.51 418.08 240.43 418.66 239.75 419.62L239.71 419.6V418.16H237.91V428Z" fill="white"/>
<path d="M252.357 432.4L259.018 418.16H257.118L255.398 421.88C254.938 422.88 254.497 423.86 254.057 424.84H254.018C253.618 423.94 253.138 422.88 252.678 421.88L250.958 418.16H248.958L253.057 426.94L250.398 432.4H252.357Z" fill="white"/>
<path d="M259.593 423.08C259.593 425.98 261.813 428.22 264.793 428.22C267.773 428.22 269.993 425.98 269.993 423.08C269.993 420.18 267.773 417.94 264.793 417.94C261.813 417.94 259.593 420.18 259.593 423.08ZM261.393 423.08C261.393 421.1 262.833 419.58 264.793 419.58C266.753 419.58 268.193 421.1 268.193 423.08C268.193 425.06 266.753 426.58 264.793 426.58C262.833 426.58 261.393 425.06 261.393 423.08Z" fill="white"/>
<path d="M273.24 427.12C273.9 427.88 274.92 428.22 275.92 428.22C277.28 428.22 278.46 427.6 279.32 426.74L279.36 426.76V428H281.16V418.16H279.36V424.88C278.66 425.76 277.5 426.56 276.28 426.56C275.7 426.56 275.12 426.38 274.72 425.88C274.38 425.48 274.24 424.92 274.24 423.84V418.16H272.44V424.18C272.44 425.58 272.68 426.46 273.24 427.12Z" fill="white"/>
<path d="M284.316 428H286.116V421.6C286.736 420.54 287.676 419.86 289.016 419.86C289.236 419.86 289.476 419.88 289.716 419.94V418.16C289.496 418.1 289.276 418.08 289.076 418.08C287.916 418.08 286.836 418.66 286.156 419.62L286.116 419.6V418.16H284.316V428Z" fill="white"/>
<path d="M291.38 427.42C292.4 427.96 293.8 428.22 295.06 428.22C297.16 428.22 299.2 427.36 299.2 425.08C299.2 423.04 297.64 422.52 295.76 422.2C294.3 421.94 292.9 421.94 292.9 420.82C292.9 419.94 293.78 419.56 295.04 419.56C296.18 419.56 297.54 419.88 298.64 420.52V418.72C297.66 418.2 296.3 417.94 295.12 417.94C292.84 417.94 291.1 418.92 291.08 420.96C291.08 422.9 292.56 423.46 294.44 423.78C295.96 424.04 297.38 424.06 297.38 425.24C297.38 426.2 296.5 426.6 295.14 426.6C293.92 426.6 292.5 426.26 291.38 425.54V427.42Z" fill="white"/>
<path d="M310.28 423.6C310.32 423.36 310.34 423 310.34 422.7C310.34 419.62 308.26 417.94 305.86 417.94C303.22 417.94 300.96 419.98 300.96 423.08C300.96 426.18 303.24 428.22 306.28 428.22C307.56 428.22 308.92 427.86 309.8 427.3V425.38C308.9 426.06 307.76 426.6 306.4 426.6C304.46 426.6 303.02 425.54 302.76 423.6H310.28ZM305.82 419.56C307 419.56 308.44 420.22 308.6 422.18H302.8C303.12 420.36 304.52 419.56 305.82 419.56Z" fill="white"/>
<path d="M312.91 428H314.71V412.72H312.91V428Z" fill="white"/>
<path d="M318.371 428H320.171V419.78H322.691V418.16H320.171V416.02C320.171 414.98 320.391 414.14 321.631 414.14C322.011 414.14 322.651 414.22 323.031 414.32V412.7C322.691 412.6 322.111 412.5 321.551 412.5C320.711 412.5 319.871 412.72 319.251 413.32C318.551 414 318.371 415 318.371 416.28V418.16H316.811V419.78H318.371V428Z" fill="white"/>
<path d="M324.161 426.9C324.161 427.62 324.761 428.22 325.481 428.22C326.201 428.22 326.801 427.62 326.801 426.9C326.801 426.18 326.201 425.58 325.481 425.58C324.761 425.58 324.161 426.18 324.161 426.9Z" fill="white"/>
<path d="M72.4982 454H74.3982V441.24H79.2582V439.52H67.6382V441.24H72.4982V454Z" fill="white"/>
<path d="M81.4298 458.4L88.0898 444.16H86.1898L84.4698 447.88C84.0098 448.88 83.5698 449.86 83.1298 450.84H83.0898C82.6898 449.94 82.2098 448.88 81.7498 447.88L80.0298 444.16H78.0298L82.1298 452.94L79.4698 458.4H81.4298Z" fill="white"/>
<path d="M91.9659 453.7L92.0059 453.68C92.6259 453.98 93.4459 454.22 94.4259 454.22C97.2659 454.22 99.5659 452.2 99.5659 449.04C99.5659 446 97.4459 443.94 94.8059 443.94C93.6459 443.94 92.6859 444.34 92.0059 444.82L91.9659 444.8V444.16H90.1659V458.4H91.9659V453.7ZM91.9659 451.96V446.46C92.6659 445.88 93.6259 445.56 94.5059 445.56C96.4659 445.56 97.7459 447.18 97.7459 449.18C97.7459 451.2 96.4259 452.64 94.4659 452.64C93.5059 452.64 92.5859 452.3 91.9659 451.96Z" fill="white"/>
<path d="M110.7 449.6C110.74 449.36 110.76 449 110.76 448.7C110.76 445.62 108.68 443.94 106.28 443.94C103.64 443.94 101.38 445.98 101.38 449.08C101.38 452.18 103.66 454.22 106.7 454.22C107.98 454.22 109.34 453.86 110.22 453.3V451.38C109.32 452.06 108.18 452.6 106.82 452.6C104.88 452.6 103.44 451.54 103.18 449.6H110.7ZM106.24 445.56C107.42 445.56 108.86 446.22 109.02 448.18H103.22C103.54 446.36 104.94 445.56 106.24 445.56Z" fill="white"/>
<path d="M120.894 454.22C122.214 454.22 123.354 453.66 123.914 453.14H123.954C124.334 453.84 125.074 454.18 125.854 454.18C126.234 454.18 126.574 454.1 126.814 454V452.5C126.654 452.58 126.434 452.64 126.234 452.64C125.694 452.64 125.474 452.2 125.474 451.6V447.42C125.474 446.2 125.074 445.36 124.494 444.84C123.794 444.2 122.754 443.94 121.554 443.94C120.094 443.94 119.034 444.32 118.274 444.78V446.54C119.014 446 120.054 445.56 121.294 445.56C122.134 445.56 122.734 445.76 123.114 446.1C123.494 446.46 123.674 447 123.674 447.72V448.54C123.034 448.38 122.334 448.28 121.574 448.28C120.554 448.28 119.554 448.46 118.814 448.94C118.034 449.44 117.514 450.24 117.514 451.34C117.514 452.3 117.914 453.04 118.554 453.52C119.214 454.02 120.094 454.22 120.894 454.22ZM121.214 452.62C120.154 452.62 119.334 452.14 119.334 451.18C119.334 450.02 120.534 449.66 121.754 449.66C122.374 449.66 123.134 449.76 123.674 449.92V451.76C123.074 452.24 122.154 452.62 121.214 452.62Z" fill="white"/>
<path d="M128.818 454H130.618V447.26C131.318 446.32 132.578 445.62 133.698 445.62C134.238 445.62 134.878 445.78 135.278 446.26C135.598 446.64 135.738 447.24 135.738 448.26V454H137.538V447.92C137.538 446.4 137.258 445.64 136.718 445.02C136.098 444.32 135.178 443.94 134.098 443.94C132.718 443.94 131.518 444.56 130.658 445.42L130.618 445.4V444.16H128.818V454Z" fill="white"/>
<path d="M140.014 449.24C140.014 452.28 142.174 454.22 144.834 454.22C146.014 454.22 146.934 453.84 147.594 453.38L147.634 453.4V454H149.434V438.72H147.634V444.44L147.594 444.46C146.954 444.18 146.214 443.94 145.234 443.94C142.134 443.94 140.014 446.22 140.014 449.24ZM141.834 449.14C141.834 447.12 143.134 445.54 145.214 445.54C146.094 445.54 146.974 445.82 147.634 446.16V451.78C146.934 452.26 146.054 452.62 145.074 452.62C143.054 452.62 141.834 451.1 141.834 449.14Z" fill="white"/>
<path d="M157.151 453.42C158.171 453.96 159.571 454.22 160.831 454.22C162.931 454.22 164.971 453.36 164.971 451.08C164.971 449.04 163.411 448.52 161.531 448.2C160.071 447.94 158.671 447.94 158.671 446.82C158.671 445.94 159.551 445.56 160.811 445.56C161.951 445.56 163.311 445.88 164.411 446.52V444.72C163.431 444.2 162.071 443.94 160.891 443.94C158.611 443.94 156.871 444.92 156.851 446.96C156.851 448.9 158.331 449.46 160.211 449.78C161.731 450.04 163.151 450.06 163.151 451.24C163.151 452.2 162.271 452.6 160.911 452.6C159.691 452.6 158.271 452.26 157.151 451.54V453.42Z" fill="white"/>
<path d="M169.772 454H171.572L173.112 449.78C173.452 448.88 173.792 447.88 174.072 447.02H174.112C174.392 447.88 174.732 448.88 175.072 449.78L176.612 454H178.392L181.812 444.16H179.932L178.472 448.56C178.132 449.58 177.812 450.58 177.512 451.58H177.472C177.132 450.58 176.772 449.56 176.392 448.54L174.772 444.16H173.492L171.872 448.54C171.512 449.52 171.132 450.58 170.792 451.58H170.752C170.432 450.56 170.112 449.56 169.772 448.54L168.312 444.16H166.352L169.772 454Z" fill="white"/>
<path d="M183.556 440.78C183.556 441.48 184.116 442.04 184.816 442.04C185.516 442.04 186.076 441.48 186.076 440.78C186.076 440.08 185.516 439.52 184.816 439.52C184.116 439.52 183.556 440.08 183.556 440.78ZM183.916 454H185.716V444.16H183.916V454Z" fill="white"/>
<path d="M190.677 453.7L190.717 453.68C191.337 453.98 192.157 454.22 193.137 454.22C195.977 454.22 198.277 452.2 198.277 449.04C198.277 446 196.157 443.94 193.517 443.94C192.357 443.94 191.397 444.34 190.717 444.82L190.677 444.8V444.16H188.877V458.4H190.677V453.7ZM190.677 451.96V446.46C191.377 445.88 192.337 445.56 193.217 445.56C195.177 445.56 196.457 447.18 196.457 449.18C196.457 451.2 195.137 452.64 193.177 452.64C192.217 452.64 191.297 452.3 190.677 451.96Z" fill="white"/>
<path d="M209.411 449.6C209.451 449.36 209.471 449 209.471 448.7C209.471 445.62 207.391 443.94 204.991 443.94C202.351 443.94 200.091 445.98 200.091 449.08C200.091 452.18 202.371 454.22 205.411 454.22C206.691 454.22 208.051 453.86 208.931 453.3V451.38C208.031 452.06 206.891 452.6 205.531 452.6C203.591 452.6 202.151 451.54 201.891 449.6H209.411ZM204.951 445.56C206.131 445.56 207.571 446.22 207.731 448.18H201.931C202.251 446.36 203.651 445.56 204.951 445.56Z" fill="white"/>
<path d="M219.605 454.22C220.925 454.22 222.065 453.66 222.625 453.14H222.665C223.045 453.84 223.785 454.18 224.565 454.18C224.945 454.18 225.285 454.1 225.525 454V452.5C225.365 452.58 225.145 452.64 224.945 452.64C224.405 452.64 224.185 452.2 224.185 451.6V447.42C224.185 446.2 223.785 445.36 223.205 444.84C222.505 444.2 221.465 443.94 220.265 443.94C218.805 443.94 217.745 444.32 216.985 444.78V446.54C217.725 446 218.765 445.56 220.005 445.56C220.845 445.56 221.445 445.76 221.825 446.1C222.205 446.46 222.385 447 222.385 447.72V448.54C221.745 448.38 221.045 448.28 220.285 448.28C219.265 448.28 218.265 448.46 217.525 448.94C216.745 449.44 216.225 450.24 216.225 451.34C216.225 452.3 216.625 453.04 217.265 453.52C217.925 454.02 218.805 454.22 219.605 454.22ZM219.925 452.62C218.865 452.62 218.045 452.14 218.045 451.18C218.045 450.02 219.245 449.66 220.465 449.66C221.085 449.66 221.845 449.76 222.385 449.92V451.76C221.785 452.24 220.865 452.62 219.925 452.62Z" fill="white"/>
<path d="M229.303 454H231.103L232.643 449.78C232.983 448.88 233.323 447.88 233.603 447.02H233.643C233.923 447.88 234.263 448.88 234.603 449.78L236.143 454H237.923L241.343 444.16H239.463L238.003 448.56C237.663 449.58 237.343 450.58 237.043 451.58H237.003C236.663 450.58 236.303 449.56 235.923 448.54L234.303 444.16H233.023L231.403 448.54C231.043 449.52 230.663 450.58 230.323 451.58H230.283C229.963 450.56 229.643 449.56 229.303 448.54L227.843 444.16H225.883L229.303 454Z" fill="white"/>
<path d="M245.698 454.22C247.018 454.22 248.158 453.66 248.718 453.14H248.758C249.138 453.84 249.878 454.18 250.658 454.18C251.038 454.18 251.378 454.1 251.618 454V452.5C251.458 452.58 251.238 452.64 251.038 452.64C250.498 452.64 250.278 452.2 250.278 451.6V447.42C250.278 446.2 249.878 445.36 249.298 444.84C248.598 444.2 247.558 443.94 246.358 443.94C244.898 443.94 243.838 444.32 243.078 444.78V446.54C243.818 446 244.858 445.56 246.098 445.56C246.938 445.56 247.538 445.76 247.918 446.1C248.298 446.46 248.478 447 248.478 447.72V448.54C247.838 448.38 247.138 448.28 246.378 448.28C245.358 448.28 244.358 448.46 243.618 448.94C242.838 449.44 242.318 450.24 242.318 451.34C242.318 452.3 242.718 453.04 243.358 453.52C244.018 454.02 244.898 454.22 245.698 454.22ZM246.018 452.62C244.958 452.62 244.138 452.14 244.138 451.18C244.138 450.02 245.338 449.66 246.558 449.66C247.178 449.66 247.938 449.76 248.478 449.92V451.76C247.878 452.24 246.958 452.62 246.018 452.62Z" fill="white"/>
<path d="M255.199 458.4L261.859 444.16H259.959L258.239 447.88C257.779 448.88 257.339 449.86 256.899 450.84H256.859C256.459 449.94 255.979 448.88 255.519 447.88L253.799 444.16H251.799L255.899 452.94L253.239 458.4H255.199Z" fill="white"/>
<path d="M271.039 458.4L277.699 444.16H275.799L274.079 447.88C273.619 448.88 273.179 449.86 272.739 450.84H272.699C272.299 449.94 271.819 448.88 271.359 447.88L269.639 444.16H267.639L271.739 452.94L269.079 458.4H271.039Z" fill="white"/>
<path d="M278.275 449.08C278.275 451.98 280.495 454.22 283.475 454.22C286.455 454.22 288.675 451.98 288.675 449.08C288.675 446.18 286.455 443.94 283.475 443.94C280.495 443.94 278.275 446.18 278.275 449.08ZM280.075 449.08C280.075 447.1 281.515 445.58 283.475 445.58C285.435 445.58 286.875 447.1 286.875 449.08C286.875 451.06 285.435 452.58 283.475 452.58C281.515 452.58 280.075 451.06 280.075 449.08Z" fill="white"/>
<path d="M291.922 453.12C292.582 453.88 293.602 454.22 294.602 454.22C295.962 454.22 297.142 453.6 298.002 452.74L298.042 452.76V454H299.842V444.16H298.042V450.88C297.342 451.76 296.182 452.56 294.962 452.56C294.382 452.56 293.802 452.38 293.402 451.88C293.062 451.48 292.922 450.92 292.922 449.84V444.16H291.122V450.18C291.122 451.58 291.362 452.46 291.922 453.12Z" fill="white"/>
<path d="M302.998 454H304.798V447.6C305.418 446.54 306.358 445.86 307.698 445.86C307.918 445.86 308.158 445.88 308.398 445.94V444.16C308.178 444.1 307.958 444.08 307.758 444.08C306.598 444.08 305.518 444.66 304.838 445.62L304.798 445.6V444.16H302.998V454Z" fill="white"/>
<path d="M85.5516 479H87.3516V472.86C87.3516 471.52 87.1316 470.64 86.5316 469.98C85.9316 469.3 85.0116 468.94 83.9516 468.94C82.5916 468.94 81.3916 469.52 80.2116 470.64C79.6116 469.46 78.4116 468.94 77.1916 468.94C75.8316 468.94 74.6716 469.56 73.8516 470.38L73.8116 470.36V469.16H72.0116V479H73.8116V472.16C74.4916 471.34 75.6516 470.62 76.8116 470.62C77.3716 470.62 77.9116 470.78 78.3116 471.24C78.6516 471.64 78.7716 472.12 78.7716 473.18V479H80.5716V472.86C80.5716 472.62 80.5716 472.38 80.5516 472.16C81.2316 471.36 82.4116 470.62 83.5516 470.62C84.0716 470.62 84.6716 470.78 85.0516 471.22C85.4116 471.64 85.5516 472.24 85.5516 473.18V479Z" fill="white"/>
<path d="M99.1086 474.6C99.1486 474.36 99.1686 474 99.1686 473.7C99.1686 470.62 97.0886 468.94 94.6886 468.94C92.0486 468.94 89.7886 470.98 89.7886 474.08C89.7886 477.18 92.0686 479.22 95.1086 479.22C96.3886 479.22 97.7486 478.86 98.6286 478.3V476.38C97.7286 477.06 96.5886 477.6 95.2286 477.6C93.2886 477.6 91.8486 476.54 91.5886 474.6H99.1086ZM94.6486 470.56C95.8286 470.56 97.2686 471.22 97.4286 473.18H91.6286C91.9486 471.36 93.3486 470.56 94.6486 470.56Z" fill="white"/>
<path d="M101.458 478.42C102.478 478.96 103.878 479.22 105.138 479.22C107.238 479.22 109.278 478.36 109.278 476.08C109.278 474.04 107.718 473.52 105.838 473.2C104.378 472.94 102.978 472.94 102.978 471.82C102.978 470.94 103.858 470.56 105.118 470.56C106.258 470.56 107.618 470.88 108.718 471.52V469.72C107.738 469.2 106.378 468.94 105.198 468.94C102.918 468.94 101.178 469.92 101.158 471.96C101.158 473.9 102.638 474.46 104.518 474.78C106.038 475.04 107.458 475.06 107.458 476.24C107.458 477.2 106.578 477.6 105.218 477.6C103.998 477.6 102.578 477.26 101.458 476.54V478.42Z" fill="white"/>
<path d="M111.439 478.42C112.459 478.96 113.859 479.22 115.119 479.22C117.219 479.22 119.259 478.36 119.259 476.08C119.259 474.04 117.699 473.52 115.819 473.2C114.359 472.94 112.959 472.94 112.959 471.82C112.959 470.94 113.839 470.56 115.099 470.56C116.239 470.56 117.599 470.88 118.699 471.52V469.72C117.719 469.2 116.359 468.94 115.179 468.94C112.899 468.94 111.159 469.92 111.139 471.96C111.139 473.9 112.619 474.46 114.499 474.78C116.019 475.04 117.439 475.06 117.439 476.24C117.439 477.2 116.559 477.6 115.199 477.6C113.979 477.6 112.559 477.26 111.439 476.54V478.42Z" fill="white"/>
<path d="M124.419 479.22C125.739 479.22 126.879 478.66 127.439 478.14H127.479C127.859 478.84 128.599 479.18 129.379 479.18C129.759 479.18 130.099 479.1 130.339 479V477.5C130.179 477.58 129.959 477.64 129.759 477.64C129.219 477.64 128.999 477.2 128.999 476.6V472.42C128.999 471.2 128.599 470.36 128.019 469.84C127.319 469.2 126.279 468.94 125.079 468.94C123.619 468.94 122.559 469.32 121.799 469.78V471.54C122.539 471 123.579 470.56 124.819 470.56C125.659 470.56 126.259 470.76 126.639 471.1C127.019 471.46 127.199 472 127.199 472.72V473.54C126.559 473.38 125.859 473.28 125.099 473.28C124.079 473.28 123.079 473.46 122.339 473.94C121.559 474.44 121.039 475.24 121.039 476.34C121.039 477.3 121.439 478.04 122.079 478.52C122.739 479.02 123.619 479.22 124.419 479.22ZM124.739 477.62C123.679 477.62 122.859 477.14 122.859 476.18C122.859 475.02 124.059 474.66 125.279 474.66C125.899 474.66 126.659 474.76 127.199 474.92V476.76C126.599 477.24 125.679 477.62 124.739 477.62Z" fill="white"/>
<path d="M133.004 482.88C133.824 483.3 134.924 483.62 136.124 483.62C139.144 483.62 141.064 481.84 141.064 478.96V469.2L139.324 469.5C138.664 469.18 137.844 468.94 136.824 468.94C133.624 468.94 131.724 471.32 131.724 474.1C131.724 477 133.864 479.02 136.544 479.02C137.584 479.02 138.544 478.72 139.224 478.26L139.264 478.28V479C139.264 480.86 138.004 481.98 136.124 481.98C135.024 481.98 133.944 481.58 133.004 480.96V482.88ZM133.544 473.98C133.544 472.06 134.804 470.54 136.784 470.54C137.684 470.54 138.644 470.84 139.264 471.22V476.64C138.664 477.12 137.704 477.44 136.804 477.44C134.864 477.44 133.544 475.96 133.544 473.98Z" fill="white"/>
<path d="M152.878 474.6C152.918 474.36 152.938 474 152.938 473.7C152.938 470.62 150.858 468.94 148.458 468.94C145.818 468.94 143.558 470.98 143.558 474.08C143.558 477.18 145.838 479.22 148.878 479.22C150.158 479.22 151.518 478.86 152.398 478.3V476.38C151.498 477.06 150.358 477.6 148.998 477.6C147.058 477.6 145.618 476.54 145.358 474.6H152.878ZM148.418 470.56C149.598 470.56 151.038 471.22 151.198 473.18H145.398C145.718 471.36 147.118 470.56 148.418 470.56Z" fill="white"/>
<path d="M155.228 478.42C156.248 478.96 157.648 479.22 158.908 479.22C161.008 479.22 163.048 478.36 163.048 476.08C163.048 474.04 161.488 473.52 159.608 473.2C158.148 472.94 156.748 472.94 156.748 471.82C156.748 470.94 157.628 470.56 158.888 470.56C160.028 470.56 161.388 470.88 162.488 471.52V469.72C161.508 469.2 160.148 468.94 158.968 468.94C156.688 468.94 154.948 469.92 154.928 471.96C154.928 473.9 156.408 474.46 158.288 474.78C159.808 475.04 161.228 475.06 161.228 476.24C161.228 477.2 160.348 477.6 158.988 477.6C157.768 477.6 156.348 477.26 155.228 476.54V478.42Z" fill="white"/>
<path d="M171.832 478.3C172.472 479.04 173.352 479.22 174.072 479.22C174.752 479.22 175.452 479.06 175.852 478.86V477.16C175.472 477.4 174.892 477.58 174.372 477.58C173.072 477.58 172.892 476.46 172.892 475.24V470.78H175.852V469.16H172.892V466.18L171.092 466.48V469.16H169.272V470.78H171.092V475.58C171.092 476.96 171.352 477.76 171.832 478.3Z" fill="white"/>
<path d="M177.191 474.08C177.191 476.98 179.411 479.22 182.391 479.22C185.371 479.22 187.591 476.98 187.591 474.08C187.591 471.18 185.371 468.94 182.391 468.94C179.411 468.94 177.191 471.18 177.191 474.08ZM178.991 474.08C178.991 472.1 180.431 470.58 182.391 470.58C184.351 470.58 185.791 472.1 185.791 474.08C185.791 476.06 184.351 477.58 182.391 477.58C180.431 477.58 178.991 476.06 178.991 474.08Z" fill="white"/>
<path d="M194.282 474.24C194.282 477.28 196.442 479.22 199.102 479.22C200.282 479.22 201.202 478.84 201.862 478.38L201.902 478.4V479H203.702V463.72H201.902V469.44L201.862 469.46C201.222 469.18 200.482 468.94 199.502 468.94C196.402 468.94 194.282 471.22 194.282 474.24ZM196.102 474.14C196.102 472.12 197.402 470.54 199.482 470.54C200.362 470.54 201.242 470.82 201.902 471.16V476.78C201.202 477.26 200.322 477.62 199.342 477.62C197.322 477.62 196.102 476.1 196.102 474.14Z" fill="white"/>
<path d="M215.495 474.6C215.535 474.36 215.555 474 215.555 473.7C215.555 470.62 213.475 468.94 211.075 468.94C208.435 468.94 206.175 470.98 206.175 474.08C206.175 477.18 208.455 479.22 211.495 479.22C212.775 479.22 214.135 478.86 215.015 478.3V476.38C214.115 477.06 212.975 477.6 211.615 477.6C209.675 477.6 208.235 476.54 207.975 474.6H215.495ZM211.035 470.56C212.215 470.56 213.655 471.22 213.815 473.18H208.015C208.335 471.36 209.735 470.56 211.035 470.56Z" fill="white"/>
<path d="M218.125 479H219.925V463.72H218.125V479Z" fill="white"/>
<path d="M231.726 474.6C231.766 474.36 231.786 474 231.786 473.7C231.786 470.62 229.706 468.94 227.306 468.94C224.666 468.94 222.406 470.98 222.406 474.08C222.406 477.18 224.686 479.22 227.726 479.22C229.006 479.22 230.366 478.86 231.246 478.3V476.38C230.346 477.06 229.206 477.6 227.846 477.6C225.906 477.6 224.466 476.54 224.206 474.6H231.726ZM227.266 470.56C228.446 470.56 229.886 471.22 230.046 473.18H224.246C224.566 471.36 225.966 470.56 227.266 470.56Z" fill="white"/>
<path d="M235.66 478.3C236.3 479.04 237.18 479.22 237.9 479.22C238.58 479.22 239.28 479.06 239.68 478.86V477.16C239.3 477.4 238.72 477.58 238.2 477.58C236.9 477.58 236.72 476.46 236.72 475.24V470.78H239.68V469.16H236.72V466.18L234.92 466.48V469.16H233.1V470.78H234.92V475.58C234.92 476.96 235.18 477.76 235.66 478.3Z" fill="white"/>
<path d="M250.339 474.6C250.379 474.36 250.399 474 250.399 473.7C250.399 470.62 248.319 468.94 245.919 468.94C243.279 468.94 241.019 470.98 241.019 474.08C241.019 477.18 243.299 479.22 246.339 479.22C247.619 479.22 248.979 478.86 249.859 478.3V476.38C248.959 477.06 247.819 477.6 246.459 477.6C244.519 477.6 243.079 476.54 242.819 474.6H250.339ZM245.879 470.56C247.059 470.56 248.499 471.22 248.659 473.18H242.859C243.179 471.36 244.579 470.56 245.879 470.56Z" fill="white"/>
<path d="M259.312 478.3C259.952 479.04 260.832 479.22 261.552 479.22C262.232 479.22 262.932 479.06 263.332 478.86V477.16C262.952 477.4 262.372 477.58 261.852 477.58C260.552 477.58 260.372 476.46 260.372 475.24V470.78H263.332V469.16H260.372V466.18L258.572 466.48V469.16H256.752V470.78H258.572V475.58C258.572 476.96 258.832 477.76 259.312 478.3Z" fill="white"/>
<path d="M265.586 479H267.386V472.26C268.126 471.34 269.346 470.62 270.526 470.62C271.146 470.62 271.646 470.82 272.026 471.26C272.366 471.64 272.506 472.16 272.506 473.26V479H274.306V472.92C274.306 471.4 274.026 470.64 273.486 470.02C272.866 469.32 271.946 468.94 270.866 468.94C269.486 468.94 268.286 469.56 267.426 470.42L267.386 470.4V463.72H265.586V479Z" fill="white"/>
<path d="M286.062 474.6C286.102 474.36 286.122 474 286.122 473.7C286.122 470.62 284.042 468.94 281.642 468.94C279.002 468.94 276.742 470.98 276.742 474.08C276.742 477.18 279.022 479.22 282.062 479.22C283.342 479.22 284.702 478.86 285.582 478.3V476.38C284.682 477.06 283.542 477.6 282.182 477.6C280.242 477.6 278.802 476.54 278.542 474.6H286.062ZM281.602 470.56C282.782 470.56 284.222 471.22 284.382 473.18H278.582C278.902 471.36 280.302 470.56 281.602 470.56Z" fill="white"/>
<path d="M302.231 479H304.031V472.86C304.031 471.52 303.811 470.64 303.211 469.98C302.611 469.3 301.691 468.94 300.631 468.94C299.271 468.94 298.071 469.52 296.891 470.64C296.291 469.46 295.091 468.94 293.871 468.94C292.511 468.94 291.351 469.56 290.531 470.38L290.491 470.36V469.16H288.691V479H290.491V472.16C291.171 471.34 292.331 470.62 293.491 470.62C294.051 470.62 294.591 470.78 294.991 471.24C295.331 471.64 295.451 472.12 295.451 473.18V479H297.251V472.86C297.251 472.62 297.251 472.38 297.231 472.16C297.911 471.36 299.091 470.62 300.231 470.62C300.751 470.62 301.351 470.78 301.731 471.22C302.091 471.64 302.231 472.24 302.231 473.18V479Z" fill="white"/>
<path d="M67.6477 490.78C67.6477 491.48 68.2077 492.04 68.9077 492.04C69.6077 492.04 70.1677 491.48 70.1677 490.78C70.1677 490.08 69.6077 489.52 68.9077 489.52C68.2077 489.52 67.6477 490.08 67.6477 490.78ZM68.0077 504H69.8077V494.16H68.0077V504Z" fill="white"/>
<path d="M72.9686 504H74.7686V497.26C75.4686 496.32 76.7286 495.62 77.8486 495.62C78.3886 495.62 79.0286 495.78 79.4286 496.26C79.7486 496.64 79.8886 497.24 79.8886 498.26V504H81.6886V497.92C81.6886 496.4 81.4086 495.64 80.8686 495.02C80.2486 494.32 79.3286 493.94 78.2486 493.94C76.8686 493.94 75.6686 494.56 74.8086 495.42L74.7686 495.4V494.16H72.9686V504Z" fill="white"/>
<path d="M84.5245 503.42C85.5445 503.96 86.9445 504.22 88.2045 504.22C90.3045 504.22 92.3445 503.36 92.3445 501.08C92.3445 499.04 90.7845 498.52 88.9045 498.2C87.4445 497.94 86.0445 497.94 86.0445 496.82C86.0445 495.94 86.9245 495.56 88.1845 495.56C89.3245 495.56 90.6845 495.88 91.7845 496.52V494.72C90.8045 494.2 89.4445 493.94 88.2645 493.94C85.9845 493.94 84.2445 494.92 84.2245 496.96C84.2245 498.9 85.7045 499.46 87.5845 499.78C89.1045 500.04 90.5245 500.06 90.5245 501.24C90.5245 502.2 89.6445 502.6 88.2845 502.6C87.0645 502.6 85.6445 502.26 84.5245 501.54V503.42Z" fill="white"/>
<path d="M96.285 503.3C96.925 504.04 97.805 504.22 98.525 504.22C99.205 504.22 99.905 504.06 100.305 503.86V502.16C99.925 502.4 99.345 502.58 98.825 502.58C97.525 502.58 97.345 501.46 97.345 500.24V495.78H100.305V494.16H97.345V491.18L95.545 491.48V494.16H93.725V495.78H95.545V500.58C95.545 501.96 95.805 502.76 96.285 503.3Z" fill="white"/>
<path d="M105.278 504.22C106.598 504.22 107.738 503.66 108.298 503.14H108.338C108.718 503.84 109.458 504.18 110.238 504.18C110.618 504.18 110.958 504.1 111.198 504V502.5C111.038 502.58 110.818 502.64 110.618 502.64C110.078 502.64 109.858 502.2 109.858 501.6V497.42C109.858 496.2 109.458 495.36 108.878 494.84C108.178 494.2 107.138 493.94 105.938 493.94C104.478 493.94 103.418 494.32 102.658 494.78V496.54C103.398 496 104.438 495.56 105.678 495.56C106.518 495.56 107.118 495.76 107.498 496.1C107.878 496.46 108.058 497 108.058 497.72V498.54C107.418 498.38 106.718 498.28 105.958 498.28C104.938 498.28 103.938 498.46 103.198 498.94C102.418 499.44 101.898 500.24 101.898 501.34C101.898 502.3 102.298 503.04 102.938 503.52C103.598 504.02 104.478 504.22 105.278 504.22ZM105.598 502.62C104.538 502.62 103.718 502.14 103.718 501.18C103.718 500.02 104.918 499.66 106.138 499.66C106.758 499.66 107.518 499.76 108.058 499.92V501.76C107.458 502.24 106.538 502.62 105.598 502.62Z" fill="white"/>
<path d="M113.203 504H115.003V497.26C115.703 496.32 116.963 495.62 118.083 495.62C118.623 495.62 119.263 495.78 119.663 496.26C119.983 496.64 120.123 497.24 120.123 498.26V504H121.923V497.92C121.923 496.4 121.643 495.64 121.103 495.02C120.483 494.32 119.563 493.94 118.483 493.94C117.103 493.94 115.903 494.56 115.043 495.42L115.003 495.4V494.16H113.203V504Z" fill="white"/>
<path d="M126.539 503.3C127.179 504.04 128.059 504.22 128.779 504.22C129.459 504.22 130.159 504.06 130.559 503.86V502.16C130.179 502.4 129.599 502.58 129.079 502.58C127.779 502.58 127.599 501.46 127.599 500.24V495.78H130.559V494.16H127.599V491.18L125.799 491.48V494.16H123.979V495.78H125.799V500.58C125.799 501.96 126.059 502.76 126.539 503.3Z" fill="white"/>
<path d="M132.812 504H134.612V488.72H132.812V504Z" fill="white"/>
<path d="M140.033 508.4L146.693 494.16H144.793L143.073 497.88C142.613 498.88 142.173 499.86 141.733 500.84H141.693C141.293 499.94 140.813 498.88 140.353 497.88L138.633 494.16H136.633L140.733 502.94L138.073 508.4H140.033Z" fill="white"/>
<path d="M156.333 504.22C157.653 504.22 158.793 503.66 159.353 503.14H159.393C159.773 503.84 160.513 504.18 161.293 504.18C161.673 504.18 162.013 504.1 162.253 504V502.5C162.093 502.58 161.873 502.64 161.673 502.64C161.133 502.64 160.913 502.2 160.913 501.6V497.42C160.913 496.2 160.513 495.36 159.933 494.84C159.233 494.2 158.193 493.94 156.993 493.94C155.533 493.94 154.473 494.32 153.713 494.78V496.54C154.453 496 155.493 495.56 156.733 495.56C157.573 495.56 158.173 495.76 158.553 496.1C158.933 496.46 159.113 497 159.113 497.72V498.54C158.473 498.38 157.773 498.28 157.013 498.28C155.993 498.28 154.993 498.46 154.253 498.94C153.473 499.44 152.953 500.24 152.953 501.34C152.953 502.3 153.353 503.04 153.993 503.52C154.653 504.02 155.533 504.22 156.333 504.22ZM156.653 502.62C155.593 502.62 154.773 502.14 154.773 501.18C154.773 500.02 155.973 499.66 157.193 499.66C157.813 499.66 158.573 499.76 159.113 499.92V501.76C158.513 502.24 157.593 502.62 156.653 502.62Z" fill="white"/>
<path d="M164.258 504H166.058V497.26C166.758 496.32 168.018 495.62 169.138 495.62C169.678 495.62 170.318 495.78 170.718 496.26C171.038 496.64 171.178 497.24 171.178 498.26V504H172.978V497.92C172.978 496.4 172.698 495.64 172.158 495.02C171.538 494.32 170.618 493.94 169.538 493.94C168.158 493.94 166.958 494.56 166.098 495.42L166.058 495.4V494.16H164.258V504Z" fill="white"/>
<path d="M175.454 499.24C175.454 502.28 177.614 504.22 180.274 504.22C181.454 504.22 182.374 503.84 183.034 503.38L183.074 503.4V504H184.874V488.72H183.074V494.44L183.034 494.46C182.394 494.18 181.654 493.94 180.674 493.94C177.574 493.94 175.454 496.22 175.454 499.24ZM177.274 499.14C177.274 497.12 178.574 495.54 180.654 495.54C181.534 495.54 182.414 495.82 183.074 496.16V501.78C182.374 502.26 181.494 502.62 180.514 502.62C178.494 502.62 177.274 501.1 177.274 499.14Z" fill="white"/>
<path d="M194.671 503.7L194.711 503.68C195.331 503.98 196.151 504.22 197.131 504.22C199.971 504.22 202.271 502.2 202.271 499.04C202.271 496 200.151 493.94 197.511 493.94C196.351 493.94 195.391 494.34 194.711 494.82L194.671 494.8V494.16H192.871V508.4H194.671V503.7ZM194.671 501.96V496.46C195.371 495.88 196.331 495.56 197.211 495.56C199.171 495.56 200.451 497.18 200.451 499.18C200.451 501.2 199.131 502.64 197.171 502.64C196.211 502.64 195.291 502.3 194.671 501.96Z" fill="white"/>
<path d="M213.405 499.6C213.445 499.36 213.465 499 213.465 498.7C213.465 495.62 211.385 493.94 208.985 493.94C206.345 493.94 204.085 495.98 204.085 499.08C204.085 502.18 206.365 504.22 209.405 504.22C210.685 504.22 212.045 503.86 212.925 503.3V501.38C212.025 502.06 210.885 502.6 209.525 502.6C207.585 502.6 206.145 501.54 205.885 499.6H213.405ZM208.945 495.56C210.125 495.56 211.565 496.22 211.725 498.18H205.925C206.245 496.36 207.645 495.56 208.945 495.56Z" fill="white"/>
<path d="M216.035 504H217.835V497.6C218.455 496.54 219.395 495.86 220.735 495.86C220.955 495.86 221.195 495.88 221.435 495.94V494.16C221.215 494.1 220.995 494.08 220.795 494.08C219.635 494.08 218.555 494.66 217.875 495.62L217.835 495.6V494.16H216.035V504Z" fill="white"/>
<path d="M236.919 504H238.719V497.86C238.719 496.52 238.499 495.64 237.899 494.98C237.299 494.3 236.379 493.94 235.319 493.94C233.959 493.94 232.759 494.52 231.579 495.64C230.979 494.46 229.779 493.94 228.559 493.94C227.199 493.94 226.039 494.56 225.219 495.38L225.179 495.36V494.16H223.379V504H225.179V497.16C225.859 496.34 227.019 495.62 228.179 495.62C228.739 495.62 229.279 495.78 229.679 496.24C230.019 496.64 230.139 497.12 230.139 498.18V504H231.939V497.86C231.939 497.62 231.939 497.38 231.919 497.16C232.599 496.36 233.779 495.62 234.919 495.62C235.439 495.62 236.039 495.78 236.419 496.22C236.779 496.64 236.919 497.24 236.919 498.18V504Z" fill="white"/>
<path d="M244.556 504.22C245.876 504.22 247.016 503.66 247.576 503.14H247.616C247.996 503.84 248.736 504.18 249.516 504.18C249.896 504.18 250.236 504.1 250.476 504V502.5C250.316 502.58 250.096 502.64 249.896 502.64C249.356 502.64 249.136 502.2 249.136 501.6V497.42C249.136 496.2 248.736 495.36 248.156 494.84C247.456 494.2 246.416 493.94 245.216 493.94C243.756 493.94 242.696 494.32 241.936 494.78V496.54C242.676 496 243.716 495.56 244.956 495.56C245.796 495.56 246.396 495.76 246.776 496.1C247.156 496.46 247.336 497 247.336 497.72V498.54C246.696 498.38 245.996 498.28 245.236 498.28C244.216 498.28 243.216 498.46 242.476 498.94C241.696 499.44 241.176 500.24 241.176 501.34C241.176 502.3 241.576 503.04 242.216 503.52C242.876 504.02 243.756 504.22 244.556 504.22ZM244.876 502.62C243.816 502.62 242.996 502.14 242.996 501.18C242.996 500.02 244.196 499.66 245.416 499.66C246.036 499.66 246.796 499.76 247.336 499.92V501.76C246.736 502.24 245.816 502.62 244.876 502.62Z" fill="white"/>
<path d="M252.48 504H254.28V497.26C254.98 496.32 256.24 495.62 257.36 495.62C257.9 495.62 258.54 495.78 258.94 496.26C259.26 496.64 259.4 497.24 259.4 498.26V504H261.2V497.92C261.2 496.4 260.92 495.64 260.38 495.02C259.76 494.32 258.84 493.94 257.76 493.94C256.38 493.94 255.18 494.56 254.32 495.42L254.28 495.4V494.16H252.48V504Z" fill="white"/>
<path d="M272.956 499.6C272.996 499.36 273.016 499 273.016 498.7C273.016 495.62 270.936 493.94 268.536 493.94C265.896 493.94 263.636 495.98 263.636 499.08C263.636 502.18 265.916 504.22 268.956 504.22C270.236 504.22 271.596 503.86 272.476 503.3V501.38C271.576 502.06 270.436 502.6 269.076 502.6C267.136 502.6 265.696 501.54 265.436 499.6H272.956ZM268.496 495.56C269.676 495.56 271.116 496.22 271.276 498.18H265.476C265.796 496.36 267.196 495.56 268.496 495.56Z" fill="white"/>
<path d="M275.586 504H277.386V497.26C278.086 496.32 279.346 495.62 280.466 495.62C281.006 495.62 281.646 495.78 282.046 496.26C282.366 496.64 282.506 497.24 282.506 498.26V504H284.306V497.92C284.306 496.4 284.026 495.64 283.486 495.02C282.866 494.32 281.946 493.94 280.866 493.94C279.486 493.94 278.286 494.56 277.426 495.42L277.386 495.4V494.16H275.586V504Z" fill="white"/>
<path d="M288.922 503.3C289.562 504.04 290.442 504.22 291.162 504.22C291.842 504.22 292.542 504.06 292.942 503.86V502.16C292.562 502.4 291.982 502.58 291.462 502.58C290.162 502.58 289.982 501.46 289.982 500.24V495.78H292.942V494.16H289.982V491.18L288.182 491.48V494.16H286.362V495.78H288.182V500.58C288.182 501.96 288.442 502.76 288.922 503.3Z" fill="white"/>
<path d="M295.195 504H296.995V488.72H295.195V504Z" fill="white"/>
<path d="M302.416 508.4L309.076 494.16H307.176L305.456 497.88C304.996 498.88 304.556 499.86 304.116 500.84H304.076C303.676 499.94 303.196 498.88 302.736 497.88L301.016 494.16H299.016L303.116 502.94L300.456 508.4H302.416Z" fill="white"/>
<path d="M103.256 384H106.436V378.82H107.436C109.556 378.82 110.996 378.58 112.116 377.92C113.336 377.2 114.196 375.92 114.196 374.14C114.196 372.18 113.116 370.94 111.856 370.28C110.716 369.68 109.276 369.52 107.556 369.52H103.256V384ZM106.436 376.24V372.3H107.516C108.636 372.3 109.416 372.34 109.996 372.6C110.656 372.9 111.016 373.48 111.016 374.3C111.016 375.02 110.696 375.56 110.116 375.88C109.576 376.18 108.856 376.24 107.596 376.24H106.436Z" fill="white"/>
<path d="M115.832 384H118.872V378.04C119.592 377.2 120.472 376.88 121.532 376.88C121.812 376.88 122.112 376.92 122.352 376.98V374.12C122.132 374.06 121.912 374.04 121.712 374.04C120.492 374.04 119.532 374.54 118.852 375.5L118.812 375.48V374.16H115.832V384Z" fill="white"/>
<path d="M123.62 371.04C123.62 372 124.42 372.78 125.38 372.78C126.34 372.78 127.14 372 127.14 371.04C127.14 370.08 126.34 369.3 125.38 369.3C124.42 369.3 123.62 370.08 123.62 371.04ZM123.86 384H126.9V374.16H123.86V384Z" fill="white"/>
<path d="M132.286 384H135.186L139.186 374.16H136.186L134.966 377.3C134.566 378.32 134.146 379.44 133.786 380.44H133.746C133.406 379.44 133.026 378.36 132.646 377.32L131.486 374.16H128.286L132.286 384Z" fill="white"/>
<path d="M145.612 383.4C146.152 383.96 146.932 384.18 147.732 384.18C148.312 384.18 148.852 384.06 149.192 383.88V381.6C149.032 381.68 148.852 381.72 148.692 381.72C148.272 381.72 148.092 381.4 148.092 380.94V377.6C148.092 376.36 147.732 375.48 146.992 374.88C146.212 374.24 145.032 373.94 143.712 373.94C142.272 373.94 141.072 374.3 140.272 374.7V377.32C141.052 376.9 142.052 376.54 143.152 376.54C143.872 376.54 144.392 376.7 144.672 376.96C144.892 377.16 145.052 377.52 145.052 378V378.38C144.512 378.26 143.932 378.2 143.352 378.2C142.332 378.2 141.352 378.38 140.592 378.9C139.892 379.38 139.392 380.2 139.392 381.28C139.392 382.3 139.832 383.08 140.552 383.58C141.192 384.02 141.992 384.22 142.832 384.22C143.952 384.22 144.932 383.86 145.572 383.4H145.612ZM145.052 381.58C144.692 381.8 144.192 381.98 143.672 381.98C142.972 381.98 142.412 381.64 142.412 381C142.412 380.24 143.192 380 143.972 380C144.292 380 144.732 380.04 145.052 380.14V381.58Z" fill="white"/>
<path d="M157.154 381.26C156.754 381.46 156.194 381.66 155.694 381.66C154.774 381.66 154.554 380.94 154.554 379.98V376.68H157.154V374.16H154.554V371.08L151.514 371.6V374.16H149.914V376.68H151.514V380.3C151.514 381.86 151.854 382.68 152.374 383.24C152.994 383.9 153.934 384.22 154.934 384.22C155.794 384.22 156.694 383.98 157.154 383.68V381.26Z" fill="white"/>
<path d="M168.001 379.88C168.041 379.62 168.061 379.18 168.061 378.84C168.061 375.54 165.781 373.94 163.361 373.94C160.641 373.94 158.201 375.98 158.201 379.12C158.201 382.2 160.541 384.22 163.781 384.22C165.081 384.22 166.561 383.92 167.521 383.32V380.78C166.481 381.48 165.281 381.86 164.181 381.86C162.781 381.86 161.661 381.24 161.321 379.88H168.001ZM161.301 377.96C161.561 376.84 162.381 376.26 163.321 376.26C164.301 376.26 165.081 376.9 165.261 377.96H161.301Z" fill="white"/>
<path d="M182.118 380.66L184.218 377.68C184.938 376.66 185.658 375.6 186.338 374.58L186.378 374.6C186.358 375.64 186.338 377 186.338 378.2V384H189.518V369.52H186.498L182.198 375.64L177.898 369.52H174.838V384H177.898V378.2C177.898 377 177.878 375.64 177.858 374.6L177.898 374.58C178.578 375.6 179.298 376.66 180.018 377.68L182.118 380.66Z" fill="white"/>
<path d="M201.282 379.88C201.322 379.62 201.342 379.18 201.342 378.84C201.342 375.54 199.062 373.94 196.642 373.94C193.922 373.94 191.482 375.98 191.482 379.12C191.482 382.2 193.822 384.22 197.062 384.22C198.362 384.22 199.842 383.92 200.802 383.32V380.78C199.762 381.48 198.562 381.86 197.462 381.86C196.062 381.86 194.942 381.24 194.602 379.88H201.282ZM194.582 377.96C194.842 376.84 195.662 376.26 196.602 376.26C197.582 376.26 198.362 376.9 198.542 377.96H194.582Z" fill="white"/>
<path d="M203.033 383.4C204.213 383.98 205.733 384.22 206.913 384.22C209.433 384.22 211.313 383.04 211.333 380.88C211.333 379.18 210.193 378.46 208.313 378C206.853 377.64 205.793 377.7 205.793 376.98C205.793 376.52 206.273 376.28 207.073 376.28C207.953 376.28 209.473 376.6 210.773 377.34V374.72C209.653 374.18 208.193 373.94 207.013 373.94C204.573 373.94 202.733 375.12 202.713 377.2C202.713 378.82 203.813 379.6 205.673 380.06C207.153 380.44 208.253 380.36 208.253 381.12C208.253 381.66 207.753 381.88 206.913 381.88C205.973 381.88 204.393 381.54 203.033 380.74V383.4Z" fill="white"/>
<path d="M212.916 383.4C214.096 383.98 215.616 384.22 216.796 384.22C219.316 384.22 221.196 383.04 221.216 380.88C221.216 379.18 220.076 378.46 218.196 378C216.736 377.64 215.676 377.7 215.676 376.98C215.676 376.52 216.156 376.28 216.956 376.28C217.836 376.28 219.356 376.6 220.656 377.34V374.72C219.536 374.18 218.076 373.94 216.896 373.94C214.456 373.94 212.616 375.12 212.596 377.2C212.596 378.82 213.696 379.6 215.556 380.06C217.036 380.44 218.136 380.36 218.136 381.12C218.136 381.66 217.636 381.88 216.796 381.88C215.856 381.88 214.276 381.54 212.916 380.74V383.4Z" fill="white"/>
<path d="M228.658 383.4C229.198 383.96 229.978 384.18 230.778 384.18C231.358 384.18 231.898 384.06 232.238 383.88V381.6C232.078 381.68 231.898 381.72 231.738 381.72C231.318 381.72 231.138 381.4 231.138 380.94V377.6C231.138 376.36 230.778 375.48 230.038 374.88C229.258 374.24 228.078 373.94 226.758 373.94C225.318 373.94 224.118 374.3 223.318 374.7V377.32C224.098 376.9 225.098 376.54 226.198 376.54C226.918 376.54 227.438 376.7 227.718 376.96C227.938 377.16 228.098 377.52 228.098 378V378.38C227.558 378.26 226.978 378.2 226.398 378.2C225.378 378.2 224.398 378.38 223.638 378.9C222.938 379.38 222.438 380.2 222.438 381.28C222.438 382.3 222.878 383.08 223.598 383.58C224.238 384.02 225.038 384.22 225.878 384.22C226.998 384.22 227.978 383.86 228.618 383.4H228.658ZM228.098 381.58C227.738 381.8 227.238 381.98 226.718 381.98C226.018 381.98 225.458 381.64 225.458 381C225.458 380.24 226.238 380 227.018 380C227.338 380 227.778 380.04 228.098 380.14V381.58Z" fill="white"/>
<path d="M234.621 387.9C235.481 388.32 236.721 388.62 237.981 388.62C241.121 388.62 243.241 386.9 243.241 383.8V374.08L240.861 374.5C240.161 374.16 239.341 373.94 238.401 373.94C235.341 373.94 233.281 376.2 233.281 379.08C233.281 382.06 235.481 383.9 237.861 383.9C238.681 383.9 239.581 383.66 240.161 383.24L240.201 383.26V383.8C240.201 385.26 239.281 386.02 237.801 386.02C236.761 386.02 235.621 385.64 234.621 385.02V387.9ZM240.201 381C239.781 381.26 239.201 381.42 238.661 381.42C237.241 381.42 236.361 380.4 236.361 378.96C236.361 377.68 237.121 376.52 238.701 376.52C239.241 376.52 239.821 376.68 240.201 376.88V381Z" fill="white"/>
<path d="M245.553 371.04C245.553 372 246.353 372.78 247.313 372.78C248.273 372.78 249.073 372 249.073 371.04C249.073 370.08 248.273 369.3 247.313 369.3C246.353 369.3 245.553 370.08 245.553 371.04ZM245.793 384H248.833V374.16H245.793V384Z" fill="white"/>
<path d="M251.36 384H254.4V377.38C254.94 376.96 255.68 376.56 256.46 376.56C256.88 376.56 257.24 376.68 257.5 376.98C257.74 377.26 257.84 377.62 257.84 378.36V384H260.88V377.86C260.88 376.44 260.62 375.58 260.02 374.94C259.4 374.3 258.48 373.94 257.44 373.94C256.2 373.94 255.16 374.46 254.4 375.08L254.36 375.06V374.16H251.36V384Z" fill="white"/>
<path d="M264.152 387.9C265.012 388.32 266.252 388.62 267.512 388.62C270.652 388.62 272.772 386.9 272.772 383.8V374.08L270.392 374.5C269.692 374.16 268.872 373.94 267.932 373.94C264.872 373.94 262.812 376.2 262.812 379.08C262.812 382.06 265.012 383.9 267.392 383.9C268.212 383.9 269.112 383.66 269.692 383.24L269.732 383.26V383.8C269.732 385.26 268.812 386.02 267.332 386.02C266.292 386.02 265.152 385.64 264.152 385.02V387.9ZM269.732 381C269.312 381.26 268.732 381.42 268.192 381.42C266.772 381.42 265.892 380.4 265.892 378.96C265.892 377.68 266.652 376.52 268.232 376.52C268.772 376.52 269.352 376.68 269.732 376.88V381Z" fill="white"/>
<g filter="url(#filter0_d)">
<path d="M128.228 195.221C128.121 191.82 130.847 189 134.25 189H250.713C254.026 189 256.713 191.686 256.713 195V263C256.713 266.314 254.026 269 250.713 269H118C118 269 126.185 266.376 128.017 251.741C129.443 240.356 128.65 208.711 128.228 195.221Z" fill="#F9FAFB"/>
</g>
<path d="M155 767C158.314 767 161 764.314 161 761C161 757.686 158.314 755 155 755C151.686 755 149 757.686 149 761C149 764.314 151.686 767 155 767Z" fill="#363636"/>
<path d="M188 767C191.314 767 194 764.314 194 761C194 757.686 191.314 755 188 755C184.686 755 182 757.686 182 761C182 764.314 184.686 767 188 767Z" fill="white"/>
<path d="M221 767C224.314 767 227 764.314 227 761C227 757.686 224.314 755 221 755C217.686 755 215 757.686 215 761C215 764.314 217.686 767 221 767Z" fill="white"/>
</g>
<defs>
<filter id="filter0_d" x="110" y="183" width="154.713" height="96" filterUnits="userSpaceOnUse" color-interpolation-filters="sRGB">
<feFlood flood-opacity="0" result="BackgroundImageFix"/>
<feColorMatrix in="SourceAlpha" type="matrix" values="0 0 0 0 0 0 0 0 0 0 0 0 0 0 0 0 0 0 127 0"/>
<feOffset dy="2"/>
<feGaussianBlur stdDeviation="4"/>
<feColorMatrix type="matrix" values="0 0 0 0 0.466119 0 0 0 0 0.463443 0 0 0 0 0.463443 0 0 0 0.5 0"/>
<feBlend mode="normal" in2="BackgroundImageFix" result="effect1_dropShadow"/>
<feBlend mode="normal" in="SourceGraphic" in2="effect1_dropShadow" result="shape"/>
</filter>
<linearGradient id="paint0_linear" x1="104.403" y1="133.795" x2="564.098" y2="495.531" gradientUnits="userSpaceOnUse">
<stop stop-color="#05A8FF"/>
<stop offset="1" stop-color="#24BDFF"/>
</linearGradient>
<clipPath id="clip0">
<rect width="375" height="812" fill="white"/>
</clipPath>
</defs>
</svg>
