<svg enable-background="new 0 0 60 60" viewBox="0 0 60 60" xmlns="http://www.w3.org/2000/svg"><g clip-rule="evenodd" fill="#231f20" fill-rule="evenodd"><path d="m30 0-30 30 30 30 30-30zm-26.7 30 26.7-26.7 26.7 26.7-26.7 26.7z"/><g transform="translate(23.617021 11.489362)"><path d="m2.4 31.3v-25.5l12.2 12.8-2.1 2.2c.8.2 1.5.6 2.2 1l3.1-3.2-17.7-18.5v36.9l4.9-5.1c-.5-.6-.8-1.4-1.1-2.2z"/><path d="m14.7 21.8-1.6 1.7c1.4.8 2.4 2.4 2.4 4.2 0 2.7-2.2 4.8-4.8 4.8-1.7 0-3.2-.9-4.1-2.3l-1.6 1.7c1.3 1.7 3.3 2.9 5.7 2.9 3.9 0 7.1-3.2 7.1-7.1-.1-2.5-1.3-4.7-3.1-5.9"/><path d="m10.5 22.8 2-2.1c-.6-.2-1.2-.2-1.8-.2-3.9 0-7.1 3.2-7.1 7.1 0 .7.1 1.4.3 2.1l2-2c0-2.7 2.1-4.8 4.6-4.9"/><path d="m5.9 27.7-2 2c.2.8.6 1.5 1.1 2.2l1.6-1.7c-.4-.7-.7-1.6-.7-2.5"/><path d="m10.5 22.8h.2c.9 0 1.7.2 2.4.6l1.6-1.7c-.7-.5-1.4-.8-2.2-1z"/></g></g></svg>