<svg width="1012" height="372" viewBox="0 0 1012 372" fill="none" xmlns="http://www.w3.org/2000/svg">
<mask id="mask0" mask-type="alpha" maskUnits="userSpaceOnUse" x="12" y="8" width="72" height="80">
<path fill-rule="evenodd" clip-rule="evenodd" d="M76 16H59.28C57.6 11.36 53.2 8 48 8C42.8 8 38.4 11.36 36.72 16H20C15.6 16 12 19.6 12 24V80C12 84.4 15.6 88 20 88H76C80.4 88 84 84.4 84 80V24C84 19.6 80.4 16 76 16V16ZM48 16C50.2 16 52 17.8 52 20C52 22.2 50.2 24 48 24C45.8 24 44 22.2 44 20C44 17.8 45.8 16 48 16V16ZM56 72H28V64H56V72V72ZM68 56H28V48H68V56V56ZM68 40H28V32H68V40V40Z" fill="white"/>
</mask>
<g mask="url(#mask0)">
<rect x="-52" y="-52" width="200" height="200" fill="#EAB331"/>
<mask id="mask1" mask-type="alpha" maskUnits="userSpaceOnUse" x="-52" y="-52" width="200" height="200">
<path d="M-52 -52H148V148H-52V-52Z" fill="white"/>
</mask>
<g mask="url(#mask1)">
</g>
</g>
<path d="M3.28 112.9H10.1C11.66 112.9 12.8733 113.3 13.74 114.1C14.6067 114.887 15.04 115.987 15.04 117.4C15.04 118.8 14.6 119.9 13.72 120.7C12.8533 121.5 11.6467 121.9 10.1 121.9H6.96V127H3.28V112.9ZM9.6 119.14C10.28 119.14 10.78 119 11.1 118.72C11.4333 118.44 11.6 118.007 11.6 117.42C11.6 116.833 11.4333 116.4 11.1 116.12C10.78 115.827 10.28 115.68 9.6 115.68H6.96V119.14H9.6ZM24.4598 119.82L22.5198 120.02C21.7465 120.1 21.2065 120.307 20.8998 120.64C20.5932 120.973 20.4398 121.447 20.4398 122.06V127H16.8798V117.16H20.2598V118.86C20.4865 118.26 20.8598 117.807 21.3798 117.5C21.8998 117.18 22.5332 117 23.2798 116.96L24.2598 116.88L24.4598 119.82ZM30.5234 127.16C29.4434 127.16 28.4901 126.953 27.6634 126.54C26.8501 126.113 26.2168 125.513 25.7634 124.74C25.3234 123.967 25.1034 123.06 25.1034 122.02C25.1034 120.98 25.3234 120.08 25.7634 119.32C26.2168 118.547 26.8501 117.953 27.6634 117.54C28.4768 117.127 29.4301 116.92 30.5234 116.92C31.6168 116.92 32.5701 117.127 33.3834 117.54C34.1968 117.953 34.8234 118.547 35.2634 119.32C35.7168 120.08 35.9434 120.98 35.9434 122.02C35.9434 123.06 35.7168 123.967 35.2634 124.74C34.8234 125.513 34.1968 126.113 33.3834 126.54C32.5701 126.953 31.6168 127.16 30.5234 127.16ZM30.5234 124.5C31.7901 124.5 32.4234 123.673 32.4234 122.02C32.4234 120.367 31.7901 119.54 30.5234 119.54C29.2568 119.54 28.6234 120.367 28.6234 122.02C28.6234 123.673 29.2568 124.5 30.5234 124.5ZM48.4756 112.9V127H44.9756V125.66C44.6956 126.127 44.2823 126.493 43.7356 126.76C43.2023 127.027 42.609 127.16 41.9556 127.16C41.1156 127.16 40.3623 126.947 39.6956 126.52C39.0423 126.08 38.529 125.467 38.1556 124.68C37.7823 123.893 37.5956 122.993 37.5956 121.98C37.5956 120.967 37.7756 120.08 38.1356 119.32C38.509 118.547 39.0223 117.953 39.6756 117.54C40.3423 117.127 41.1023 116.92 41.9556 116.92C42.5823 116.92 43.1556 117.047 43.6756 117.3C44.209 117.553 44.6223 117.893 44.9156 118.32V112.9H48.4756ZM43.0356 124.5C43.6623 124.5 44.1423 124.287 44.4756 123.86C44.809 123.433 44.9756 122.82 44.9756 122.02C44.9756 121.233 44.809 120.633 44.4756 120.22C44.1423 119.793 43.6623 119.58 43.0356 119.58C42.4223 119.58 41.949 119.787 41.6156 120.2C41.2823 120.613 41.1156 121.207 41.1156 121.98C41.1156 122.78 41.2823 123.4 41.6156 123.84C41.9623 124.28 42.4356 124.5 43.0356 124.5ZM60.9756 117.16V127H57.5156V125.68C57.209 126.16 56.8156 126.527 56.3356 126.78C55.869 127.033 55.329 127.16 54.7156 127.16C53.449 127.16 52.509 126.813 51.8956 126.12C51.2823 125.413 50.9756 124.347 50.9756 122.92V117.16H54.5356V123C54.5356 123.96 54.949 124.44 55.7756 124.44C56.2556 124.44 56.649 124.267 56.9556 123.92C57.2623 123.573 57.4156 123.12 57.4156 122.56V117.16H60.9756ZM68.4478 127.16C66.7678 127.16 65.4545 126.707 64.5078 125.8C63.5611 124.893 63.0878 123.66 63.0878 122.1C63.0878 121.073 63.3145 120.167 63.7678 119.38C64.2345 118.593 64.8811 117.987 65.7078 117.56C66.5478 117.133 67.5145 116.92 68.6078 116.92C69.3411 116.92 70.0478 117.027 70.7278 117.24C71.4211 117.453 71.9811 117.74 72.4078 118.1L71.5078 120.5C71.1745 120.233 70.7678 120.02 70.2878 119.86C69.8211 119.687 69.3811 119.6 68.9678 119.6C68.2478 119.6 67.6945 119.8 67.3078 120.2C66.9345 120.6 66.7478 121.207 66.7478 122.02C66.7478 122.833 66.9345 123.447 67.3078 123.86C67.6945 124.273 68.2478 124.48 68.9678 124.48C69.3811 124.48 69.8211 124.4 70.2878 124.24C70.7678 124.067 71.1745 123.84 71.5078 123.56L72.4078 125.98C71.9545 126.353 71.3745 126.647 70.6678 126.86C69.9745 127.06 69.2345 127.16 68.4478 127.16ZM80.045 124.6C80.3383 124.6 80.665 124.58 81.025 124.54L80.845 127.08C80.4183 127.133 80.005 127.16 79.605 127.16C78.005 127.16 76.8383 126.827 76.105 126.16C75.385 125.48 75.025 124.433 75.025 123.02V119.78H73.185V117.16H75.025V114.3H78.585V117.16H80.945V119.78H78.585V123.04C78.585 124.08 79.0717 124.6 80.045 124.6ZM99.5731 124.08V127H89.8531V124.08H92.8731V116.9L90.4931 118.26L89.1731 115.62L93.9531 112.9H96.5531V124.08H99.5731Z" fill="black"/>
<mask id="mask2" mask-type="alpha" maskUnits="userSpaceOnUse" x="240" y="8" width="72" height="80">
<path fill-rule="evenodd" clip-rule="evenodd" d="M304 16H287.28C285.6 11.36 281.2 8 276 8C270.8 8 266.4 11.36 264.72 16H248C243.6 16 240 19.6 240 24V80C240 84.4 243.6 88 248 88H304C308.4 88 312 84.4 312 80V24C312 19.6 308.4 16 304 16V16ZM276 16C278.2 16 280 17.8 280 20C280 22.2 278.2 24 276 24C273.8 24 272 22.2 272 20C272 17.8 273.8 16 276 16V16ZM284 72H256V64H284V72V72ZM296 56H256V48H296V56V56ZM296 40H256V32H296V40V40Z" fill="white"/>
</mask>
<g mask="url(#mask2)">
<rect x="176" y="-52" width="200" height="200" fill="#D13137"/>
<mask id="mask3" mask-type="alpha" maskUnits="userSpaceOnUse" x="176" y="-52" width="200" height="200">
<rect x="176" y="-52" width="200" height="200" fill="white"/>
</mask>
<g mask="url(#mask3)">
</g>
</g>
<path d="M231.28 112.9H238.1C239.66 112.9 240.873 113.3 241.74 114.1C242.607 114.887 243.04 115.987 243.04 117.4C243.04 118.8 242.6 119.9 241.72 120.7C240.853 121.5 239.647 121.9 238.1 121.9H234.96V127H231.28V112.9ZM237.6 119.14C238.28 119.14 238.78 119 239.1 118.72C239.433 118.44 239.6 118.007 239.6 117.42C239.6 116.833 239.433 116.4 239.1 116.12C238.78 115.827 238.28 115.68 237.6 115.68H234.96V119.14H237.6ZM252.46 119.82L250.52 120.02C249.747 120.1 249.207 120.307 248.9 120.64C248.593 120.973 248.44 121.447 248.44 122.06V127H244.88V117.16H248.26V118.86C248.487 118.26 248.86 117.807 249.38 117.5C249.9 117.18 250.533 117 251.28 116.96L252.26 116.88L252.46 119.82ZM258.523 127.16C257.443 127.16 256.49 126.953 255.663 126.54C254.85 126.113 254.217 125.513 253.763 124.74C253.323 123.967 253.103 123.06 253.103 122.02C253.103 120.98 253.323 120.08 253.763 119.32C254.217 118.547 254.85 117.953 255.663 117.54C256.477 117.127 257.43 116.92 258.523 116.92C259.617 116.92 260.57 117.127 261.383 117.54C262.197 117.953 262.823 118.547 263.263 119.32C263.717 120.08 263.943 120.98 263.943 122.02C263.943 123.06 263.717 123.967 263.263 124.74C262.823 125.513 262.197 126.113 261.383 126.54C260.57 126.953 259.617 127.16 258.523 127.16ZM258.523 124.5C259.79 124.5 260.423 123.673 260.423 122.02C260.423 120.367 259.79 119.54 258.523 119.54C257.257 119.54 256.623 120.367 256.623 122.02C256.623 123.673 257.257 124.5 258.523 124.5ZM276.476 112.9V127H272.976V125.66C272.696 126.127 272.282 126.493 271.736 126.76C271.202 127.027 270.609 127.16 269.956 127.16C269.116 127.16 268.362 126.947 267.696 126.52C267.042 126.08 266.529 125.467 266.156 124.68C265.782 123.893 265.596 122.993 265.596 121.98C265.596 120.967 265.776 120.08 266.136 119.32C266.509 118.547 267.022 117.953 267.676 117.54C268.342 117.127 269.102 116.92 269.956 116.92C270.582 116.92 271.156 117.047 271.676 117.3C272.209 117.553 272.622 117.893 272.916 118.32V112.9H276.476ZM271.036 124.5C271.662 124.5 272.142 124.287 272.476 123.86C272.809 123.433 272.976 122.82 272.976 122.02C272.976 121.233 272.809 120.633 272.476 120.22C272.142 119.793 271.662 119.58 271.036 119.58C270.422 119.58 269.949 119.787 269.616 120.2C269.282 120.613 269.116 121.207 269.116 121.98C269.116 122.78 269.282 123.4 269.616 123.84C269.962 124.28 270.436 124.5 271.036 124.5ZM288.976 117.16V127H285.516V125.68C285.209 126.16 284.816 126.527 284.336 126.78C283.869 127.033 283.329 127.16 282.716 127.16C281.449 127.16 280.509 126.813 279.896 126.12C279.282 125.413 278.976 124.347 278.976 122.92V117.16H282.536V123C282.536 123.96 282.949 124.44 283.776 124.44C284.256 124.44 284.649 124.267 284.956 123.92C285.262 123.573 285.416 123.12 285.416 122.56V117.16H288.976ZM296.448 127.16C294.768 127.16 293.454 126.707 292.508 125.8C291.561 124.893 291.088 123.66 291.088 122.1C291.088 121.073 291.314 120.167 291.768 119.38C292.234 118.593 292.881 117.987 293.708 117.56C294.548 117.133 295.514 116.92 296.608 116.92C297.341 116.92 298.048 117.027 298.728 117.24C299.421 117.453 299.981 117.74 300.408 118.1L299.508 120.5C299.174 120.233 298.768 120.02 298.288 119.86C297.821 119.687 297.381 119.6 296.968 119.6C296.248 119.6 295.694 119.8 295.308 120.2C294.934 120.6 294.748 121.207 294.748 122.02C294.748 122.833 294.934 123.447 295.308 123.86C295.694 124.273 296.248 124.48 296.968 124.48C297.381 124.48 297.821 124.4 298.288 124.24C298.768 124.067 299.174 123.84 299.508 123.56L300.408 125.98C299.954 126.353 299.374 126.647 298.668 126.86C297.974 127.06 297.234 127.16 296.448 127.16ZM308.045 124.6C308.338 124.6 308.665 124.58 309.025 124.54L308.845 127.08C308.418 127.133 308.005 127.16 307.605 127.16C306.005 127.16 304.838 126.827 304.105 126.16C303.385 125.48 303.025 124.433 303.025 123.02V119.78H301.185V117.16H303.025V114.3H306.585V117.16H308.945V119.78H306.585V123.04C306.585 124.08 307.072 124.6 308.045 124.6ZM327.073 124.08V127H317.133V124.28L321.733 119.5C322.613 118.58 323.053 117.733 323.053 116.96C323.053 116.027 322.5 115.56 321.393 115.56C320.86 115.56 320.28 115.673 319.653 115.9C319.04 116.113 318.42 116.42 317.793 116.82L316.653 114.22C317.213 113.767 317.94 113.407 318.833 113.14C319.74 112.86 320.66 112.72 321.593 112.72C322.606 112.72 323.493 112.887 324.253 113.22C325.026 113.54 325.62 114 326.033 114.6C326.446 115.2 326.653 115.9 326.653 116.7C326.653 117.513 326.486 118.26 326.153 118.94C325.833 119.607 325.28 120.353 324.493 121.18L321.653 124.08H327.073Z" fill="black"/>
<mask id="mask4" mask-type="alpha" maskUnits="userSpaceOnUse" x="470" y="248" width="72" height="80">
<path fill-rule="evenodd" clip-rule="evenodd" d="M534 256H517.28C515.6 251.36 511.2 248 506 248C500.8 248 496.4 251.36 494.72 256H478C473.6 256 470 259.6 470 264V320C470 324.4 473.6 328 478 328H534C538.4 328 542 324.4 542 320V264C542 259.6 538.4 256 534 256V256ZM506 256C508.2 256 510 257.8 510 260C510 262.2 508.2 264 506 264C503.8 264 502 262.2 502 260C502 257.8 503.8 256 506 256V256ZM514 312H486V304H514V312V312ZM526 296H486V288H526V296V296ZM526 280H486V272H526V280V280Z" fill="white"/>
</mask>
<g mask="url(#mask4)">
<rect x="406" y="188" width="200" height="200" fill="#219653"/>
<mask id="mask5" mask-type="alpha" maskUnits="userSpaceOnUse" x="406" y="188" width="200" height="200">
<rect x="406" y="188" width="200" height="200" fill="white"/>
</mask>
<g mask="url(#mask5)">
</g>
</g>
<path d="M419.372 367.18C417.905 367.18 416.625 366.88 415.532 366.28C414.452 365.68 413.619 364.833 413.032 363.74C412.459 362.647 412.172 361.38 412.172 359.94C412.172 358.5 412.459 357.24 413.032 356.16C413.619 355.067 414.452 354.22 415.532 353.62C416.625 353.02 417.905 352.72 419.372 352.72C420.292 352.72 421.179 352.86 422.032 353.14C422.899 353.42 423.605 353.793 424.152 354.26L423.012 356.86C421.852 356.047 420.665 355.64 419.452 355.64C418.305 355.64 417.425 356 416.812 356.72C416.212 357.44 415.912 358.513 415.912 359.94C415.912 361.367 416.212 362.447 416.812 363.18C417.425 363.9 418.305 364.26 419.452 364.26C420.665 364.26 421.852 363.853 423.012 363.04L424.152 365.64C423.605 366.107 422.899 366.48 422.032 366.76C421.179 367.04 420.292 367.18 419.372 367.18ZM431.111 367.16C430.031 367.16 429.078 366.953 428.251 366.54C427.438 366.113 426.805 365.513 426.351 364.74C425.911 363.967 425.691 363.06 425.691 362.02C425.691 360.98 425.911 360.08 426.351 359.32C426.805 358.547 427.438 357.953 428.251 357.54C429.065 357.127 430.018 356.92 431.111 356.92C432.205 356.92 433.158 357.127 433.971 357.54C434.785 357.953 435.411 358.547 435.851 359.32C436.305 360.08 436.531 360.98 436.531 362.02C436.531 363.06 436.305 363.967 435.851 364.74C435.411 365.513 434.785 366.113 433.971 366.54C433.158 366.953 432.205 367.16 431.111 367.16ZM431.111 364.5C432.378 364.5 433.011 363.673 433.011 362.02C433.011 360.367 432.378 359.54 431.111 359.54C429.845 359.54 429.211 360.367 429.211 362.02C429.211 363.673 429.845 364.5 431.111 364.5ZM451.204 356.92C452.35 356.92 453.197 357.267 453.744 357.96C454.304 358.653 454.584 359.72 454.584 361.16V367H451.024V361.26C451.024 360.687 450.937 360.273 450.764 360.02C450.59 359.767 450.304 359.64 449.904 359.64C449.41 359.64 449.03 359.813 448.764 360.16C448.51 360.507 448.384 361 448.384 361.64V367H444.824V361.26C444.824 360.687 444.737 360.273 444.564 360.02C444.39 359.767 444.104 359.64 443.704 359.64C443.21 359.64 442.837 359.813 442.584 360.16C442.33 360.507 442.204 361 442.204 361.64V367H438.644V357.16H442.104V358.4C442.757 357.413 443.757 356.92 445.104 356.92C446.517 356.92 447.47 357.5 447.964 358.66C448.31 358.113 448.764 357.687 449.324 357.38C449.897 357.073 450.524 356.92 451.204 356.92ZM463.613 356.92C464.466 356.92 465.219 357.127 465.873 357.54C466.526 357.953 467.033 358.547 467.393 359.32C467.766 360.08 467.953 360.967 467.953 361.98C467.953 362.993 467.766 363.893 467.393 364.68C467.033 365.467 466.519 366.08 465.853 366.52C465.199 366.947 464.453 367.16 463.613 367.16C462.959 367.16 462.359 367.027 461.813 366.76C461.279 366.493 460.873 366.127 460.593 365.66V367H457.093V352.9H460.653V358.32C460.946 357.893 461.353 357.553 461.873 357.3C462.406 357.047 462.986 356.92 463.613 356.92ZM462.513 364.5C463.126 364.5 463.599 364.287 463.933 363.86C464.266 363.42 464.433 362.793 464.433 361.98C464.433 361.207 464.266 360.613 463.933 360.2C463.613 359.787 463.146 359.58 462.533 359.58C461.906 359.58 461.426 359.793 461.093 360.22C460.759 360.633 460.593 361.233 460.593 362.02C460.593 362.82 460.759 363.433 461.093 363.86C461.426 364.287 461.899 364.5 462.513 364.5ZM470.093 357.16H473.653V367H470.093V357.16ZM473.733 352.24V355.46H470.013V352.24H473.733ZM482.838 356.92C484.011 356.92 484.884 357.273 485.458 357.98C486.031 358.673 486.318 359.733 486.318 361.16V367H482.758V361.32C482.758 360.733 482.651 360.307 482.438 360.04C482.238 359.773 481.931 359.64 481.518 359.64C480.984 359.64 480.558 359.813 480.238 360.16C479.931 360.493 479.778 360.947 479.778 361.52V367H476.218V357.16H479.678V358.48C480.024 357.973 480.471 357.587 481.018 357.32C481.564 357.053 482.171 356.92 482.838 356.92ZM497.907 362.76H491.827C491.934 363.4 492.167 363.86 492.527 364.14C492.887 364.42 493.4 364.56 494.067 364.56C494.547 364.56 495.034 364.48 495.527 364.32C496.02 364.16 496.46 363.94 496.847 363.66L497.747 366C497.254 366.36 496.66 366.647 495.967 366.86C495.274 367.06 494.58 367.16 493.887 367.16C492.754 367.16 491.774 366.953 490.947 366.54C490.12 366.127 489.48 365.533 489.027 364.76C488.587 363.987 488.367 363.08 488.367 362.04C488.367 361.053 488.574 360.173 488.987 359.4C489.414 358.613 490 358.007 490.747 357.58C491.507 357.14 492.36 356.92 493.307 356.92C494.72 356.92 495.84 357.373 496.667 358.28C497.494 359.173 497.907 360.4 497.907 361.96V362.76ZM493.407 359.32C492.46 359.32 491.92 359.907 491.787 361.08H494.927C494.847 359.907 494.34 359.32 493.407 359.32ZM510.45 352.9V367H506.95V365.66C506.67 366.127 506.257 366.493 505.71 366.76C505.177 367.027 504.584 367.16 503.93 367.16C503.09 367.16 502.337 366.947 501.67 366.52C501.017 366.08 500.504 365.467 500.13 364.68C499.757 363.893 499.57 362.993 499.57 361.98C499.57 360.967 499.75 360.08 500.11 359.32C500.484 358.547 500.997 357.953 501.65 357.54C502.317 357.127 503.077 356.92 503.93 356.92C504.557 356.92 505.13 357.047 505.65 357.3C506.184 357.553 506.597 357.893 506.89 358.32V352.9H510.45ZM505.01 364.5C505.637 364.5 506.117 364.287 506.45 363.86C506.784 363.433 506.95 362.82 506.95 362.02C506.95 361.233 506.784 360.633 506.45 360.22C506.117 359.793 505.637 359.58 505.01 359.58C504.397 359.58 503.924 359.787 503.59 360.2C503.257 360.613 503.09 361.207 503.09 361.98C503.09 362.78 503.257 363.4 503.59 363.84C503.937 364.28 504.41 364.5 505.01 364.5ZM519.493 352.9H526.313C527.873 352.9 529.086 353.3 529.953 354.1C530.82 354.887 531.253 355.987 531.253 357.4C531.253 358.8 530.813 359.9 529.933 360.7C529.066 361.5 527.86 361.9 526.313 361.9H523.173V367H519.493V352.9ZM525.813 359.14C526.493 359.14 526.993 359 527.313 358.72C527.646 358.44 527.813 358.007 527.813 357.42C527.813 356.833 527.646 356.4 527.313 356.12C526.993 355.827 526.493 355.68 525.813 355.68H523.173V359.14H525.813ZM540.673 359.82L538.733 360.02C537.959 360.1 537.419 360.307 537.113 360.64C536.806 360.973 536.653 361.447 536.653 362.06V367H533.093V357.16H536.473V358.86C536.699 358.26 537.073 357.807 537.593 357.5C538.113 357.18 538.746 357 539.493 356.96L540.473 356.88L540.673 359.82ZM546.736 367.16C545.656 367.16 544.703 366.953 543.876 366.54C543.063 366.113 542.43 365.513 541.976 364.74C541.536 363.967 541.316 363.06 541.316 362.02C541.316 360.98 541.536 360.08 541.976 359.32C542.43 358.547 543.063 357.953 543.876 357.54C544.69 357.127 545.643 356.92 546.736 356.92C547.83 356.92 548.783 357.127 549.596 357.54C550.41 357.953 551.036 358.547 551.476 359.32C551.93 360.08 552.156 360.98 552.156 362.02C552.156 363.06 551.93 363.967 551.476 364.74C551.036 365.513 550.41 366.113 549.596 366.54C548.783 366.953 547.83 367.16 546.736 367.16ZM546.736 364.5C548.003 364.5 548.636 363.673 548.636 362.02C548.636 360.367 548.003 359.54 546.736 359.54C545.47 359.54 544.836 360.367 544.836 362.02C544.836 363.673 545.47 364.5 546.736 364.5ZM564.689 352.9V367H561.189V365.66C560.909 366.127 560.495 366.493 559.949 366.76C559.415 367.027 558.822 367.16 558.169 367.16C557.329 367.16 556.575 366.947 555.909 366.52C555.255 366.08 554.742 365.467 554.369 364.68C553.995 363.893 553.809 362.993 553.809 361.98C553.809 360.967 553.989 360.08 554.349 359.32C554.722 358.547 555.235 357.953 555.889 357.54C556.555 357.127 557.315 356.92 558.169 356.92C558.795 356.92 559.369 357.047 559.889 357.3C560.422 357.553 560.835 357.893 561.129 358.32V352.9H564.689ZM559.249 364.5C559.875 364.5 560.355 364.287 560.689 363.86C561.022 363.433 561.189 362.82 561.189 362.02C561.189 361.233 561.022 360.633 560.689 360.22C560.355 359.793 559.875 359.58 559.249 359.58C558.635 359.58 558.162 359.787 557.829 360.2C557.495 360.613 557.329 361.207 557.329 361.98C557.329 362.78 557.495 363.4 557.829 363.84C558.175 364.28 558.649 364.5 559.249 364.5ZM577.189 357.16V367H573.729V365.68C573.422 366.16 573.029 366.527 572.549 366.78C572.082 367.033 571.542 367.16 570.929 367.16C569.662 367.16 568.722 366.813 568.109 366.12C567.495 365.413 567.189 364.347 567.189 362.92V357.16H570.749V363C570.749 363.96 571.162 364.44 571.989 364.44C572.469 364.44 572.862 364.267 573.169 363.92C573.475 363.573 573.629 363.12 573.629 362.56V357.16H577.189ZM584.661 367.16C582.981 367.16 581.667 366.707 580.721 365.8C579.774 364.893 579.301 363.66 579.301 362.1C579.301 361.073 579.527 360.167 579.981 359.38C580.447 358.593 581.094 357.987 581.921 357.56C582.761 357.133 583.727 356.92 584.821 356.92C585.554 356.92 586.261 357.027 586.941 357.24C587.634 357.453 588.194 357.74 588.621 358.1L587.721 360.5C587.387 360.233 586.981 360.02 586.501 359.86C586.034 359.687 585.594 359.6 585.181 359.6C584.461 359.6 583.907 359.8 583.521 360.2C583.147 360.6 582.961 361.207 582.961 362.02C582.961 362.833 583.147 363.447 583.521 363.86C583.907 364.273 584.461 364.48 585.181 364.48C585.594 364.48 586.034 364.4 586.501 364.24C586.981 364.067 587.387 363.84 587.721 363.56L588.621 365.98C588.167 366.353 587.587 366.647 586.881 366.86C586.187 367.06 585.447 367.16 584.661 367.16ZM596.258 364.6C596.551 364.6 596.878 364.58 597.238 364.54L597.058 367.08C596.631 367.133 596.218 367.16 595.818 367.16C594.218 367.16 593.051 366.827 592.318 366.16C591.598 365.48 591.238 364.433 591.238 363.02V359.78H589.398V357.16H591.238V354.3H594.798V357.16H597.158V359.78H594.798V363.04C594.798 364.08 595.285 364.6 596.258 364.6ZM602.943 367.16C601.997 367.16 601.123 367.06 600.323 366.86C599.523 366.66 598.85 366.367 598.303 365.98L599.203 363.56C599.737 363.907 600.343 364.187 601.023 364.4C601.703 364.6 602.357 364.7 602.983 364.7C603.37 364.7 603.67 364.647 603.883 364.54C604.097 364.42 604.203 364.26 604.203 364.06C604.203 363.887 604.123 363.753 603.963 363.66C603.817 363.567 603.51 363.467 603.043 363.36L601.463 363C600.463 362.773 599.743 362.44 599.303 362C598.863 361.56 598.643 360.933 598.643 360.12C598.643 359.493 598.83 358.94 599.203 358.46C599.577 357.967 600.097 357.587 600.763 357.32C601.443 357.053 602.21 356.92 603.063 356.92C603.77 356.92 604.47 357.027 605.163 357.24C605.87 357.44 606.51 357.727 607.083 358.1L606.163 360.42C605.63 360.087 605.09 359.833 604.543 359.66C604.01 359.473 603.503 359.38 603.023 359.38C602.637 359.38 602.337 359.44 602.123 359.56C601.91 359.68 601.803 359.853 601.803 360.08C601.803 360.213 601.87 360.327 602.003 360.42C602.137 360.5 602.37 360.58 602.703 360.66L604.363 361.04C605.403 361.267 606.157 361.62 606.623 362.1C607.09 362.567 607.323 363.207 607.323 364.02C607.323 364.993 606.93 365.76 606.143 366.32C605.37 366.88 604.303 367.16 602.943 367.16Z" fill="black"/>
<mask id="mask6" mask-type="alpha" maskUnits="userSpaceOnUse" x="468" y="8" width="72" height="80">
<path fill-rule="evenodd" clip-rule="evenodd" d="M532 16H515.28C513.6 11.36 509.2 8 504 8C498.8 8 494.4 11.36 492.72 16H476C471.6 16 468 19.6 468 24V80C468 84.4 471.6 88 476 88H532C536.4 88 540 84.4 540 80V24C540 19.6 536.4 16 532 16V16ZM504 16C506.2 16 508 17.8 508 20C508 22.2 506.2 24 504 24C501.8 24 500 22.2 500 20C500 17.8 501.8 16 504 16V16ZM512 72H484V64H512V72V72ZM524 56H484V48H524V56V56ZM524 40H484V32H524V40V40Z" fill="white"/>
</mask>
<g mask="url(#mask6)">
<rect x="404" y="-52" width="200" height="200" fill="#455FA8"/>
<mask id="mask7" mask-type="alpha" maskUnits="userSpaceOnUse" x="404" y="-52" width="200" height="200">
<rect x="404" y="-52" width="200" height="200" fill="white"/>
</mask>
<g mask="url(#mask7)">
</g>
</g>
<path d="M459.28 112.9H466.1C467.66 112.9 468.873 113.3 469.74 114.1C470.607 114.887 471.04 115.987 471.04 117.4C471.04 118.8 470.6 119.9 469.72 120.7C468.853 121.5 467.647 121.9 466.1 121.9H462.96V127H459.28V112.9ZM465.6 119.14C466.28 119.14 466.78 119 467.1 118.72C467.433 118.44 467.6 118.007 467.6 117.42C467.6 116.833 467.433 116.4 467.1 116.12C466.78 115.827 466.28 115.68 465.6 115.68H462.96V119.14H465.6ZM480.46 119.82L478.52 120.02C477.747 120.1 477.207 120.307 476.9 120.64C476.593 120.973 476.44 121.447 476.44 122.06V127H472.88V117.16H476.26V118.86C476.487 118.26 476.86 117.807 477.38 117.5C477.9 117.18 478.533 117 479.28 116.96L480.26 116.88L480.46 119.82ZM486.523 127.16C485.443 127.16 484.49 126.953 483.663 126.54C482.85 126.113 482.217 125.513 481.763 124.74C481.323 123.967 481.103 123.06 481.103 122.02C481.103 120.98 481.323 120.08 481.763 119.32C482.217 118.547 482.85 117.953 483.663 117.54C484.477 117.127 485.43 116.92 486.523 116.92C487.617 116.92 488.57 117.127 489.383 117.54C490.197 117.953 490.823 118.547 491.263 119.32C491.717 120.08 491.943 120.98 491.943 122.02C491.943 123.06 491.717 123.967 491.263 124.74C490.823 125.513 490.197 126.113 489.383 126.54C488.57 126.953 487.617 127.16 486.523 127.16ZM486.523 124.5C487.79 124.5 488.423 123.673 488.423 122.02C488.423 120.367 487.79 119.54 486.523 119.54C485.257 119.54 484.623 120.367 484.623 122.02C484.623 123.673 485.257 124.5 486.523 124.5ZM504.476 112.9V127H500.976V125.66C500.696 126.127 500.282 126.493 499.736 126.76C499.202 127.027 498.609 127.16 497.956 127.16C497.116 127.16 496.362 126.947 495.696 126.52C495.042 126.08 494.529 125.467 494.156 124.68C493.782 123.893 493.596 122.993 493.596 121.98C493.596 120.967 493.776 120.08 494.136 119.32C494.509 118.547 495.022 117.953 495.676 117.54C496.342 117.127 497.102 116.92 497.956 116.92C498.582 116.92 499.156 117.047 499.676 117.3C500.209 117.553 500.622 117.893 500.916 118.32V112.9H504.476ZM499.036 124.5C499.662 124.5 500.142 124.287 500.476 123.86C500.809 123.433 500.976 122.82 500.976 122.02C500.976 121.233 500.809 120.633 500.476 120.22C500.142 119.793 499.662 119.58 499.036 119.58C498.422 119.58 497.949 119.787 497.616 120.2C497.282 120.613 497.116 121.207 497.116 121.98C497.116 122.78 497.282 123.4 497.616 123.84C497.962 124.28 498.436 124.5 499.036 124.5ZM516.976 117.16V127H513.516V125.68C513.209 126.16 512.816 126.527 512.336 126.78C511.869 127.033 511.329 127.16 510.716 127.16C509.449 127.16 508.509 126.813 507.896 126.12C507.282 125.413 506.976 124.347 506.976 122.92V117.16H510.536V123C510.536 123.96 510.949 124.44 511.776 124.44C512.256 124.44 512.649 124.267 512.956 123.92C513.262 123.573 513.416 123.12 513.416 122.56V117.16H516.976ZM524.448 127.16C522.768 127.16 521.454 126.707 520.508 125.8C519.561 124.893 519.088 123.66 519.088 122.1C519.088 121.073 519.314 120.167 519.768 119.38C520.234 118.593 520.881 117.987 521.708 117.56C522.548 117.133 523.514 116.92 524.608 116.92C525.341 116.92 526.048 117.027 526.728 117.24C527.421 117.453 527.981 117.74 528.408 118.1L527.508 120.5C527.174 120.233 526.768 120.02 526.288 119.86C525.821 119.687 525.381 119.6 524.968 119.6C524.248 119.6 523.694 119.8 523.308 120.2C522.934 120.6 522.748 121.207 522.748 122.02C522.748 122.833 522.934 123.447 523.308 123.86C523.694 124.273 524.248 124.48 524.968 124.48C525.381 124.48 525.821 124.4 526.288 124.24C526.768 124.067 527.174 123.84 527.508 123.56L528.408 125.98C527.954 126.353 527.374 126.647 526.668 126.86C525.974 127.06 525.234 127.16 524.448 127.16ZM536.045 124.6C536.338 124.6 536.665 124.58 537.025 124.54L536.845 127.08C536.418 127.133 536.005 127.16 535.605 127.16C534.005 127.16 532.838 126.827 532.105 126.16C531.385 125.48 531.025 124.433 531.025 123.02V119.78H529.185V117.16H531.025V114.3H534.585V117.16H536.945V119.78H534.585V123.04C534.585 124.08 535.072 124.6 536.045 124.6ZM552.473 119.74C553.273 119.967 553.893 120.38 554.333 120.98C554.786 121.58 555.013 122.307 555.013 123.16C555.013 124.4 554.52 125.38 553.533 126.1C552.56 126.807 551.226 127.16 549.533 127.16C548.533 127.16 547.573 127.027 546.653 126.76C545.733 126.48 545 126.113 544.453 125.66L545.593 123.06C546.846 123.9 548.1 124.32 549.353 124.32C550.153 124.32 550.72 124.2 551.053 123.96C551.4 123.72 551.573 123.32 551.573 122.76C551.573 122.24 551.406 121.867 551.073 121.64C550.74 121.413 550.193 121.3 549.433 121.3H547.253V118.46H549.073C549.806 118.46 550.34 118.353 550.673 118.14C551.006 117.927 551.173 117.587 551.173 117.12C551.173 116.627 551.013 116.247 550.693 115.98C550.386 115.7 549.946 115.56 549.373 115.56C548.813 115.56 548.22 115.673 547.593 115.9C546.966 116.113 546.366 116.42 545.793 116.82L544.653 114.22C545.213 113.767 545.946 113.407 546.853 113.14C547.773 112.86 548.706 112.72 549.653 112.72C550.653 112.72 551.526 112.88 552.273 113.2C553.033 113.52 553.62 113.973 554.033 114.56C554.446 115.147 554.653 115.827 554.653 116.6C554.653 117.347 554.46 117.993 554.073 118.54C553.7 119.087 553.166 119.487 552.473 119.74Z" fill="black"/>
<mask id="mask8" mask-type="alpha" maskUnits="userSpaceOnUse" x="696" y="8" width="72" height="80">
<path fill-rule="evenodd" clip-rule="evenodd" d="M760 16H743.28C741.6 11.36 737.2 8 732 8C726.8 8 722.4 11.36 720.72 16H704C699.6 16 696 19.6 696 24V80C696 84.4 699.6 88 704 88H760C764.4 88 768 84.4 768 80V24C768 19.6 764.4 16 760 16V16ZM732 16C734.2 16 736 17.8 736 20C736 22.2 734.2 24 732 24C729.8 24 728 22.2 728 20C728 17.8 729.8 16 732 16V16ZM740 72H712V64H740V72V72ZM752 56H712V48H752V56V56ZM752 40H712V32H752V40V40Z" fill="white"/>
</mask>
<g mask="url(#mask8)">
<rect x="632" y="-52" width="200" height="200" fill="#808692"/>
<mask id="mask9" mask-type="alpha" maskUnits="userSpaceOnUse" x="632" y="-52" width="200" height="200">
<rect x="632" y="-52" width="200" height="200" fill="white"/>
</mask>
<g mask="url(#mask9)">
</g>
</g>
<path d="M687.28 112.9H694.1C695.66 112.9 696.873 113.3 697.74 114.1C698.607 114.887 699.04 115.987 699.04 117.4C699.04 118.8 698.6 119.9 697.72 120.7C696.853 121.5 695.647 121.9 694.1 121.9H690.96V127H687.28V112.9ZM693.6 119.14C694.28 119.14 694.78 119 695.1 118.72C695.433 118.44 695.6 118.007 695.6 117.42C695.6 116.833 695.433 116.4 695.1 116.12C694.78 115.827 694.28 115.68 693.6 115.68H690.96V119.14H693.6ZM708.46 119.82L706.52 120.02C705.747 120.1 705.207 120.307 704.9 120.64C704.593 120.973 704.44 121.447 704.44 122.06V127H700.88V117.16H704.26V118.86C704.487 118.26 704.86 117.807 705.38 117.5C705.9 117.18 706.533 117 707.28 116.96L708.26 116.88L708.46 119.82ZM714.523 127.16C713.443 127.16 712.49 126.953 711.663 126.54C710.85 126.113 710.217 125.513 709.763 124.74C709.323 123.967 709.103 123.06 709.103 122.02C709.103 120.98 709.323 120.08 709.763 119.32C710.217 118.547 710.85 117.953 711.663 117.54C712.477 117.127 713.43 116.92 714.523 116.92C715.617 116.92 716.57 117.127 717.383 117.54C718.197 117.953 718.823 118.547 719.263 119.32C719.717 120.08 719.943 120.98 719.943 122.02C719.943 123.06 719.717 123.967 719.263 124.74C718.823 125.513 718.197 126.113 717.383 126.54C716.57 126.953 715.617 127.16 714.523 127.16ZM714.523 124.5C715.79 124.5 716.423 123.673 716.423 122.02C716.423 120.367 715.79 119.54 714.523 119.54C713.257 119.54 712.623 120.367 712.623 122.02C712.623 123.673 713.257 124.5 714.523 124.5ZM732.476 112.9V127H728.976V125.66C728.696 126.127 728.282 126.493 727.736 126.76C727.202 127.027 726.609 127.16 725.956 127.16C725.116 127.16 724.362 126.947 723.696 126.52C723.042 126.08 722.529 125.467 722.156 124.68C721.782 123.893 721.596 122.993 721.596 121.98C721.596 120.967 721.776 120.08 722.136 119.32C722.509 118.547 723.022 117.953 723.676 117.54C724.342 117.127 725.102 116.92 725.956 116.92C726.582 116.92 727.156 117.047 727.676 117.3C728.209 117.553 728.622 117.893 728.916 118.32V112.9H732.476ZM727.036 124.5C727.662 124.5 728.142 124.287 728.476 123.86C728.809 123.433 728.976 122.82 728.976 122.02C728.976 121.233 728.809 120.633 728.476 120.22C728.142 119.793 727.662 119.58 727.036 119.58C726.422 119.58 725.949 119.787 725.616 120.2C725.282 120.613 725.116 121.207 725.116 121.98C725.116 122.78 725.282 123.4 725.616 123.84C725.962 124.28 726.436 124.5 727.036 124.5ZM744.976 117.16V127H741.516V125.68C741.209 126.16 740.816 126.527 740.336 126.78C739.869 127.033 739.329 127.16 738.716 127.16C737.449 127.16 736.509 126.813 735.896 126.12C735.282 125.413 734.976 124.347 734.976 122.92V117.16H738.536V123C738.536 123.96 738.949 124.44 739.776 124.44C740.256 124.44 740.649 124.267 740.956 123.92C741.262 123.573 741.416 123.12 741.416 122.56V117.16H744.976ZM752.448 127.16C750.768 127.16 749.454 126.707 748.508 125.8C747.561 124.893 747.088 123.66 747.088 122.1C747.088 121.073 747.314 120.167 747.768 119.38C748.234 118.593 748.881 117.987 749.708 117.56C750.548 117.133 751.514 116.92 752.608 116.92C753.341 116.92 754.048 117.027 754.728 117.24C755.421 117.453 755.981 117.74 756.408 118.1L755.508 120.5C755.174 120.233 754.768 120.02 754.288 119.86C753.821 119.687 753.381 119.6 752.968 119.6C752.248 119.6 751.694 119.8 751.308 120.2C750.934 120.6 750.748 121.207 750.748 122.02C750.748 122.833 750.934 123.447 751.308 123.86C751.694 124.273 752.248 124.48 752.968 124.48C753.381 124.48 753.821 124.4 754.288 124.24C754.768 124.067 755.174 123.84 755.508 123.56L756.408 125.98C755.954 126.353 755.374 126.647 754.668 126.86C753.974 127.06 753.234 127.16 752.448 127.16ZM764.045 124.6C764.338 124.6 764.665 124.58 765.025 124.54L764.845 127.08C764.418 127.133 764.005 127.16 763.605 127.16C762.005 127.16 760.838 126.827 760.105 126.16C759.385 125.48 759.025 124.433 759.025 123.02V119.78H757.185V117.16H759.025V114.3H762.585V117.16H764.945V119.78H762.585V123.04C762.585 124.08 763.072 124.6 764.045 124.6ZM783.653 124.62H781.813V127H778.233V124.62H772.553V121.9L778.873 112.9H781.813V121.82H783.653V124.62ZM778.233 121.82V118.36L775.833 121.82H778.233Z" fill="black"/>
<mask id="mask10" mask-type="alpha" maskUnits="userSpaceOnUse" x="924" y="8" width="72" height="80">
<path fill-rule="evenodd" clip-rule="evenodd" d="M988 16H971.28C969.6 11.36 965.2 8 960 8C954.8 8 950.4 11.36 948.72 16H932C927.6 16 924 19.6 924 24V80C924 84.4 927.6 88 932 88H988C992.4 88 996 84.4 996 80V24C996 19.6 992.4 16 988 16V16ZM960 16C962.2 16 964 17.8 964 20C964 22.2 962.2 24 960 24C957.8 24 956 22.2 956 20C956 17.8 957.8 16 960 16V16ZM968 72H940V64H968V72V72ZM980 56H940V48H980V56V56ZM980 40H940V32H980V40V40Z" fill="white"/>
</mask>
<g mask="url(#mask10)">
<rect x="860" y="-52" width="200" height="200" fill="#9B51E0"/>
<mask id="mask11" mask-type="alpha" maskUnits="userSpaceOnUse" x="860" y="-52" width="200" height="200">
<rect x="860" y="-52" width="200" height="200" fill="white"/>
</mask>
<g mask="url(#mask11)">
</g>
</g>
<path d="M915.28 112.9H922.1C923.66 112.9 924.873 113.3 925.74 114.1C926.607 114.887 927.04 115.987 927.04 117.4C927.04 118.8 926.6 119.9 925.72 120.7C924.853 121.5 923.647 121.9 922.1 121.9H918.96V127H915.28V112.9ZM921.6 119.14C922.28 119.14 922.78 119 923.1 118.72C923.433 118.44 923.6 118.007 923.6 117.42C923.6 116.833 923.433 116.4 923.1 116.12C922.78 115.827 922.28 115.68 921.6 115.68H918.96V119.14H921.6ZM936.46 119.82L934.52 120.02C933.747 120.1 933.207 120.307 932.9 120.64C932.593 120.973 932.44 121.447 932.44 122.06V127H928.88V117.16H932.26V118.86C932.487 118.26 932.86 117.807 933.38 117.5C933.9 117.18 934.533 117 935.28 116.96L936.26 116.88L936.46 119.82ZM942.523 127.16C941.443 127.16 940.49 126.953 939.663 126.54C938.85 126.113 938.217 125.513 937.763 124.74C937.323 123.967 937.103 123.06 937.103 122.02C937.103 120.98 937.323 120.08 937.763 119.32C938.217 118.547 938.85 117.953 939.663 117.54C940.477 117.127 941.43 116.92 942.523 116.92C943.617 116.92 944.57 117.127 945.383 117.54C946.197 117.953 946.823 118.547 947.263 119.32C947.717 120.08 947.943 120.98 947.943 122.02C947.943 123.06 947.717 123.967 947.263 124.74C946.823 125.513 946.197 126.113 945.383 126.54C944.57 126.953 943.617 127.16 942.523 127.16ZM942.523 124.5C943.79 124.5 944.423 123.673 944.423 122.02C944.423 120.367 943.79 119.54 942.523 119.54C941.257 119.54 940.623 120.367 940.623 122.02C940.623 123.673 941.257 124.5 942.523 124.5ZM960.476 112.9V127H956.976V125.66C956.696 126.127 956.282 126.493 955.736 126.76C955.202 127.027 954.609 127.16 953.956 127.16C953.116 127.16 952.362 126.947 951.696 126.52C951.042 126.08 950.529 125.467 950.156 124.68C949.782 123.893 949.596 122.993 949.596 121.98C949.596 120.967 949.776 120.08 950.136 119.32C950.509 118.547 951.022 117.953 951.676 117.54C952.342 117.127 953.102 116.92 953.956 116.92C954.582 116.92 955.156 117.047 955.676 117.3C956.209 117.553 956.622 117.893 956.916 118.32V112.9H960.476ZM955.036 124.5C955.662 124.5 956.142 124.287 956.476 123.86C956.809 123.433 956.976 122.82 956.976 122.02C956.976 121.233 956.809 120.633 956.476 120.22C956.142 119.793 955.662 119.58 955.036 119.58C954.422 119.58 953.949 119.787 953.616 120.2C953.282 120.613 953.116 121.207 953.116 121.98C953.116 122.78 953.282 123.4 953.616 123.84C953.962 124.28 954.436 124.5 955.036 124.5ZM972.976 117.16V127H969.516V125.68C969.209 126.16 968.816 126.527 968.336 126.78C967.869 127.033 967.329 127.16 966.716 127.16C965.449 127.16 964.509 126.813 963.896 126.12C963.282 125.413 962.976 124.347 962.976 122.92V117.16H966.536V123C966.536 123.96 966.949 124.44 967.776 124.44C968.256 124.44 968.649 124.267 968.956 123.92C969.262 123.573 969.416 123.12 969.416 122.56V117.16H972.976ZM980.448 127.16C978.768 127.16 977.454 126.707 976.508 125.8C975.561 124.893 975.088 123.66 975.088 122.1C975.088 121.073 975.314 120.167 975.768 119.38C976.234 118.593 976.881 117.987 977.708 117.56C978.548 117.133 979.514 116.92 980.608 116.92C981.341 116.92 982.048 117.027 982.728 117.24C983.421 117.453 983.981 117.74 984.408 118.1L983.508 120.5C983.174 120.233 982.768 120.02 982.288 119.86C981.821 119.687 981.381 119.6 980.968 119.6C980.248 119.6 979.694 119.8 979.308 120.2C978.934 120.6 978.748 121.207 978.748 122.02C978.748 122.833 978.934 123.447 979.308 123.86C979.694 124.273 980.248 124.48 980.968 124.48C981.381 124.48 981.821 124.4 982.288 124.24C982.768 124.067 983.174 123.84 983.508 123.56L984.408 125.98C983.954 126.353 983.374 126.647 982.668 126.86C981.974 127.06 981.234 127.16 980.448 127.16ZM992.045 124.6C992.338 124.6 992.665 124.58 993.025 124.54L992.845 127.08C992.418 127.133 992.005 127.16 991.605 127.16C990.005 127.16 988.838 126.827 988.105 126.16C987.385 125.48 987.025 124.433 987.025 123.02V119.78H985.185V117.16H987.025V114.3H990.585V117.16H992.945V119.78H990.585V123.04C990.585 124.08 991.072 124.6 992.045 124.6ZM1006.91 117.78C1007.78 117.78 1008.55 117.973 1009.23 118.36C1009.91 118.733 1010.44 119.267 1010.81 119.96C1011.2 120.64 1011.39 121.427 1011.39 122.32C1011.39 123.293 1011.16 124.147 1010.69 124.88C1010.23 125.613 1009.57 126.18 1008.71 126.58C1007.86 126.967 1006.86 127.16 1005.71 127.16C1004.79 127.16 1003.88 127.027 1002.97 126.76C1002.08 126.48 1001.37 126.113 1000.83 125.66L1001.97 123.06C1003.23 123.9 1004.49 124.32 1005.75 124.32C1006.5 124.32 1007.05 124.173 1007.41 123.88C1007.77 123.573 1007.95 123.1 1007.95 122.46C1007.95 121.847 1007.76 121.38 1007.37 121.06C1007 120.727 1006.47 120.56 1005.79 120.56C1005.42 120.56 1005.01 120.627 1004.57 120.76C1004.15 120.88 1003.75 121.047 1003.39 121.26H1001.37V112.9H1010.67V115.68H1004.95V118.14C1005.47 117.9 1006.13 117.78 1006.91 117.78Z" fill="black"/>
<path d="M100 66H145C156.046 66 165 74.9543 165 86V286C165 297.046 173.954 306 185 306H255.5H411" stroke="black" stroke-width="2"/>
<path d="M278 132V286C278 297.046 286.954 306 298 306H432.5" stroke="black" stroke-width="2"/>
<path d="M506 132C506 132 506 213.912 506 235" stroke="black" stroke-width="2"/>
<path d="M734 132V286C734 297.046 725.046 306 714 306H608" stroke="black" stroke-width="2"/>
<path d="M912 66H861C849.954 66 841 74.9543 841 86V286C841 297.046 832.046 306 821 306H578.5" stroke="black" stroke-width="2"/>
</svg>
