<svg fill="none" height="372" viewBox="0 0 1012 372" width="1012" xmlns="http://www.w3.org/2000/svg" xmlns:xlink="http://www.w3.org/1999/xlink"><mask id="a" height="80" maskUnits="userSpaceOnUse" width="72" x="12" y="8"><path clip-rule="evenodd" d="m76 16h-16.72c-1.68-4.64-6.08-8-11.28-8s-9.6 3.36-11.28 8h-16.72c-4.4 0-8 3.6-8 8v56c0 4.4 3.6 8 8 8h56c4.4 0 8-3.6 8-8v-56c0-4.4-3.6-8-8-8zm-28 0c2.2 0 4 1.8 4 4s-1.8 4-4 4-4-1.8-4-4 1.8-4 4-4zm8 56h-28v-8h28zm12-16h-40v-8h40zm0-16h-40v-8h40z" fill="#fff" fill-rule="evenodd"/></mask><mask height="200" maskUnits="userSpaceOnUse" width="200" x="-52" y="-52"><path d="m-52-52h200v200h-200z" fill="#fff"/></mask><mask id="b" height="80" maskUnits="userSpaceOnUse" width="72" x="240" y="8"><path clip-rule="evenodd" d="m304 16h-16.72c-1.68-4.64-6.08-8-11.28-8s-9.6 3.36-11.28 8h-16.72c-4.4 0-8 3.6-8 8v56c0 4.4 3.6 8 8 8h56c4.4 0 8-3.6 8-8v-56c0-4.4-3.6-8-8-8zm-28 0c2.2 0 4 1.8 4 4s-1.8 4-4 4-4-1.8-4-4 1.8-4 4-4zm8 56h-28v-8h28zm12-16h-40v-8h40zm0-16h-40v-8h40z" fill="#fff" fill-rule="evenodd"/></mask><mask height="200" maskUnits="userSpaceOnUse" width="200" x="176" y="-52"><path d="m176-52h200v200h-200z" fill="#fff"/></mask><mask id="c" height="80" maskUnits="userSpaceOnUse" width="72" x="470" y="248"><path clip-rule="evenodd" d="m534 256h-16.72c-1.68-4.64-6.08-8-11.28-8s-9.6 3.36-11.28 8h-16.72c-4.4 0-8 3.6-8 8v56c0 4.4 3.6 8 8 8h56c4.4 0 8-3.6 8-8v-56c0-4.4-3.6-8-8-8zm-28 0c2.2 0 4 1.8 4 4s-1.8 4-4 4-4-1.8-4-4 1.8-4 4-4zm8 56h-28v-8h28zm12-16h-40v-8h40zm0-16h-40v-8h40z" fill="#fff" fill-rule="evenodd"/></mask><mask height="200" maskUnits="userSpaceOnUse" width="200" x="406" y="188"><path d="m406 188h200v200h-200z" fill="#fff"/></mask><mask id="d" height="80" maskUnits="userSpaceOnUse" width="72" x="468" y="8"><path clip-rule="evenodd" d="m532 16h-16.72c-1.68-4.64-6.08-8-11.28-8s-9.6 3.36-11.28 8h-16.72c-4.4 0-8 3.6-8 8v56c0 4.4 3.6 8 8 8h56c4.4 0 8-3.6 8-8v-56c0-4.4-3.6-8-8-8zm-28 0c2.2 0 4 1.8 4 4s-1.8 4-4 4-4-1.8-4-4 1.8-4 4-4zm8 56h-28v-8h28zm12-16h-40v-8h40zm0-16h-40v-8h40z" fill="#fff" fill-rule="evenodd"/></mask><mask height="200" maskUnits="userSpaceOnUse" width="200" x="404" y="-52"><path d="m404-52h200v200h-200z" fill="#fff"/></mask><mask id="e" height="80" maskUnits="userSpaceOnUse" width="72" x="696" y="8"><path clip-rule="evenodd" d="m760 16h-16.72c-1.68-4.64-6.08-8-11.28-8s-9.6 3.36-11.28 8h-16.72c-4.4 0-8 3.6-8 8v56c0 4.4 3.6 8 8 8h56c4.4 0 8-3.6 8-8v-56c0-4.4-3.6-8-8-8zm-28 0c2.2 0 4 1.8 4 4s-1.8 4-4 4-4-1.8-4-4 1.8-4 4-4zm8 56h-28v-8h28zm12-16h-40v-8h40zm0-16h-40v-8h40z" fill="#fff" fill-rule="evenodd"/></mask><mask height="200" maskUnits="userSpaceOnUse" width="200" x="632" y="-52"><path d="m632-52h200v200h-200z" fill="#fff"/></mask><mask id="f" height="80" maskUnits="userSpaceOnUse" width="72" x="924" y="8"><path clip-rule="evenodd" d="m988 16h-16.72c-1.68-4.64-6.08-8-11.28-8s-9.6 3.36-11.28 8h-16.72c-4.4 0-8 3.6-8 8v56c0 4.4 3.6 8 8 8h56c4.4 0 8-3.6 8-8v-56c0-4.4-3.6-8-8-8zm-28 0c2.2 0 4 1.8 4 4s-1.8 4-4 4-4-1.8-4-4 1.8-4 4-4zm8 56h-28v-8h28zm12-16h-40v-8h40zm0-16h-40v-8h40z" fill="#fff" fill-rule="evenodd"/></mask><mask height="200" maskUnits="userSpaceOnUse" width="200" x="860" y="-52"><path d="m860-52h200v200h-200z" fill="#fff"/></mask><g mask="url(#a)"><path d="m-52-52h200v200h-200z" fill="#eab331"/></g><path d="m3.28 112.9h6.82c1.56 0 2.7733.4 3.64 1.2.8667.787 1.3 1.887 1.3 3.3 0 1.4-.44 2.5-1.32 3.3-.8667.8-2.0733 1.2-3.62 1.2h-3.14v5.1h-3.68zm6.32 6.24c.68 0 1.18-.14 1.5-.42.3333-.28.5-.713.5-1.3s-.1667-1.02-.5-1.3c-.32-.293-.82-.44-1.5-.44h-2.64v3.46zm14.8598.68-1.94.2c-.7733.08-1.3133.287-1.62.62-.3066.333-.46.807-.46 1.42v4.94h-3.56v-9.84h3.38v1.7c.2267-.6.6-1.053 1.12-1.36.52-.32 1.1534-.5 1.9-.54l.98-.08zm6.0636 7.34c-1.08 0-2.0333-.207-2.86-.62-.8133-.427-1.4466-1.027-1.9-1.8-.44-.773-.66-1.68-.66-2.72s.22-1.94.66-2.7c.4534-.773 1.0867-1.367 1.9-1.78.8134-.413 1.7667-.62 2.86-.62 1.0934 0 2.0467.207 2.86.62.8134.413 1.44 1.007 1.88 1.78.4534.76.68 1.66.68 2.7s-.2266 1.947-.68 2.72c-.44.773-1.0666 1.373-1.88 1.8-.8133.413-1.7666.62-2.86.62zm0-2.66c1.2667 0 1.9-.827 1.9-2.48s-.6333-2.48-1.9-2.48c-1.2666 0-1.9.827-1.9 2.48s.6334 2.48 1.9 2.48zm17.9522-11.6v14.1h-3.5v-1.34c-.28.467-.6933.833-1.24 1.1-.5333.267-1.1266.4-1.78.4-.84 0-1.5933-.213-2.26-.64-.6533-.44-1.1666-1.053-1.54-1.84-.3733-.787-.56-1.687-.56-2.7s.18-1.9.54-2.66c.3734-.773.8867-1.367 1.54-1.78.6667-.413 1.4267-.62 2.28-.62.6267 0 1.2.127 1.72.38.5334.253.9467.593 1.24 1.02v-5.42zm-5.44 11.6c.6267 0 1.1067-.213 1.44-.64.3334-.427.5-1.04.5-1.84 0-.787-.1666-1.387-.5-1.8-.3333-.427-.8133-.64-1.44-.64-.6133 0-1.0866.207-1.42.62-.3333.413-.5 1.007-.5 1.78 0 .8.1667 1.42.5 1.86.3467.44.82.66 1.42.66zm17.94-7.34v9.84h-3.46v-1.32c-.3066.48-.7.847-1.18 1.1-.4666.253-1.0066.38-1.62.38-1.2666 0-2.2066-.347-2.82-1.04-.6133-.707-.92-1.773-.92-3.2v-5.76h3.56v5.84c0 .96.4134 1.44 1.24 1.44.48 0 .8734-.173 1.18-.52.3067-.347.46-.8.46-1.36v-5.4zm7.4722 10c-1.68 0-2.9933-.453-3.94-1.36s-1.42-2.14-1.42-3.7c0-1.027.2267-1.933.68-2.72.4667-.787 1.1133-1.393 1.94-1.82.84-.427 1.8067-.64 2.9-.64.7333 0 1.44.107 2.12.32.6933.213 1.2533.5 1.68.86l-.9 2.4c-.3333-.267-.74-.48-1.22-.64-.4667-.173-.9067-.26-1.32-.26-.72 0-1.2733.2-1.66.6-.3733.4-.56 1.007-.56 1.82s.1867 1.427.56 1.84c.3867.413.94.62 1.66.62.4133 0 .8533-.08 1.32-.24.48-.173.8867-.4 1.22-.68l.9 2.42c-.4533.373-1.0333.667-1.74.88-.6933.2-1.4333.3-2.22.3zm11.5972-2.56c.2933 0 .62-.02.98-.06l-.18 2.54c-.4267.053-.84.08-1.24.08-1.6 0-2.7667-.333-3.5-1-.72-.68-1.08-1.727-1.08-3.14v-3.24h-1.84v-2.62h1.84v-2.86h3.56v2.86h2.36v2.62h-2.36v3.26c0 1.04.4867 1.56 1.46 1.56zm19.5281-.52v2.92h-9.72v-2.92h3.02v-7.18l-2.38 1.36-1.32-2.64 4.78-2.72h2.6v11.18z" fill="#000"/><g mask="url(#b)"><path d="m176-52h200v200h-200z" fill="#d13137"/></g><path d="m231.28 112.9h6.82c1.56 0 2.773.4 3.64 1.2.867.787 1.3 1.887 1.3 3.3 0 1.4-.44 2.5-1.32 3.3-.867.8-2.073 1.2-3.62 1.2h-3.14v5.1h-3.68zm6.32 6.24c.68 0 1.18-.14 1.5-.42.333-.28.5-.713.5-1.3s-.167-1.02-.5-1.3c-.32-.293-.82-.44-1.5-.44h-2.64v3.46zm14.86.68-1.94.2c-.773.08-1.313.287-1.62.62s-.46.807-.46 1.42v4.94h-3.56v-9.84h3.38v1.7c.227-.6.6-1.053 1.12-1.36.52-.32 1.153-.5 1.9-.54l.98-.08zm6.063 7.34c-1.08 0-2.033-.207-2.86-.62-.813-.427-1.446-1.027-1.9-1.8-.44-.773-.66-1.68-.66-2.72s.22-1.94.66-2.7c.454-.773 1.087-1.367 1.9-1.78.814-.413 1.767-.62 2.86-.62 1.094 0 2.047.207 2.86.62.814.413 1.44 1.007 1.88 1.78.454.76.68 1.66.68 2.7s-.226 1.947-.68 2.72c-.44.773-1.066 1.373-1.88 1.8-.813.413-1.766.62-2.86.62zm0-2.66c1.267 0 1.9-.827 1.9-2.48s-.633-2.48-1.9-2.48c-1.266 0-1.9.827-1.9 2.48s.634 2.48 1.9 2.48zm17.953-11.6v14.1h-3.5v-1.34c-.28.467-.694.833-1.24 1.1-.534.267-1.127.4-1.78.4-.84 0-1.594-.213-2.26-.64-.654-.44-1.167-1.053-1.54-1.84-.374-.787-.56-1.687-.56-2.7s.18-1.9.54-2.66c.373-.773.886-1.367 1.54-1.78.666-.413 1.426-.62 2.28-.62.626 0 1.2.127 1.72.38.533.253.946.593 1.24 1.02v-5.42zm-5.44 11.6c.626 0 1.106-.213 1.44-.64.333-.427.5-1.04.5-1.84 0-.787-.167-1.387-.5-1.8-.334-.427-.814-.64-1.44-.64-.614 0-1.087.207-1.42.62-.334.413-.5 1.007-.5 1.78 0 .8.166 1.42.5 1.86.346.44.82.66 1.42.66zm17.94-7.34v9.84h-3.46v-1.32c-.307.48-.7.847-1.18 1.1-.467.253-1.007.38-1.62.38-1.267 0-2.207-.347-2.82-1.04-.614-.707-.92-1.773-.92-3.2v-5.76h3.56v5.84c0 .96.413 1.44 1.24 1.44.48 0 .873-.173 1.18-.52.306-.347.46-.8.46-1.36v-5.4zm7.472 10c-1.68 0-2.994-.453-3.94-1.36-.947-.907-1.42-2.14-1.42-3.7 0-1.027.226-1.933.68-2.72.466-.787 1.113-1.393 1.94-1.82.84-.427 1.806-.64 2.9-.64.733 0 1.44.107 2.12.32.693.213 1.253.5 1.68.86l-.9 2.4c-.334-.267-.74-.48-1.22-.64-.467-.173-.907-.26-1.32-.26-.72 0-1.274.2-1.66.6-.374.4-.56 1.007-.56 1.82s.186 1.427.56 1.84c.386.413.94.62 1.66.62.413 0 .853-.08 1.32-.24.48-.173.886-.4 1.22-.68l.9 2.42c-.454.373-1.034.667-1.74.88-.694.2-1.434.3-2.22.3zm11.597-2.56c.293 0 .62-.02.98-.06l-.18 2.54c-.427.053-.84.08-1.24.08-1.6 0-2.767-.333-3.5-1-.72-.68-1.08-1.727-1.08-3.14v-3.24h-1.84v-2.62h1.84v-2.86h3.56v2.86h2.36v2.62h-2.36v3.26c0 1.04.487 1.56 1.46 1.56zm19.028-.52v2.92h-9.94v-2.72l4.6-4.78c.88-.92 1.32-1.767 1.32-2.54 0-.933-.553-1.4-1.66-1.4-.533 0-1.113.113-1.74.34-.613.213-1.233.52-1.86.92l-1.14-2.6c.56-.453 1.287-.813 2.18-1.08.907-.28 1.827-.42 2.76-.42 1.013 0 1.9.167 2.66.5.773.32 1.367.78 1.78 1.38s.62 1.3.62 2.1c0 .813-.167 1.56-.5 2.24-.32.667-.873 1.413-1.66 2.24l-2.84 2.9z" fill="#000"/><g mask="url(#c)"><path d="m406 188h200v200h-200z" fill="#219653"/></g><path d="m419.372 367.18c-1.467 0-2.747-.3-3.84-.9-1.08-.6-1.913-1.447-2.5-2.54-.573-1.093-.86-2.36-.86-3.8s.287-2.7.86-3.78c.587-1.093 1.42-1.94 2.5-2.54 1.093-.6 2.373-.9 3.84-.9.92 0 1.807.14 2.66.42.867.28 1.573.653 2.12 1.12l-1.14 2.6c-1.16-.813-2.347-1.22-3.56-1.22-1.147 0-2.027.36-2.64 1.08-.6.72-.9 1.793-.9 3.22s.3 2.507.9 3.24c.613.72 1.493 1.08 2.64 1.08 1.213 0 2.4-.407 3.56-1.22l1.14 2.6c-.547.467-1.253.84-2.12 1.12-.853.28-1.74.42-2.66.42zm11.739-.02c-1.08 0-2.033-.207-2.86-.62-.813-.427-1.446-1.027-1.9-1.8-.44-.773-.66-1.68-.66-2.72s.22-1.94.66-2.7c.454-.773 1.087-1.367 1.9-1.78.814-.413 1.767-.62 2.86-.62 1.094 0 2.047.207 2.86.62.814.413 1.44 1.007 1.88 1.78.454.76.68 1.66.68 2.7s-.226 1.947-.68 2.72c-.44.773-1.066 1.373-1.88 1.8-.813.413-1.766.62-2.86.62zm0-2.66c1.267 0 1.9-.827 1.9-2.48s-.633-2.48-1.9-2.48c-1.266 0-1.9.827-1.9 2.48s.634 2.48 1.9 2.48zm20.093-7.58c1.146 0 1.993.347 2.54 1.04.56.693.84 1.76.84 3.2v5.84h-3.56v-5.74c0-.573-.087-.987-.26-1.24-.174-.253-.46-.38-.86-.38-.494 0-.874.173-1.14.52-.254.347-.38.84-.38 1.48v5.36h-3.56v-5.74c0-.573-.087-.987-.26-1.24-.174-.253-.46-.38-.86-.38-.494 0-.867.173-1.12.52-.254.347-.38.84-.38 1.48v5.36h-3.56v-9.84h3.46v1.24c.653-.987 1.653-1.48 3-1.48 1.413 0 2.366.58 2.86 1.74.346-.547.8-.973 1.36-1.28.573-.307 1.2-.46 1.88-.46zm12.409 0c.853 0 1.606.207 2.26.62.653.413 1.16 1.007 1.52 1.78.373.76.56 1.647.56 2.66s-.187 1.913-.56 2.7c-.36.787-.874 1.4-1.54 1.84-.654.427-1.4.64-2.24.64-.654 0-1.254-.133-1.8-.4-.534-.267-.94-.633-1.22-1.1v1.34h-3.5v-14.1h3.56v5.42c.293-.427.7-.767 1.22-1.02.533-.253 1.113-.38 1.74-.38zm-1.1 7.58c.613 0 1.086-.213 1.42-.64.333-.44.5-1.067.5-1.88 0-.773-.167-1.367-.5-1.78-.32-.413-.787-.62-1.4-.62-.627 0-1.107.213-1.44.64-.334.413-.5 1.013-.5 1.8 0 .8.166 1.413.5 1.84.333.427.806.64 1.42.64zm7.58-7.34h3.56v9.84h-3.56zm3.64-4.92v3.22h-3.72v-3.22zm9.105 4.68c1.173 0 2.046.353 2.62 1.06.573.693.86 1.753.86 3.18v5.84h-3.56v-5.68c0-.587-.107-1.013-.32-1.28-.2-.267-.507-.4-.92-.4-.534 0-.96.173-1.28.52-.307.333-.46.787-.46 1.36v5.48h-3.56v-9.84h3.46v1.32c.346-.507.793-.893 1.34-1.16.546-.267 1.153-.4 1.82-.4zm15.069 5.84h-6.08c.107.64.34 1.1.7 1.38s.873.42 1.54.42c.48 0 .967-.08 1.46-.24s.933-.38 1.32-.66l.9 2.34c-.493.36-1.087.647-1.78.86-.693.2-1.387.3-2.08.3-1.133 0-2.113-.207-2.94-.62s-1.467-1.007-1.92-1.78c-.44-.773-.66-1.68-.66-2.72 0-.987.207-1.867.62-2.64.427-.787 1.013-1.393 1.76-1.82.76-.44 1.613-.66 2.56-.66 1.413 0 2.533.453 3.36 1.36.827.893 1.24 2.12 1.24 3.68zm-4.5-3.44c-.947 0-1.487.587-1.62 1.76h3.14c-.08-1.173-.587-1.76-1.52-1.76zm17.043-6.42v14.1h-3.5v-1.34c-.28.467-.693.833-1.24 1.1-.533.267-1.126.4-1.78.4-.84 0-1.593-.213-2.26-.64-.653-.44-1.166-1.053-1.54-1.84-.373-.787-.56-1.687-.56-2.7s.18-1.9.54-2.66c.374-.773.887-1.367 1.54-1.78.667-.413 1.427-.62 2.28-.62.627 0 1.2.127 1.72.38.534.253.947.593 1.24 1.02v-5.42zm-5.44 11.6c.627 0 1.107-.213 1.44-.64.334-.427.5-1.04.5-1.84 0-.787-.166-1.387-.5-1.8-.333-.427-.813-.64-1.44-.64-.613 0-1.086.207-1.42.62-.333.413-.5 1.007-.5 1.78 0 .8.167 1.42.5 1.86.347.44.82.66 1.42.66zm14.483-11.6h6.82c1.56 0 2.773.4 3.64 1.2.867.787 1.3 1.887 1.3 3.3 0 1.4-.44 2.5-1.32 3.3-.867.8-2.073 1.2-3.62 1.2h-3.14v5.1h-3.68zm6.32 6.24c.68 0 1.18-.14 1.5-.42.333-.28.5-.713.5-1.3s-.167-1.02-.5-1.3c-.32-.293-.82-.44-1.5-.44h-2.64v3.46zm14.86.68-1.94.2c-.774.08-1.314.287-1.62.62-.307.333-.46.807-.46 1.42v4.94h-3.56v-9.84h3.38v1.7c.226-.6.6-1.053 1.12-1.36.52-.32 1.153-.5 1.9-.54l.98-.08zm6.063 7.34c-1.08 0-2.033-.207-2.86-.62-.813-.427-1.446-1.027-1.9-1.8-.44-.773-.66-1.68-.66-2.72s.22-1.94.66-2.7c.454-.773 1.087-1.367 1.9-1.78.814-.413 1.767-.62 2.86-.62 1.094 0 2.047.207 2.86.62.814.413 1.44 1.007 1.88 1.78.454.76.68 1.66.68 2.7s-.226 1.947-.68 2.72c-.44.773-1.066 1.373-1.88 1.8-.813.413-1.766.62-2.86.62zm0-2.66c1.267 0 1.9-.827 1.9-2.48s-.633-2.48-1.9-2.48c-1.266 0-1.9.827-1.9 2.48s.634 2.48 1.9 2.48zm17.953-11.6v14.1h-3.5v-1.34c-.28.467-.694.833-1.24 1.1-.534.267-1.127.4-1.78.4-.84 0-1.594-.213-2.26-.64-.654-.44-1.167-1.053-1.54-1.84-.374-.787-.56-1.687-.56-2.7s.18-1.9.54-2.66c.373-.773.886-1.367 1.54-1.78.666-.413 1.426-.62 2.28-.62.626 0 1.2.127 1.72.38.533.253.946.593 1.24 1.02v-5.42zm-5.44 11.6c.626 0 1.106-.213 1.44-.64.333-.427.5-1.04.5-1.84 0-.787-.167-1.387-.5-1.8-.334-.427-.814-.64-1.44-.64-.614 0-1.087.207-1.42.62-.334.413-.5 1.007-.5 1.78 0 .8.166 1.42.5 1.86.346.44.82.66 1.42.66zm17.94-7.34v9.84h-3.46v-1.32c-.307.48-.7.847-1.18 1.1-.467.253-1.007.38-1.62.38-1.267 0-2.207-.347-2.82-1.04-.614-.707-.92-1.773-.92-3.2v-5.76h3.56v5.84c0 .96.413 1.44 1.24 1.44.48 0 .873-.173 1.18-.52.306-.347.46-.8.46-1.36v-5.4zm7.472 10c-1.68 0-2.994-.453-3.94-1.36-.947-.907-1.42-2.14-1.42-3.7 0-1.027.226-1.933.68-2.72.466-.787 1.113-1.393 1.94-1.82.84-.427 1.806-.64 2.9-.64.733 0 1.44.107 2.12.32.693.213 1.253.5 1.68.86l-.9 2.4c-.334-.267-.74-.48-1.22-.64-.467-.173-.907-.26-1.32-.26-.72 0-1.274.2-1.66.6-.374.4-.56 1.007-.56 1.82s.186 1.427.56 1.84c.386.413.94.62 1.66.62.413 0 .853-.08 1.32-.24.48-.173.886-.4 1.22-.68l.9 2.42c-.454.373-1.034.667-1.74.88-.694.2-1.434.3-2.22.3zm11.597-2.56c.293 0 .62-.02.98-.06l-.18 2.54c-.427.053-.84.08-1.24.08-1.6 0-2.767-.333-3.5-1-.72-.68-1.08-1.727-1.08-3.14v-3.24h-1.84v-2.62h1.84v-2.86h3.56v2.86h2.36v2.62h-2.36v3.26c0 1.04.487 1.56 1.46 1.56zm6.685 2.56c-.946 0-1.82-.1-2.62-.3s-1.473-.493-2.02-.88l.9-2.42c.534.347 1.14.627 1.82.84.68.2 1.334.3 1.96.3.387 0 .687-.053.9-.16.214-.12.32-.28.32-.48 0-.173-.08-.307-.24-.4-.146-.093-.453-.193-.92-.3l-1.58-.36c-1-.227-1.72-.56-2.16-1s-.66-1.067-.66-1.88c0-.627.187-1.18.56-1.66.374-.493.894-.873 1.56-1.14.68-.267 1.447-.4 2.3-.4.707 0 1.407.107 2.1.32.707.2 1.347.487 1.92.86l-.92 2.32c-.533-.333-1.073-.587-1.62-.76-.533-.187-1.04-.28-1.52-.28-.386 0-.686.06-.9.18-.213.12-.32.293-.32.52 0 .133.067.247.2.34.134.08.367.16.7.24l1.66.38c1.04.227 1.794.58 2.26 1.06.467.467.7 1.107.7 1.92 0 .973-.393 1.74-1.18 2.3-.773.56-1.84.84-3.2.84z" fill="#000"/><g mask="url(#d)"><path d="m404-52h200v200h-200z" fill="#455fa8"/></g><path d="m459.28 112.9h6.82c1.56 0 2.773.4 3.64 1.2.867.787 1.3 1.887 1.3 3.3 0 1.4-.44 2.5-1.32 3.3-.867.8-2.073 1.2-3.62 1.2h-3.14v5.1h-3.68zm6.32 6.24c.68 0 1.18-.14 1.5-.42.333-.28.5-.713.5-1.3s-.167-1.02-.5-1.3c-.32-.293-.82-.44-1.5-.44h-2.64v3.46zm14.86.68-1.94.2c-.773.08-1.313.287-1.62.62s-.46.807-.46 1.42v4.94h-3.56v-9.84h3.38v1.7c.227-.6.6-1.053 1.12-1.36.52-.32 1.153-.5 1.9-.54l.98-.08zm6.063 7.34c-1.08 0-2.033-.207-2.86-.62-.813-.427-1.446-1.027-1.9-1.8-.44-.773-.66-1.68-.66-2.72s.22-1.94.66-2.7c.454-.773 1.087-1.367 1.9-1.78.814-.413 1.767-.62 2.86-.62 1.094 0 2.047.207 2.86.62.814.413 1.44 1.007 1.88 1.78.454.76.68 1.66.68 2.7s-.226 1.947-.68 2.72c-.44.773-1.066 1.373-1.88 1.8-.813.413-1.766.62-2.86.62zm0-2.66c1.267 0 1.9-.827 1.9-2.48s-.633-2.48-1.9-2.48c-1.266 0-1.9.827-1.9 2.48s.634 2.48 1.9 2.48zm17.953-11.6v14.1h-3.5v-1.34c-.28.467-.694.833-1.24 1.1-.534.267-1.127.4-1.78.4-.84 0-1.594-.213-2.26-.64-.654-.44-1.167-1.053-1.54-1.84-.374-.787-.56-1.687-.56-2.7s.18-1.9.54-2.66c.373-.773.886-1.367 1.54-1.78.666-.413 1.426-.62 2.28-.62.626 0 1.2.127 1.72.38.533.253.946.593 1.24 1.02v-5.42zm-5.44 11.6c.626 0 1.106-.213 1.44-.64.333-.427.5-1.04.5-1.84 0-.787-.167-1.387-.5-1.8-.334-.427-.814-.64-1.44-.64-.614 0-1.087.207-1.42.62-.334.413-.5 1.007-.5 1.78 0 .8.166 1.42.5 1.86.346.44.82.66 1.42.66zm17.94-7.34v9.84h-3.46v-1.32c-.307.48-.7.847-1.18 1.1-.467.253-1.007.38-1.62.38-1.267 0-2.207-.347-2.82-1.04-.614-.707-.92-1.773-.92-3.2v-5.76h3.56v5.84c0 .96.413 1.44 1.24 1.44.48 0 .873-.173 1.18-.52.306-.347.46-.8.46-1.36v-5.4zm7.472 10c-1.68 0-2.994-.453-3.94-1.36-.947-.907-1.42-2.14-1.42-3.7 0-1.027.226-1.933.68-2.72.466-.787 1.113-1.393 1.94-1.82.84-.427 1.806-.64 2.9-.64.733 0 1.44.107 2.12.32.693.213 1.253.5 1.68.86l-.9 2.4c-.334-.267-.74-.48-1.22-.64-.467-.173-.907-.26-1.32-.26-.72 0-1.274.2-1.66.6-.374.4-.56 1.007-.56 1.82s.186 1.427.56 1.84c.386.413.94.62 1.66.62.413 0 .853-.08 1.32-.24.48-.173.886-.4 1.22-.68l.9 2.42c-.454.373-1.034.667-1.74.88-.694.2-1.434.3-2.22.3zm11.597-2.56c.293 0 .62-.02.98-.06l-.18 2.54c-.427.053-.84.08-1.24.08-1.6 0-2.767-.333-3.5-1-.72-.68-1.08-1.727-1.08-3.14v-3.24h-1.84v-2.62h1.84v-2.86h3.56v2.86h2.36v2.62h-2.36v3.26c0 1.04.487 1.56 1.46 1.56zm16.428-4.86c.8.227 1.42.64 1.86 1.24.453.6.68 1.327.68 2.18 0 1.24-.493 2.22-1.48 2.94-.973.707-2.307 1.06-4 1.06-1 0-1.96-.133-2.88-.4-.92-.28-1.653-.647-2.2-1.1l1.14-2.6c1.253.84 2.507 1.26 3.76 1.26.8 0 1.367-.12 1.7-.36.347-.24.52-.64.52-1.2 0-.52-.167-.893-.5-1.12s-.88-.34-1.64-.34h-2.18v-2.84h1.82c.733 0 1.267-.107 1.6-.32s.5-.553.5-1.02c0-.493-.16-.873-.48-1.14-.307-.28-.747-.42-1.32-.42-.56 0-1.153.113-1.78.34-.627.213-1.227.52-1.8.92l-1.14-2.6c.56-.453 1.293-.813 2.2-1.08.92-.28 1.853-.42 2.8-.42 1 0 1.873.16 2.62.48.76.32 1.347.773 1.76 1.36s.62 1.267.62 2.04c0 .747-.193 1.393-.58 1.94-.373.547-.907.947-1.6 1.2z" fill="#000"/><g mask="url(#e)"><path d="m632-52h200v200h-200z" fill="#808692"/></g><path d="m687.28 112.9h6.82c1.56 0 2.773.4 3.64 1.2.867.787 1.3 1.887 1.3 3.3 0 1.4-.44 2.5-1.32 3.3-.867.8-2.073 1.2-3.62 1.2h-3.14v5.1h-3.68zm6.32 6.24c.68 0 1.18-.14 1.5-.42.333-.28.5-.713.5-1.3s-.167-1.02-.5-1.3c-.32-.293-.82-.44-1.5-.44h-2.64v3.46zm14.86.68-1.94.2c-.773.08-1.313.287-1.62.62s-.46.807-.46 1.42v4.94h-3.56v-9.84h3.38v1.7c.227-.6.6-1.053 1.12-1.36.52-.32 1.153-.5 1.9-.54l.98-.08zm6.063 7.34c-1.08 0-2.033-.207-2.86-.62-.813-.427-1.446-1.027-1.9-1.8-.44-.773-.66-1.68-.66-2.72s.22-1.94.66-2.7c.454-.773 1.087-1.367 1.9-1.78.814-.413 1.767-.62 2.86-.62 1.094 0 2.047.207 2.86.62.814.413 1.44 1.007 1.88 1.78.454.76.68 1.66.68 2.7s-.226 1.947-.68 2.72c-.44.773-1.066 1.373-1.88 1.8-.813.413-1.766.62-2.86.62zm0-2.66c1.267 0 1.9-.827 1.9-2.48s-.633-2.48-1.9-2.48c-1.266 0-1.9.827-1.9 2.48s.634 2.48 1.9 2.48zm17.953-11.6v14.1h-3.5v-1.34c-.28.467-.694.833-1.24 1.1-.534.267-1.127.4-1.78.4-.84 0-1.594-.213-2.26-.64-.654-.44-1.167-1.053-1.54-1.84-.374-.787-.56-1.687-.56-2.7s.18-1.9.54-2.66c.373-.773.886-1.367 1.54-1.78.666-.413 1.426-.62 2.28-.62.626 0 1.2.127 1.72.38.533.253.946.593 1.24 1.02v-5.42zm-5.44 11.6c.626 0 1.106-.213 1.44-.64.333-.427.5-1.04.5-1.84 0-.787-.167-1.387-.5-1.8-.334-.427-.814-.64-1.44-.64-.614 0-1.087.207-1.42.62-.334.413-.5 1.007-.5 1.78 0 .8.166 1.42.5 1.86.346.44.82.66 1.42.66zm17.94-7.34v9.84h-3.46v-1.32c-.307.48-.7.847-1.18 1.1-.467.253-1.007.38-1.62.38-1.267 0-2.207-.347-2.82-1.04-.614-.707-.92-1.773-.92-3.2v-5.76h3.56v5.84c0 .96.413 1.44 1.24 1.44.48 0 .873-.173 1.18-.52.306-.347.46-.8.46-1.36v-5.4zm7.472 10c-1.68 0-2.994-.453-3.94-1.36-.947-.907-1.42-2.14-1.42-3.7 0-1.027.226-1.933.68-2.72.466-.787 1.113-1.393 1.94-1.82.84-.427 1.806-.64 2.9-.64.733 0 1.44.107 2.12.32.693.213 1.253.5 1.68.86l-.9 2.4c-.334-.267-.74-.48-1.22-.64-.467-.173-.907-.26-1.32-.26-.72 0-1.274.2-1.66.6-.374.4-.56 1.007-.56 1.82s.186 1.427.56 1.84c.386.413.94.62 1.66.62.413 0 .853-.08 1.32-.24.48-.173.886-.4 1.22-.68l.9 2.42c-.454.373-1.034.667-1.74.88-.694.2-1.434.3-2.22.3zm11.597-2.56c.293 0 .62-.02.98-.06l-.18 2.54c-.427.053-.84.08-1.24.08-1.6 0-2.767-.333-3.5-1-.72-.68-1.08-1.727-1.08-3.14v-3.24h-1.84v-2.62h1.84v-2.86h3.56v2.86h2.36v2.62h-2.36v3.26c0 1.04.487 1.56 1.46 1.56zm19.608.02h-1.84v2.38h-3.58v-2.38h-5.68v-2.72l6.32-9h2.94v8.92h1.84zm-5.42-2.8v-3.46l-2.4 3.46z" fill="#000"/><g mask="url(#f)"><path d="m860-52h200v200h-200z" fill="#9b51e0"/></g><path d="m915.28 112.9h6.82c1.56 0 2.773.4 3.64 1.2.867.787 1.3 1.887 1.3 3.3 0 1.4-.44 2.5-1.32 3.3-.867.8-2.073 1.2-3.62 1.2h-3.14v5.1h-3.68zm6.32 6.24c.68 0 1.18-.14 1.5-.42.333-.28.5-.713.5-1.3s-.167-1.02-.5-1.3c-.32-.293-.82-.44-1.5-.44h-2.64v3.46zm14.86.68-1.94.2c-.773.08-1.313.287-1.62.62s-.46.807-.46 1.42v4.94h-3.56v-9.84h3.38v1.7c.227-.6.6-1.053 1.12-1.36.52-.32 1.153-.5 1.9-.54l.98-.08zm6.063 7.34c-1.08 0-2.033-.207-2.86-.62-.813-.427-1.446-1.027-1.9-1.8-.44-.773-.66-1.68-.66-2.72s.22-1.94.66-2.7c.454-.773 1.087-1.367 1.9-1.78.814-.413 1.767-.62 2.86-.62 1.094 0 2.047.207 2.86.62.814.413 1.44 1.007 1.88 1.78.454.76.68 1.66.68 2.7s-.226 1.947-.68 2.72c-.44.773-1.066 1.373-1.88 1.8-.813.413-1.766.62-2.86.62zm0-2.66c1.267 0 1.9-.827 1.9-2.48s-.633-2.48-1.9-2.48c-1.266 0-1.9.827-1.9 2.48s.634 2.48 1.9 2.48zm17.953-11.6v14.1h-3.5v-1.34c-.28.467-.694.833-1.24 1.1-.534.267-1.127.4-1.78.4-.84 0-1.594-.213-2.26-.64-.654-.44-1.167-1.053-1.54-1.84-.374-.787-.56-1.687-.56-2.7s.18-1.9.54-2.66c.373-.773.886-1.367 1.54-1.78.666-.413 1.426-.62 2.28-.62.626 0 1.2.127 1.72.38.533.253.946.593 1.24 1.02v-5.42zm-5.44 11.6c.626 0 1.106-.213 1.44-.64.333-.427.5-1.04.5-1.84 0-.787-.167-1.387-.5-1.8-.334-.427-.814-.64-1.44-.64-.614 0-1.087.207-1.42.62-.334.413-.5 1.007-.5 1.78 0 .8.166 1.42.5 1.86.346.44.82.66 1.42.66zm17.94-7.34v9.84h-3.46v-1.32c-.307.48-.7.847-1.18 1.1-.467.253-1.007.38-1.62.38-1.267 0-2.207-.347-2.82-1.04-.614-.707-.92-1.773-.92-3.2v-5.76h3.56v5.84c0 .96.413 1.44 1.24 1.44.48 0 .873-.173 1.18-.52.306-.347.46-.8.46-1.36v-5.4zm7.472 10c-1.68 0-2.994-.453-3.94-1.36-.947-.907-1.42-2.14-1.42-3.7 0-1.027.226-1.933.68-2.72.466-.787 1.113-1.393 1.94-1.82.84-.427 1.806-.64 2.9-.64.733 0 1.44.107 2.12.32.693.213 1.253.5 1.68.86l-.9 2.4c-.334-.267-.74-.48-1.22-.64-.467-.173-.907-.26-1.32-.26-.72 0-1.274.2-1.66.6-.374.4-.56 1.007-.56 1.82s.186 1.427.56 1.84c.386.413.94.62 1.66.62.413 0 .853-.08 1.32-.24.48-.173.886-.4 1.22-.68l.9 2.42c-.454.373-1.034.667-1.74.88-.694.2-1.434.3-2.22.3zm11.597-2.56c.293 0 .62-.02.98-.06l-.18 2.54c-.427.053-.84.08-1.24.08-1.6 0-2.767-.333-3.5-1-.72-.68-1.08-1.727-1.08-3.14v-3.24h-1.84v-2.62h1.84v-2.86h3.56v2.86h2.36v2.62h-2.36v3.26c0 1.04.487 1.56 1.46 1.56zm14.865-6.82c.87 0 1.64.193 2.32.58.68.373 1.21.907 1.58 1.6.39.68.58 1.467.58 2.36 0 .973-.23 1.827-.7 2.56-.46.733-1.12 1.3-1.98 1.7-.85.387-1.85.58-3 .58-.92 0-1.83-.133-2.74-.4-.89-.28-1.6-.647-2.14-1.1l1.14-2.6c1.26.84 2.52 1.26 3.78 1.26.75 0 1.3-.147 1.66-.44.36-.307.54-.78.54-1.42 0-.613-.19-1.08-.58-1.4-.37-.333-.9-.5-1.58-.5-.37 0-.78.067-1.22.2-.42.12-.82.287-1.18.5h-2.02v-8.36h9.3v2.78h-5.72v2.46c.52-.24 1.18-.36 1.96-.36z" fill="#000"/><g stroke="#000" stroke-width="2"><path d="m100 66h45c11.046 0 20 8.9543 20 20v200c0 11.046 8.954 20 20 20h70.5 155.5"/><path d="m278 132v154c0 11.046 8.954 20 20 20h134.5"/><path d="m506 132v103"/><path d="m734 132v154c0 11.046-8.954 20-20 20h-106"/><path d="m912 66h-51c-11.046 0-20 8.9543-20 20v200c0 11.046-8.954 20-20 20h-242.5"/></g></svg>