<svg height="649" viewBox="0 0 1436 649" width="1436" xmlns="http://www.w3.org/2000/svg"><g fill="none" fill-rule="evenodd"><g fill-rule="nonzero" stroke="#979797"><g><path d="m17.5 552.5h319v69h-319z" fill="#d8d8d8"/><g fill="#4f4f4f"><path d="m274.5 557.5h56v59h-56z"/><path d="m212.5 557.5h56v59h-56z"/><path d="m150.5 557.5h56v59h-56z"/><path d="m86.5 557.5h56v59h-56z"/><path d="m23.5 557.5h56v59h-56z"/></g></g><g fill="#4f4f4f"><path d="m176.5 417.5h160v68h-160z"/><path d="m17.5 417.5h160v68h-160z"/><path d="m176.5 485.5h160v68h-160z"/><path d="m17.5 485.5h160v68h-160z"/></g><path d="m17.5 54.5h319v49h-319z" fill="#f0f1f1"/><path d="m28.5 64.5h148v29h-148z" fill="#fff"/><path d="m28.5 437.5h136v29h-136z" fill="#fff"/><path d="m187.5 437.5h136v29h-136z" fill="#fff"/><path d="m187.5 504.5h136v29h-136z" fill="#fff"/><path d="m28.5 504.5h136v29h-136z" fill="#fff"/><path d="m289.5 62.5h34v34h-34z" fill="#fff"/><path d="m17.5 103.5h319v314h-319z" fill="#f0f1f1"/></g><circle cx="157" cy="545" fill="#d8d8d8" r="2"/><circle cx="167" cy="545" fill="#565656" r="2"/><circle cx="177" cy="545" fill="#d8d8d8" r="2"/><circle cx="187" cy="545" fill="#d8d8d8" r="2"/><circle cx="197" cy="545" fill="#d8d8d8" r="2"/><g fill-rule="nonzero" stroke="#979797"><path d="m375.5 552.5h319v69h-319z" fill="#d8d8d8"/><g fill="#4f4f4f"><path d="m632.5 557.5h56v59h-56z"/><path d="m570.5 557.5h56v59h-56z"/><path d="m508.5 557.5h56v59h-56z"/><path d="m444.5 557.5h56v59h-56z"/><path d="m381.5 557.5h56v59h-56z"/></g></g><g fill="#4f4f4f" fill-rule="nonzero" stroke="#979797"><path d="m534.5 417.5h160v68h-160z"/><path d="m375.5 417.5h160v68h-160z"/><path d="m534.5 485.5h160v68h-160z"/><path d="m375.5 485.5h160v68h-160z"/></g><path d="m375.5 54.5h319v49h-319z" fill="#f0f1f1" fill-rule="nonzero" stroke="#979797"/><path d="m386.5 64.5h148v29h-148z" fill="#fff" fill-rule="nonzero" stroke="#979797"/><path d="m386.5 437.5h136v29h-136z" fill="#fff" fill-rule="nonzero" stroke="#979797"/><path d="m545.5 437.5h136v29h-136z" fill="#fff" fill-rule="nonzero" stroke="#979797"/><path d="m545.5 504.5h136v29h-136z" fill="#fff" fill-rule="nonzero" stroke="#979797"/><path d="m386.5 504.5h136v29h-136z" fill="#fff" fill-rule="nonzero" stroke="#979797"/><path d="m647.5 62.5h34v34h-34z" fill="#fff" fill-rule="nonzero" stroke="#979797"/><circle cx="515" cy="545" fill="#d8d8d8" r="2"/><circle cx="525" cy="545" fill="#565656" r="2"/><circle cx="535" cy="545" fill="#d8d8d8" r="2"/><circle cx="545" cy="545" fill="#d8d8d8" r="2"/><circle cx="555" cy="545" fill="#d8d8d8" r="2"/><g transform="translate(375 103)"><g fill-rule="nonzero" stroke="#979797"><path d="m.5.5h319v105h-319z" fill="#f0f1f1"/><path d="m11.5 20.5h23v66h-23z" fill="#d8d8d8"/><path d="m43.5 20.5h212v29h-212z" fill="#d8d8d8"/><path d="m43.5 57.5h212v29h-212z" fill="#d8d8d8"/></g><path d="m6 10 6 6 6-6" stroke="#383b41" stroke-linecap="round" stroke-width="2" transform="matrix(0 -1 1 0 278 64.556)"/></g><g transform="translate(375 208)"><g fill-rule="nonzero" stroke="#979797"><path d="m.5.5h319v105h-319z" fill="#f0f1f1"/><path d="m11.5 20.5h23v66h-23z" fill="#d8d8d8"/><path d="m43.5 20.5h212v29h-212z" fill="#d8d8d8"/><path d="m43.5 57.5h212v29h-212z" fill="#d8d8d8"/></g><path d="m6 10 6 6 6-6" stroke="#383b41" stroke-linecap="round" stroke-width="2" transform="matrix(0 -1 1 0 278 64.556)"/></g><g transform="translate(375 313)"><g fill-rule="nonzero" stroke="#979797"><path d="m.5.5h319v105h-319z" fill="#f0f1f1"/><path d="m11.5 20.5h23v66h-23z" fill="#d8d8d8"/><path d="m43.5 20.5h212v29h-212z" fill="#d8d8d8"/><path d="m43.5 57.5h212v29h-212z" fill="#d8d8d8"/></g><path d="m6 10 6 6 6-6" stroke="#383b41" stroke-linecap="round" stroke-width="2" transform="matrix(0 -1 1 0 278 64.556)"/></g><g fill-rule="nonzero" stroke="#979797"><path d="m1098.5 552.5h319v69h-319z" fill="#d8d8d8"/><g fill="#4f4f4f"><path d="m1355.5 557.5h56v59h-56z"/><path d="m1293.5 557.5h56v59h-56z"/><path d="m1231.5 557.5h56v59h-56z"/><path d="m1167.5 557.5h56v59h-56z"/><path d="m1104.5 557.5h56v59h-56z"/></g></g><g fill="#4f4f4f" fill-rule="nonzero" stroke="#979797"><path d="m1257.5 417.5h160v68h-160z"/><path d="m1098.5 417.5h160v68h-160z"/><path d="m1257.5 485.5h160v68h-160z"/><path d="m1098.5 485.5h160v68h-160z"/></g><path d="m1098.5 54.5h319v49h-319z" fill="#f0f1f1" fill-rule="nonzero" stroke="#979797"/><path d="m1109.5 64.5h148v29h-148z" fill="#fff" fill-rule="nonzero" stroke="#979797"/><path d="m1109.5 437.5h136v29h-136z" fill="#fff" fill-rule="nonzero" stroke="#979797"/><path d="m1268.5 437.5h136v29h-136z" fill="#fff" fill-rule="nonzero" stroke="#979797"/><path d="m1268.5 504.5h136v29h-136z" fill="#fff" fill-rule="nonzero" stroke="#979797"/><path d="m1109.5 504.5h136v29h-136z" fill="#fff" fill-rule="nonzero" stroke="#979797"/><path d="m1370.5 62.5h34v34h-34z" fill="#fff" fill-rule="nonzero" stroke="#979797"/><path d="m1098.5 103.5h319v314h-319z" fill="#f0f1f1" fill-rule="nonzero" stroke="#979797"/><circle cx="1238" cy="545" fill="#d8d8d8" r="2"/><circle cx="1248" cy="545" fill="#565656" r="2"/><circle cx="1258" cy="545" fill="#d8d8d8" r="2"/><circle cx="1268" cy="545" fill="#d8d8d8" r="2"/><circle cx="1278" cy="545" fill="#d8d8d8" r="2"/><g fill="#d8d8d8" fill-rule="nonzero" stroke="#979797"><path d="m1186.5 146.5h143v29h-143z"/><path d="m1138.5 192.5h239v35h-239z"/></g><g fill="#d8d8d8" fill-rule="nonzero" stroke="#979797"><path d="m1186.5 262.5h143v29h-143z"/><path d="m1138.5 308.5h239v35h-239z"/></g><path d="m1268.5 378.5h136v21h-136z" fill="#d8d8d8" fill-rule="nonzero" stroke="#979797"/><g transform="translate(733 54)"><g fill-rule="nonzero" stroke="#979797"><path d="m.5 498.5h319v69h-319z" fill="#d8d8d8"/><g fill="#4f4f4f"><path d="m257.5 503.5h56v59h-56z"/><path d="m195.5 503.5h56v59h-56z"/><path d="m133.5 503.5h56v59h-56z"/><path d="m69.5 503.5h56v59h-56z"/><path d="m6.5 503.5h56v59h-56z"/></g></g><g fill-rule="nonzero" stroke="#979797"><path d="m.5.5h319v49h-319z" fill="#f0f1f1"/><g fill="#fff"><path d="m11.5 10.5h148v29h-148z"/><path d="m272.5 8.5h34v34h-34z"/></g></g><path d="m.5 49.5h319v314h-319z" fill="#e0e0e0" fill-rule="nonzero" stroke="#979797"/><path d="m6 10 6 6 6-6" stroke="#383b41" stroke-linecap="round" stroke-width="2" transform="translate(278 62)"/><g fill-rule="nonzero" stroke="#979797"><g fill="#4f4f4f"><path d="m159.5 363.5h160v68h-160z"/><path d="m.5 363.5h160v68h-160z"/><path d="m159.5 431.5h160v68h-160z"/><path d="m.5 431.5h160v68h-160z"/></g><path d="m11.5 383.5h136v29h-136z" fill="#fff"/><path d="m170.5 383.5h136v29h-136z" fill="#fff"/><path d="m170.5 450.5h136v29h-136z" fill="#fff"/><path d="m11.5 450.5h136v29h-136z" fill="#fff"/></g><circle cx="140" cy="491" fill="#d8d8d8" r="2"/><circle cx="150" cy="491" fill="#565656" r="2"/><circle cx="160" cy="491" fill="#d8d8d8" r="2"/><circle cx="170" cy="491" fill="#d8d8d8" r="2"/><circle cx="180" cy="491" fill="#d8d8d8" r="2"/><path d="m11.5 59.5h221v29h-221z" fill="#fff" fill-rule="nonzero" stroke="#979797"/><path d="m11.5 121.5h295v224h-295z" fill="#fff" fill-rule="nonzero" stroke="#979797"/></g></g></svg>