<svg height="661" viewBox="0 0 1083 661" width="1083" xmlns="http://www.w3.org/2000/svg"><g fill="none" fill-rule="evenodd"><g fill-rule="nonzero" stroke="#979797"><g><path d="m739.5 113.5h319v449h-319z" fill="#f0f1f1"/><g fill="#fff"><path d="m750.5 199.5h221v23h-221z"/><path d="m750.5 175.5h148v17h-148z"/><path d="m750.5 272.5h221v23h-221z"/><path d="m750.5 248.5h148v17h-148z"/><path d="m750.5 345.5h221v23h-221z"/><path d="m750.5 321.5h148v17h-148z"/><path d="m750.5 418.5h221v23h-221z"/><path d="m750.5 394.5h148v17h-148z"/><path d="m750.5 491.5h221v23h-221z"/><path d="m750.5 467.5h148v17h-148z"/><path d="m750.5 564.5h221v23h-221z"/><path d="m750.5 540.5h148v17h-148z"/></g><path d="m739.5 562.5h319v69h-319z" fill="#d8d8d8"/><g fill="#4f4f4f"><path d="m996.5 567.5h56v59h-56z"/><path d="m934.5 567.5h56v59h-56z"/><path d="m872.5 567.5h56v59h-56z"/><path d="m808.5 567.5h56v59h-56z"/><path d="m745.5 567.5h56v59h-56z"/></g><path d="m739.5 64.5h319v49h-319z" fill="#f0f1f1"/><g fill="#fff"><path d="m750.5 74.5h148v29h-148z"/><path d="m1011.5 72.5h34v34h-34z"/><path d="m750.5 123.5h221v29h-221z"/></g></g><g><path d="m16.5 562.5h319v69h-319z" fill="#d8d8d8"/><g fill="#4f4f4f"><path d="m273.5 567.5h56v59h-56z"/><path d="m211.5 567.5h56v59h-56z"/><path d="m149.5 567.5h56v59h-56z"/><path d="m85.5 567.5h56v59h-56z"/><path d="m22.5 567.5h56v59h-56z"/></g></g><g fill="#4f4f4f"><path d="m175.5 427.5h160v68h-160z"/><path d="m16.5 427.5h160v68h-160z"/><path d="m175.5 495.5h160v68h-160z"/><path d="m16.5 495.5h160v68h-160z"/></g><path d="m16.5 64.5h319v49h-319z" fill="#f0f1f1"/><path d="m27.5 74.5h148v29h-148z" fill="#fff"/><path d="m27.5 447.5h136v29h-136z" fill="#fff"/><path d="m186.5 447.5h136v29h-136z" fill="#fff"/><path d="m186.5 514.5h136v29h-136z" fill="#fff"/><path d="m27.5 514.5h136v29h-136z" fill="#fff"/><path d="m288.5 72.5h34v34h-34z" fill="#fff"/></g><circle cx="156" cy="555" fill="#d8d8d8" r="2"/><circle cx="166" cy="555" fill="#565656" r="2"/><circle cx="176" cy="555" fill="#d8d8d8" r="2"/><circle cx="186" cy="555" fill="#d8d8d8" r="2"/><circle cx="196" cy="555" fill="#d8d8d8" r="2"/><g transform="translate(16 375)"><g fill-rule="nonzero" stroke="#979797"><path d="m.5.5h319v51.859h-319z" fill="#e0e0e0"/><path d="m11.5 6.389h244v20.593h-244z" fill="#fff"/><path d="m11.5 29.944h244v16.667h-244z" fill="#fff"/></g><path d="m6 10 6 6 6-6" stroke="#383b41" stroke-linecap="round" stroke-width="2" transform="matrix(0 -1 1 0 278 38.278)"/></g><g transform="translate(16 323)"><g fill-rule="nonzero" stroke="#979797"><path d="m.5.5h319v51.859h-319z" fill="#e0e0e0"/><path d="m11.5 6.389h244v20.593h-244z" fill="#fff"/><path d="m11.5 29.944h244v16.667h-244z" fill="#fff"/></g><path d="m6 10 6 6 6-6" stroke="#383b41" stroke-linecap="round" stroke-width="2" transform="matrix(0 -1 1 0 278 38.278)"/></g><g transform="translate(16 270)"><g fill-rule="nonzero" stroke="#979797"><path d="m.5.5h319v51.859h-319z" fill="#e0e0e0"/><path d="m11.5 6.389h244v20.593h-244z" fill="#fff"/><path d="m11.5 29.944h244v16.667h-244z" fill="#fff"/></g><path d="m6 10 6 6 6-6" stroke="#383b41" stroke-linecap="round" stroke-width="2" transform="matrix(0 -1 1 0 278 38.278)"/></g><g transform="translate(16 217)"><g fill-rule="nonzero" stroke="#979797"><path d="m.5.5h319v51.859h-319z" fill="#e0e0e0"/><path d="m11.5 6.389h244v20.593h-244z" fill="#fff"/><path d="m11.5 29.944h244v16.667h-244z" fill="#fff"/></g><path d="m6 10 6 6 6-6" stroke="#383b41" stroke-linecap="round" stroke-width="2" transform="matrix(0 -1 1 0 278 38.278)"/></g><g transform="translate(16 164)"><g fill-rule="nonzero" stroke="#979797"><path d="m.5.5h319v51.859h-319z" fill="#e0e0e0"/><path d="m11.5 6.389h244v20.593h-244z" fill="#fff"/><path d="m11.5 29.944h244v16.667h-244z" fill="#fff"/></g><path d="m6 10 6 6 6-6" stroke="#383b41" stroke-linecap="round" stroke-width="2" transform="matrix(0 -1 1 0 278 38.278)"/></g><g transform="translate(16 113)"><g fill-rule="nonzero" stroke="#979797"><path d="m.5.5h319v51.859h-319z" fill="#e0e0e0"/><path d="m11.5 6.389h244v20.593h-244z" fill="#fff"/><path d="m11.5 29.944h244v16.667h-244z" fill="#fff"/></g><path d="m6 10 6 6 6-6" stroke="#383b41" stroke-linecap="round" stroke-width="2" transform="matrix(0 -1 1 0 278 38.278)"/></g><g transform="translate(374 64)"><g fill-rule="nonzero" stroke="#979797"><g><path d="m.5 498.5h319v69h-319z" fill="#d8d8d8"/><g fill="#4f4f4f"><path d="m257.5 503.5h56v59h-56z"/><path d="m195.5 503.5h56v59h-56z"/><path d="m133.5 503.5h56v59h-56z"/><path d="m69.5 503.5h56v59h-56z"/><path d="m6.5 503.5h56v59h-56z"/></g></g><path d="m.5.5h319v49h-319z" fill="#f0f1f1"/><path d="m.5 49.5h319v449h-319z" fill="#e0e0e0"/></g><path d="m29.3333333 14.6666667h-29.3333333m14.6666667-14.6666667v29.3333333" stroke="#383b41" stroke-linecap="round" stroke-width="2" transform="matrix(.70710678 .70710678 -.70710678 .70710678 285.000335 50.258327)"/><path d="m11.5 121.5h295v353h-295z" fill="#fff" fill-rule="nonzero" stroke="#979797"/><path d="m11.5 10.5h148v29h-148z" fill="#fff" fill-rule="nonzero" stroke="#979797"/><path d="m11.5 59.5h221v29h-221z" fill="#fff" fill-rule="nonzero" stroke="#979797"/></g></g></svg>