<svg width="756" height="93" viewBox="0 0 756 93" fill="none" xmlns="http://www.w3.org/2000/svg">
<path d="M124.127 0.286991H102.443L89.3769 53.802L75.7549 0.286991H53.3759L40.7269 53.802L27.6609 0.286991H0.9729L25.5759 93H50.4569L62.6889 41.848L75.7549 93H99.5239L124.127 0.286991Z" fill="#CC1C54"/>
<path d="M214.964 93L198.284 52.69C210.238 46.713 214.686 40.18 214.686 28.504C214.686 10.851 202.037 0.286991 181.048 0.286991H132.537V93H161.032V57.694H169.928L183.55 93H214.964ZM161.032 37.817V20.025H174.098C181.048 20.025 185.079 23.361 185.079 28.921C185.079 34.481 180.77 37.817 173.125 37.817H161.032Z" fill="#CC1C54"/>
<path d="M280.053 93H309.104L280.053 0.286991H250.029L221.395 93H244.469L250.029 74.791H274.91L280.053 93ZM254.894 54.636L262.4 27.67L269.906 54.636H254.894Z" fill="#CC1C54"/>
<path d="M346.327 59.362H362.451C382.884 59.362 396.367 47.547 396.367 29.894C396.367 20.998 392.475 12.797 386.081 7.654C379.27 2.372 371.347 0.286991 357.03 0.286991H317.554V93H346.327V59.362ZM346.049 39.485V21.554H356.335C364.119 21.554 368.011 24.473 368.011 30.311C368.011 36.566 364.119 39.485 355.501 39.485H346.049Z" fill="#CC1C54"/>
<path d="M470.117 0.286991H441.622V93H470.117V0.286991Z" fill="#CC1C54"/>
<path d="M524.232 22.527H543.414V0.286991H478.084V22.527H497.266V93H524.232V22.527Z" fill="#CC1C54"/>
<path d="M661.248 0.286991H638.869V54.636C638.869 64.227 638.73 65.2 637.34 67.424C635.394 70.621 630.946 72.567 625.942 72.567C622.05 72.567 618.436 71.177 616.49 68.953C614.683 67.146 614.127 64.644 614.127 59.779V0.286991H585.215V63.115C585.215 73.123 587.856 80.073 593.416 85.077C600.227 91.054 610.93 94.39 623.996 94.39C636.645 94.39 646.236 91.193 653.047 84.799C658.746 79.378 661.248 72.428 661.248 61.725V0.286991Z" fill="#CC1C54"/>
<path d="M705.365 59.362H721.489C741.922 59.362 755.405 47.547 755.405 29.894C755.405 20.998 751.513 12.797 745.119 7.654C738.308 2.372 730.385 0.286991 716.068 0.286991H676.592V93H705.365V59.362ZM705.087 39.485V21.554H715.373C723.157 21.554 727.049 24.473 727.049 30.311C727.049 36.566 723.157 39.485 714.539 39.485H705.087Z" fill="#CC1C54"/>
</svg>
