<svg fill="none" height="1200" viewBox="0 0 1800 1200" width="1800" xmlns="http://www.w3.org/2000/svg" xmlns:xlink="http://www.w3.org/1999/xlink"><clipPath id="a"><path d="m463 356h466.2v489h-466.2z"/></clipPath><clipPath id="b"><path d="m975.736 497.766h361.264v206.519h-361.264z"/></clipPath><path d="m0 0h1800v1200h-1800z" fill="#fff"/><g clip-path="url(#a)"><path d="m682.687 744.244c-76.121-43.417-175.53-122.051-117.683-190.966 4.778-5.527 15.607-16.501 32.538-21.54 5.042-1.506 10.255-2.373 15.515-2.58.15-.017.302-.017.452 0 .125-.02.253-.02.379 0h.451c.383-.022.766-.022 1.149 0h1.323c5.968-.245 18.15 0 29.687 3.926 10.234 3.404 19.334 9.531 26.314 17.716 5.763 6.925 6.091 11.341 3.907 13.259-.205.199-.441.364-.698.489-1.18.56-2.509.732-3.794.49-1.327-.173-2.565-.759-3.538-1.673-.943-.826-.738-2.866-1.651-4.752-.912-1.887-2.471-4.549-6.953-8.231-2.49-1.997-5.302-3.563-8.316-4.63l-.41-.123c-3.536-.919-7.175-1.385-10.829-1.387-4.182-.001-8.343.59-12.357 1.754-8.105 2.555-15.325 7.322-20.838 13.759-37.019 44.11 26.601 120.021 75.352 147.783 48.751-27.762 112.371-103.673 75.352-147.783-5.509-6.437-12.726-11.204-20.828-13.759-3.998-1.159-8.141-1.75-12.305-1.754-3.655.001-7.294.467-10.829 1.387l-.411.123c-3.015 1.065-5.827 2.631-8.316 4.63-4.492 3.682-6.009 6.221-6.963 8.231-.954 2.009-.697 3.926-1.651 4.752-.971.918-2.21 1.504-3.538 1.673-1.282.24-2.607.068-3.784-.49-.257-.125-.492-.29-.697-.489-2.185-1.887-1.856-6.303 3.907-13.259 6.959-8.24 16.062-14.417 26.313-17.858 11.527-3.927 23.72-4.172 29.739-3.927h1.313c.386-.022.772-.022 1.158 0h.452c.122-.02.247-.02.369 0 .15-.016.301-.016.451 0 5.264.207 10.48 1.074 15.526 2.58 16.92 5.039 27.749 16.013 32.528 21.541 57.754 69.057-41.604 147.691-117.786 191.108z" fill="#ed1c24"/><g fill="#177dc2"><path d="m907.122 544.579c28.046 55.809 29.103 116.493 4.727 169.068-18.847 40.742-51.134 73.849-91.503 93.831-10.003 4.972-20.406 9.104-31.102 12.351 37.785-27.575 64.549-67.551 75.557-112.858 11.009-45.308 5.554-93.027-15.4-134.72s-56.058-74.673-99.103-93.109c-43.045-18.435-91.258-21.137-136.113-7.629 9.035-6.562 18.605-12.362 28.611-17.338 43.703-21.799 93.975-26.726 141.115-13.83 52.556 14.289 96.938 51.954 123.211 104.234z"/><path d="m604.792 836.565c-60.267-17.328-104.25-58.226-126.584-111.689-17.35-41.408-19.941-87.472-7.343-130.547 3.104-10.685 7.1-21.093 11.947-31.117-5.237 46.325 6.168 93 32.197 131.767 26.029 38.768 65.005 67.132 110.034 80.073 45.029 12.942 93.209 9.628 136.019-9.355 42.809-18.984 77.488-52.413 97.904-94.375-1.276 11.042-3.478 21.959-6.584 32.636-13.502 46.759-43.937 86.889-85.432 112.648-46.187 28.73-105.695 36.186-162.158 19.959z"/><path d="m595.286 382.201c54.863-30.179 116.514-34.309 170.341-12.269 41.72 17.033 76.327 47.745 98.076 87.038 5.416 9.736 10.002 19.906 13.711 30.403-29.27-36.396-70.537-61.326-116.504-70.382-45.967-9.057-93.673-1.656-134.683 20.894-41.011 22.549-72.683 58.794-89.417 102.327s-17.452 91.548-2.027 135.556c-6.965-8.704-13.184-17.973-18.592-27.71-23.732-42.516-30.791-92.268-19.812-139.655 12.183-52.82 47.438-97.92 98.907-126.202z"/></g></g><g clip-path="url(#b)"><path d="m995.097 498.459c4.53-.104 9.043.587 13.333 2.04 3.5 1.213 6.7 3.145 9.4 5.67 2.48 2.378 4.38 5.278 5.58 8.486 1.24 3.364 1.86 6.923 1.83 10.505.09 4.961-1.05 9.868-3.34 14.278-2.14 4.099-5.46 7.477-9.52 9.71-4.4 2.374-9.35 3.563-14.36 3.447h-22.284l7.64-54.136zm20.513 26.589c.06-2.854-.54-5.684-1.75-8.272-1.08-2.274-2.63-4.296-4.55-5.936-1.9-1.594-4.1-2.803-6.47-3.559-2.41-.783-4.923-1.183-7.456-1.183h-3.896l-5.384 38.868h8.45c6.956 0 12.216-1.7 15.766-5.099 3.54-3.4 5.32-8.34 5.32-14.819z" fill="#ed1c24"/><path d="m1083.93 521.325c.09 5.681-1.18 11.301-3.7 16.4-2.29 4.684-5.84 8.646-10.25 11.443-4.34 2.736-9.37 4.171-14.5 4.131-4.17.056-8.28-1.001-11.9-3.06-3.49-2.016-6.34-4.98-8.2-8.547-1.98-3.776-2.98-7.981-2.92-12.238-.01-4.101.72-8.17 2.16-12.015 1.39-3.786 3.48-7.282 6.15-10.311 2.54-2.937 5.68-5.301 9.21-6.935 3.56-1.619 7.44-2.448 11.35-2.428 4.14-.073 8.22.959 11.83 2.989 3.44 1.951 6.22 4.867 8.01 8.383 1.9 3.78 2.85 7.962 2.76 12.188zm-9.42-.306c.05-2.726-.52-5.428-1.66-7.904-1.02-2.207-2.67-4.065-4.75-5.344-2.16-1.3-4.65-1.961-7.18-1.908-3.39-.008-6.69 1.064-9.42 3.06-3.08 2.292-5.51 5.339-7.06 8.843-1.77 3.744-2.68 7.834-2.66 11.973-.06 2.814.52 5.604 1.71 8.159 1.04 2.242 2.72 4.13 4.83 5.426 2.17 1.285 4.65 1.942 7.18 1.897 3.41-.005 6.73-1.123 9.45-3.182 3.06-2.296 5.46-5.348 6.97-8.853 1.73-3.823 2.61-7.973 2.59-12.167z" fill="#ed1c24"/><path d="m1134.35 506.873c-1.19-.272-2.39-.466-3.6-.581-1.51-.169-3.03-.257-4.55-.265-3.68-.057-7.35.498-10.85 1.642-3.06 1.015-5.88 2.651-8.27 4.803-2.35 2.159-4.2 4.796-5.43 7.731-1.28 2.974-1.94 6.177-1.94 9.414-.06 2.827.57 5.626 1.83 8.159 1.15 2.278 2.96 4.162 5.19 5.405 2.4 1.299 5.1 1.949 7.82 1.887 2.95-.054 5.86-.628 8.6-1.693 3.27-1.243 6.39-2.858 9.29-4.814l-1.44 10.199c-5.37 2.849-11.34 4.39-17.43 4.498-4.25.073-8.45-.942-12.19-2.947-3.54-1.919-6.44-4.826-8.34-8.364-2.01-3.766-3.03-7.976-2.96-12.238-.1-5.863 1.49-11.63 4.58-16.625 3.12-4.927 7.6-8.855 12.9-11.31 5.92-2.744 12.39-4.114 18.92-4.009 1.4 0 3.08.092 5.01.276 1.92.183 3.43.367 4.5.581z" fill="#ed1c24"/><path d="m1182.63 498.459-1.13 7.792h-16.41l-6.54 46.344h-9.32l6.55-46.344h-16.17l1.12-7.792z" fill="#ed1c24"/><path d="m1232.34 521.325c.08 5.68-1.19 11.299-3.7 16.4-2.29 4.685-5.84 8.646-10.26 11.443-4.33 2.737-9.36 4.171-14.5 4.131-4.17.055-8.28-1.001-11.9-3.06-3.5-2.017-6.34-4.981-8.21-8.546-1.97-3.777-2.98-7.982-2.92-12.239-.01-4.102.73-8.171 2.17-12.015 1.39-3.786 3.47-7.282 6.15-10.311 2.57-2.936 5.74-5.293 9.3-6.915 3.53-1.615 7.38-2.45 11.27-2.447 4.12-.066 8.19.966 11.78 2.988 3.44 1.952 6.23 4.867 8.01 8.384 1.92 3.776 2.88 7.958 2.81 12.187zm-9.43-.306c.05-2.724-.52-5.425-1.65-7.904-1.03-2.207-2.68-4.065-4.76-5.344-2.16-1.304-4.65-1.966-7.18-1.907-3.39-.009-6.69 1.064-9.43 3.059-3.07 2.289-5.49 5.328-7.03 8.822-1.79 3.742-2.71 7.832-2.71 11.974-.06 2.814.53 5.605 1.72 8.159 1.03 2.242 2.71 4.13 4.83 5.426 2.16 1.285 4.65 1.942 7.17 1.897 3.42-.012 6.73-1.133 9.45-3.192 3.05-2.299 5.45-5.35 6.96-8.853 1.73-3.814 2.61-7.953 2.6-12.137z" fill="#ed1c24"/><path d="m1281.33 552.595h-9.98l-5.82-11.994c-1.66-3.335-2.87-5.568-3.62-6.721-.61-.967-1.33-1.858-2.16-2.652-.65-.601-1.44-1.044-2.3-1.295-1.08-.278-2.21-.405-3.33-.377h-2.73l-3.2 23.019h-9.31l7.64-54.116h13.84c2.93-.074 5.86.346 8.66 1.244 2.12.689 4.07 1.819 5.71 3.315 1.42 1.322 2.49 2.963 3.14 4.783.64 1.82.96 3.734.95 5.661.04 3.215-1.11 6.332-3.21 8.771-2.27 2.64-5.36 4.438-8.78 5.099v.317c1.14.597 2.13 1.444 2.9 2.478.83 1.136 1.54 2.357 2.12 3.641zm-12.21-39.133c.06-1.035-.13-2.069-.56-3.015-.42-.947-1.07-1.78-1.88-2.432-1.62-1.271-3.98-1.91-7.07-1.917h-4.86l-2.23 16.196h4.64c2.22.076 4.44-.288 6.53-1.071 1.61-.616 3.02-1.678 4.05-3.06.95-1.38 1.44-3.027 1.38-4.701z" fill="#ed1c24"/><path d="m1319.66 509.199c-1.7-1.157-3.56-2.064-5.52-2.693-1.86-.612-3.82-.932-5.78-.948-2.27-.111-4.5.591-6.3 1.978-.77.616-1.39 1.401-1.81 2.295-.41.893-.62 1.871-.59 2.856 0 .947.25 1.878.74 2.692.6.961 1.33 1.837 2.16 2.601 1.48 1.292 3.03 2.488 4.66 3.58 1.35.959 2.72 1.958 4.1 3.06 1.36 1.048 2.61 2.234 3.72 3.539 1.1 1.29 2 2.733 2.67 4.283.72 1.745 1.07 3.621 1.03 5.508.02 2.751-.72 5.454-2.15 7.812-1.44 2.371-3.54 4.285-6.04 5.518-2.78 1.36-5.86 2.038-8.96 1.978-5.5.022-10.89-1.509-15.55-4.416l1.33-8.638c2.31 1.677 4.83 3.049 7.49 4.079 2.08.79 4.27 1.221 6.49 1.275 1.36.011 2.7-.26 3.94-.795 1.17-.485 2.18-1.266 2.95-2.265.74-.995 1.13-2.207 1.1-3.447.01-1.031-.22-2.049-.69-2.968-.51-.937-1.15-1.799-1.9-2.56-.84-.855-1.75-1.645-2.71-2.366-1.02-.755-2.05-1.54-3.15-2.335-2.35-1.592-4.54-3.409-6.53-5.426-1.26-1.375-2.3-2.937-3.08-4.631-.75-1.743-1.13-3.628-1.1-5.527-.01-2.803.83-5.542 2.43-7.854 1.66-2.418 3.96-4.346 6.63-5.579 2.88-1.365 6.04-2.062 9.23-2.039 2.21.009 4.4.297 6.53.856 2.09.501 4.11 1.24 6.02 2.203z" fill="#ed1c24"/><g fill="#177dc2"><path d="m1050.08 573.962-26.51 54.677h-3.65l-9.97-37.278-18.206 37.278h-3.702l-12.07-54.677h9.076l7.598 35.88h.154l17.3-35.88h3.86l9.82 36.267h.24l16.67-36.267z"/><path d="m1067 573.962-7.68 54.136h-9.36l7.64-54.136z"/><path d="m1116.28 573.962-1.08 7.782h-16.41l-6.54 46.354h-9.32l6.55-46.354h-16.22l1.13-7.782z"/><path d="m1172.63 573.962-7.68 54.136h-9.32l3.28-23.101h-28.72l-3.27 23.101h-9.32l7.64-54.136h9.23l-3.08 22.55h28.63l3.2-22.55z"/><path d="m1230.05 596.818c.09 5.681-1.18 11.301-3.7 16.4-2.29 4.684-5.84 8.646-10.25 11.443-4.34 2.719-9.38 4.135-14.5 4.08-4.17.056-8.28-1.001-11.9-3.06-3.5-2.01-6.35-4.976-8.2-8.547-1.98-3.776-2.98-7.981-2.93-12.238 0-4.101.73-8.17 2.17-12.015 1.39-3.786 3.48-7.282 6.15-10.311 2.57-2.938 5.73-5.296 9.29-6.915 3.55-1.609 7.41-2.434 11.31-2.417 4.13-.042 8.2 1.014 11.78 3.06 3.44 1.953 6.22 4.873 8 8.393 1.9 3.76 2.86 7.921 2.78 12.127zm-9.42-.306c.05-2.726-.52-5.428-1.66-7.904-1.03-2.204-2.68-4.062-4.75-5.344-2.16-1.297-4.65-1.958-7.18-1.908-3.39-.008-6.69 1.064-9.42 3.06-3.07 2.289-5.5 5.328-7.04 8.822-1.78 3.742-2.71 7.832-2.7 11.974-.06 2.813.52 5.603 1.71 8.159 1.03 2.244 2.71 4.132 4.83 5.426 2.16 1.293 4.65 1.954 7.18 1.907 3.41-.014 6.73-1.139 9.44-3.202 3.06-2.296 5.46-5.348 6.96-8.853 1.75-3.81 2.66-7.949 2.66-12.137z"/><path d="m1287.75 573.962-4.67 33.595c-.99 6.895-3.5 12.158-7.53 15.788-4.02 3.631-9.45 5.447-16.28 5.447-3.87.088-7.71-.638-11.28-2.132-2.99-1.246-5.54-3.352-7.32-6.048-1.73-2.72-2.61-5.884-2.54-9.097 0-.49 0-.949 0-1.367s0-.836.08-1.295c.07-.459.16-1.5.37-3.162l4.56-31.729h9.16l-4.49 31.423c-.29 1.897-.45 3.812-.47 5.732-.07 1.889.47 3.75 1.54 5.313 1.06 1.445 2.51 2.559 4.19 3.213 2.04.774 4.21 1.144 6.39 1.091 4.24 0 7.53-1.254 9.9-3.763 2.36-2.499 3.89-6.221 4.55-11.158l4.48-31.851z"/><path d="m1337 573.962-1.13 7.782h-16.41l-6.54 46.354h-9.31l6.54-46.354h-16.17l1.14-7.782z"/><path d="m993.272 649.455c6.624 0 11.608 1.104 14.938 3.314 3.34 2.21 5.01 5.498 5.01 9.863.05 2.392-.61 4.746-1.91 6.762-1.57 2.157-3.69 3.85-6.15 4.895 3.2.788 6.08 2.532 8.25 4.998 1.93 2.379 2.94 5.361 2.85 8.414.09 2.325-.44 4.631-1.53 6.69-1.09 2.06-2.7 3.8-4.67 5.049-4.1 2.76-9.88 4.144-17.332 4.151h-16.992l7.712-54.136zm-1.99 46.772c5.066 0 8.918-.697 11.568-2.091 1.28-.646 2.34-1.653 3.04-2.893.71-1.24 1.04-2.66.94-4.083.04-1.311-.27-2.609-.89-3.765s-1.54-2.13-2.66-2.823c-2.36-1.585-5.694-2.373-10.008-2.367h-4.717l-2.687 18.022zm-1.671-25.416c.439.053.881.077 1.323.072h2.174c3.486 0 6.183-.619 8.092-1.857.93-.596 1.68-1.426 2.19-2.406.5-.979.73-2.074.67-3.172.04-.903-.13-1.804-.49-2.631-.36-.828-.92-1.561-1.61-2.143-1.72-1.26-3.83-1.877-5.96-1.744h-2.308c-.748 0-1.456 0-2.102.082z"/><path d="m1074.27 672.321c.08 5.677-1.18 11.292-3.7 16.39-2.28 4.686-5.83 8.648-10.25 11.443-4.34 2.736-9.37 4.17-14.5 4.131-4.17.055-8.29-1.001-11.91-3.06-3.5-2.012-6.34-4.978-8.2-8.547-1.98-3.777-2.98-7.982-2.92-12.239-.01-4.101.72-8.17 2.16-12.014 1.39-3.786 3.48-7.283 6.15-10.311 2.55-2.938 5.7-5.302 9.24-6.936 3.55-1.628 7.42-2.47 11.33-2.468 4.13-.044 8.2 1.013 11.79 3.06 3.44 1.953 6.22 4.873 8 8.394 1.92 3.766 2.88 7.938 2.81 12.157zm-9.43-.316c.05-2.725-.51-5.425-1.65-7.904-1.03-2.206-2.68-4.063-4.76-5.345-2.16-1.296-4.65-1.953-7.18-1.897-3.39-.012-6.69 1.06-9.42 3.06-3.08 2.28-5.5 5.317-7.04 8.812-1.77 3.752-2.68 7.849-2.65 11.994-.06 2.814.52 5.604 1.71 8.159 1.04 2.24 2.72 4.127 4.83 5.426 2.17 1.285 4.65 1.942 7.18 1.897 3.41-.01 6.73-1.135 9.44-3.203 3.06-2.294 5.46-5.347 6.96-8.852 1.73-3.816 2.61-7.96 2.58-12.147z"/><path d="m1123.24 703.591h-9.97l-5.8-11.973c-1.67-3.336-2.87-5.579-3.63-6.722-.61-.971-1.33-1.865-2.16-2.662-.66-.598-1.45-1.04-2.3-1.295-1.09-.274-2.21-.398-3.34-.367h-2.72l-3.19 23.019h-9.31l7.63-54.136h13.83c2.93-.068 5.84.349 8.63 1.234 2.12.694 4.06 1.824 5.71 3.315 1.41 1.324 2.49 2.968 3.13 4.793.65 1.814.98 3.726.97 5.65.03 3.219-1.11 6.34-3.22 8.782-2.27 2.634-5.37 4.431-8.79 5.099v.306c1.14.595 2.14 1.443 2.9 2.479.84 1.133 1.55 2.354 2.12 3.641zm-12.14-39.144c.05-1.032-.14-2.063-.56-3.008s-1.06-1.777-1.87-2.428c-1.64-1.285-3.99-1.927-7.08-1.927h-4.87l-2.21 16.196h4.63c2.23.064 4.45-.317 6.52-1.122 1.62-.616 3.02-1.678 4.05-3.06.94-1.368 1.43-2.994 1.39-4.651z"/><path d="m1149.9 649.455c4.53-.099 9.04.591 13.33 2.039 3.5 1.217 6.71 3.152 9.41 5.681 2.48 2.372 4.39 5.274 5.58 8.486 1.43 4.018 2.03 8.281 1.77 12.536-.25 4.255-1.36 8.416-3.26 12.237-2.15 4.096-5.47 7.473-9.54 9.71-4.4 2.367-9.35 3.555-14.35 3.447h-22.26l7.64-54.136zm20.51 26.578c.06-2.852-.53-5.681-1.73-8.271-1.08-2.273-2.64-4.293-4.56-5.926-1.91-1.599-4.1-2.812-6.48-3.569-2.4-.784-4.92-1.183-7.45-1.184h-3.9l-5.41 38.869h8.45c6.96 0 12.22-1.683 15.76-5.049 3.54-3.365 5.32-8.322 5.34-14.87z"/><path d="m1225.95 649.455-1.13 7.628h-22.01l-2.15 15.085h19.49l-1.13 7.639h-19.48l-2.23 16.155h27.62l-1.09 7.639h-36.86l7.73-54.136z"/><path d="m1274.38 703.591h-9.97l-5.81-11.974c-1.66-3.331-2.87-5.572-3.62-6.721-.61-.972-1.33-1.866-2.16-2.662-.65-.593-1.42-1.036-2.26-1.295-1.08-.274-2.2-.397-3.32-.367h-2.73l-3.2 23.019h-9.31l7.64-54.136h13.84c2.92-.068 5.83.349 8.62 1.234 2.12.697 4.06 1.826 5.71 3.315 1.42 1.324 2.5 2.968 3.14 4.793.64 1.816.96 3.727.95 5.65.04 3.219-1.11 6.34-3.22 8.782-2.26 2.637-5.36 4.434-8.79 5.099v.306c1.15.598 2.15 1.445 2.92 2.478.83 1.124 1.53 2.331 2.11 3.601zm-12.19-39.144c.06-1.03-.12-2.059-.54-3.004s-1.05-1.778-1.86-2.432c-1.62-1.285-3.98-1.927-7.07-1.927h-4.87l-2.22 16.196h4.64c2.2.056 4.39-.322 6.45-1.112 1.61-.619 3.01-1.68 4.05-3.06.95-1.366 1.45-2.997 1.42-4.661z"/><path d="m1312.73 660.184c-1.71-1.161-3.59-2.068-5.56-2.692-1.87-.613-3.82-.933-5.78-.949-2.27-.104-4.5.597-6.3 1.979-.77.611-1.38 1.389-1.79 2.273-.42.884-.62 1.851-.6 2.826 0 .948.25 1.878.74 2.693.59.967 1.32 1.843 2.16 2.601 1.47 1.298 3.03 2.497 4.66 3.59 1.34.948 2.7 1.958 4.1 3.059 1.35 1.055 2.6 2.24 3.72 3.539 1.12 1.315 2.04 2.786 2.73 4.366.72 1.743 1.07 3.614 1.03 5.497.02 2.751-.72 5.456-2.15 7.812-1.44 2.378-3.53 4.294-6.04 5.518-2.78 1.366-5.86 2.044-8.96 1.978-5.5.026-10.88-1.506-15.54-4.416l1.32-8.638c2.31 1.666 4.83 3.021 7.5 4.028 2.08.791 4.27 1.223 6.49 1.275 1.36.007 2.7-.26 3.94-.785 1.16-.489 2.17-1.273 2.93-2.274.75-.995 1.14-2.207 1.12-3.448.01-1.032-.23-2.051-.71-2.968-.5-.939-1.13-1.801-1.88-2.56-.84-.851-1.75-1.639-2.71-2.356-1.03-.764-2.05-1.55-3.16-2.345-2.35-1.591-4.54-3.408-6.53-5.426-1.26-1.376-2.3-2.938-3.08-4.63-.76-1.741-1.13-3.622-1.1-5.518-.03-2.8.81-5.539 2.4-7.853 1.66-2.425 3.96-4.353 6.64-5.579 2.88-1.37 6.04-2.067 9.23-2.04 2.2.009 4.39.297 6.52.857 2.09.518 4.11 1.271 6.03 2.244z"/></g></g></svg>