<svg width="1800" height="1200" viewBox="0 0 1800 1200" fill="none" xmlns="http://www.w3.org/2000/svg">
<rect width="1800" height="1200" fill="white"/>
<g clip-path="url(#clip0)">
<path d="M682.687 744.244C606.566 700.827 507.157 622.193 565.004 553.278C569.782 547.751 580.611 536.777 597.542 531.738C602.584 530.232 607.797 529.365 613.057 529.158C613.207 529.141 613.359 529.141 613.509 529.158C613.634 529.138 613.762 529.138 613.888 529.158H614.339C614.722 529.136 615.105 529.136 615.488 529.158C615.898 529.158 616.308 529.158 616.811 529.158C622.779 528.913 634.961 529.158 646.498 533.084C656.732 536.488 665.832 542.615 672.812 550.8C678.575 557.725 678.903 562.141 676.719 564.059C676.514 564.258 676.278 564.423 676.021 564.548C674.841 565.108 673.512 565.28 672.227 565.038C670.9 564.865 669.662 564.279 668.689 563.365C667.746 562.539 667.951 560.499 667.038 558.613C666.126 556.726 664.567 554.064 660.085 550.382C657.595 548.385 654.783 546.819 651.769 545.752L651.359 545.629C647.823 544.71 644.184 544.244 640.53 544.242C636.348 544.241 632.187 544.832 628.173 545.996C620.068 548.551 612.848 553.318 607.335 559.755C570.316 603.865 633.936 679.776 682.687 707.538C731.438 679.776 795.058 603.865 758.039 559.755C752.53 553.318 745.313 548.551 737.211 545.996C733.213 544.837 729.07 544.246 724.906 544.242C721.251 544.243 717.612 544.709 714.077 545.629L713.666 545.752C710.651 546.817 707.839 548.383 705.35 550.382C700.858 554.064 699.341 556.603 698.387 558.613C697.433 560.622 697.69 562.539 696.736 563.365C695.765 564.283 694.526 564.869 693.198 565.038C691.916 565.278 690.591 565.106 689.414 564.548C689.157 564.423 688.922 564.258 688.717 564.059C686.532 562.172 686.861 557.756 692.624 550.8C699.583 542.56 708.686 536.383 718.937 532.942C730.464 529.015 742.657 528.77 748.676 529.015C749.168 529.015 749.578 529.015 749.989 529.015C750.375 528.993 750.761 528.993 751.147 529.015H751.599C751.721 528.995 751.846 528.995 751.968 529.015C752.118 528.999 752.269 528.999 752.419 529.015C757.683 529.222 762.899 530.089 767.945 531.595C784.865 536.634 795.694 547.608 800.473 553.136C858.227 622.193 758.869 700.827 682.687 744.244Z" fill="#ED1C24"/>
<path d="M907.122 544.579C935.168 600.388 936.225 661.072 911.849 713.647C893.002 754.389 860.715 787.496 820.346 807.478C810.343 812.45 799.94 816.582 789.244 819.829C827.029 792.254 853.793 752.278 864.801 706.971C875.81 661.663 870.355 613.944 849.401 572.251C828.447 530.558 793.343 497.578 750.298 479.142C707.253 460.707 659.04 458.005 614.185 471.513C623.22 464.951 632.79 459.151 642.796 454.175C686.499 432.376 736.771 427.449 783.911 440.345C836.467 454.634 880.849 492.299 907.122 544.579Z" fill="#177DC2"/>
<path d="M604.792 836.565C544.525 819.237 500.542 778.339 478.208 724.876C460.858 683.468 458.267 637.404 470.865 594.329C473.969 583.644 477.965 573.236 482.812 563.212C477.575 609.537 488.98 656.212 515.009 694.979C541.038 733.747 580.014 762.111 625.043 775.052C670.072 787.994 718.252 784.68 761.062 765.697C803.871 746.713 838.55 713.284 858.966 671.322C857.69 682.364 855.488 693.281 852.382 703.958C838.88 750.717 808.445 790.847 766.95 816.606C720.763 845.336 661.255 852.792 604.792 836.565Z" fill="#177DC2"/>
<path d="M595.286 382.201C650.149 352.022 711.8 347.892 765.627 369.932C807.347 386.965 841.954 417.677 863.703 456.97C869.119 466.706 873.705 476.876 877.414 487.373C848.144 450.977 806.877 426.047 760.91 416.991C714.943 407.934 667.237 415.335 626.227 437.885C585.216 460.434 553.544 496.679 536.81 540.212C520.076 583.745 519.358 631.76 534.783 675.768C527.818 667.064 521.599 657.795 516.191 648.058C492.459 605.542 485.4 555.79 496.379 508.403C508.562 455.583 543.817 410.483 595.286 382.201Z" fill="#177DC2"/>
</g>
<g clip-path="url(#clip1)">
<path d="M995.097 498.459C999.627 498.355 1004.14 499.046 1008.43 500.499C1011.93 501.712 1015.13 503.644 1017.83 506.169C1020.31 508.547 1022.21 511.447 1023.41 514.655C1024.65 518.019 1025.27 521.578 1025.24 525.16C1025.33 530.121 1024.19 535.028 1021.9 539.438C1019.76 543.537 1016.44 546.915 1012.38 549.148C1007.98 551.522 1003.03 552.711 998.02 552.595H975.736L983.376 498.459H995.097ZM1015.61 525.048C1015.67 522.194 1015.07 519.364 1013.86 516.776C1012.78 514.502 1011.23 512.48 1009.31 510.84C1007.41 509.246 1005.21 508.037 1002.84 507.281C1000.43 506.498 997.917 506.098 995.384 506.098H991.488L986.104 544.966H994.554C1001.51 544.966 1006.77 543.266 1010.32 539.867C1013.86 536.467 1015.64 531.527 1015.64 525.048H1015.61Z" fill="#ED1C24"/>
<path d="M1083.93 521.325C1084.02 527.006 1082.75 532.626 1080.23 537.725C1077.94 542.409 1074.39 546.371 1069.98 549.168C1065.64 551.904 1060.61 553.339 1055.48 553.299C1051.31 553.355 1047.2 552.298 1043.58 550.239C1040.09 548.223 1037.24 545.259 1035.38 541.692C1033.4 537.916 1032.4 533.711 1032.46 529.454C1032.45 525.353 1033.18 521.284 1034.62 517.439C1036.01 513.653 1038.1 510.157 1040.77 507.128C1043.31 504.191 1046.45 501.827 1049.98 500.193C1053.54 498.574 1057.42 497.745 1061.33 497.765C1065.47 497.692 1069.55 498.724 1073.16 500.754C1076.6 502.705 1079.38 505.621 1081.17 509.137C1083.07 512.917 1084.02 517.099 1083.93 521.325V521.325ZM1074.51 521.019C1074.56 518.293 1073.99 515.591 1072.85 513.115C1071.83 510.908 1070.18 509.05 1068.1 507.771C1065.94 506.471 1063.45 505.81 1060.92 505.863C1057.53 505.855 1054.23 506.927 1051.5 508.923C1048.42 511.215 1045.99 514.262 1044.44 517.766C1042.67 521.51 1041.76 525.6 1041.78 529.739C1041.72 532.553 1042.3 535.343 1043.49 537.898C1044.53 540.14 1046.21 542.028 1048.32 543.324C1050.49 544.609 1052.97 545.266 1055.5 545.221C1058.91 545.216 1062.23 544.098 1064.95 542.039C1068.01 539.743 1070.41 536.691 1071.92 533.186C1073.65 529.363 1074.53 525.213 1074.51 521.019V521.019Z" fill="#ED1C24"/>
<path d="M1134.35 506.873C1133.16 506.601 1131.96 506.407 1130.75 506.292C1129.24 506.123 1127.72 506.035 1126.2 506.027C1122.52 505.97 1118.85 506.525 1115.35 507.669C1112.29 508.684 1109.47 510.32 1107.08 512.472C1104.73 514.631 1102.88 517.268 1101.65 520.203C1100.37 523.177 1099.71 526.38 1099.71 529.617C1099.65 532.444 1100.28 535.243 1101.54 537.776C1102.69 540.054 1104.5 541.938 1106.73 543.181C1109.13 544.48 1111.83 545.13 1114.55 545.068C1117.5 545.014 1120.41 544.44 1123.15 543.375C1126.42 542.132 1129.54 540.517 1132.44 538.561L1131 548.76C1125.63 551.609 1119.66 553.15 1113.57 553.258C1109.32 553.331 1105.12 552.316 1101.38 550.311C1097.84 548.392 1094.94 545.485 1093.04 541.947C1091.03 538.181 1090.01 533.971 1090.08 529.709C1089.98 523.846 1091.57 518.079 1094.66 513.084C1097.78 508.157 1102.26 504.229 1107.56 501.774C1113.48 499.03 1119.95 497.66 1126.48 497.765C1127.88 497.765 1129.56 497.857 1131.49 498.041C1133.41 498.224 1134.92 498.408 1135.99 498.622L1134.35 506.873Z" fill="#ED1C24"/>
<path d="M1182.63 498.459L1181.5 506.251H1165.09L1158.55 552.595H1149.23L1155.78 506.251H1139.61L1140.73 498.459H1182.63Z" fill="#ED1C24"/>
<path d="M1232.34 521.325C1232.42 527.005 1231.15 532.624 1228.64 537.725C1226.35 542.41 1222.8 546.371 1218.38 549.168C1214.05 551.905 1209.02 553.339 1203.88 553.299C1199.71 553.354 1195.6 552.298 1191.98 550.239C1188.48 548.222 1185.64 545.258 1183.77 541.693C1181.8 537.916 1180.79 533.711 1180.85 529.454C1180.84 525.352 1181.58 521.283 1183.02 517.439C1184.41 513.653 1186.49 510.157 1189.17 507.128C1191.74 504.192 1194.91 501.835 1198.47 500.213C1202 498.598 1205.85 497.763 1209.74 497.766C1213.86 497.7 1217.93 498.732 1221.52 500.754C1224.96 502.706 1227.75 505.621 1229.53 509.138C1231.45 512.914 1232.41 517.096 1232.34 521.325V521.325ZM1222.91 521.019C1222.96 518.295 1222.39 515.594 1221.26 513.115C1220.23 510.908 1218.58 509.05 1216.5 507.771C1214.34 506.467 1211.85 505.805 1209.32 505.864C1205.93 505.855 1202.63 506.928 1199.89 508.923C1196.82 511.212 1194.4 514.251 1192.86 517.745C1191.07 521.487 1190.15 525.577 1190.15 529.719C1190.09 532.533 1190.68 535.324 1191.87 537.878C1192.9 540.12 1194.58 542.008 1196.7 543.304C1198.86 544.589 1201.35 545.246 1203.87 545.201C1207.29 545.189 1210.6 544.068 1213.32 542.009C1216.37 539.71 1218.77 536.659 1220.28 533.156C1222.01 529.342 1222.89 525.203 1222.88 521.019H1222.91Z" fill="#ED1C24"/>
<path d="M1281.33 552.595H1271.35L1265.53 540.601C1263.87 537.266 1262.66 535.033 1261.91 533.88C1261.3 532.913 1260.58 532.022 1259.75 531.228C1259.1 530.627 1258.31 530.184 1257.45 529.933C1256.37 529.655 1255.24 529.528 1254.12 529.556H1251.39L1248.19 552.575H1238.88L1246.52 498.459H1260.36C1263.29 498.385 1266.22 498.805 1269.02 499.703C1271.14 500.392 1273.09 501.522 1274.73 503.018C1276.15 504.34 1277.22 505.981 1277.87 507.801C1278.51 509.621 1278.83 511.535 1278.82 513.462C1278.86 516.677 1277.71 519.794 1275.61 522.233C1273.34 524.873 1270.25 526.671 1266.83 527.332V527.649C1267.97 528.246 1268.96 529.093 1269.73 530.127C1270.56 531.263 1271.27 532.484 1271.85 533.768L1281.33 552.595ZM1269.12 513.462C1269.18 512.427 1268.99 511.393 1268.56 510.447C1268.14 509.5 1267.49 508.667 1266.68 508.015C1265.06 506.744 1262.7 506.105 1259.61 506.098H1254.75L1252.52 522.294H1257.16C1259.38 522.37 1261.6 522.006 1263.69 521.223C1265.3 520.607 1266.71 519.545 1267.74 518.163C1268.69 516.783 1269.18 515.136 1269.12 513.462V513.462Z" fill="#ED1C24"/>
<path d="M1319.66 509.199C1317.96 508.042 1316.1 507.135 1314.14 506.506C1312.28 505.894 1310.32 505.574 1308.36 505.558C1306.09 505.447 1303.86 506.149 1302.06 507.536C1301.29 508.152 1300.67 508.937 1300.25 509.831C1299.84 510.724 1299.63 511.702 1299.66 512.687C1299.66 513.634 1299.91 514.565 1300.4 515.379C1301 516.34 1301.73 517.216 1302.56 517.98C1304.04 519.272 1305.59 520.468 1307.22 521.56C1308.57 522.519 1309.94 523.518 1311.32 524.62C1312.68 525.668 1313.93 526.854 1315.04 528.159C1316.14 529.449 1317.04 530.892 1317.71 532.442C1318.43 534.187 1318.78 536.063 1318.74 537.95C1318.76 540.701 1318.02 543.404 1316.59 545.762C1315.15 548.133 1313.05 550.047 1310.55 551.28C1307.77 552.64 1304.69 553.318 1301.59 553.258C1296.09 553.28 1290.7 551.749 1286.04 548.842L1287.37 540.204C1289.68 541.881 1292.2 543.253 1294.86 544.283C1296.94 545.073 1299.13 545.504 1301.35 545.558C1302.71 545.569 1304.05 545.298 1305.29 544.763C1306.46 544.278 1307.47 543.497 1308.24 542.498C1308.98 541.503 1309.37 540.291 1309.34 539.051C1309.35 538.02 1309.12 537.002 1308.65 536.083C1308.14 535.146 1307.5 534.284 1306.75 533.523C1305.91 532.668 1305 531.878 1304.04 531.157C1303.02 530.402 1301.99 529.617 1300.89 528.822C1298.54 527.23 1296.35 525.413 1294.36 523.396C1293.1 522.021 1292.06 520.459 1291.28 518.765C1290.53 517.022 1290.15 515.137 1290.18 513.238C1290.17 510.435 1291.01 507.696 1292.61 505.384C1294.27 502.966 1296.57 501.038 1299.24 499.805C1302.12 498.44 1305.28 497.743 1308.47 497.766C1310.68 497.775 1312.87 498.063 1315 498.622C1317.09 499.123 1319.11 499.862 1321.02 500.825L1319.66 509.199Z" fill="#ED1C24"/>
<path d="M1050.08 573.962L1023.57 628.639H1019.92L1009.95 591.361L991.744 628.639H988.042L975.972 573.962H985.048L992.646 609.842H992.8L1010.1 573.962H1013.96L1023.78 610.229H1024.02L1040.69 573.962H1050.08Z" fill="#177DC2"/>
<path d="M1067 573.962L1059.32 628.098H1049.96L1057.6 573.962H1067Z" fill="#177DC2"/>
<path d="M1116.28 573.962L1115.2 581.744H1098.79L1092.25 628.098H1082.93L1089.48 581.744H1073.26L1074.39 573.962H1116.28Z" fill="#177DC2"/>
<path d="M1172.63 573.962L1164.95 628.098H1155.63L1158.91 604.997H1130.19L1126.92 628.098H1117.6L1125.24 573.962H1134.47L1131.39 596.512H1160.02L1163.22 573.962H1172.63Z" fill="#177DC2"/>
<path d="M1230.05 596.818C1230.14 602.499 1228.87 608.119 1226.35 613.218C1224.06 617.902 1220.51 621.864 1216.1 624.661C1211.76 627.38 1206.72 628.796 1201.6 628.741C1197.43 628.797 1193.32 627.74 1189.7 625.681C1186.2 623.671 1183.35 620.705 1181.5 617.134C1179.52 613.358 1178.52 609.153 1178.57 604.896C1178.57 600.795 1179.3 596.726 1180.74 592.881C1182.13 589.095 1184.22 585.599 1186.89 582.57C1189.46 579.632 1192.62 577.274 1196.18 575.655C1199.73 574.046 1203.59 573.221 1207.49 573.238C1211.62 573.196 1215.69 574.252 1219.27 576.298C1222.71 578.251 1225.49 581.171 1227.27 584.691C1229.17 588.451 1230.13 592.612 1230.05 596.818V596.818ZM1220.63 596.512C1220.68 593.786 1220.11 591.084 1218.97 588.608C1217.94 586.404 1216.29 584.546 1214.22 583.264C1212.06 581.967 1209.57 581.306 1207.04 581.356C1203.65 581.348 1200.35 582.42 1197.62 584.416C1194.55 586.705 1192.12 589.744 1190.58 593.238C1188.8 596.98 1187.87 601.07 1187.88 605.212C1187.82 608.025 1188.4 610.815 1189.59 613.371C1190.62 615.615 1192.3 617.503 1194.42 618.797C1196.58 620.09 1199.07 620.751 1201.6 620.704C1205.01 620.69 1208.33 619.565 1211.04 617.502C1214.1 615.206 1216.5 612.154 1218 608.649C1219.75 604.839 1220.66 600.7 1220.66 596.512H1220.63Z" fill="#177DC2"/>
<path d="M1287.75 573.962L1283.08 607.557C1282.09 614.452 1279.58 619.715 1275.55 623.345C1271.53 626.976 1266.1 628.792 1259.27 628.792C1255.4 628.88 1251.56 628.154 1247.99 626.66C1245 625.414 1242.45 623.308 1240.67 620.612C1238.94 617.892 1238.06 614.728 1238.13 611.515C1238.13 611.025 1238.13 610.566 1238.13 610.148C1238.13 609.73 1238.13 609.312 1238.21 608.853C1238.28 608.394 1238.37 607.353 1238.58 605.691L1243.14 573.962H1252.3L1247.81 605.385C1247.52 607.282 1247.36 609.197 1247.34 611.117C1247.27 613.006 1247.81 614.867 1248.88 616.43C1249.94 617.875 1251.39 618.989 1253.07 619.643C1255.11 620.417 1257.28 620.787 1259.46 620.734C1263.7 620.734 1266.99 619.48 1269.36 616.971C1271.72 614.472 1273.25 610.75 1273.91 605.813L1278.39 573.962H1287.75Z" fill="#177DC2"/>
<path d="M1337 573.962L1335.87 581.744H1319.46L1312.92 628.098H1303.61L1310.15 581.744H1293.98L1295.12 573.962H1337Z" fill="#177DC2"/>
<path d="M993.272 649.455C999.896 649.455 1004.88 650.559 1008.21 652.769C1011.55 654.979 1013.22 658.267 1013.22 662.632C1013.27 665.024 1012.61 667.378 1011.31 669.394C1009.74 671.551 1007.62 673.244 1005.16 674.289C1008.36 675.077 1011.24 676.821 1013.41 679.287C1015.34 681.666 1016.35 684.648 1016.26 687.701C1016.35 690.026 1015.82 692.332 1014.73 694.391C1013.64 696.451 1012.03 698.191 1010.06 699.44C1005.96 702.2 1000.18 703.584 992.728 703.591H975.736L983.448 649.455H993.272ZM991.282 696.227C996.348 696.227 1000.2 695.53 1002.85 694.136C1004.13 693.49 1005.19 692.483 1005.89 691.243C1006.6 690.003 1006.93 688.583 1006.83 687.16C1006.87 685.849 1006.56 684.551 1005.94 683.395C1005.32 682.239 1004.4 681.265 1003.28 680.572C1000.92 678.987 997.586 678.199 993.272 678.205H988.555L985.868 696.227H991.282ZM989.611 670.811C990.05 670.864 990.492 670.888 990.934 670.883H993.108C996.594 670.883 999.291 670.264 1001.2 669.026C1002.13 668.43 1002.88 667.6 1003.39 666.62C1003.89 665.641 1004.12 664.546 1004.06 663.448C1004.1 662.545 1003.93 661.644 1003.57 660.817C1003.21 659.989 1002.65 659.256 1001.96 658.674C1000.24 657.414 998.13 656.797 996 656.93H993.692C992.944 656.93 992.236 656.93 991.59 657.012L989.611 670.811Z" fill="#177DC2"/>
<path d="M1074.27 672.321C1074.35 677.998 1073.09 683.613 1070.57 688.711C1068.29 693.397 1064.74 697.359 1060.32 700.154C1055.98 702.89 1050.95 704.324 1045.82 704.285C1041.65 704.34 1037.53 703.284 1033.91 701.225C1030.41 699.213 1027.57 696.247 1025.71 692.678C1023.73 688.901 1022.73 684.696 1022.79 680.439C1022.78 676.338 1023.51 672.269 1024.95 668.425C1026.34 664.639 1028.43 661.142 1031.1 658.114C1033.65 655.176 1036.8 652.812 1040.34 651.178C1043.89 649.55 1047.76 648.708 1051.67 648.71C1055.8 648.666 1059.87 649.723 1063.46 651.77C1066.9 653.723 1069.68 656.643 1071.46 660.164C1073.38 663.93 1074.34 668.102 1074.27 672.321ZM1064.84 672.005C1064.89 669.28 1064.33 666.58 1063.19 664.101C1062.16 661.895 1060.51 660.038 1058.43 658.756C1056.27 657.46 1053.78 656.803 1051.25 656.859C1047.86 656.847 1044.56 657.919 1041.83 659.919C1038.75 662.199 1036.33 665.236 1034.79 668.731C1033.02 672.483 1032.11 676.58 1032.14 680.725C1032.08 683.539 1032.66 686.329 1033.85 688.884C1034.89 691.124 1036.57 693.011 1038.68 694.31C1040.85 695.595 1043.33 696.252 1045.86 696.207C1049.27 696.197 1052.59 695.072 1055.3 693.004C1058.36 690.71 1060.76 687.657 1062.26 684.152C1063.99 680.336 1064.87 676.192 1064.84 672.005V672.005Z" fill="#177DC2"/>
<path d="M1123.24 703.591H1113.27L1107.47 691.618C1105.8 688.282 1104.6 686.039 1103.84 684.896C1103.23 683.925 1102.51 683.031 1101.68 682.234C1101.02 681.636 1100.23 681.194 1099.38 680.939C1098.29 680.665 1097.17 680.541 1096.04 680.572H1093.32L1090.13 703.591H1080.82L1088.45 649.455H1102.28C1105.21 649.387 1108.12 649.804 1110.91 650.689C1113.03 651.383 1114.97 652.513 1116.62 654.004C1118.03 655.328 1119.11 656.972 1119.75 658.797C1120.4 660.611 1120.73 662.523 1120.72 664.447C1120.75 667.666 1119.61 670.787 1117.5 673.229C1115.23 675.863 1112.13 677.66 1108.71 678.328V678.634C1109.85 679.229 1110.85 680.077 1111.61 681.113C1112.45 682.246 1113.16 683.467 1113.73 684.754L1123.24 703.591ZM1111.1 664.447C1111.15 663.415 1110.96 662.384 1110.54 661.439C1110.12 660.494 1109.48 659.662 1108.67 659.011C1107.03 657.726 1104.68 657.084 1101.59 657.084H1096.72L1094.51 673.28H1099.14C1101.37 673.344 1103.59 672.963 1105.66 672.158C1107.28 671.542 1108.68 670.48 1109.71 669.098C1110.65 667.73 1111.14 666.104 1111.1 664.447V664.447Z" fill="#177DC2"/>
<path d="M1149.9 649.455C1154.43 649.356 1158.94 650.046 1163.23 651.494C1166.73 652.711 1169.94 654.646 1172.64 657.175C1175.12 659.547 1177.03 662.449 1178.22 665.661C1179.65 669.679 1180.25 673.942 1179.99 678.197C1179.74 682.452 1178.63 686.613 1176.73 690.434C1174.58 694.53 1171.26 697.907 1167.19 700.144C1162.79 702.511 1157.84 703.699 1152.84 703.591H1130.58L1138.22 649.455H1149.9ZM1170.41 676.033C1170.47 673.181 1169.88 670.352 1168.68 667.762C1167.6 665.489 1166.04 663.469 1164.12 661.836C1162.21 660.237 1160.02 659.024 1157.64 658.267C1155.24 657.483 1152.72 657.084 1150.19 657.083H1146.29L1140.88 695.952H1149.33C1156.29 695.952 1161.55 694.269 1165.09 690.903C1168.63 687.538 1170.41 682.581 1170.43 676.033H1170.41Z" fill="#177DC2"/>
<path d="M1225.95 649.455L1224.82 657.083H1202.81L1200.66 672.168H1220.15L1219.02 679.807H1199.54L1197.31 695.962H1224.93L1223.84 703.601H1186.98L1194.71 649.465L1225.95 649.455Z" fill="#177DC2"/>
<path d="M1274.38 703.591H1264.41L1258.6 691.617C1256.94 688.286 1255.73 686.045 1254.98 684.896C1254.37 683.924 1253.65 683.03 1252.82 682.234C1252.17 681.641 1251.4 681.198 1250.56 680.939C1249.48 680.665 1248.36 680.542 1247.24 680.572H1244.51L1241.31 703.591H1232L1239.64 649.455H1253.48C1256.4 649.387 1259.31 649.804 1262.1 650.689C1264.22 651.386 1266.16 652.515 1267.81 654.004C1269.23 655.328 1270.31 656.972 1270.95 658.797C1271.59 660.613 1271.91 662.524 1271.9 664.447C1271.94 667.666 1270.79 670.787 1268.68 673.229C1266.42 675.866 1263.32 677.663 1259.89 678.328V678.634C1261.04 679.232 1262.04 680.079 1262.81 681.112C1263.64 682.236 1264.34 683.443 1264.92 684.713L1274.38 703.591ZM1262.19 664.447C1262.25 663.417 1262.07 662.388 1261.65 661.443C1261.23 660.498 1260.6 659.665 1259.79 659.011C1258.17 657.726 1255.81 657.084 1252.72 657.084H1247.85L1245.63 673.28H1250.27C1252.47 673.336 1254.66 672.958 1256.72 672.168C1258.33 671.549 1259.73 670.488 1260.77 669.108C1261.72 667.742 1262.22 666.111 1262.19 664.447V664.447Z" fill="#177DC2"/>
<path d="M1312.73 660.184C1311.02 659.023 1309.14 658.116 1307.17 657.492C1305.3 656.879 1303.35 656.559 1301.39 656.543C1299.12 656.439 1296.89 657.14 1295.09 658.522C1294.32 659.133 1293.71 659.911 1293.3 660.795C1292.88 661.679 1292.68 662.646 1292.7 663.621C1292.7 664.569 1292.95 665.499 1293.44 666.314C1294.03 667.281 1294.76 668.157 1295.6 668.915C1297.07 670.213 1298.63 671.412 1300.26 672.505C1301.6 673.453 1302.96 674.463 1304.36 675.564C1305.71 676.619 1306.96 677.804 1308.08 679.103C1309.2 680.418 1310.12 681.889 1310.81 683.469C1311.53 685.212 1311.88 687.083 1311.84 688.966C1311.86 691.717 1311.12 694.422 1309.69 696.778C1308.25 699.156 1306.16 701.072 1303.65 702.296C1300.87 703.662 1297.79 704.34 1294.69 704.274C1289.19 704.3 1283.81 702.768 1279.15 699.858L1280.47 691.22C1282.78 692.886 1285.3 694.241 1287.97 695.248C1290.05 696.039 1292.24 696.471 1294.46 696.523C1295.82 696.53 1297.16 696.263 1298.4 695.738C1299.56 695.249 1300.57 694.465 1301.33 693.464C1302.08 692.469 1302.47 691.257 1302.45 690.016C1302.46 688.984 1302.22 687.965 1301.74 687.048C1301.24 686.109 1300.61 685.247 1299.86 684.488C1299.02 683.637 1298.11 682.849 1297.15 682.132C1296.12 681.368 1295.1 680.582 1293.99 679.787C1291.64 678.196 1289.45 676.379 1287.46 674.361C1286.2 672.985 1285.16 671.423 1284.38 669.731C1283.62 667.99 1283.25 666.109 1283.28 664.213C1283.25 661.413 1284.09 658.674 1285.68 656.36C1287.34 653.935 1289.64 652.007 1292.32 650.781C1295.2 649.411 1298.36 648.714 1301.55 648.741C1303.75 648.75 1305.94 649.038 1308.07 649.598C1310.16 650.116 1312.18 650.869 1314.1 651.842L1312.73 660.184Z" fill="#177DC2"/>
</g>
<defs>
<clipPath id="clip0">
<path d="M463 356H929.2V845H463V356Z" fill="white"/>
</clipPath>
<clipPath id="clip1">
<path d="M975.736 497.766H1337V704.285H975.736V497.766Z" fill="white"/>
</clipPath>
</defs>
</svg>
