<svg width="900" height="900" viewBox="0 0 900 900" fill="none" xmlns="http://www.w3.org/2000/svg">
<rect width="900" height="900" fill="#FC810D"/>
<path fill-rule="evenodd" clip-rule="evenodd" d="M344.948 447.701H50.2294V505.45H344.948V447.701ZM900 613.978H0V900H900V613.978Z" fill="#FFE173"/>
<path d="M50.2295 447.701H344.948V505.45H50.2295V447.701Z" fill="#FFE7A1"/>
<path d="M847.248 600.429H46.2468V613.979H847.248V600.429Z" fill="#FFF5E7"/>
<path d="M344.948 447.701H50.2295V457.658H344.948V447.701Z" fill="#FFF5E7"/>
<path d="M846.766 290.624H563.333V339.716H846.766V290.624Z" fill="#FFE7A1"/>
<path d="M427.777 190.589H112.241V352.895H427.777V190.589Z" fill="white"/>
<path d="M163.476 274.045C135.827 263.859 118.001 272.63 112.543 278.289V339.197H293.839H424.808V274.045C402.778 267.982 355.03 278.701 334.659 275.531C293.839 269.178 198.038 286.778 163.476 274.045Z" fill="#BEF7C8"/>
<path d="M214.587 276.695C214.587 286.74 201.132 294.883 201.132 294.883C201.132 294.883 187.142 286.74 187.142 276.695C187.142 266.649 201.132 248.987 201.132 248.987C201.132 248.987 214.587 266.649 214.587 276.695Z" fill="#C9B46C"/>
<path d="M203.39 290.271H198.339V321.433H203.39V290.271Z" fill="#C9B46C"/>
<path d="M305.06 276.695C305.06 286.74 291.617 294.884 291.617 294.884C291.617 294.884 277.638 286.74 277.638 276.695C277.638 266.65 291.617 248.987 291.617 248.987C291.617 248.987 305.06 266.65 305.06 276.695Z" fill="#C9B46C"/>
<path d="M293.875 290.271H288.824V321.433H293.875V290.271Z" fill="#C9B46C"/>
<path d="M424.808 246.049H358.395V279.971H424.808V246.049Z" fill="#FFBA70"/>
<path d="M422.758 268.183H353.702V312.442H422.758V268.183Z" fill="#FFBA70"/>
<path d="M163.476 307.706C135.827 297.52 118.001 306.291 112.543 311.95V347.118H293.839H424.808V307.706C402.778 301.643 355.03 312.363 334.659 309.191C293.839 302.839 198.038 320.439 163.476 307.706Z" fill="#58D16C"/>
<path d="M176.049 255.662C176.049 271.981 154.21 285.21 154.21 285.21C154.21 285.21 131.501 271.981 131.501 255.662C131.501 239.344 154.21 210.65 154.21 210.65C154.21 210.65 176.049 239.344 176.049 255.662Z" fill="#58D16C"/>
<path d="M157.364 278.656H150.187V322.938H157.364V278.656Z" fill="#58D16C"/>
<path d="M269.516 255.662C269.516 271.981 247.677 285.21 247.677 285.21C247.677 285.21 224.968 271.981 224.968 255.662C224.968 239.344 247.677 210.65 247.677 210.65C247.677 210.65 269.516 239.344 269.516 255.662Z" fill="#58D16C"/>
<path d="M250.829 278.656H243.652V322.938H250.829V278.656Z" fill="#58D16C"/>
<path d="M358.395 246.092L378.086 278.196H335.019L358.395 246.092Z" fill="#FFBA70"/>
<path d="M406.79 236.638H393.741V259.223H406.79V236.638Z" fill="#FFBA70"/>
<path d="M428.745 192.848H111.273V350.894H428.745V192.848Z" stroke="#FFF5E7" stroke-width="8.50188"/>
<path d="M900 600H0V614H900V600Z" fill="#F4F5F7"/>
<path d="M344.948 447.701H50.2295V457.658H344.948V447.701Z" fill="#FFCF9C"/>
<path d="M310.808 639.58H299.794V665.672H310.808V639.58Z" fill="white"/>
<path d="M729.329 639.579H718.316V665.671H729.329V639.579Z" fill="white"/>
<path d="M801.859 681.701C801.859 683.676 674.981 684.391 518.162 684.391C361.342 684.391 222.033 682.43 222.033 680.454C222.033 679.527 252.685 664.992 301.417 664.442C356.576 663.818 418.852 664.442 502.113 664.442C582.282 664.442 663.96 663.543 715.528 664.442C764.831 665.301 801.859 680.735 801.859 681.701Z" fill="#FFC821"/>
<path d="M290.556 654.515H277.319V680.607H290.556V654.515Z" fill="#D7C791"/>
<path d="M751.805 654.514H738.569V680.606H751.805V654.514Z" fill="#D7C791"/>
<path d="M665.021 416.142H364.649C317.412 416.142 279.119 454.435 279.119 501.672V563.783C279.119 611.02 317.412 649.313 364.649 649.313H665.021C712.258 649.313 750.551 611.02 750.551 563.783V501.672C750.551 454.435 712.258 416.142 665.021 416.142Z" fill="#075EBA"/>
<path d="M708.528 490.852L674.721 535.208L640.753 527.688" stroke="#D14600" stroke-width="16.8795" stroke-linecap="round"/>
<path d="M717.617 497.183C721.115 492.163 719.88 485.259 714.861 481.762C709.842 478.264 702.937 479.499 699.44 484.518L717.617 497.183ZM699.44 484.518L682.811 508.385L700.988 521.05L717.617 497.183L699.44 484.518Z" fill="#DEDEDE"/>
<path d="M734.768 569.893H281.458C279.771 569.893 278.403 571.26 278.403 572.947V656.441C278.403 658.128 279.771 659.495 281.458 659.495H734.768C736.455 659.495 737.823 658.128 737.823 656.441V572.947C737.823 571.26 736.455 569.893 734.768 569.893Z" fill="#1A94FF"/>
<path fill-rule="evenodd" clip-rule="evenodd" d="M618.789 525.136C617.521 525.685 616.047 525.102 615.498 523.832L614.779 522.172L612.28 522.39C612.676 523.605 612.09 524.945 610.893 525.463C609.624 526.013 608.151 525.429 607.601 524.16L581.39 463.602C579.182 458.501 591.552 461.819 593.04 465.258L620.093 521.844C620.642 523.112 620.059 524.586 618.789 525.136Z" fill="#515151"/>
<path d="M673.941 521.451H611.916C609.44 521.451 607.432 523.458 607.432 525.935C607.432 528.411 609.44 530.419 611.916 530.419H673.941C676.418 530.419 678.426 528.411 678.426 525.935C678.426 523.458 676.418 521.451 673.941 521.451Z" fill="#3F3F3F"/>
<path fill-rule="evenodd" clip-rule="evenodd" d="M584.222 460.998C582.945 460.91 581.901 461.099 581.417 461.672C581.35 461.773 581.289 461.876 581.23 461.977C581.06 462.379 581.092 462.914 581.39 463.602L607.601 524.16C608.151 525.429 609.624 526.013 610.893 525.463C611.648 525.136 612.159 524.483 612.336 523.741C603.628 503.46 587.088 465.486 584.222 460.998Z" fill="#3F3F3F"/>
<path d="M717.526 552.582C717.526 538.524 728.923 527.127 742.981 527.127H769.455C783.513 527.127 794.91 538.524 794.91 552.582V649.313C794.91 654.936 790.352 659.494 784.728 659.494H717.526V552.582Z" fill="#1A94FF"/>
<path d="M234.214 552.582C234.214 538.524 245.611 527.127 259.67 527.127H286.143C300.202 527.127 311.598 538.524 311.598 552.582V659.494H244.396C238.773 659.494 234.214 654.936 234.214 649.313V552.582Z" fill="#1A94FF"/>
<path fill-rule="evenodd" clip-rule="evenodd" d="M598.46 416.142C597.088 422.427 572.466 422.179 546.727 421.919C541.548 421.867 536.324 421.815 531.235 421.815L530.257 421.887C492.407 424.716 488.728 424.991 472.021 417.4C472.021 416.976 472.087 416.557 472.219 416.142H598.46Z" fill="#FFC821"/>
<path d="M534.94 581.565C615.884 581.565 681.503 579.964 681.503 577.989C681.503 576.014 615.884 574.412 534.94 574.412C453.996 574.412 388.377 576.014 388.377 577.989C388.377 579.964 453.996 581.565 534.94 581.565Z" fill="#0972E3"/>
<path d="M476.728 596.168C499.406 596.168 517.789 594.713 517.789 592.918C517.789 591.123 499.406 589.667 476.728 589.667C454.051 589.667 435.667 591.123 435.667 592.918C435.667 594.713 454.051 596.168 476.728 596.168Z" fill="#0972E3"/>
<path d="M704.998 582.12C705.027 584.094 679.746 586.067 648.534 586.525C610.337 587.085 557.171 577.973 628.409 576.927C659.622 576.469 704.969 580.144 704.998 582.12Z" fill="#0972E3"/>
<path d="M483.037 565.983L426.488 564.558" stroke="#D14600" stroke-width="13.9334" stroke-linecap="round"/>
<path d="M430.914 571.456C430.914 571.456 422.558 566.26 425.936 557.806C410.06 547.544 391.505 526.265 387.444 528.683C383.383 531.102 408.196 570.891 414.678 579.532C421.238 580.734 430.914 571.456 430.914 571.456Z" fill="#515151"/>
<path d="M415.974 560.544L420.233 545.303" stroke="#FFF3D6" stroke-width="3.48335" stroke-linecap="round"/>
<path d="M409.226 551.502L413.485 536.261" stroke="#FFF3D6" stroke-width="3.48335" stroke-linecap="round"/>
<path d="M739.533 432.025L702.06 428.754C702.06 428.754 705.559 448.909 703.861 465.094C719.722 473.407 740.078 450.555 740.078 450.555L739.533 432.025Z" fill="#FFB877"/>
<path d="M704.677 443.449C704.306 447.491 700.593 449.444 701.149 450.476C701.707 451.51 704.818 452.335 704.818 452.335" stroke="#4F7793" stroke-width="1.44638" stroke-linecap="round"/>
<path d="M749.023 483.539C745.345 476.672 735.014 468.29 736.225 449.684L725.603 460.261C722.997 462.38 719.477 459.333 721.377 461.049C723.278 462.766 719.876 484.831 717.004 487.371L727.213 485.474C732.22 486.497 752.702 490.406 749.023 483.539Z" fill="#FFB877"/>
<path d="M728.638 461.578L721.953 464.312C721.953 464.312 720.989 473.605 720.637 475.615C720.637 475.615 726.969 465.08 728.638 461.578Z" fill="#4F7793"/>
<path d="M709.288 455.006C709.031 456.004 707.489 458.191 704.288 458.118" stroke="#4F7793" stroke-width="1.44638"/>
<path d="M722.229 480.024C719.447 478.927 710.811 479.568 706.841 480.024L708.001 485.505L714.218 487.507C718.048 485.469 725.012 481.12 722.229 480.024Z" fill="#DEDEDE"/>
<path d="M629.367 544.531C637.615 544.401 644.407 550.981 644.538 559.228C644.668 567.475 638.089 574.268 629.84 574.398L452.615 577.207C444.368 577.338 437.575 570.757 437.445 562.51C437.314 554.263 443.895 547.47 452.142 547.34L629.367 544.531Z" fill="#FFE173"/>
<path d="M620.471 520.336C626.908 516.29 634.238 513.755 641.023 519.054C645.323 522.412 636.775 531.397 636.775 531.397C636.775 531.397 633.491 531.097 628.324 531.411C623.155 531.726 622.427 534.687 615.808 531.807C609.191 528.928 614.034 524.382 620.471 520.336Z" fill="#D14600"/>
<path fill-rule="evenodd" clip-rule="evenodd" d="M515.978 554.831C513.543 552.17 509.41 551.987 506.749 554.423L493.525 568.895C489.149 573.21 486.049 579.67 488.485 582.332C490.921 584.993 498.296 579.873 500.959 577.437L515.571 564.062C518.233 561.626 518.415 557.493 515.978 554.831Z" fill="#FFB877"/>
<path d="M655.093 580.742C651.421 580.742 658.753 546.423 652.811 531.143C663.93 532.841 667.345 531.143 672.244 531.143C677.926 531.143 682.813 525.863 686.124 511.602C689.434 497.341 697.786 484.434 715.051 480.597C724.462 478.506 735.542 478.754 741.908 488.941C748.274 499.128 729.086 531.504 721.7 546.528C714.315 561.553 692.264 580.742 655.093 580.742Z" fill="#F8F8F8"/>
<path d="M691.949 507.996L695.727 511.24L691.029 512.89L691.949 507.996Z" fill="#559ED2"/>
<path d="M678.466 552.611L682.243 555.855L677.545 557.505L678.466 552.611Z" fill="#559ED2"/>
<path d="M705.741 524.177L704.845 529.074L701.051 525.849L705.741 524.177Z" fill="#559ED2"/>
<path d="M712.185 493.204L712.478 496.404L709.561 495.058L712.185 493.204Z" fill="#559ED2"/>
<path d="M664.503 565.757L664.795 568.956L661.878 567.61L664.503 565.757Z" fill="#559ED2"/>
<path d="M708.44 556.129L708.733 559.328L705.816 557.982L708.44 556.129Z" fill="#559ED2"/>
<path d="M688.561 531.741L692.6 531.04" stroke="#4F7793" stroke-width="0.995671" stroke-linecap="round"/>
<path d="M688.21 529.722L692.25 529.021" stroke="#4F7793" stroke-width="0.995671" stroke-linecap="round"/>
<path d="M696.239 495.408L699.26 494.883" stroke="#4F7793" stroke-width="0.995671" stroke-linecap="round"/>
<path d="M695.977 493.897L698.998 493.374" stroke="#4F7793" stroke-width="0.995671" stroke-linecap="round"/>
<path d="M707.663 506.734L710.811 508.926" stroke="#4F7793" stroke-width="0.995671" stroke-linecap="round"/>
<path d="M708.759 505.16L711.907 507.352" stroke="#4F7793" stroke-width="0.995671" stroke-linecap="round"/>
<path d="M678.609 571.441L681.319 568.364" stroke="#4F7793" stroke-width="0.995671" stroke-linecap="round"/>
<path d="M677.07 570.087L679.779 567.009" stroke="#4F7793" stroke-width="0.995671" stroke-linecap="round"/>
<path d="M719.088 473.744C719.482 476.234 715.648 481.007 713.682 483.083C727.444 478.233 738.42 489.254 742.189 495.37C743.631 492.88 742.789 478.168 742.189 471.123C741.697 475.219 727.772 470.959 723.348 470.141C718.925 469.321 718.598 470.631 719.088 473.744Z" fill="#F8F8F8"/>
<path d="M475.469 408.938C475.469 408.938 474.508 407.606 471.401 408.494C472.441 405.97 475.469 403.317 477.54 403.317L480.35 411.378C475.247 412.487 473.68 412.029 472.066 412.487C472.578 409.031 475.469 408.938 475.469 408.938Z" fill="#383838"/>
<path d="M480.765 380.274L483.716 398.379L495.081 392.222L480.765 380.274Z" fill="#0D0D0D"/>
<path d="M479.73 411.847C476.605 411.365 469.284 414.367 473.092 417.916H488.419C487.067 416.063 482.855 412.328 479.73 411.847Z" fill="#BBBBBB"/>
<path d="M512.598 404.744C512.598 419.676 538.709 417.416 561.876 417.416C573.489 417.416 578.771 420.306 587.022 407.86C589.845 403.6 588.716 389.722 575.849 383.534C554.864 373.443 509.407 391.097 512.598 404.744Z" fill="#3F3F3F"/>
<path d="M475.845 408.428C475.845 419.184 492.084 417.865 508.774 417.865C525.462 417.865 529.354 419.184 529.354 408.428C529.354 397.672 521.844 388.701 505.156 388.701C488.466 388.701 475.845 397.672 475.845 408.428Z" fill="#515151"/>
<path d="M580.987 404.508C589.317 406.27 599.552 407.015 598.472 411.954C597.122 418.126 591.053 413.348 588.527 418.267C584.862 425.404 595.788 424.739 591.053 437.683" stroke="#3F3F3F" stroke-width="5.97403" stroke-linecap="round"/>
<path d="M516.052 377.029C516.052 377.029 517.76 396.369 516.052 397.102C514.344 397.836 515.123 392.533 503.174 391.957L516.052 377.029Z" fill="#3F3F3F"/>
<path d="M485.359 404.693C485.38 404.419 485.175 404.179 484.902 404.158C484.628 404.138 484.388 404.343 484.367 404.616L485.359 404.693ZM488.962 410.826C489.237 410.809 489.444 410.571 489.425 410.297C489.406 410.022 489.169 409.815 488.894 409.834L488.962 410.826ZM484.367 404.616C484.286 405.667 484.399 407.243 485.033 408.549C485.354 409.209 485.817 409.819 486.474 410.245C487.136 410.674 487.961 410.895 488.962 410.826L488.894 409.834C488.086 409.889 487.478 409.71 487.015 409.41C486.546 409.106 486.191 408.655 485.929 408.115C485.397 407.021 485.287 405.637 485.359 404.693L484.367 404.616Z" fill="#0D0D0D"/>
<path d="M484.324 404.693C484.303 404.419 484.508 404.179 484.782 404.158C485.057 404.138 485.296 404.343 485.317 404.616L484.324 404.693ZM480.722 410.826C480.448 410.809 480.241 410.571 480.259 410.297C480.278 410.022 480.515 409.815 480.789 409.834L480.722 410.826ZM485.317 404.616C485.397 405.667 485.285 407.243 484.651 408.549C484.331 409.209 483.867 409.819 483.21 410.245C482.548 410.674 481.722 410.895 480.722 410.826L480.789 409.834C481.599 409.889 482.205 409.71 482.669 409.41C483.137 409.106 483.493 408.655 483.755 408.115C484.286 407.021 484.397 405.637 484.324 404.693L485.317 404.616Z" fill="#0D0D0D"/>
<path d="M484.787 406.725C483.536 406.725 485.026 405.743 482.068 404.615C481.147 403.977 482.895 402.507 485.477 402.507C487.869 402.507 489.751 404.409 488.363 404.615C486.134 404.943 486.031 406.725 484.787 406.725Z" fill="#0D0D0D"/>
<path d="M493.233 402.428C494.202 403.104 496.166 403.772 498.413 402.428" stroke="#0D0D0D" stroke-width="0.995671" stroke-linecap="round"/>
<path d="M476.052 401.346C477.021 402.022 478.984 402.69 481.231 401.346" stroke="#0D0D0D" stroke-width="0.995671" stroke-linecap="round"/>
<path d="M524.756 412.422C522.086 412.01 519.08 414.88 521.494 416.854C524.641 419.429 530.956 417.562 532.278 416.854C531.122 415.271 527.428 412.833 524.756 412.422Z" fill="#C8C8C8"/>
<path d="M581.655 417.202C578.356 419.493 560.179 418.329 554.083 417.28L548.785 412.735C553.671 412.658 563.948 412.277 565.964 411.361C567.979 410.445 560.448 405.095 560.516 400.269C560.654 390.333 576.488 381.762 584.404 391.497C588.358 396.358 588.626 400.251 588.358 405.405C587.862 408.116 584.953 414.912 581.655 417.202Z" fill="#515151"/>
<path d="M548.037 411.755C544.912 411.273 540.935 416.019 543.448 417.463C543.448 417.463 546.512 417.782 548.483 417.818C551.143 417.867 555.288 417.463 555.288 417.463C555.288 415.472 551.162 412.236 548.037 411.755Z" fill="#C8C8C8"/>
<path d="M490.337 407.311C490.199 407.288 490.105 407.158 490.128 407.02C490.15 406.882 490.28 406.788 490.419 406.811C490.557 406.833 490.65 406.964 490.628 407.102C490.605 407.24 490.475 407.333 490.337 407.311Z" fill="#0D0D0D"/>
<path d="M487.796 407.539C487.658 407.516 487.564 407.386 487.587 407.248C487.609 407.11 487.74 407.016 487.878 407.039C488.016 407.061 488.109 407.192 488.087 407.33C488.064 407.468 487.934 407.561 487.796 407.539Z" fill="#0D0D0D"/>
<path d="M487.893 406.12C487.754 406.098 487.661 405.967 487.683 405.829C487.706 405.691 487.836 405.597 487.974 405.62C488.112 405.643 488.206 405.773 488.183 405.911C488.161 406.049 488.031 406.143 487.893 406.12Z" fill="#0D0D0D"/>
<path d="M489.327 406.228C489.189 406.205 489.096 406.075 489.118 405.937C489.141 405.799 489.271 405.705 489.409 405.728C489.547 405.75 489.641 405.88 489.618 406.018C489.596 406.156 489.465 406.25 489.327 406.228Z" fill="#0D0D0D"/>
<path d="M486.386 407.31C486.248 407.287 486.154 407.157 486.177 407.019C486.199 406.881 486.33 406.787 486.468 406.81C486.606 406.832 486.7 406.963 486.677 407.101C486.655 407.239 486.524 407.332 486.386 407.31Z" fill="#0D0D0D"/>
<path d="M488.345 409.106C488.207 409.084 488.113 408.953 488.135 408.815C488.158 408.677 488.288 408.583 488.426 408.606C488.564 408.628 488.658 408.759 488.635 408.897C488.613 409.035 488.483 409.129 488.345 409.106Z" fill="#0D0D0D"/>
<path d="M486.866 408.733C486.728 408.71 486.634 408.58 486.657 408.442C486.679 408.304 486.81 408.21 486.948 408.233C487.086 408.255 487.179 408.385 487.157 408.523C487.134 408.662 487.004 408.755 486.866 408.733Z" fill="#0D0D0D"/>
<path d="M490.205 408.896C490.067 408.874 489.973 408.743 489.995 408.605C490.018 408.467 490.148 408.374 490.286 408.396C490.424 408.419 490.518 408.549 490.495 408.687C490.473 408.825 490.343 408.919 490.205 408.896Z" fill="#0D0D0D"/>
<path d="M487.768 407.351C494.651 406.325 507.942 408.72 515.251 412.872" stroke="#A6A6A6" stroke-width="0.199134" stroke-linecap="round"/>
<path d="M487.768 407.257C494.419 405.211 507.919 405.585 515.767 408.594" stroke="#A6A6A6" stroke-width="0.199134" stroke-linecap="round"/>
<path d="M479.349 407C479.489 407 479.602 406.886 479.602 406.746C479.602 406.606 479.489 406.493 479.349 406.493C479.209 406.493 479.095 406.606 479.095 406.746C479.095 406.886 479.209 407 479.349 407Z" fill="#0D0D0D"/>
<path d="M481.82 407.633C481.96 407.633 482.073 407.519 482.073 407.38C482.073 407.24 481.96 407.126 481.82 407.126C481.68 407.126 481.567 407.24 481.567 407.38C481.567 407.519 481.68 407.633 481.82 407.633Z" fill="#0D0D0D"/>
<path d="M481.953 406.217C482.093 406.217 482.207 406.104 482.207 405.964C482.207 405.824 482.093 405.71 481.953 405.71C481.813 405.71 481.7 405.824 481.7 405.964C481.7 406.104 481.813 406.217 481.953 406.217Z" fill="#0D0D0D"/>
<path d="M480.52 406.092C480.66 406.092 480.773 405.979 480.773 405.839C480.773 405.699 480.66 405.586 480.52 405.586C480.38 405.586 480.266 405.699 480.266 405.839C480.266 405.979 480.38 406.092 480.52 406.092Z" fill="#0D0D0D"/>
<path d="M483.249 407.633C483.389 407.633 483.502 407.519 483.502 407.38C483.502 407.24 483.389 407.126 483.249 407.126C483.109 407.126 482.995 407.24 482.995 407.38C482.995 407.519 483.109 407.633 483.249 407.633Z" fill="#0D0D0D"/>
<path d="M481.025 409.091C481.165 409.091 481.279 408.977 481.279 408.837C481.279 408.697 481.165 408.584 481.025 408.584C480.885 408.584 480.772 408.697 480.772 408.837C480.772 408.977 480.885 409.091 481.025 409.091Z" fill="#0D0D0D"/>
<path d="M482.546 408.96C482.686 408.96 482.799 408.847 482.799 408.707C482.799 408.567 482.686 408.453 482.546 408.453C482.406 408.453 482.292 408.567 482.292 408.707C482.292 408.847 482.406 408.96 482.546 408.96Z" fill="#0D0D0D"/>
<path d="M479.224 408.586C479.364 408.586 479.478 408.472 479.478 408.332C479.478 408.192 479.364 408.079 479.224 408.079C479.084 408.079 478.971 408.192 478.971 408.332C478.971 408.472 479.084 408.586 479.224 408.586Z" fill="#0D0D0D"/>
<path d="M481.82 407.449C474.937 406.424 461.647 408.819 454.337 412.971" stroke="#A6A6A6" stroke-width="0.199134" stroke-linecap="round"/>
<path d="M481.82 407.356C475.169 405.309 461.67 405.684 453.821 408.693" stroke="#A6A6A6" stroke-width="0.199134" stroke-linecap="round"/>
<path d="M502.635 404.939C502.366 404.988 502.185 405.247 502.234 405.518C502.283 405.787 502.541 405.968 502.812 405.919L502.635 404.939ZM509.309 410.43L509.199 410.916L509.988 411.095L509.792 410.311L509.309 410.43ZM502.161 410.43L502.087 409.938L500.602 410.159L501.925 410.869L502.161 410.43ZM507.428 416.753L507.224 417.207L507.925 417.523V416.753H507.428ZM499.108 414.924C498.843 414.996 498.688 415.27 498.76 415.536C498.834 415.801 499.108 415.956 499.373 415.884L499.108 414.924ZM509.42 409.945C507.935 409.608 506.09 409.612 504.647 409.692C503.919 409.733 503.281 409.794 502.825 409.846C502.597 409.871 502.413 409.894 502.287 409.91C502.223 409.918 502.174 409.925 502.141 409.93C502.124 409.932 502.111 409.934 502.102 409.936C502.097 409.936 502.094 409.937 502.091 409.937C502.09 409.937 502.089 409.937 502.089 409.938C502.088 409.938 502.088 409.938 502.088 409.938C502.087 409.938 502.087 409.938 502.161 410.43C502.234 410.923 502.233 410.923 502.233 410.923C502.234 410.923 502.234 410.923 502.234 410.923C502.234 410.923 502.235 410.923 502.236 410.922C502.237 410.922 502.24 410.922 502.244 410.921C502.252 410.92 502.263 410.918 502.279 410.916C502.31 410.912 502.357 410.905 502.416 410.897C502.538 410.881 502.714 410.859 502.935 410.834C503.377 410.786 503.997 410.726 504.702 410.686C506.125 410.606 507.856 410.61 509.199 410.916L509.42 409.945ZM502.161 410.43C501.925 410.869 501.925 410.869 501.925 410.869C501.926 410.869 501.926 410.869 501.927 410.87C501.929 410.871 501.933 410.873 501.937 410.875C501.945 410.88 501.958 410.887 501.976 410.897C502.013 410.918 502.067 410.948 502.136 410.989C502.274 411.069 502.473 411.19 502.713 411.345C503.193 411.656 503.831 412.105 504.468 412.658C505.772 413.79 506.93 415.241 506.93 416.753H507.925C507.925 414.77 506.45 413.06 505.121 411.906C504.44 411.314 503.762 410.837 503.254 410.509C503 410.345 502.788 410.216 502.637 410.129C502.563 410.085 502.504 410.052 502.462 410.029C502.442 410.017 502.426 410.008 502.414 410.002C502.409 409.999 502.404 409.996 502.401 409.995C502.399 409.994 502.398 409.993 502.397 409.993C502.397 409.992 502.396 409.992 502.396 409.992C502.396 409.992 502.395 409.992 502.161 410.43ZM507.633 416.299C506.15 415.631 503.049 413.835 499.108 414.924L499.373 415.884C502.9 414.91 505.646 416.495 507.224 417.207L507.633 416.299ZM502.812 405.919C504.177 405.674 505.513 406.185 506.612 407.109C507.713 408.034 508.524 409.334 508.827 410.551L509.792 410.311C509.436 408.877 508.504 407.398 507.252 406.346C505.998 405.293 504.372 404.627 502.635 404.939L502.812 405.919Z" fill="black"/>
<path d="M740.564 503.084C743.737 497.145 741.494 489.759 735.555 486.586C729.617 483.414 722.23 485.656 719.058 491.595L740.564 503.084ZM719.058 491.595L703.972 519.835L725.48 531.324L740.564 503.084L719.058 491.595Z" fill="#EEEDED"/>
<path d="M726.842 481.938L729.931 481.402" stroke="#4F7793" stroke-width="0.995671" stroke-linecap="round"/>
<path d="M726.573 480.393L729.663 479.856" stroke="#4F7793" stroke-width="0.995671" stroke-linecap="round"/>
<path d="M713.845 514.686L713.506 517.804" stroke="#4F7793" stroke-width="0.995671" stroke-linecap="round"/>
<path d="M715.404 514.856L715.064 517.974" stroke="#4F7793" stroke-width="0.995671" stroke-linecap="round"/>
<path d="M727.319 510.695L728.822 513.447" stroke="#4F7793" stroke-width="0.995671" stroke-linecap="round"/>
<path d="M728.696 509.944L730.198 512.696" stroke="#4F7793" stroke-width="0.995671" stroke-linecap="round"/>
<path d="M729.436 493.448L726.403 494.243" stroke="#4F7793" stroke-width="0.995671" stroke-linecap="round"/>
<path d="M729.834 494.966L726.8 495.759" stroke="#4F7793" stroke-width="0.995671" stroke-linecap="round"/>
<path d="M734.768 492.869L737.814 495.569L733.954 496.856L734.768 492.869Z" fill="#559ED2"/>
<path d="M726.648 520.437L726.941 523.636L724.024 522.29L726.648 520.437Z" fill="#559ED2"/>
<path d="M723.646 501.802L723.939 505.001L721.022 503.656L723.646 501.802Z" fill="#559ED2"/>
<path d="M714.177 484.467L711.687 486.498L711.174 483.326L714.177 484.467Z" fill="#559ED2"/>
<path d="M739.471 477.722L736.981 479.752L736.467 476.58L739.471 477.722Z" fill="#559ED2"/>
<path d="M722.784 475.266L720.309 475.664L721.202 473.322L722.784 475.266Z" fill="#559ED2"/>
<path d="M407.234 486.116L411.073 494.078L419.035 497.916L411.073 501.754L407.234 509.716L403.397 501.754L395.435 497.916L403.397 494.078L407.234 486.116Z" fill="#FFCF9C"/>
<path d="M514.835 486.116L518.673 494.078L526.635 497.916L518.673 501.754L514.835 509.716L510.997 501.754L503.035 497.916L510.997 494.078L514.835 486.116Z" fill="#FFCF9C"/>
<path d="M622.435 486.116L626.273 494.078L634.234 497.916L626.273 501.754L622.435 509.716L618.596 501.754L610.635 497.916L618.596 494.078L622.435 486.116Z" fill="#FFCF9C"/>
<path fill-rule="evenodd" clip-rule="evenodd" d="M272.324 171.228L273.071 172.026L288.573 188.598H285.847L272.363 174.184L259.577 188.598H256.915L271.599 172.045L272.324 171.228ZM697.421 437.925C697.421 437.925 705.579 435.619 724.176 437.925C724.828 450.969 729.091 457.962 733.146 464.614C737.442 471.66 741.505 478.325 740.798 491.394C740.491 497.079 738.193 502.65 736.04 507.876C733.296 514.53 730.784 520.621 732.908 525.667C735.413 531.615 740.702 530.499 747.549 529.055C751.07 528.312 755.004 527.481 759.182 527.481C766.894 527.481 777.336 532.193 785.084 535.69C789.655 537.753 793.29 539.393 794.873 539.393C799.14 539.393 794.873 522.988 787.142 516.97C783.622 514.23 782.538 504.759 781.411 494.896C780.487 486.817 779.533 478.473 777.186 473.35C775.469 469.605 772.47 467.756 769.372 465.844C763.053 461.948 756.319 457.795 759.182 436.801C762.596 411.766 734.419 405.711 722.681 412.003C692.52 404.201 697.421 437.925 697.421 437.925ZM595.572 513.221C602.172 516.893 608.789 520.575 615.065 523.885C615.332 524.37 615.67 524.883 616.083 525.423C619.622 530.063 624.178 530.892 627.105 531.424L627.124 531.427C627.231 531.447 627.334 531.466 627.436 531.484C630.05 531.966 632.012 533.029 633.925 534.067C636.714 535.579 639.401 537.037 643.861 536.548L654.967 542.041C655.591 549.942 654.985 559.076 654.493 566.485C654.172 571.335 653.899 575.446 654.052 577.989H637.865C626.13 577.989 569.573 534.2 566.456 531.78L566.265 531.655L516.25 573.546C512.848 576.396 508.551 577.471 504.481 576.873C505.156 581.556 505.791 589.89 502.496 593.323C491.516 593.983 444.76 593.942 444.984 589.134C445.108 586.459 453.454 584.224 463.87 581.435C472.17 579.212 481.783 576.639 489.6 573.209C492.758 577.755 497.241 576.989 500.34 575.633C498.42 574.738 496.66 573.419 495.21 571.686C489.914 565.364 490.746 555.944 497.07 550.647L555.573 501.646C561.029 497.077 568.788 497.07 574.216 501.213L577.252 503.181C583.14 506.304 589.346 509.757 595.568 513.219L595.571 513.22L595.572 513.221Z" fill="#FFE173"/>
<path fill-rule="evenodd" clip-rule="evenodd" d="M696.697 227.098H643.758L633.716 290.624H686.654L688.646 278.024L694.118 290.624H705.05L691.564 259.566L696.697 227.098ZM815.794 227.098H735.679L725.638 290.624H805.752L807.326 280.669L811.648 290.624H822.58L810.243 262.212L815.794 227.098Z" fill="#96E1F2"/>
<path fill-rule="evenodd" clip-rule="evenodd" d="M64.5293 379.522H55.5842V447.701H64.5293V379.522ZM65.515 379.522H74.4592V447.701H65.515V379.522ZM84.39 379.522H75.4449V447.701H84.39V379.522ZM140.585 438.756V447.701H208.763V438.756H140.585ZM135.98 438.756V429.811H204.159V438.756H135.98ZM147.289 420.866V429.811H215.469V420.866H147.289ZM92.5973 400.316L98.5723 397.887L117.843 445.272L111.868 447.701L92.5973 400.316ZM91.521 399.074L84.39 400.167L91.6823 447.701L98.8133 446.607L91.521 399.074Z" fill="#FFE173"/>
<path fill-rule="evenodd" clip-rule="evenodd" d="M690.29 233.56H648.121L640.123 284.162H644.96C644.794 283.812 644.729 283.409 644.795 282.997C645.592 278.06 648.732 274.184 652.316 271.665C655.263 269.593 658.73 268.285 661.805 268.132L662.263 265.879C657.977 264.473 655.207 260.139 655.907 255.531C655.93 255.382 655.956 255.234 655.986 255.088C654.576 255.035 653.294 255.023 652.244 255.038C650.562 251.683 655.299 242.581 667.117 242.326C676.572 242.122 680.396 253.334 679.816 259.481C679.028 260.555 676.898 261.928 674.114 259.967C672.941 263.437 669.84 265.898 666.242 266.294L665.764 268.651C669.722 269.944 672.315 273.334 673.982 276.452C675.503 279.295 676.498 282.423 677.049 284.153C677.05 284.156 677.051 284.159 677.052 284.162H682.29L690.29 233.56ZM672.861 284.162C672.319 282.496 671.587 280.419 670.471 278.331C670.064 277.571 669.628 276.854 669.159 276.196C669.146 276.607 669.098 277.023 669.009 277.443L667.71 283.634C667.672 283.813 667.628 283.989 667.577 284.162H672.861ZM653.953 284.162L655.213 274.545L655.22 274.51C655.014 274.642 654.81 274.779 654.606 274.922C651.641 277.007 649.308 280.031 648.727 283.632C648.697 283.82 648.641 283.998 648.564 284.162H653.953Z" fill="white" fill-opacity="0.8"/>
<path fill-rule="evenodd" clip-rule="evenodd" d="M595.572 513.22C602.172 516.893 608.789 520.575 615.065 523.885C615.333 524.37 615.67 524.882 616.083 525.422C619.622 530.063 624.178 530.891 627.105 531.423C627.218 531.444 627.328 531.464 627.436 531.484C630.052 531.965 632.012 533.028 633.925 534.066C636.715 535.579 639.401 537.036 643.862 536.548L654.967 542.04C655.591 549.942 654.985 559.076 654.493 566.485C654.172 571.334 653.899 575.445 654.052 577.988H637.866C626.131 577.988 569.574 534.2 566.456 531.78L566.265 531.655L516.25 573.546C512.848 576.395 508.551 577.47 504.481 576.872C505.157 581.556 505.791 589.89 502.496 593.322C491.516 593.983 444.761 593.942 444.984 589.134C445.109 586.458 453.454 584.224 463.87 581.435C472.17 579.212 481.783 576.638 489.6 573.209C492.758 577.754 497.241 576.988 500.34 575.633C498.42 574.738 496.661 573.418 495.211 571.686C489.914 565.363 490.746 555.943 497.07 550.647L555.573 501.646C561.029 497.076 568.788 497.069 574.216 501.213L577.252 503.18C583.142 506.304 589.349 509.757 595.571 513.22H595.572Z" fill="black" fill-opacity="0.18"/>
<path d="M497.973 374.045C497.713 373.957 497.43 374.095 497.34 374.355C497.252 374.615 497.39 374.899 497.65 374.987L497.973 374.045ZM502.041 375.965L502.338 376.365L503.097 375.801L502.202 375.494L502.041 375.965ZM497.811 379.104L497.515 378.704L496.755 379.269L497.65 379.575L497.811 379.104ZM501.88 381.024C502.14 381.113 502.422 380.974 502.512 380.714C502.601 380.454 502.462 380.171 502.202 380.082L501.88 381.024ZM497.65 374.987L501.88 376.436L502.202 375.494L497.973 374.045L497.65 374.987ZM501.744 375.566L497.515 378.704L498.108 379.504L502.338 376.365L501.744 375.566ZM497.65 379.575L501.88 381.024L502.202 380.082L497.973 378.633L497.65 379.575Z" fill="#B2B2B2"/>
<path d="M502.431 362.805C502.206 362.648 501.896 362.702 501.737 362.927C501.58 363.152 501.634 363.462 501.859 363.621L502.431 362.805ZM504.761 365.051L504.934 365.518L505.822 365.189L505.048 364.644L504.761 365.051ZM501.23 366.365L501.056 365.898L500.169 366.227L500.944 366.772L501.23 366.365ZM503.559 368.611C503.785 368.769 504.095 368.715 504.253 368.489C504.412 368.264 504.357 367.955 504.132 367.796L503.559 368.611ZM501.859 363.621L504.475 365.46L505.048 364.644L502.431 362.805L501.859 363.621ZM504.588 364.585L501.056 365.898L501.403 366.832L504.934 365.518L504.588 364.585ZM500.944 366.772L503.559 368.611L504.132 367.796L501.516 365.958L500.944 366.772Z" fill="#C8C8C8"/>
<path d="M513.743 362.516C513.518 362.358 513.207 362.412 513.049 362.637C512.891 362.862 512.946 363.173 513.171 363.331L513.743 362.516ZM516.073 364.762L516.246 365.229L517.133 364.899L516.359 364.355L516.073 364.762ZM512.541 366.075L512.368 365.608L511.481 365.938L512.256 366.482L512.541 366.075ZM514.871 368.321C515.096 368.48 515.407 368.425 515.565 368.2C515.724 367.975 515.669 367.665 515.444 367.507L514.871 368.321ZM513.171 363.331L515.786 365.169L516.359 364.355L513.743 362.516L513.171 363.331ZM515.9 364.296L512.368 365.608L512.715 366.542L516.246 365.229L515.9 364.296ZM512.256 366.482L514.871 368.321L515.444 367.507L512.828 365.668L512.256 366.482Z" fill="#C8C8C8"/>
<path d="M508.11 349.48C507.885 349.322 507.574 349.376 507.416 349.601C507.258 349.826 507.312 350.136 507.537 350.295L508.11 349.48ZM510.052 351.454L510.225 351.921L511.113 351.59L510.338 351.046L510.052 351.454ZM507.044 352.572L506.87 352.105L505.983 352.434L506.758 352.979L507.044 352.572ZM508.986 354.545C509.211 354.704 509.522 354.65 509.68 354.425C509.838 354.2 509.783 353.889 509.558 353.731L508.986 354.545ZM507.537 350.295L509.765 351.861L510.338 351.046L508.11 349.48L507.537 350.295ZM509.879 350.987L506.87 352.105L507.218 353.039L510.225 351.921L509.879 350.987ZM506.758 352.979L508.986 354.545L509.558 353.731L507.33 352.165L506.758 352.979Z" fill="#D9D9D9"/>
<path d="M499.124 338.79C498.899 338.632 498.588 338.686 498.431 338.911C498.273 339.136 498.326 339.447 498.551 339.604L499.124 338.79ZM501.066 340.764L501.24 341.23L502.127 340.901L501.352 340.357L501.066 340.764ZM498.058 341.882L497.884 341.415L496.998 341.745L497.772 342.289L498.058 341.882ZM500 343.856C500.225 344.014 500.536 343.959 500.694 343.734C500.852 343.509 500.798 343.2 500.573 343.041L500 343.856ZM498.551 339.604L500.78 341.171L501.352 340.357L499.124 338.79L498.551 339.604ZM500.893 340.297L497.884 341.415L498.232 342.348L501.24 341.23L500.893 340.297ZM497.772 342.289L500 343.856L500.573 343.041L498.344 341.475L497.772 342.289Z" fill="#D9D9D9"/>
<path d="M520.911 351.281C520.686 351.123 520.375 351.178 520.217 351.403C520.059 351.628 520.113 351.938 520.338 352.096L520.911 351.281ZM522.852 353.255L523.027 353.722L523.914 353.392L523.139 352.848L522.852 353.255ZM519.845 354.373L519.671 353.907L518.784 354.236L519.559 354.781L519.845 354.373ZM521.787 356.347C522.012 356.506 522.323 356.451 522.481 356.226C522.638 356.001 522.585 355.69 522.36 355.533L521.787 356.347ZM520.338 352.096L522.567 353.663L523.139 352.848L520.911 351.281L520.338 352.096ZM522.679 352.789L519.671 353.907L520.018 354.84L523.027 353.722L522.679 352.789ZM519.559 354.781L521.787 356.347L522.36 355.533L520.131 353.966L519.559 354.781Z" fill="#D9D9D9"/>
<path d="M846.766 290.624H552.048V300.581H846.766V290.624Z" fill="#FFCF9C"/>
<path d="M428.745 192.848H111.273V350.894H428.745V192.848Z" stroke="#FFE7A1" stroke-width="8.50188"/>
<path fill-rule="evenodd" clip-rule="evenodd" d="M808.224 233.56H740.043L732.044 284.162H800.225L808.224 233.56ZM763.118 250.912C763.118 250.912 763.39 253.996 763.421 256.355C763.985 256.563 764.5 256.812 764.966 257.096C770.402 253.346 781.227 250.671 787.17 253.529C789.644 254.719 791.038 256.615 791.698 258.458C792.113 259.397 792.23 260.305 792.232 261.31C793.019 261.459 793.811 261.624 794.513 261.831C795.248 262.048 796.026 262.35 796.6 262.836C796.902 263.091 797.183 263.424 797.35 263.856C797.521 264.297 797.543 264.761 797.444 265.217C797.256 266.072 796.879 266.54 796.219 266.951C795.631 267.317 794.954 267.577 794.562 267.615L794.406 267.63C794.026 267.666 793.831 267.684 793.654 267.748C793.541 267.788 793.445 267.842 793.338 268.048C793.1 268.514 793.163 268.681 793.197 268.77V268.772C793.233 268.865 793.299 268.984 793.428 269.167C793.492 269.259 793.563 269.353 793.647 269.465L793.664 269.487V269.488C793.741 269.59 793.828 269.706 793.916 269.829C794.302 270.367 794.745 271.089 794.91 272.105C795.072 273.113 794.939 274.285 794.414 275.722C794.186 276.345 793.496 276.666 792.872 276.438C792.25 276.21 791.93 275.52 792.158 274.897C792.584 273.731 792.617 272.984 792.537 272.487C792.458 271.999 792.253 271.633 791.963 271.229C791.892 271.13 791.819 271.033 791.739 270.927L791.738 270.926L791.725 270.908C791.643 270.798 791.551 270.676 791.464 270.551C791.288 270.303 791.091 269.993 790.952 269.626C790.635 268.796 790.704 267.918 791.201 266.951C791.603 266.168 792.192 265.719 792.841 265.486C793.332 265.31 793.862 265.264 794.202 265.235L794.283 265.228L794.332 265.223C794.745 265.184 794.869 265.14 794.924 265.106C794.934 265.1 794.947 265.091 794.971 265.054C794.999 265.011 795.118 264.709 795.163 264.51C795.193 264.372 794.689 264.289 794.274 264.221C794.091 264.191 793.926 264.163 793.832 264.136C793.247 263.963 792.55 263.816 791.777 263.669C791.28 264.903 790.431 266.428 789.505 267.072C788.256 267.939 781.699 267.574 778.891 267.177C778.759 267.19 777.188 267.338 776.162 267.32C775.612 267.31 774.849 267.244 774.435 267.205C772.688 267.198 771.007 267.151 769.47 267.012C768.813 267.282 767.102 267.721 765.891 267.263C764.974 267.375 763.759 267.364 762.166 267.349H762.165H762.164C761.562 267.344 760.904 267.338 760.19 267.338C759.521 267.338 758.855 267.343 758.197 267.348H758.195H758.194H758.193C755.894 267.366 753.693 267.384 751.858 267.174C751.913 267.24 751.96 267.302 752.002 267.358H745.837C744.708 266.306 746.013 265.372 747.282 265.032C747.273 265.018 747.266 265.003 747.258 264.987C746.859 265.034 746.549 265.052 746.289 265.066C745.943 265.086 745.686 265.101 745.425 265.175C745.631 263.785 746.794 263.747 746.794 263.747C746.794 263.747 746.406 263.211 745.157 263.569C745.196 263.474 745.242 263.38 745.293 263.286C744.832 263.349 744.363 263.426 743.892 263.518C741.845 263.915 739.778 264.572 738.314 265.405C738.294 265.416 738.27 265.409 738.259 265.39C738.248 265.37 738.255 265.346 738.274 265.335C739.749 264.497 741.825 263.838 743.878 263.439C744.369 263.344 744.861 263.263 745.343 263.198C745.454 263.009 745.588 262.824 745.736 262.648C745.141 262.629 744.523 262.632 743.899 262.658C741.814 262.743 739.673 263.083 738.1 263.686C738.08 263.694 738.056 263.684 738.048 263.663C738.04 263.643 738.051 263.62 738.072 263.612C739.655 263.004 741.807 262.664 743.895 262.577C744.544 262.551 745.186 262.548 745.804 262.57C746.254 262.064 746.826 261.655 747.323 261.528C747.794 260.297 748.688 259.178 749.907 258.251L748.924 252.218L753.825 256.308C755.306 255.858 756.963 255.607 758.735 255.607C758.845 255.607 758.956 255.608 759.064 255.61L763.118 250.912Z" fill="white" fill-opacity="0.8"/>
<path fill-rule="evenodd" clip-rule="evenodd" d="M652.196 526.536C647.823 516.661 638.129 514.966 628.491 515.471C618.739 515.982 610.461 518.051 616.083 525.422C619.758 530.241 624.53 530.949 627.436 531.484C633.865 532.667 636.342 537.371 643.862 536.548L696.125 562.399C700.94 564.16 706.317 562.108 708.732 557.586L723.41 530.11L707.023 521.357L695.742 542.475L652.196 526.536Z" fill="#FFB877"/>
<path d="M483.32 583.444L473.858 573.54" stroke="#FFFAEE" stroke-width="3.01548" stroke-linecap="round"/>
<path d="M473.609 584.473L464.145 574.568" stroke="#FFFAEE" stroke-width="3.01548" stroke-linecap="round"/>
<path d="M659.327 551.361L662.954 551.855" stroke="#4F7793" stroke-width="0.995671" stroke-linecap="round"/>
<path d="M659.574 549.548L663.201 550.042" stroke="#4F7793" stroke-width="0.995671" stroke-linecap="round"/>
</svg>
