<svg width="1800" height="1200" viewBox="0 0 1800 1200" fill="none" xmlns="http://www.w3.org/2000/svg">
<g id="kingston12-cover">
<rect width="1800" height="1200" fill="#444955"/>
<g id="kingston-logo-white 1">
<g clip-path="url(#clip0)">
<g id="Layer 2">
<g id="Logo">
<g id="Group">
<g id="12">
<path id="Vector" d="M898.444 817H897.902C895.963 816.942 894.072 816.387 892.41 815.388C890.748 814.389 889.371 812.979 888.412 811.294C887.594 809.758 887.197 808.033 887.263 806.294C887.328 804.555 887.852 802.865 888.783 801.394L954.031 690.13C949.878 692.498 945.468 694.809 941.03 696.992C935.407 699.716 929.684 702.27 924.004 704.566C919.58 706.349 915.185 707.99 910.975 709.402C909.916 709.755 908.808 709.933 907.692 709.93C906.055 709.927 904.442 709.537 902.984 708.794C901.526 708.05 900.264 706.973 899.301 705.65L896.004 701.014C895.114 699.796 894.531 698.382 894.304 696.89C894.077 695.399 894.213 693.875 894.7 692.448C895.187 691.02 896.012 689.731 897.103 688.69C898.195 687.648 899.521 686.885 900.97 686.464C920.679 680.759 934.922 674.71 947.138 666.95C960.739 658.292 972.827 647.993 984.558 638.036C987.385 635.64 990.969 634.321 994.676 634.313C998.028 634.302 1001.29 635.378 1003.98 637.38L1007.61 640.076C1009.56 641.513 1010.9 643.626 1011.37 646C1011.84 648.375 1011.41 650.841 1010.16 652.914C1004.33 662.605 997.583 673.788 989.924 686.464C981.361 700.729 972.584 715.393 963.921 730.185C955.259 744.978 946.796 759.727 938.861 773.978C932.952 784.562 927.801 794.305 923.519 802.935C919.951 810.138 913.044 815.388 905.923 816.329C903.445 816.702 900.948 816.925 898.444 817V817Z" fill="white"/>
<path id="Vector_2" d="M1065.83 812.492C1058.38 812.464 1051 811.122 1044.01 808.527L1043.73 808.412L1043.46 808.27C1039.17 805.859 1034.58 803.406 1029.9 800.866C1025.22 798.327 1020.54 795.974 1015.8 793.734C1011.73 791.753 1007.31 790.608 1002.8 790.368H1000.8C997.562 790.235 994.339 790.85 991.379 792.165C988.807 793.377 986.499 795.083 984.586 797.186C983.001 799.055 981.569 801.049 980.305 803.149L980.205 803.32L980.091 803.491C979.734 803.99 979.448 804.433 979.206 804.803C978.324 806.134 977.123 807.223 975.712 807.971C974.301 808.718 972.725 809.1 971.128 809.083H955.173C954.197 809.072 953.234 808.869 952.337 808.485C951.441 808.1 950.629 807.543 949.95 806.843C948.522 805.416 947.717 803.483 947.709 801.466C947.709 792.764 956.943 776.431 968.731 768.443C977.079 762.737 987.983 758.173 1001.78 752.324C1009.59 749.015 1018.42 745.192 1028.13 740.755C1040.43 735.05 1063.56 722.425 1063.81 722.297L1063.98 722.212L1064.16 722.126C1064.41 722.012 1089.72 710.244 1096.32 686.022C1098.5 677.991 1097.83 671.544 1094.33 666.865C1087.41 657.593 1071.78 657.122 1071.63 657.122H1070.8C1061.29 657.122 1051.68 660.631 1048.21 663.884C1041.57 670.117 1038.3 676.08 1038.52 681.629C1038.77 685.542 1040.54 689.203 1043.46 691.828L1043.66 691.999C1045.67 693.811 1051.03 698.604 1049.53 705.465L1048.95 708.09C1048.59 709.751 1047.67 711.24 1046.35 712.305C1045.02 713.37 1043.37 713.946 1041.67 713.938H1041.04C1032.1 713.225 1024.89 708.004 1020.24 698.86C1018.2 694.818 1016.8 690.488 1016.08 686.022C1015.23 679.602 1015.71 673.074 1017.51 666.851C1019.38 660.213 1022.67 654.058 1027.14 648.806C1031.99 643.186 1038.05 638.73 1044.85 635.768C1051.39 632.83 1061.22 631.489 1068.07 631.489C1068.9 631.489 1069.69 631.489 1070.44 631.489C1078.15 631.759 1085.75 633.417 1092.88 636.382C1098.99 638.956 1104.65 642.506 1109.63 646.895C1114.06 650.999 1117.66 655.908 1120.25 661.359C1122.67 666.414 1124.21 671.846 1124.8 677.421C1126.36 688.675 1125.23 698.718 1121.46 707.277C1117.55 716.178 1113.51 723.381 1106.46 729.643C1099.06 736.111 1090.84 741.583 1082.02 745.919C1072.98 750.441 1063.58 754.792 1054.03 758.857C1045.75 762.366 1037.52 765.99 1029.47 769.584C1030.78 770.098 1032.12 770.64 1033.61 771.253L1035.16 771.895C1039.26 773.578 1044.77 775.647 1048.41 777.03L1050.28 777.729C1057.02 779.874 1064.03 781.111 1071.1 781.41C1075.27 781.41 1076.44 780.596 1076.48 780.568C1079.79 778.208 1082.68 775.315 1085.04 772.009C1086.81 769.613 1089.11 766.489 1091.18 763.45C1092.04 762.185 1093.19 761.152 1094.55 760.445C1095.9 759.737 1097.41 759.378 1098.94 759.399C1101.75 759.432 1104.44 760.528 1106.48 762.466L1109.63 765.39C1114.21 769.67 1115.54 776.331 1112.76 781.253C1110.23 785.751 1107.29 790.001 1103.97 793.948C1099.4 799.436 1093.81 803.989 1087.51 807.357C1080.82 810.831 1073.37 812.595 1065.83 812.492V812.492Z" fill="white"/>
</g>
<g id="Kingston">
<path id="Vector_3" d="M686.544 445.136C701.143 452.654 694.621 503.293 660.228 488.572C653.263 485.576 646.77 472.096 658.472 456.705C671.416 439.687 678.366 440.928 686.544 445.136Z" fill="white"/>
<path id="Vector_4" d="M717.613 522.407C698.988 549.51 682.89 582.661 675.612 598.466C673.949 586.464 674.238 574.272 676.468 562.362C681.635 535.844 679.622 512.636 661.041 512.636C639.163 512.636 644.015 587.24 603.214 587.24C564.524 587.24 540.248 549.724 527.39 521.237C560.214 497.658 626.99 448.488 651.251 433.068C679.08 415.366 681.235 391.316 666.236 391.316C651.237 391.316 645.656 388.762 637.265 391.316C629.958 391.972 571.132 447.661 533.484 484.035C540.934 446.848 547.627 412.812 548.797 405.58C551.509 389.204 528.946 390.987 528.946 390.987C526.146 391.002 523.436 391.973 521.265 393.74C519.095 395.508 517.595 397.964 517.015 400.702C515.688 406.408 483.392 561.763 476.87 593.373C475.607 598.991 474.98 604.733 475 610.491C475 620.048 481.408 625.283 492.468 625.283C503.528 625.283 505.812 617.466 511.42 592.646C512.377 588.367 515.473 573.36 519.527 553.518C532.371 587.054 555.205 624.185 592.867 624.185C612.704 624.185 628.816 614.842 640.79 604.072C646.87 615.412 658.715 625.469 681.72 623.757C698.575 622.459 710.562 600.634 726.204 570.736C739.79 544.76 759.256 513.278 768.062 512.037C783.46 509.926 775.311 532.007 775.311 532.007C751.136 587.083 743.287 625.44 772.457 625.283C793.136 625.183 810.219 608.993 828.372 575.799C831.997 586.612 839.789 600.506 856.358 606.354C844.87 612.431 832.511 620.619 816.099 634.598C797.689 650.289 758.8 697.633 755.332 730.527C753.162 751.097 764.237 770.126 784.574 773.164C844.941 782.137 864.878 703.04 890.923 629.705C893.207 623.272 895.205 617.352 897.017 611.718C910.489 610.862 920.822 617.709 937.634 621.432C967.603 628.051 1007.13 632.473 1012.27 593.017C1016.68 558.981 966.718 549.253 966.718 526.715C966.718 504.177 989.253 499.698 1001.23 502.822C1011.4 505.475 1024.67 505.675 1024.67 492.837C1024.67 481.896 1008.75 479.014 1003 467.973C996.46 455.421 1004.12 452.496 1012.99 452.496L1071.94 452.382C1048.94 514.105 1020.08 600.434 1016.47 610.491C1011.06 625.668 1033.25 630.661 1049.42 617.152C1060.55 607.866 1077.11 590.421 1089.38 576.784C1087.64 596.169 1089.24 623.857 1112.57 623.786C1145.22 623.786 1188.84 573.346 1194.03 530.381C1207.85 527.171 1208.2 519.697 1226.56 517.743C1202.74 554.317 1188.02 606.311 1188.02 606.311C1181.7 625.497 1201.71 624.855 1201.71 624.855C1221.79 624.855 1219.32 598.409 1233.56 567.968C1245.77 541.864 1263.53 514.262 1272.45 513.078C1288.15 511.053 1276.26 532.806 1276.26 532.806C1250.79 587.011 1242.17 624.813 1271.75 624.77C1292.48 624.77 1313.54 601.946 1321.26 588.281C1329.97 572.889 1322.23 566.314 1310.86 566.77C1303.86 567.055 1294.93 575.329 1288.28 582.818C1316.52 524.704 1317.69 482.595 1272.45 482.652C1264.99 482.652 1257.85 485.505 1251.05 490.298C1247.15 487.445 1241.06 485.348 1231.82 485.348C1216.05 485.348 1209.32 501.039 1193.19 508.984C1185.88 473.18 1152.29 477.602 1135.26 490.027C1122.42 499.427 1087.73 538.683 1064.23 565.629C1075.85 535.673 1093.95 488.914 1108.15 452.368L1216.12 452.125C1223.63 452.125 1227.17 446.42 1227.17 440.714C1227.17 435.008 1224.96 428.304 1214.8 428.304H1117.59C1123.1 414.153 1127.23 403.669 1128.87 399.589C1132.51 389.59 1122.82 384.54 1115.78 383.356C1108.75 382.172 1104.08 383.698 1098.34 390.488C1095.05 394.411 1088.8 408.676 1081.16 428.118H1024.22C990.166 428.118 976.494 437.804 976.494 449.743C976.494 470.955 995.632 482.552 991.051 483.151C987.726 483.593 980.861 481.725 971.813 482.267C962.551 482.851 929.142 487.131 929.142 522.792C929.142 563.018 976.894 570.393 976.894 586.983C976.894 594.6 970.158 597.196 951.691 592.617C930.284 587.325 915.327 586.683 903.825 588.181C907.892 572.233 910.818 556.428 914.457 535.145C918.439 511.809 914.328 482.21 882.032 482.552C851.064 482.866 843.2 501.096 822.179 537.371C812.185 554.644 800.726 571.028 787.927 586.341C812.802 528.498 811.075 483.736 767.562 481.168C759.213 480.669 750.265 485.676 741.317 494.006C735.494 487.915 726.917 486.104 722.607 485.191C705.239 481.525 702.628 506.359 706.595 517.743C708.208 522.478 713.445 520.182 713.445 520.182C714.721 519.862 716.019 519.633 717.327 519.497C717.784 519.354 719.568 519.183 717.613 522.407ZM833.21 702.883C814.115 742.367 803.711 749.457 791.752 749.956C786.5 750.198 781.134 745.12 780.506 735.606C779.179 715.264 794.949 686.707 840.903 645.168C848.038 638.692 854.446 633.371 860.183 629.021C849.694 660.588 841.901 684.895 833.21 702.883ZM886.328 547.712C880.306 572.561 874.597 583.074 866.034 583.074C836.593 583.074 845.512 550.879 849.394 539.025C853.461 526.644 864.265 506.944 884.601 510.14C892.236 511.381 891.409 526.501 886.314 547.712H886.328ZM1123.95 583.673C1111.86 583.673 1110.8 559.937 1128.3 535.003C1131.65 530.238 1134.75 526.173 1137.6 522.721C1146.46 527.309 1156.12 530.16 1166.05 531.123C1159.31 554.174 1143.1 583.659 1123.93 583.673H1123.95ZM1169.36 513.606C1162.37 513.654 1155.4 512.84 1148.61 511.181C1158.85 502.251 1164.58 503.093 1166.99 504.462C1168.83 505.518 1169.57 508.856 1169.34 513.606H1169.36Z" fill="white"/>
</g>
</g>
</g>
</g>
</g>
</g>
</g>
<defs>
<clipPath id="clip0">
<rect x="475" y="383" width="850" height="434" fill="white"/>
</clipPath>
</defs>
</svg>
