<svg fill="none" height="1200" viewBox="0 0 1800 1200" width="1800" xmlns="http://www.w3.org/2000/svg" xmlns:xlink="http://www.w3.org/1999/xlink"><clipPath id="a"><path d="m475 383h850v434h-850z"/></clipPath><path d="m0 0h1800v1200h-1800z" fill="#444955"/><g clip-path="url(#a)" fill="#fff"><path d="m898.444 817h-.542c-1.939-.058-3.83-.613-5.492-1.612s-3.039-2.409-3.998-4.094c-.818-1.536-1.215-3.261-1.149-5 .065-1.739.589-3.429 1.52-4.9l65.248-111.264c-4.153 2.368-8.563 4.679-13.001 6.862-5.623 2.724-11.346 5.278-17.026 7.574-4.424 1.783-8.819 3.424-13.029 4.836-1.059.353-2.167.531-3.283.528-1.637-.003-3.25-.393-4.708-1.136-1.458-.744-2.72-1.821-3.683-3.144l-3.297-4.636c-.89-1.218-1.473-2.632-1.7-4.124-.227-1.491-.091-3.015.396-4.442.487-1.428 1.312-2.717 2.403-3.758 1.092-1.042 2.418-1.805 3.867-2.226 19.709-5.705 33.952-11.754 46.168-19.514 13.601-8.658 25.689-18.957 37.42-28.914 2.827-2.396 6.411-3.715 10.118-3.723 3.352-.011 6.614 1.065 9.304 3.067l3.63 2.696c1.95 1.437 3.29 3.55 3.76 5.924.47 2.375.04 4.841-1.21 6.914-5.83 9.691-12.577 20.874-20.236 33.55-8.563 14.265-17.34 28.929-26.003 43.721-8.662 14.793-17.125 29.542-25.06 43.793-5.909 10.584-11.06 20.327-15.342 28.957-3.568 7.203-10.475 12.453-17.596 13.394-2.478.373-4.975.596-7.479.671z"/><path d="m1065.83 812.492c-7.45-.028-14.83-1.37-21.82-3.965l-.28-.115-.27-.142c-4.29-2.411-8.88-4.864-13.56-7.404-4.68-2.539-9.36-4.892-14.1-7.132-4.07-1.981-8.49-3.126-13-3.366h-2c-3.238-.133-6.461.482-9.421 1.797-2.572 1.212-4.88 2.918-6.793 5.021-1.585 1.869-3.017 3.863-4.281 5.963l-.1.171-.114.171c-.357.499-.643.942-.885 1.312-.882 1.331-2.083 2.42-3.494 3.168-1.411.747-2.987 1.129-4.584 1.112h-15.955c-.976-.011-1.939-.214-2.836-.598-.896-.385-1.708-.942-2.387-1.642-1.428-1.427-2.233-3.36-2.241-5.377 0-8.702 9.234-25.035 21.022-33.023 8.348-5.706 19.252-10.27 33.049-16.119 7.81-3.309 16.64-7.132 26.35-11.569 12.3-5.705 35.43-18.33 35.68-18.458l.17-.085.18-.086c.25-.114 25.56-11.882 32.16-36.104 2.18-8.031 1.51-14.478-1.99-19.157-6.92-9.272-22.55-9.743-22.7-9.743h-.83c-9.51 0-19.12 3.509-22.59 6.762-6.64 6.233-9.91 12.196-9.69 17.745.25 3.913 2.02 7.574 4.94 10.199l.2.171c2.01 1.812 7.37 6.605 5.87 13.466l-.58 2.625c-.36 1.661-1.28 3.15-2.6 4.215-1.33 1.065-2.98 1.641-4.68 1.633h-.63c-8.94-.713-16.15-5.934-20.8-15.078-2.04-4.042-3.44-8.372-4.16-12.838-.85-6.42-.37-12.948 1.43-19.171 1.87-6.638 5.16-12.793 9.63-18.045 4.85-5.62 10.91-10.076 17.71-13.038 6.54-2.938 16.37-4.279 23.22-4.279h2.37c7.71.27 15.31 1.928 22.44 4.893 6.11 2.574 11.77 6.124 16.75 10.513 4.43 4.104 8.03 9.013 10.62 14.464 2.42 5.055 3.96 10.487 4.55 16.062 1.56 11.254.43 21.297-3.34 29.856-3.91 8.901-7.95 16.104-15 22.366-7.4 6.468-15.62 11.94-24.44 16.276-9.04 4.522-18.44 8.873-27.99 12.938-8.28 3.509-16.51 7.133-24.56 10.727 1.31.514 2.65 1.056 4.14 1.669l1.55.642c4.1 1.683 9.61 3.752 13.25 5.135l1.87.699c6.74 2.145 13.75 3.382 20.82 3.681 4.17 0 5.34-.814 5.38-.842 3.31-2.36 6.2-5.253 8.56-8.559 1.77-2.396 4.07-5.52 6.14-8.559.86-1.265 2.01-2.298 3.37-3.005 1.35-.708 2.86-1.067 4.39-1.046 2.81.033 5.5 1.129 7.54 3.067l3.15 2.924c4.58 4.28 5.91 10.941 3.13 15.863-2.53 4.498-5.47 8.748-8.79 12.695-4.57 5.488-10.16 10.041-16.46 13.409-6.69 3.474-14.14 5.238-21.68 5.135z"/><path d="m686.544 445.136c14.599 7.518 8.077 58.157-26.316 43.436-6.965-2.996-13.458-16.476-1.756-31.867 12.944-17.018 19.894-15.777 28.072-11.569z"/><path d="m717.613 522.407c-18.625 27.103-34.723 60.254-42.001 76.059-1.663-12.002-1.374-24.194.856-36.104 5.167-26.518 3.154-49.726-15.427-49.726-21.878 0-17.026 74.604-57.827 74.604-38.69 0-62.966-37.516-75.824-66.003 32.824-23.579 99.6-72.749 123.861-88.169 27.829-17.702 29.984-41.752 14.985-41.752s-20.58-2.554-28.971 0c-7.307.656-66.133 56.345-103.781 92.719 7.45-37.187 14.143-71.223 15.313-78.455 2.712-16.376-19.851-14.593-19.851-14.593-2.8.015-5.51.986-7.681 2.753-2.17 1.768-3.67 4.224-4.25 6.962-1.327 5.705-33.623 161.061-40.145 192.671-1.263 5.618-1.89 11.36-1.87 17.118 0 9.557 6.408 14.792 17.468 14.792s13.344-7.817 18.952-32.637c.957-4.279 4.053-19.286 8.107-39.128 12.844 33.536 35.678 70.667 73.34 70.667 19.837 0 35.949-9.343 47.923-20.113 6.08 11.34 17.925 21.397 40.93 19.685 16.855-1.298 28.842-23.123 44.484-53.021 13.586-25.976 33.052-57.458 41.858-58.699 15.398-2.111 7.249 19.97 7.249 19.97-24.175 55.076-32.024 93.433-2.854 93.276 20.679-.1 37.762-16.29 55.915-49.484 3.625 10.813 11.417 24.707 27.986 30.555-11.488 6.077-23.847 14.265-40.259 28.244-18.41 15.691-57.299 63.035-60.767 95.929-2.17 20.57 8.905 39.599 29.242 42.637 60.367 8.973 80.304-70.124 106.349-143.459 2.284-6.433 4.282-12.353 6.094-17.987 13.472-.856 23.805 5.991 40.617 9.714 29.969 6.619 69.496 11.041 74.636-28.415 4.41-34.036-45.552-43.764-45.552-66.302s22.535-27.017 34.512-23.893c10.17 2.653 23.44 2.853 23.44-9.985 0-10.941-15.92-13.823-21.67-24.864-6.54-12.552 1.12-15.477 9.99-15.477l58.95-.114c-23 61.723-51.86 148.052-55.47 158.109-5.41 15.177 16.78 20.17 32.95 6.661 11.13-9.286 27.69-26.731 39.96-40.368-1.74 19.385-.14 47.073 23.19 47.002 32.65 0 76.27-50.44 81.46-93.405 13.82-3.21 14.17-10.684 32.53-12.638-23.82 36.574-38.54 88.568-38.54 88.568-6.32 19.186 13.69 18.544 13.69 18.544 20.08 0 17.61-26.446 31.85-56.887 12.21-26.104 29.97-53.706 38.89-54.89 15.7-2.025 3.81 19.728 3.81 19.728-25.47 54.205-34.09 92.007-4.51 91.964 20.73 0 41.79-22.824 49.51-36.489 8.71-15.392.97-21.967-10.4-21.511-7 .285-15.93 8.559-22.58 16.048 28.24-58.114 29.41-100.223-15.83-100.166-7.46 0-14.6 2.853-21.4 7.646-3.9-2.853-9.99-4.95-19.23-4.95-15.77 0-22.5 15.691-38.63 23.636-7.31-35.804-40.9-31.382-57.93-18.957-12.84 9.4-47.53 48.656-71.03 75.602 11.62-29.956 29.72-76.715 43.92-113.261l107.97-.243c7.51 0 11.05-5.705 11.05-11.411s-2.21-12.41-12.37-12.41h-97.21c5.51-14.151 9.64-24.635 11.28-28.715 3.64-9.999-6.05-15.049-13.09-16.233-7.03-1.184-11.7.342-17.44 7.132-3.29 3.923-9.54 18.188-17.18 37.63h-56.94c-34.054 0-47.726 9.686-47.726 21.625 0 21.212 19.138 32.809 14.557 33.408-3.325.442-10.19-1.426-19.238-.884-9.262.584-42.671 4.864-42.671 40.525 0 40.226 47.752 47.601 47.752 64.191 0 7.617-6.736 10.213-25.203 5.634-21.407-5.292-36.364-5.934-47.866-4.436 4.067-15.948 6.993-31.753 10.632-53.036 3.982-23.336-.129-52.935-32.425-52.593-30.968.314-38.832 18.544-59.853 54.819-9.994 17.273-21.453 33.657-34.252 48.97 24.875-57.843 23.148-102.605-20.365-105.173-8.349-.499-17.297 4.508-26.245 12.838-5.823-6.091-14.4-7.902-18.71-8.815-17.368-3.666-19.979 21.168-16.012 32.552 1.613 4.735 6.85 2.439 6.85 2.439 1.276-.32 2.574-.549 3.882-.685.457-.143 2.241-.314.286 2.91zm115.597 180.476c-19.095 39.484-29.499 46.574-41.458 47.073-5.252.242-10.618-4.836-11.246-14.35-1.327-20.342 14.443-48.899 60.396-90.438 7.136-6.476 13.544-11.797 19.281-16.147-10.489 31.567-18.282 55.874-26.973 73.862zm53.118-155.171c-6.022 24.849-11.731 35.362-20.294 35.362-29.441 0-20.522-32.195-16.64-44.049 4.067-12.381 14.871-32.081 35.207-28.885 7.635 1.241 6.808 16.361 1.713 37.572zm237.622 35.961c-12.09 0-13.15-23.736 4.35-48.67 3.35-4.765 6.45-8.83 9.3-12.282 8.86 4.588 18.52 7.439 28.45 8.402-6.74 23.051-22.95 52.536-42.12 52.55zm45.41-70.067c-6.99.048-13.96-.766-20.75-2.425 10.24-8.93 15.97-8.088 18.38-6.719 1.84 1.056 2.58 4.394 2.35 9.144z"/></g></svg>