<svg fill="none" height="1200" viewBox="0 0 1800 1200" width="1800" xmlns="http://www.w3.org/2000/svg"><path d="m0 0h1800v1200h-1800z" fill="#f00015"/><g stroke="#fff" stroke-miterlimit="10" stroke-width="46.6301"><path d="m463 573.751 130.305-113.467 130.305 113.467"/><path d="m463 658.203 130.305-113.466 130.305 113.466"/><path d="m463 742.396 130.305-113.466 130.305 113.466"/></g><path d="m859.24 458.687h-10.871v-19.026h-17.742v19.026h-8.496v12.434h8.496v27.357c0 9.326.75 12.559 3.499 15.543 2.624 2.86 6.497 3.979 14.243 3.979h10.871v-13.305h-6.373c-4.123 0-4.498-.746-4.498-10.197v-23.377h10.871zm29.714-23.626h-17.742v82.939h17.742v-33.698c0-6.217.375-7.958 2.374-10.072 1.874-1.865 4.747-2.984 7.746-2.984s5.498 1.119 6.997 3.108c1.499 2.114 1.999 4.352 1.999 9.948v33.698h17.742v-36.931c0-8.953-1.499-14.051-5.372-18.279-3.874-4.228-9.371-6.466-15.494-6.466-6.247 0-10.995 1.989-15.992 6.715zm110.141 58.07c0-8.332-.875-13.927-2.999-19.15-4.498-11.315-14.119-17.657-26.863-17.657-18.242 0-30.861 12.932-30.861 31.708 0 18.901 12.369 31.585 30.986 31.585 14.368 0 25.613-7.461 28.987-19.15h-17.992c-2.374 3.73-5.747 5.347-10.495 5.347-7.622 0-12.495-4.476-13.619-12.683zm-42.731-12.435c1.374-7.088 5.872-10.943 12.744-10.943s10.995 3.855 11.745 10.943zm-78.258 98.275c-1.624-12.684-10.995-19.647-26.488-19.647-16.118 0-25.738 7.336-25.738 19.398 0 9.575 5.122 14.424 18.366 17.284l10.995 2.487c4.748 1.119 6.747 2.611 6.747 5.471 0 3.607-3.623 5.845-9.246 5.845-7.121 0-10.87-2.612-11.869-8.331h-16.618c1 13.305 11.37 21.139 28.113 21.139 16.742 0 27.112-7.959 27.112-20.642 0-4.85-1.624-9.326-4.498-12.062-2.623-2.735-6.372-4.352-13.743-5.844l-11.12-2.363c-5.623-1.243-7.372-2.362-7.372-4.6 0-2.985 3.373-4.974 8.496-4.974 5.872 0 9.496 2.362 10.246 6.839zm29.597.87c.75-4.849 4.248-7.088 10.745-7.088 5.748 0 9.246 2.114 9.246 5.472 0 2.487-1.374 3.481-5.373 4.103l-9.62 1.617c-16.868 2.735-23.989 8.58-23.989 19.895 0 11.316 8.871 18.777 22.24 18.777 7.121 0 11.369-1.493 17.242-6.342.625 2.238.625 2.611 1.374 4.725h18.117c-1.999-2.984-2.249-3.855-2.249-10.321v-27.605c0-8.828-1.624-13.678-5.997-17.533-4.748-4.103-11.745-6.217-20.866-6.217-16.992 0-25.613 6.715-26.738 20.517zm20.491 21.761c-2.874 5.098-7.122 7.585-12.994 7.585-5.623 0-8.996-2.363-8.996-6.342 0-3.606 2.749-5.72 9.121-7.212l6.372-1.368c2.998-.621 4.623-1.119 6.497-1.865zm50.685-63.541h-17.742v82.939h17.742zm47.041 82.939 20.49-60.06h-18.99l-6.12 23.005c-.88 3.606-2.38 10.569-3.75 17.284-2-7.337-3.5-13.057-4.75-17.284l-6.74-23.005h-18.621l21.611 60.06zm43.58-41.159c.75-4.849 4.24-7.088 10.74-7.088 5.75 0 9.25 2.114 9.25 5.472 0 2.487-1.38 3.481-5.38 4.103l-9.62 1.617c-16.86 2.735-23.99 8.58-23.99 19.895 0 11.316 8.88 18.777 22.24 18.777 7.13 0 11.37-1.493 17.25-6.342.62 2.238.62 2.611 1.37 4.725h18.12c-2-2.984-2.25-3.855-2.25-10.321v-27.605c0-8.828-1.63-13.678-6-17.533-4.75-4.103-11.74-6.217-20.86-6.217-17 0-25.62 6.715-26.74 20.517zm20.49 21.761c-2.88 5.098-7.13 7.585-13 7.585-5.62 0-8.99-2.363-8.99-6.342 0-3.606 2.74-5.72 9.12-7.212l6.37-1.368c3-.621 4.62-1.119 6.5-1.865zm63.67-39.915h-10.87v-19.026h-17.74v19.026h-8.5v12.434h8.5v27.357c0 9.326.75 12.559 3.5 15.543 2.62 2.86 6.5 3.979 14.24 3.979h10.87v-13.305h-6.37c-4.12 0-4.5-.746-4.5-10.197v-23.377h10.87zm29.72-.747h-17.75v60.06h17.75zm0-22.879h-17.75v14.548h17.75zm44.55 21.263c-18.74 0-31.98 13.056-31.98 31.584 0 18.652 13.24 31.709 31.98 31.709 18.62 0 32.11-13.057 32.11-31.212 0-19.149-12.99-32.081-32.11-32.081zm0 14.051c9.25 0 14.25 6.342 14.25 17.906 0 10.943-5.25 17.284-14.12 17.284-9.12 0-14.25-6.341-14.25-17.657 0-11.191 5.13-17.533 14.12-17.533zm44.71-12.435v60.06h17.74v-33.698c0-5.223.63-7.71 2.63-9.948 1.87-2.114 4.62-3.233 7.62-3.233 3.12 0 5.75 1.244 7.25 3.482s1.87 4.601 1.87 10.694v32.703h17.74v-38.921c0-14.175-7.99-22.879-21.11-22.879-6.25 0-10 1.616-16.5 7.585v-5.845zm-428.019 122.901c.75-4.849 4.248-7.088 10.745-7.088 5.748 0 9.246 2.114 9.246 5.472 0 2.487-1.374 3.481-5.372 4.103l-9.621 1.617c-16.868 2.735-23.989 8.58-23.989 19.895 0 11.316 8.871 18.777 22.24 18.777 7.121 0 11.37-1.493 17.242-6.342.625 2.238.625 2.611 1.374 4.725h18.117c-1.999-2.984-2.249-3.855-2.249-10.321v-27.605c0-8.828-1.624-13.678-5.997-17.533-4.748-4.103-11.745-6.217-20.866-6.217-16.992 0-25.613 6.715-26.738 20.517zm20.491 21.761c-2.874 5.098-7.122 7.585-12.994 7.585-5.623 0-8.996-2.363-8.996-6.342 0-3.606 2.749-5.72 9.121-7.212l6.372-1.368c2.998-.621 4.623-1.119 6.497-1.865zm32.943-40.662v60.06h17.742v-16.911c0-11.564.625-17.16 2.374-21.139 1.999-4.477 6.997-7.212 13.119-7.212 1.499 0 2.374 0 4.498.248v-16.662c-12.869-.124-17.367 2.611-20.866 12.31l.5-10.694zm47.342 0v60.06h17.742v-33.076c0-9.202 2.874-13.305 8.996-13.305 6.247 0 8.996 4.103 8.996 13.305v33.076h17.742v-33.076c0-9.202 2.747-13.305 8.997-13.305 6.12 0 8.87 4.103 8.87 13.305v33.076h17.74v-39.915c0-7.71-1.37-12.559-4.75-16.165-3.49-3.607-8.74-5.596-14.99-5.596-7.75 0-12.24 2.363-18.741 9.699-3.498-6.59-8.996-9.699-16.742-9.699-7.247 0-10.995 1.989-16.618 8.829v-7.213zm138.703 0-7.87 27.108c-1.38 5.347-2.38 9.45-3.12 13.43l-.75-2.363c-1.38-4.974-1.38-5.098-3.13-10.694l-8.87-27.481h-18.99l19.87 50.485c2.12 5.223 2.24 5.596 2.24 7.71 0 5.222-2.87 7.585-9.12 7.585h-5.24v13.305h10.37c6.62 0 10.62-.87 13.49-2.984 3.12-2.238 5.12-5.72 8.5-15.544l20.99-60.557z" fill="#fff"/></svg>