<?xml version="1.0" standalone="no"?>
<!DOCTYPE svg PUBLIC "-//W3C//DTD SVG 20010904//EN"
 "http://www.w3.org/TR/2001/REC-SVG-20010904/DTD/svg10.dtd">
<svg version="1.0" xmlns="http://www.w3.org/2000/svg"
 width="512.000000pt" height="512.000000pt" viewBox="0 0 512.000000 512.000000"
 preserveAspectRatio="xMidYMid meet">
<metadata>
Created by potrace 1.11, written by Peter Selinger 2001-2013
</metadata>
<g transform="translate(0.000000,512.000000) scale(0.100000,-0.100000)"
fill="#000000" stroke="none">
<path d="M1275 3840 l-1280 -1280 1283 -1283 1282 -1282 1282 1282 1283 1283
-1280 1280 c-704 704 -1282 1280 -1285 1280 -3 0 -581 -576 -1285 -1280z
m2420 -150 l1130 -1130 -1133 -1133 -1132 -1132 -1132 1132 -1133 1133 1130
1130 c621 621 1132 1130 1135 1130 3 0 514 -509 1135 -1130z"/>
<path d="M2020 2562 c0 -870 2 -1582 5 -1582 5 0 133 132 347 355 l66 69 70
-65 c128 -121 245 -169 416 -169 184 0 304 48 432 175 133 131 193 286 180
463 -12 161 -97 341 -202 429 -24 21 -44 42 -44 47 0 6 57 68 127 138 l127
128 -40 42 c-473 496 -1390 1457 -1430 1498 l-54 55 0 -1583z m695 553 c230
-242 445 -468 478 -502 l60 -61 -84 -86 -84 -85 -75 9 c-295 34 -566 -134
-660 -410 -27 -79 -38 -241 -21 -320 l11 -53 -55 -58 -55 -58 0 1067 0 1067
34 -35 c18 -19 221 -233 451 -475z m358 -952 c79 -31 170 -121 214 -210 36
-74 38 -81 38 -177 0 -93 -3 -106 -32 -169 -77 -162 -258 -260 -425 -229 -219
41 -372 247 -338 455 35 214 214 364 420 353 41 -2 97 -13 123 -23z"/>
</g>
</svg>
