<svg width="1440" height="900" viewBox="0 0 1440 900" fill="none" xmlns="http://www.w3.org/2000/svg">
<g clip-path="url(#clip0)">
<rect width="1440" height="900" fill="url(#paint0_linear)"/>
<ellipse cx="185.5" cy="128" rx="486.5" ry="478" fill="#249DFF"/>
<path d="M405.836 560H466.883C495.197 560 536.163 553.976 536.163 515.62C536.163 502.568 531.344 488.912 510.258 481.081V480.679C526.323 475.056 532.147 463.811 532.147 451.561C532.147 416.821 485.96 414.612 464.071 414.612H405.836V560ZM465.678 473.651V455.577H467.887C475.317 455.577 479.132 459.393 479.132 464.614C479.132 469.634 475.518 473.651 467.887 473.651H465.678ZM465.678 521.042V498.551H468.288C477.526 498.551 482.145 503.572 482.145 509.797C482.145 516.022 477.727 521.042 468.288 521.042H465.678ZM558.993 560H663.817V508.391H618.835V414.612H558.993V560ZM681.771 560H741.212L746.835 540.923H780.169L785.19 560H849.851L794.427 414.612H737.196L681.771 560ZM757.277 504.375L763.703 474.855H764.104L770.53 504.375H757.277ZM869.818 560H929.66V506.986H959.782V560H1019.62V414.612H959.782V459.594H929.66V414.612H869.818V560Z" fill="white"/>
<g opacity="0.5707" filter="url(#filter0_d)">
<path d="M723.055 69.2282C722.987 65.8256 725.709 63 729.113 63H753.88C757.194 63 759.88 65.6863 759.88 69V80C759.88 83.3137 757.194 86 753.88 86H720C720 86 722.353 85.2456 722.88 81.0381C723.171 78.7173 723.141 73.4687 723.055 69.2282Z" fill="#F9FAFB"/>
<path d="M564.055 622.228C563.987 618.826 566.71 616 570.113 616H594.88C598.194 616 600.88 618.686 600.88 622V633C600.88 636.314 598.194 639 594.88 639H561C561 639 563.353 638.246 563.88 634.038C564.17 631.717 564.141 626.469 564.055 622.228Z" fill="#F9FAFB"/>
<path d="M406.055 145.228C405.987 141.826 408.71 139 412.113 139H436.88C440.194 139 442.88 141.686 442.88 145V156C442.88 159.314 440.194 162 436.88 162H403C403 162 405.353 161.246 405.88 157.038C406.17 154.717 406.141 149.469 406.055 145.228Z" fill="#F9FAFB"/>
<path d="M21.0552 385.228C20.9867 381.826 23.7095 379 27.1128 379H51.8799C55.1936 379 57.8799 381.686 57.8799 385V396C57.8799 399.314 55.1936 402 51.8799 402H18C18 402 20.3531 401.246 20.8799 397.038C21.1705 394.717 21.1405 389.469 21.0552 385.228Z" fill="#F9FAFB"/>
<path d="M235.055 289.228C234.987 285.826 237.71 283 241.113 283H265.88C269.194 283 271.88 285.686 271.88 289V300C271.88 303.314 269.194 306 265.88 306H232C232 306 234.353 305.246 234.88 301.038C235.17 298.717 235.141 293.469 235.055 289.228Z" fill="#F9FAFB"/>
<path d="M149.055 761.228C148.987 757.826 151.71 755 155.113 755H179.88C183.194 755 185.88 757.686 185.88 761V772C185.88 775.314 183.194 778 179.88 778H146C146 778 148.353 777.246 148.88 773.038C149.17 770.717 149.141 765.469 149.055 761.228Z" fill="#F9FAFB"/>
<path d="M1314.06 122.228C1313.99 118.826 1316.71 116 1320.11 116H1344.88C1348.19 116 1350.88 118.686 1350.88 122V133C1350.88 136.314 1348.19 139 1344.88 139H1311C1311 139 1313.35 138.246 1313.88 134.038C1314.17 131.717 1314.14 126.469 1314.06 122.228Z" fill="#F9FAFB"/>
<path d="M914.055 194.228C913.987 190.826 916.709 188 920.113 188H944.88C948.194 188 950.88 190.686 950.88 194V205C950.88 208.314 948.194 211 944.88 211H911C911 211 913.353 210.246 913.88 206.038C914.171 203.717 914.141 198.469 914.055 194.228Z" fill="#F9FAFB"/>
<path d="M91.0552 69.2282C90.9867 65.8256 93.7095 63 97.1128 63H121.88C125.194 63 127.88 65.6863 127.88 69V80C127.88 83.3137 125.194 86 121.88 86H88C88 86 90.3531 85.2456 90.8799 81.0381C91.1705 78.7173 91.1405 73.4687 91.0552 69.2282Z" fill="#F9FAFB"/>
<path d="M1294.06 491.228C1293.99 487.826 1296.71 485 1300.11 485H1324.88C1328.19 485 1330.88 487.686 1330.88 491V502C1330.88 505.314 1328.19 508 1324.88 508H1291C1291 508 1293.35 507.246 1293.88 503.038C1294.17 500.717 1294.14 495.469 1294.06 491.228Z" fill="#F9FAFB"/>
<path d="M803.055 789.228C802.987 785.826 805.709 783 809.113 783H833.88C837.194 783 839.88 785.686 839.88 789V800C839.88 803.314 837.194 806 833.88 806H800C800 806 802.353 805.246 802.88 801.038C803.171 798.717 803.141 793.469 803.055 789.228Z" fill="#F9FAFB"/>
<path d="M1214.06 1160.23C1213.99 1156.83 1216.71 1154 1220.11 1154H1244.88C1248.19 1154 1250.88 1156.69 1250.88 1160V1171C1250.88 1174.31 1248.19 1177 1244.88 1177H1211C1211 1177 1213.35 1176.25 1213.88 1172.04C1214.17 1169.72 1214.14 1164.47 1214.06 1160.23Z" fill="#F9FAFB"/>
<path d="M954.055 1052.23C953.987 1048.83 956.709 1046 960.113 1046H984.88C988.194 1046 990.88 1048.69 990.88 1052V1063C990.88 1066.31 988.194 1069 984.88 1069H951C951 1069 953.353 1068.25 953.88 1064.04C954.171 1061.72 954.141 1056.47 954.055 1052.23Z" fill="#F9FAFB"/>
<path d="M1234.06 969.228C1233.99 965.826 1236.71 963 1240.11 963H1264.88C1268.19 963 1270.88 965.686 1270.88 969V980C1270.88 983.314 1268.19 986 1264.88 986H1231C1231 986 1233.35 985.246 1233.88 981.038C1234.17 978.717 1234.14 973.469 1234.06 969.228Z" fill="#F9FAFB"/>
<path d="M1060.06 99.2282C1059.99 95.8256 1062.71 93 1066.11 93H1090.88C1094.19 93 1096.88 95.6863 1096.88 99V110C1096.88 113.314 1094.19 116 1090.88 116H1057C1057 116 1059.35 115.246 1059.88 111.038C1060.17 108.717 1060.14 103.469 1060.06 99.2282Z" fill="#F9FAFB"/>
<path d="M129.055 577.228C128.987 573.826 131.71 571 135.113 571H159.88C163.194 571 165.88 573.686 165.88 577V588C165.88 591.314 163.194 594 159.88 594H126C126 594 128.353 593.246 128.88 589.038C129.17 586.717 129.141 581.469 129.055 577.228Z" fill="#F9FAFB"/>
<path d="M-157.945 827.228C-158.013 823.826 -155.29 821 -151.887 821H-127.12C-123.806 821 -121.12 823.686 -121.12 827V838C-121.12 841.314 -123.806 844 -127.12 844H-161C-161 844 -158.647 843.246 -158.12 839.038C-157.83 836.717 -157.86 831.469 -157.945 827.228Z" fill="#F9FAFB"/>
<path d="M-364.945 1057.23C-365.013 1053.83 -362.29 1051 -358.887 1051H-334.12C-330.806 1051 -328.12 1053.69 -328.12 1057V1068C-328.12 1071.31 -330.806 1074 -334.12 1074H-368C-368 1074 -365.647 1073.25 -365.12 1069.04C-364.83 1066.72 -364.86 1061.47 -364.945 1057.23Z" fill="#F9FAFB"/>
<path d="M867.055 635.228C866.987 631.826 869.709 629 873.113 629H897.88C901.194 629 903.88 631.686 903.88 635V646C903.88 649.314 901.194 652 897.88 652H864C864 652 866.353 651.246 866.88 647.038C867.171 644.717 867.141 639.469 867.055 635.228Z" fill="#F9FAFB"/>
<path d="M1134.06 554.228C1133.99 550.826 1136.71 548 1140.11 548H1164.88C1168.19 548 1170.88 550.686 1170.88 554V565C1170.88 568.314 1168.19 571 1164.88 571H1131C1131 571 1133.35 570.246 1133.88 566.038C1134.17 563.717 1134.14 558.469 1134.06 554.228Z" fill="#F9FAFB"/>
<path d="M867.055 1123.23C866.987 1119.83 869.709 1117 873.113 1117H897.88C901.194 1117 903.88 1119.69 903.88 1123V1134C903.88 1137.31 901.194 1140 897.88 1140H864C864 1140 866.353 1139.25 866.88 1135.04C867.171 1132.72 867.141 1127.47 867.055 1123.23Z" fill="#F9FAFB"/>
<path d="M1154.06 337.228C1153.99 333.826 1156.71 331 1160.11 331H1184.88C1188.19 331 1190.88 333.686 1190.88 337V348C1190.88 351.314 1188.19 354 1184.88 354H1151C1151 354 1153.35 353.246 1153.88 349.038C1154.17 346.717 1154.14 341.469 1154.06 337.228Z" fill="#F9FAFB"/>
<path d="M1274.06 708.228C1273.99 704.826 1276.71 702 1280.11 702H1304.88C1308.19 702 1310.88 704.686 1310.88 708V719C1310.88 722.314 1308.19 725 1304.88 725H1271C1271 725 1273.35 724.246 1273.88 720.038C1274.17 717.717 1274.14 712.469 1274.06 708.228Z" fill="#F9FAFB"/>
</g>
</g>
<defs>
<filter id="filter0_d" x="-376" y="57" width="1734.88" height="1130" filterUnits="userSpaceOnUse" color-interpolation-filters="sRGB">
<feFlood flood-opacity="0" result="BackgroundImageFix"/>
<feColorMatrix in="SourceAlpha" type="matrix" values="0 0 0 0 0 0 0 0 0 0 0 0 0 0 0 0 0 0 127 0"/>
<feOffset dy="2"/>
<feGaussianBlur stdDeviation="4"/>
<feColorMatrix type="matrix" values="0 0 0 0 0.466119 0 0 0 0 0.463443 0 0 0 0 0.463443 0 0 0 0.5 0"/>
<feBlend mode="normal" in2="BackgroundImageFix" result="effect1_dropShadow"/>
<feBlend mode="normal" in="SourceGraphic" in2="effect1_dropShadow" result="shape"/>
</filter>
<linearGradient id="paint0_linear" x1="400.909" y1="148.295" x2="739.871" y2="1072.39" gradientUnits="userSpaceOnUse">
<stop stop-color="#007AFF"/>
<stop offset="1" stop-color="#0ABAFF"/>
</linearGradient>
<clipPath id="clip0">
<rect width="1440" height="900" fill="white"/>
</clipPath>
</defs>
</svg>
