<svg width="375" height="812" viewBox="0 0 375 812" fill="none" xmlns="http://www.w3.org/2000/svg">
<g clip-path="url(#clip0)">
<rect width="375" height="812" fill="url(#paint0_linear)"/>
<path opacity="0.5" d="M680 -142C680 121.992 462.187 336 193.5 336C-75.1865 336 -293 121.992 -293 -142C-293 -405.992 -75.1865 -620 193.5 -620C462.187 -620 680 -405.992 680 -142Z" fill="#33C2FF"/>
<g filter="url(#filter0_dd)">
<path fill-rule="evenodd" clip-rule="evenodd" d="M188 269C210.091 269 228 251.091 228 229C228 206.909 210.091 189 188 189C165.909 189 148 206.909 148 229C148 251.091 165.909 269 188 269Z" fill="#4CB684"/>
<path d="M227.75 229C227.75 250.953 209.953 268.75 188 268.75C166.047 268.75 148.25 250.953 148.25 229C148.25 207.047 166.047 189.25 188 189.25C209.953 189.25 227.75 207.047 227.75 229Z" stroke="url(#paint1_linear)" stroke-width="0.5"/>
<path d="M227.75 229C227.75 250.953 209.953 268.75 188 268.75C166.047 268.75 148.25 250.953 148.25 229C148.25 207.047 166.047 189.25 188 189.25C209.953 189.25 227.75 207.047 227.75 229Z" stroke="url(#paint2_linear)" stroke-width="0.5"/>
</g>
<path fill-rule="evenodd" clip-rule="evenodd" d="M171.73 227.322C169.479 223.24 168.62 219.949 168.62 217.726C168.62 215.504 169.166 214.866 169.721 214.351C170.275 213.836 172.773 212.296 173.199 212.009C173.625 211.721 175.25 211.163 176.269 212.629C177.288 214.095 179.207 217.038 180.53 218.993C182.606 221.762 180.952 222.978 180.417 223.706C179.434 225.047 178.868 225.378 178.868 227.024C178.868 228.671 183.47 233.348 184.57 234.501C185.662 235.644 190.246 239.663 191.667 239.878C193.098 240.095 195.013 238.58 195.42 238.196C197.491 236.606 198.661 237.811 199.615 238.336C200.569 238.86 204.88 241.546 206.216 242.452C207.473 243.357 207.395 244.756 207.395 244.756C207.395 244.756 206.5 247.368 204.487 249.366C203.992 249.858 203.151 250.437 201.029 250.437C198.908 250.437 196.641 250.049 191.253 247.086C186.844 244.661 182.642 240.865 180.441 238.642C178.162 236.42 174.302 231.984 171.73 227.322Z" fill="white"/>
<mask id="mask0" mask-type="alpha" maskUnits="userSpaceOnUse" x="168" y="211" width="40" height="40">
<path fill-rule="evenodd" clip-rule="evenodd" d="M171.73 227.322C169.479 223.24 168.62 219.949 168.62 217.726C168.62 215.504 169.166 214.866 169.721 214.351C170.275 213.836 172.773 212.296 173.199 212.009C173.625 211.721 175.25 211.163 176.269 212.629C177.288 214.095 179.207 217.038 180.53 218.993C182.606 221.762 180.952 222.978 180.417 223.706C179.434 225.047 178.868 225.378 178.868 227.024C178.868 228.671 183.47 233.348 184.57 234.501C185.662 235.644 190.246 239.663 191.667 239.878C193.098 240.095 195.013 238.58 195.42 238.196C197.491 236.606 198.661 237.811 199.615 238.336C200.569 238.86 204.88 241.546 206.216 242.452C207.473 243.357 207.395 244.756 207.395 244.756C207.395 244.756 206.5 247.368 204.487 249.366C203.992 249.858 203.151 250.437 201.029 250.437C198.908 250.437 196.641 250.049 191.253 247.086C186.844 244.661 182.642 240.865 180.441 238.642C178.162 236.42 174.302 231.984 171.73 227.322Z" fill="white"/>
</mask>
<g mask="url(#mask0)">
</g>
<path d="M62.8524 428H64.7524V413.52H62.8524V428Z" fill="white"/>
<path d="M68.4491 428H70.2491V419.78H72.7691V418.16H70.2491V416.02C70.2491 414.98 70.4691 414.14 71.7091 414.14C72.0891 414.14 72.7291 414.22 73.1091 414.32V412.7C72.7691 412.6 72.1891 412.5 71.6291 412.5C70.7891 412.5 69.9491 412.72 69.3291 413.32C68.6291 414 68.4491 415 68.4491 416.28V418.16H66.8891V419.78H68.4491V428Z" fill="white"/>
<path d="M81.9279 432.4L88.5879 418.16H86.6879L84.9679 421.88C84.5079 422.88 84.0679 423.86 83.6279 424.84H83.5879C83.1879 423.94 82.7079 422.88 82.2479 421.88L80.5279 418.16H78.5279L82.6279 426.94L79.9679 432.4H81.9279Z" fill="white"/>
<path d="M89.1637 423.08C89.1637 425.98 91.3837 428.22 94.3637 428.22C97.3437 428.22 99.5637 425.98 99.5637 423.08C99.5637 420.18 97.3437 417.94 94.3637 417.94C91.3837 417.94 89.1637 420.18 89.1637 423.08ZM90.9637 423.08C90.9637 421.1 92.4037 419.58 94.3637 419.58C96.3237 419.58 97.7637 421.1 97.7637 423.08C97.7637 425.06 96.3237 426.58 94.3637 426.58C92.4037 426.58 90.9637 425.06 90.9637 423.08Z" fill="white"/>
<path d="M102.811 427.12C103.471 427.88 104.491 428.22 105.491 428.22C106.851 428.22 108.031 427.6 108.891 426.74L108.931 426.76V428H110.731V418.16H108.931V424.88C108.231 425.76 107.071 426.56 105.851 426.56C105.271 426.56 104.691 426.38 104.291 425.88C103.951 425.48 103.811 424.92 103.811 423.84V418.16H102.011V424.18C102.011 425.58 102.251 426.46 102.811 427.12Z" fill="white"/>
<path d="M113.567 418.54H114.787L116.427 413.16H114.667L113.567 418.54Z" fill="white"/>
<path d="M117.793 428H119.593V421.6C120.213 420.54 121.153 419.86 122.493 419.86C122.713 419.86 122.953 419.88 123.193 419.94V418.16C122.973 418.1 122.753 418.08 122.553 418.08C121.393 418.08 120.313 418.66 119.633 419.62L119.593 419.6V418.16H117.793V428Z" fill="white"/>
<path d="M133.542 423.6C133.582 423.36 133.602 423 133.602 422.7C133.602 419.62 131.522 417.94 129.122 417.94C126.482 417.94 124.222 419.98 124.222 423.08C124.222 426.18 126.502 428.22 129.542 428.22C130.822 428.22 132.182 427.86 133.062 427.3V425.38C132.162 426.06 131.022 426.6 129.662 426.6C127.722 426.6 126.282 425.54 126.022 423.6H133.542ZM129.082 419.56C130.262 419.56 131.702 420.22 131.862 422.18H126.062C126.382 420.36 127.782 419.56 129.082 419.56Z" fill="white"/>
<path d="M141.016 428H142.816V421.26C143.556 420.34 144.776 419.62 145.956 419.62C146.576 419.62 147.076 419.82 147.456 420.26C147.796 420.64 147.936 421.16 147.936 422.26V428H149.736V421.92C149.736 420.4 149.456 419.64 148.916 419.02C148.296 418.32 147.376 417.94 146.296 417.94C144.916 417.94 143.716 418.56 142.856 419.42L142.816 419.4V412.72H141.016V428Z" fill="white"/>
<path d="M155.571 428.22C156.891 428.22 158.031 427.66 158.591 427.14H158.631C159.011 427.84 159.751 428.18 160.531 428.18C160.911 428.18 161.251 428.1 161.491 428V426.5C161.331 426.58 161.111 426.64 160.911 426.64C160.371 426.64 160.151 426.2 160.151 425.6V421.42C160.151 420.2 159.751 419.36 159.171 418.84C158.471 418.2 157.431 417.94 156.231 417.94C154.771 417.94 153.711 418.32 152.951 418.78V420.54C153.691 420 154.731 419.56 155.971 419.56C156.811 419.56 157.411 419.76 157.791 420.1C158.171 420.46 158.351 421 158.351 421.72V422.54C157.711 422.38 157.011 422.28 156.251 422.28C155.231 422.28 154.231 422.46 153.491 422.94C152.711 423.44 152.191 424.24 152.191 425.34C152.191 426.3 152.591 427.04 153.231 427.52C153.891 428.02 154.771 428.22 155.571 428.22ZM155.891 426.62C154.831 426.62 154.011 426.14 154.011 425.18C154.011 424.02 155.211 423.66 156.431 423.66C157.051 423.66 157.811 423.76 158.351 423.92V425.76C157.751 426.24 156.831 426.62 155.891 426.62Z" fill="white"/>
<path d="M165.812 428H167.612L171.732 418.16H169.852L168.072 422.48C167.612 423.6 167.192 424.64 166.752 425.76H166.712C166.292 424.68 165.892 423.68 165.452 422.6L163.632 418.16H161.672L165.812 428Z" fill="white"/>
<path d="M173.39 414.78C173.39 415.48 173.95 416.04 174.65 416.04C175.35 416.04 175.91 415.48 175.91 414.78C175.91 414.08 175.35 413.52 174.65 413.52C173.95 413.52 173.39 414.08 173.39 414.78ZM173.75 428H175.55V418.16H173.75V428Z" fill="white"/>
<path d="M178.711 428H180.511V421.26C181.211 420.32 182.471 419.62 183.591 419.62C184.131 419.62 184.771 419.78 185.171 420.26C185.491 420.64 185.631 421.24 185.631 422.26V428H187.431V421.92C187.431 420.4 187.151 419.64 186.611 419.02C185.991 418.32 185.071 417.94 183.991 417.94C182.611 417.94 181.411 418.56 180.551 419.42L180.511 419.4V418.16H178.711V428Z" fill="white"/>
<path d="M191.207 431.88C192.027 432.3 193.127 432.62 194.327 432.62C197.347 432.62 199.267 430.84 199.267 427.96V418.2L197.527 418.5C196.867 418.18 196.047 417.94 195.027 417.94C191.827 417.94 189.927 420.32 189.927 423.1C189.927 426 192.067 428.02 194.747 428.02C195.787 428.02 196.747 427.72 197.427 427.26L197.467 427.28V428C197.467 429.86 196.207 430.98 194.327 430.98C193.227 430.98 192.147 430.58 191.207 429.96V431.88ZM191.747 422.98C191.747 421.06 193.007 419.54 194.987 419.54C195.887 419.54 196.847 419.84 197.467 420.22V425.64C196.867 426.12 195.907 426.44 195.007 426.44C193.067 426.44 191.747 424.96 191.747 422.98Z" fill="white"/>
<path d="M208.785 427.3C209.425 428.04 210.305 428.22 211.025 428.22C211.705 428.22 212.405 428.06 212.805 427.86V426.16C212.425 426.4 211.845 426.58 211.325 426.58C210.025 426.58 209.845 425.46 209.845 424.24V419.78H212.805V418.16H209.845V415.18L208.045 415.48V418.16H206.225V419.78H208.045V424.58C208.045 425.96 208.305 426.76 208.785 427.3Z" fill="white"/>
<path d="M215.059 428H216.859V421.26C217.599 420.34 218.819 419.62 219.999 419.62C220.619 419.62 221.119 419.82 221.499 420.26C221.839 420.64 221.979 421.16 221.979 422.26V428H223.779V421.92C223.779 420.4 223.499 419.64 222.959 419.02C222.339 418.32 221.419 417.94 220.339 417.94C218.959 417.94 217.759 418.56 216.899 419.42L216.859 419.4V412.72H215.059V428Z" fill="white"/>
<path d="M226.214 423.08C226.214 425.98 228.434 428.22 231.414 428.22C234.394 428.22 236.614 425.98 236.614 423.08C236.614 420.18 234.394 417.94 231.414 417.94C228.434 417.94 226.214 420.18 226.214 423.08ZM228.014 423.08C228.014 421.1 229.454 419.58 231.414 419.58C233.374 419.58 234.814 421.1 234.814 423.08C234.814 425.06 233.374 426.58 231.414 426.58C229.454 426.58 228.014 425.06 228.014 423.08Z" fill="white"/>
<path d="M239.861 427.12C240.521 427.88 241.541 428.22 242.541 428.22C243.901 428.22 245.081 427.6 245.941 426.74L245.981 426.76V428H247.781V418.16H245.981V424.88C245.281 425.76 244.121 426.56 242.901 426.56C242.321 426.56 241.741 426.38 241.341 425.88C241.001 425.48 240.861 424.92 240.861 423.84V418.16H239.061V424.18C239.061 425.58 239.301 426.46 239.861 427.12Z" fill="white"/>
<path d="M251.597 431.88C252.417 432.3 253.517 432.62 254.717 432.62C257.737 432.62 259.657 430.84 259.657 427.96V418.2L257.917 418.5C257.257 418.18 256.437 417.94 255.417 417.94C252.217 417.94 250.317 420.32 250.317 423.1C250.317 426 252.457 428.02 255.137 428.02C256.177 428.02 257.137 427.72 257.817 427.26L257.857 427.28V428C257.857 429.86 256.597 430.98 254.717 430.98C253.617 430.98 252.537 430.58 251.597 429.96V431.88ZM252.137 422.98C252.137 421.06 253.397 419.54 255.377 419.54C256.277 419.54 257.237 419.84 257.857 420.22V425.64C257.257 426.12 256.297 426.44 255.397 426.44C253.457 426.44 252.137 424.96 252.137 422.98Z" fill="white"/>
<path d="M262.832 428H264.632V421.26C265.372 420.34 266.592 419.62 267.772 419.62C268.392 419.62 268.892 419.82 269.272 420.26C269.612 420.64 269.752 421.16 269.752 422.26V428H271.552V421.92C271.552 420.4 271.272 419.64 270.732 419.02C270.112 418.32 269.192 417.94 268.112 417.94C266.732 417.94 265.532 418.56 264.672 419.42L264.632 419.4V412.72H262.832V428Z" fill="white"/>
<path d="M276.168 427.3C276.808 428.04 277.688 428.22 278.408 428.22C279.088 428.22 279.788 428.06 280.188 427.86V426.16C279.808 426.4 279.228 426.58 278.708 426.58C277.408 426.58 277.228 425.46 277.228 424.24V419.78H280.188V418.16H277.228V415.18L275.428 415.48V418.16H273.608V419.78H275.428V424.58C275.428 425.96 275.688 426.76 276.168 427.3Z" fill="white"/>
<path d="M282.161 427.42C283.181 427.96 284.581 428.22 285.841 428.22C287.941 428.22 289.981 427.36 289.981 425.08C289.981 423.04 288.421 422.52 286.541 422.2C285.081 421.94 283.681 421.94 283.681 420.82C283.681 419.94 284.561 419.56 285.821 419.56C286.961 419.56 288.321 419.88 289.421 420.52V418.72C288.441 418.2 287.081 417.94 285.901 417.94C283.621 417.94 281.881 418.92 281.861 420.96C281.861 422.9 283.341 423.46 285.221 423.78C286.741 424.04 288.161 424.06 288.161 425.24C288.161 426.2 287.281 426.6 285.921 426.6C284.701 426.6 283.281 426.26 282.161 425.54V427.42Z" fill="white"/>
<path d="M296.586 423.08C296.586 425.98 298.806 428.22 301.786 428.22C304.766 428.22 306.986 425.98 306.986 423.08C306.986 420.18 304.766 417.94 301.786 417.94C298.806 417.94 296.586 420.18 296.586 423.08ZM298.386 423.08C298.386 421.1 299.826 419.58 301.786 419.58C303.746 419.58 305.186 421.1 305.186 423.08C305.186 425.06 303.746 426.58 301.786 426.58C299.826 426.58 298.386 425.06 298.386 423.08Z" fill="white"/>
<path d="M309.973 428H311.773V419.78H314.293V418.16H311.773V416.02C311.773 414.98 311.993 414.14 313.233 414.14C313.613 414.14 314.253 414.22 314.633 414.32V412.7C314.293 412.6 313.713 412.5 313.153 412.5C312.313 412.5 311.473 412.72 310.853 413.32C310.153 414 309.973 415 309.973 416.28V418.16H308.413V419.78H309.973V428Z" fill="white"/>
<path d="M40.3449 453.42C41.3649 453.96 42.7649 454.22 44.0249 454.22C46.1249 454.22 48.1649 453.36 48.1649 451.08C48.1649 449.04 46.6049 448.52 44.7249 448.2C43.2649 447.94 41.8649 447.94 41.8649 446.82C41.8649 445.94 42.7449 445.56 44.0049 445.56C45.1449 445.56 46.5049 445.88 47.6049 446.52V444.72C46.6249 444.2 45.2649 443.94 44.0849 443.94C41.8049 443.94 40.0649 444.92 40.0449 446.96C40.0449 448.9 41.5249 449.46 43.4049 449.78C44.9249 450.04 46.3449 450.06 46.3449 451.24C46.3449 452.2 45.4649 452.6 44.1049 452.6C42.8849 452.6 41.4649 452.26 40.3449 451.54V453.42Z" fill="white"/>
<path d="M59.2454 449.6C59.2854 449.36 59.3054 449 59.3054 448.7C59.3054 445.62 57.2254 443.94 54.8254 443.94C52.1854 443.94 49.9254 445.98 49.9254 449.08C49.9254 452.18 52.2054 454.22 55.2454 454.22C56.5254 454.22 57.8854 453.86 58.7654 453.3V451.38C57.8654 452.06 56.7254 452.6 55.3654 452.6C53.4254 452.6 51.9854 451.54 51.7254 449.6H59.2454ZM54.7854 445.56C55.9654 445.56 57.4054 446.22 57.5654 448.18H51.7654C52.0854 446.36 53.4854 445.56 54.7854 445.56Z" fill="white"/>
<path d="M61.8749 454H63.6749V438.72H61.8749V454Z" fill="white"/>
<path d="M67.3359 454H69.1359V445.78H71.6559V444.16H69.1359V442.02C69.1359 440.98 69.3559 440.14 70.5959 440.14C70.9759 440.14 71.6159 440.22 71.9959 440.32V438.7C71.6559 438.6 71.0759 438.5 70.5159 438.5C69.6759 438.5 68.8359 438.72 68.2159 439.32C67.5159 440 67.3359 441 67.3359 442.28V444.16H65.7759V445.78H67.3359V454Z" fill="white"/>
<path d="M73.2709 449.26H78.0309V447.66H73.2709V449.26Z" fill="white"/>
<path d="M80.7421 454H82.5421V447.26C83.2821 446.34 84.5021 445.62 85.6821 445.62C86.3021 445.62 86.8021 445.82 87.1821 446.26C87.5221 446.64 87.6621 447.16 87.6621 448.26V454H89.4621V447.92C89.4621 446.4 89.1821 445.64 88.6421 445.02C88.0221 444.32 87.1021 443.94 86.0221 443.94C84.6421 443.94 83.4421 444.56 82.5821 445.42L82.5421 445.4V438.72H80.7421V454Z" fill="white"/>
<path d="M95.298 454.22C96.618 454.22 97.758 453.66 98.318 453.14H98.358C98.738 453.84 99.478 454.18 100.258 454.18C100.638 454.18 100.978 454.1 101.218 454V452.5C101.058 452.58 100.838 452.64 100.638 452.64C100.098 452.64 99.878 452.2 99.878 451.6V447.42C99.878 446.2 99.478 445.36 98.898 444.84C98.198 444.2 97.158 443.94 95.958 443.94C94.498 443.94 93.438 444.32 92.678 444.78V446.54C93.418 446 94.458 445.56 95.698 445.56C96.538 445.56 97.138 445.76 97.518 446.1C97.898 446.46 98.078 447 98.078 447.72V448.54C97.438 448.38 96.738 448.28 95.978 448.28C94.958 448.28 93.958 448.46 93.218 448.94C92.438 449.44 91.918 450.24 91.918 451.34C91.918 452.3 92.318 453.04 92.958 453.52C93.618 454.02 94.498 454.22 95.298 454.22ZM95.618 452.62C94.558 452.62 93.738 452.14 93.738 451.18C93.738 450.02 94.938 449.66 96.158 449.66C96.778 449.66 97.538 449.76 98.078 449.92V451.76C97.478 452.24 96.558 452.62 95.618 452.62Z" fill="white"/>
<path d="M103.223 454H105.023V447.6C105.643 446.54 106.583 445.86 107.923 445.86C108.143 445.86 108.383 445.88 108.623 445.94V444.16C108.403 444.1 108.183 444.08 107.983 444.08C106.823 444.08 105.743 444.66 105.063 445.62L105.023 445.6V444.16H103.223V454Z" fill="white"/>
<path d="M124.106 454H125.906V447.86C125.906 446.52 125.686 445.64 125.086 444.98C124.486 444.3 123.566 443.94 122.506 443.94C121.146 443.94 119.946 444.52 118.766 445.64C118.166 444.46 116.966 443.94 115.746 443.94C114.386 443.94 113.226 444.56 112.406 445.38L112.366 445.36V444.16H110.566V454H112.366V447.16C113.046 446.34 114.206 445.62 115.366 445.62C115.926 445.62 116.466 445.78 116.866 446.24C117.206 446.64 117.326 447.12 117.326 448.18V454H119.126V447.86C119.126 447.62 119.126 447.38 119.106 447.16C119.786 446.36 120.966 445.62 122.106 445.62C122.626 445.62 123.226 445.78 123.606 446.22C123.966 446.64 124.106 447.24 124.106 448.18V454Z" fill="white"/>
<path d="M133.187 449.08C133.187 451.98 135.407 454.22 138.387 454.22C141.367 454.22 143.587 451.98 143.587 449.08C143.587 446.18 141.367 443.94 138.387 443.94C135.407 443.94 133.187 446.18 133.187 449.08ZM134.987 449.08C134.987 447.1 136.427 445.58 138.387 445.58C140.347 445.58 141.787 447.1 141.787 449.08C141.787 451.06 140.347 452.58 138.387 452.58C136.427 452.58 134.987 451.06 134.987 449.08Z" fill="white"/>
<path d="M146.074 454H147.874V447.6C148.494 446.54 149.434 445.86 150.774 445.86C150.994 445.86 151.234 445.88 151.474 445.94V444.16C151.254 444.1 151.034 444.08 150.834 444.08C149.674 444.08 148.594 444.66 147.914 445.62L147.874 445.6V444.16H146.074V454Z" fill="white"/>
<path d="M157.982 453.42C159.002 453.96 160.402 454.22 161.662 454.22C163.762 454.22 165.802 453.36 165.802 451.08C165.802 449.04 164.242 448.52 162.362 448.2C160.902 447.94 159.502 447.94 159.502 446.82C159.502 445.94 160.382 445.56 161.642 445.56C162.782 445.56 164.142 445.88 165.242 446.52V444.72C164.262 444.2 162.902 443.94 161.722 443.94C159.442 443.94 157.702 444.92 157.682 446.96C157.682 448.9 159.162 449.46 161.042 449.78C162.562 450.04 163.982 450.06 163.982 451.24C163.982 452.2 163.102 452.6 161.742 452.6C160.522 452.6 159.102 452.26 157.982 451.54V453.42Z" fill="white"/>
<path d="M169.002 453.12C169.662 453.88 170.682 454.22 171.682 454.22C173.042 454.22 174.222 453.6 175.082 452.74L175.122 452.76V454H176.922V444.16H175.122V450.88C174.422 451.76 173.262 452.56 172.042 452.56C171.462 452.56 170.882 452.38 170.482 451.88C170.142 451.48 170.002 450.92 170.002 449.84V444.16H168.202V450.18C168.202 451.58 168.442 452.46 169.002 453.12Z" fill="white"/>
<path d="M179.718 440.78C179.718 441.48 180.278 442.04 180.978 442.04C181.678 442.04 182.238 441.48 182.238 440.78C182.238 440.08 181.678 439.52 180.978 439.52C180.278 439.52 179.718 440.08 179.718 440.78ZM180.078 454H181.878V444.16H180.078V454Z" fill="white"/>
<path d="M192.639 451.62C191.899 452.2 190.919 452.58 189.799 452.58C187.679 452.58 186.179 451.16 186.179 449.14C186.179 447.16 187.599 445.58 189.739 445.58C190.699 445.58 191.659 445.9 192.479 446.42V444.56C191.779 444.2 190.839 443.94 189.819 443.94C186.759 443.94 184.359 446.1 184.359 449.14C184.359 452.06 186.579 454.22 189.699 454.22C190.699 454.22 191.799 454 192.639 453.54V451.62Z" fill="white"/>
<path d="M194.874 440.78C194.874 441.48 195.434 442.04 196.134 442.04C196.834 442.04 197.394 441.48 197.394 440.78C197.394 440.08 196.834 439.52 196.134 439.52C195.434 439.52 194.874 440.08 194.874 440.78ZM195.234 454H197.034V444.16H195.234V454Z" fill="white"/>
<path d="M199.555 449.24C199.555 452.28 201.715 454.22 204.375 454.22C205.555 454.22 206.475 453.84 207.135 453.38L207.175 453.4V454H208.975V438.72H207.175V444.44L207.135 444.46C206.495 444.18 205.755 443.94 204.775 443.94C201.675 443.94 199.555 446.22 199.555 449.24ZM201.375 449.14C201.375 447.12 202.675 445.54 204.755 445.54C205.635 445.54 206.515 445.82 207.175 446.16V451.78C206.475 452.26 205.595 452.62 204.615 452.62C202.595 452.62 201.375 451.1 201.375 449.14Z" fill="white"/>
<path d="M220.769 449.6C220.809 449.36 220.829 449 220.829 448.7C220.829 445.62 218.749 443.94 216.349 443.94C213.709 443.94 211.449 445.98 211.449 449.08C211.449 452.18 213.729 454.22 216.769 454.22C218.049 454.22 219.409 453.86 220.289 453.3V451.38C219.389 452.06 218.249 452.6 216.889 452.6C214.949 452.6 213.509 451.54 213.249 449.6H220.769ZM216.309 445.56C217.489 445.56 218.929 446.22 219.089 448.18H213.289C213.609 446.36 215.009 445.56 216.309 445.56Z" fill="white"/>
<path d="M222.938 456.94H224.258L225.878 451.28H224.058L222.938 456.94Z" fill="white"/>
<path d="M234.881 453.12C235.541 453.88 236.561 454.22 237.561 454.22C238.921 454.22 240.101 453.6 240.961 452.74L241.001 452.76V454H242.801V444.16H241.001V450.88C240.301 451.76 239.141 452.56 237.921 452.56C237.341 452.56 236.761 452.38 236.361 451.88C236.021 451.48 235.881 450.92 235.881 449.84V444.16H234.081V450.18C234.081 451.58 234.321 452.46 234.881 453.12Z" fill="white"/>
<path d="M245.677 453.42C246.697 453.96 248.097 454.22 249.357 454.22C251.457 454.22 253.497 453.36 253.497 451.08C253.497 449.04 251.937 448.52 250.057 448.2C248.597 447.94 247.197 447.94 247.197 446.82C247.197 445.94 248.077 445.56 249.337 445.56C250.477 445.56 251.837 445.88 252.937 446.52V444.72C251.957 444.2 250.597 443.94 249.417 443.94C247.137 443.94 245.397 444.92 245.377 446.96C245.377 448.9 246.857 449.46 248.737 449.78C250.257 450.04 251.677 450.06 251.677 451.24C251.677 452.2 250.797 452.6 249.437 452.6C248.217 452.6 246.797 452.26 245.677 451.54V453.42Z" fill="white"/>
<path d="M264.577 449.6C264.617 449.36 264.637 449 264.637 448.7C264.637 445.62 262.557 443.94 260.157 443.94C257.517 443.94 255.257 445.98 255.257 449.08C255.257 452.18 257.537 454.22 260.577 454.22C261.857 454.22 263.217 453.86 264.097 453.3V451.38C263.197 452.06 262.057 452.6 260.697 452.6C258.757 452.6 257.317 451.54 257.057 449.6H264.577ZM260.117 445.56C261.297 445.56 262.737 446.22 262.897 448.18H257.097C257.417 446.36 258.817 445.56 260.117 445.56Z" fill="white"/>
<path d="M273.551 453.3C274.191 454.04 275.071 454.22 275.791 454.22C276.471 454.22 277.171 454.06 277.571 453.86V452.16C277.191 452.4 276.611 452.58 276.091 452.58C274.791 452.58 274.611 451.46 274.611 450.24V445.78H277.571V444.16H274.611V441.18L272.811 441.48V444.16H270.991V445.78H272.811V450.58C272.811 451.96 273.071 452.76 273.551 453.3Z" fill="white"/>
<path d="M279.824 454H281.624V447.26C282.364 446.34 283.584 445.62 284.764 445.62C285.384 445.62 285.884 445.82 286.264 446.26C286.604 446.64 286.744 447.16 286.744 448.26V454H288.544V447.92C288.544 446.4 288.264 445.64 287.724 445.02C287.104 444.32 286.184 443.94 285.104 443.94C283.724 443.94 282.524 444.56 281.664 445.42L281.624 445.4V438.72H279.824V454Z" fill="white"/>
<path d="M300.3 449.6C300.34 449.36 300.36 449 300.36 448.7C300.36 445.62 298.28 443.94 295.88 443.94C293.24 443.94 290.98 445.98 290.98 449.08C290.98 452.18 293.26 454.22 296.3 454.22C297.58 454.22 298.94 453.86 299.82 453.3V451.38C298.92 452.06 297.78 452.6 296.42 452.6C294.48 452.6 293.04 451.54 292.78 449.6H300.3ZM295.84 445.56C297.02 445.56 298.46 446.22 298.62 448.18H292.82C293.14 446.36 294.54 445.56 295.84 445.56Z" fill="white"/>
<path d="M315.373 451.62C314.633 452.2 313.653 452.58 312.533 452.58C310.413 452.58 308.913 451.16 308.913 449.14C308.913 447.16 310.333 445.58 312.473 445.58C313.433 445.58 314.393 445.9 315.213 446.42V444.56C314.513 444.2 313.573 443.94 312.553 443.94C309.493 443.94 307.093 446.1 307.093 449.14C307.093 452.06 309.313 454.22 312.433 454.22C313.433 454.22 314.533 454 315.373 453.54V451.62Z" fill="white"/>
<path d="M320.689 454.22C322.009 454.22 323.149 453.66 323.709 453.14H323.749C324.129 453.84 324.869 454.18 325.649 454.18C326.029 454.18 326.369 454.1 326.609 454V452.5C326.449 452.58 326.229 452.64 326.029 452.64C325.489 452.64 325.269 452.2 325.269 451.6V447.42C325.269 446.2 324.869 445.36 324.289 444.84C323.589 444.2 322.549 443.94 321.349 443.94C319.889 443.94 318.829 444.32 318.069 444.78V446.54C318.809 446 319.849 445.56 321.089 445.56C321.929 445.56 322.529 445.76 322.909 446.1C323.289 446.46 323.469 447 323.469 447.72V448.54C322.829 448.38 322.129 448.28 321.369 448.28C320.349 448.28 319.349 448.46 318.609 448.94C317.829 449.44 317.309 450.24 317.309 451.34C317.309 452.3 317.709 453.04 318.349 453.52C319.009 454.02 319.889 454.22 320.689 454.22ZM321.009 452.62C319.949 452.62 319.129 452.14 319.129 451.18C319.129 450.02 320.329 449.66 321.549 449.66C322.169 449.66 322.929 449.76 323.469 449.92V451.76C322.869 452.24 321.949 452.62 321.009 452.62Z" fill="white"/>
<path d="M328.613 454H330.413V438.72H328.613V454Z" fill="white"/>
<path d="M333.574 454H335.374V438.72H333.574V454Z" fill="white"/>
<path d="M54.5605 479L56.3005 478.7C57.0405 479 57.8405 479.22 58.7605 479.22C61.7805 479.22 63.9805 476.98 63.9805 473.94C63.9805 470.96 61.8405 468.94 59.1805 468.94C58.0005 468.94 57.0205 469.34 56.4005 469.74L56.3605 469.72V463.72H54.5605V479ZM56.3605 477V471.48C57.0205 470.94 57.9005 470.56 58.9605 470.56C60.9005 470.56 62.1605 472.06 62.1605 474.04C62.1605 476.1 60.8205 477.64 58.8205 477.64C58.0005 477.64 57.0005 477.38 56.3605 477Z" fill="white"/>
<path d="M67.215 478.12C67.875 478.88 68.895 479.22 69.895 479.22C71.255 479.22 72.435 478.6 73.295 477.74L73.335 477.76V479H75.135V469.16H73.335V475.88C72.635 476.76 71.475 477.56 70.255 477.56C69.675 477.56 69.095 477.38 68.695 476.88C68.355 476.48 68.215 475.92 68.215 474.84V469.16H66.415V475.18C66.415 476.58 66.655 477.46 67.215 478.12Z" fill="white"/>
<path d="M79.7909 478.3C80.4309 479.04 81.3109 479.22 82.0309 479.22C82.7109 479.22 83.4109 479.06 83.8109 478.86V477.16C83.4309 477.4 82.8509 477.58 82.3309 477.58C81.0309 477.58 80.8509 476.46 80.8509 475.24V470.78H83.8109V469.16H80.8509V466.18L79.0509 466.48V469.16H77.2309V470.78H79.0509V475.58C79.0509 476.96 79.3109 477.76 79.7909 478.3Z" fill="white"/>
<path d="M87.5644 478.3C88.2044 479.04 89.0844 479.22 89.8044 479.22C90.4844 479.22 91.1844 479.06 91.5844 478.86V477.16C91.2044 477.4 90.6244 477.58 90.1044 477.58C88.8044 477.58 88.6244 476.46 88.6244 475.24V470.78H91.5844V469.16H88.6244V466.18L86.8244 466.48V469.16H85.0044V470.78H86.8244V475.58C86.8244 476.96 87.0844 477.76 87.5644 478.3Z" fill="white"/>
<path d="M92.9234 474.08C92.9234 476.98 95.1434 479.22 98.1234 479.22C101.103 479.22 103.323 476.98 103.323 474.08C103.323 471.18 101.103 468.94 98.1234 468.94C95.1434 468.94 92.9234 471.18 92.9234 474.08ZM94.7234 474.08C94.7234 472.1 96.1634 470.58 98.1234 470.58C100.083 470.58 101.523 472.1 101.523 474.08C101.523 476.06 100.083 477.58 98.1234 477.58C96.1634 477.58 94.7234 476.06 94.7234 474.08Z" fill="white"/>
<path d="M105.81 479H107.61V472.26C108.31 471.32 109.57 470.62 110.69 470.62C111.23 470.62 111.87 470.78 112.27 471.26C112.59 471.64 112.73 472.24 112.73 473.26V479H114.53V472.92C114.53 471.4 114.25 470.64 113.71 470.02C113.09 469.32 112.17 468.94 111.09 468.94C109.71 468.94 108.51 469.56 107.65 470.42L107.61 470.4V469.16H105.81V479Z" fill="white"/>
<path d="M123.99 478.3C124.63 479.04 125.51 479.22 126.23 479.22C126.91 479.22 127.61 479.06 128.01 478.86V477.16C127.63 477.4 127.05 477.58 126.53 477.58C125.23 477.58 125.05 476.46 125.05 475.24V470.78H128.01V469.16H125.05V466.18L123.25 466.48V469.16H121.43V470.78H123.25V475.58C123.25 476.96 123.51 477.76 123.99 478.3Z" fill="white"/>
<path d="M129.349 474.08C129.349 476.98 131.569 479.22 134.549 479.22C137.529 479.22 139.749 476.98 139.749 474.08C139.749 471.18 137.529 468.94 134.549 468.94C131.569 468.94 129.349 471.18 129.349 474.08ZM131.149 474.08C131.149 472.1 132.589 470.58 134.549 470.58C136.509 470.58 137.949 472.1 137.949 474.08C137.949 476.06 136.509 477.58 134.549 477.58C132.589 477.58 131.149 476.06 131.149 474.08Z" fill="white"/>
<path d="M154.68 476.62C153.94 477.2 152.96 477.58 151.84 477.58C149.72 477.58 148.22 476.16 148.22 474.14C148.22 472.16 149.64 470.58 151.78 470.58C152.74 470.58 153.7 470.9 154.52 471.42V469.56C153.82 469.2 152.88 468.94 151.86 468.94C148.8 468.94 146.4 471.1 146.4 474.14C146.4 477.06 148.62 479.22 151.74 479.22C152.74 479.22 153.84 479 154.68 478.54V476.62Z" fill="white"/>
<path d="M156.556 474.08C156.556 476.98 158.776 479.22 161.756 479.22C164.736 479.22 166.956 476.98 166.956 474.08C166.956 471.18 164.736 468.94 161.756 468.94C158.776 468.94 156.556 471.18 156.556 474.08ZM158.356 474.08C158.356 472.1 159.796 470.58 161.756 470.58C163.716 470.58 165.156 472.1 165.156 474.08C165.156 476.06 163.716 477.58 161.756 477.58C159.796 477.58 158.356 476.06 158.356 474.08Z" fill="white"/>
<path d="M169.443 479H171.243V472.26C171.943 471.32 173.203 470.62 174.323 470.62C174.863 470.62 175.503 470.78 175.903 471.26C176.223 471.64 176.363 472.24 176.363 473.26V479H178.163V472.92C178.163 471.4 177.883 470.64 177.343 470.02C176.723 469.32 175.803 468.94 174.723 468.94C173.343 468.94 172.143 469.56 171.283 470.42L171.243 470.4V469.16H169.443V479Z" fill="white"/>
<path d="M182.779 478.3C183.419 479.04 184.299 479.22 185.019 479.22C185.699 479.22 186.399 479.06 186.799 478.86V477.16C186.419 477.4 185.839 477.58 185.319 477.58C184.019 477.58 183.839 476.46 183.839 475.24V470.78H186.799V469.16H183.839V466.18L182.039 466.48V469.16H180.219V470.78H182.039V475.58C182.039 476.96 182.299 477.76 182.779 478.3Z" fill="white"/>
<path d="M191.773 479.22C193.093 479.22 194.233 478.66 194.793 478.14H194.833C195.213 478.84 195.953 479.18 196.733 479.18C197.113 479.18 197.453 479.1 197.693 479V477.5C197.533 477.58 197.313 477.64 197.113 477.64C196.573 477.64 196.353 477.2 196.353 476.6V472.42C196.353 471.2 195.953 470.36 195.373 469.84C194.673 469.2 193.633 468.94 192.433 468.94C190.973 468.94 189.913 469.32 189.153 469.78V471.54C189.893 471 190.933 470.56 192.173 470.56C193.013 470.56 193.613 470.76 193.993 471.1C194.373 471.46 194.553 472 194.553 472.72V473.54C193.913 473.38 193.213 473.28 192.453 473.28C191.433 473.28 190.433 473.46 189.693 473.94C188.913 474.44 188.393 475.24 188.393 476.34C188.393 477.3 188.793 478.04 189.433 478.52C190.093 479.02 190.973 479.22 191.773 479.22ZM192.093 477.62C191.033 477.62 190.213 477.14 190.213 476.18C190.213 475.02 191.413 474.66 192.633 474.66C193.253 474.66 194.013 474.76 194.553 474.92V476.76C193.953 477.24 193.033 477.62 192.093 477.62Z" fill="white"/>
<path d="M207.297 476.62C206.557 477.2 205.577 477.58 204.457 477.58C202.337 477.58 200.837 476.16 200.837 474.14C200.837 472.16 202.257 470.58 204.397 470.58C205.357 470.58 206.317 470.9 207.137 471.42V469.56C206.437 469.2 205.497 468.94 204.477 468.94C201.417 468.94 199.017 471.1 199.017 474.14C199.017 477.06 201.237 479.22 204.357 479.22C205.357 479.22 206.457 479 207.297 478.54V476.62Z" fill="white"/>
<path d="M211.393 478.3C212.033 479.04 212.913 479.22 213.633 479.22C214.313 479.22 215.013 479.06 215.413 478.86V477.16C215.033 477.4 214.452 477.58 213.932 477.58C212.632 477.58 212.452 476.46 212.452 475.24V470.78H215.413V469.16H212.452V466.18L210.652 466.48V469.16H208.833V470.78H210.652V475.58C210.652 476.96 210.913 477.76 211.393 478.3Z" fill="white"/>
<path d="M224.01 478.3C224.65 479.04 225.53 479.22 226.25 479.22C226.93 479.22 227.63 479.06 228.03 478.86V477.16C227.65 477.4 227.07 477.58 226.55 477.58C225.25 477.58 225.07 476.46 225.07 475.24V470.78H228.03V469.16H225.07V466.18L223.27 466.48V469.16H221.45V470.78H223.27V475.58C223.27 476.96 223.53 477.76 224.01 478.3Z" fill="white"/>
<path d="M230.283 479H232.083V472.26C232.823 471.34 234.043 470.62 235.223 470.62C235.843 470.62 236.343 470.82 236.723 471.26C237.063 471.64 237.203 472.16 237.203 473.26V479H239.003V472.92C239.003 471.4 238.723 470.64 238.183 470.02C237.563 469.32 236.643 468.94 235.563 468.94C234.183 468.94 232.983 469.56 232.123 470.42L232.083 470.4V463.72H230.283V479Z" fill="white"/>
<path d="M250.759 474.6C250.799 474.36 250.819 474 250.819 473.7C250.819 470.62 248.739 468.94 246.339 468.94C243.699 468.94 241.439 470.98 241.439 474.08C241.439 477.18 243.719 479.22 246.759 479.22C248.039 479.22 249.399 478.86 250.279 478.3V476.38C249.379 477.06 248.239 477.6 246.879 477.6C244.939 477.6 243.499 476.54 243.239 474.6H250.759ZM246.299 470.56C247.479 470.56 248.919 471.22 249.079 473.18H243.279C243.599 471.36 244.999 470.56 246.299 470.56Z" fill="white"/>
<path d="M257.872 478.08C259.132 478.84 260.832 479.22 262.232 479.22C265.132 479.22 267.072 477.66 267.072 475.02C267.072 472.26 264.992 471.42 262.892 470.82C261.132 470.32 259.452 470.02 259.452 468.22C259.452 466.74 260.592 466.04 262.212 466.04C263.452 466.04 265.092 466.46 266.412 467.38V465.38C265.252 464.64 263.612 464.3 262.252 464.3C259.432 464.3 257.572 465.78 257.572 468.34C257.572 470.98 259.552 471.82 261.592 472.4C263.492 472.94 265.192 473.26 265.192 475.12C265.192 476.7 263.972 477.48 262.252 477.48C260.972 477.48 259.232 477.04 257.872 476V478.08Z" fill="white"/>
<path d="M270.203 478.12C270.863 478.88 271.883 479.22 272.883 479.22C274.243 479.22 275.423 478.6 276.283 477.74L276.323 477.76V479H278.123V469.16H276.323V475.88C275.623 476.76 274.463 477.56 273.243 477.56C272.663 477.56 272.083 477.38 271.683 476.88C271.343 476.48 271.203 475.92 271.203 474.84V469.16H269.403V475.18C269.403 476.58 269.643 477.46 270.203 478.12Z" fill="white"/>
<path d="M280.919 465.78C280.919 466.48 281.479 467.04 282.179 467.04C282.879 467.04 283.439 466.48 283.439 465.78C283.439 465.08 282.879 464.52 282.179 464.52C281.479 464.52 280.919 465.08 280.919 465.78ZM281.279 479H283.079V469.16H281.279V479Z" fill="white"/>
<path d="M293.84 476.62C293.1 477.2 292.12 477.58 291 477.58C288.88 477.58 287.38 476.16 287.38 474.14C287.38 472.16 288.8 470.58 290.94 470.58C291.9 470.58 292.86 470.9 293.68 471.42V469.56C292.98 469.2 292.04 468.94 291.02 468.94C287.96 468.94 285.56 471.1 285.56 474.14C285.56 477.06 287.78 479.22 290.9 479.22C291.9 479.22 293 479 293.84 478.54V476.62Z" fill="white"/>
<path d="M296.075 465.78C296.075 466.48 296.635 467.04 297.335 467.04C298.035 467.04 298.595 466.48 298.595 465.78C298.595 465.08 298.035 464.52 297.335 464.52C296.635 464.52 296.075 465.08 296.075 465.78ZM296.435 479H298.235V469.16H296.435V479Z" fill="white"/>
<path d="M300.756 474.24C300.756 477.28 302.916 479.22 305.576 479.22C306.756 479.22 307.676 478.84 308.336 478.38L308.376 478.4V479H310.176V463.72H308.376V469.44L308.336 469.46C307.696 469.18 306.956 468.94 305.976 468.94C302.876 468.94 300.756 471.22 300.756 474.24ZM302.576 474.14C302.576 472.12 303.876 470.54 305.956 470.54C306.836 470.54 307.716 470.82 308.376 471.16V476.78C307.676 477.26 306.796 477.62 305.816 477.62C303.796 477.62 302.576 476.1 302.576 474.14Z" fill="white"/>
<path d="M321.97 474.6C322.01 474.36 322.03 474 322.03 473.7C322.03 470.62 319.95 468.94 317.55 468.94C314.91 468.94 312.65 470.98 312.65 474.08C312.65 477.18 314.93 479.22 317.97 479.22C319.25 479.22 320.61 478.86 321.49 478.3V476.38C320.59 477.06 319.45 477.6 318.09 477.6C316.15 477.6 314.71 476.54 314.45 474.6H321.97ZM317.51 470.56C318.69 470.56 320.13 471.22 320.29 473.18H314.49C314.81 471.36 316.21 470.56 317.51 470.56Z" fill="white"/>
<path d="M87.4032 504H89.3032V498.28H90.8032C92.6632 498.28 94.3432 498.22 95.6032 497.46C96.7632 496.76 97.5632 495.5 97.5632 493.86C97.5632 492.16 96.7232 490.98 95.4632 490.28C94.2032 489.58 92.7232 489.52 91.1832 489.52H87.4032V504ZM89.3032 496.62V491.24H91.0232C92.3832 491.24 93.4432 491.26 94.3232 491.7C95.1432 492.12 95.6632 492.86 95.6632 493.94C95.6632 494.92 95.2232 495.64 94.5032 496.08C93.7032 496.56 92.7432 496.62 91.0432 496.62H89.3032Z" fill="white"/>
<path d="M99.6288 504H101.429V497.6C102.049 496.54 102.989 495.86 104.329 495.86C104.549 495.86 104.789 495.88 105.029 495.94V494.16C104.809 494.1 104.589 494.08 104.389 494.08C103.229 494.08 102.149 494.66 101.469 495.62L101.429 495.6V494.16H99.6288V504Z" fill="white"/>
<path d="M115.378 499.6C115.418 499.36 115.438 499 115.438 498.7C115.438 495.62 113.358 493.94 110.958 493.94C108.318 493.94 106.058 495.98 106.058 499.08C106.058 502.18 108.338 504.22 111.378 504.22C112.658 504.22 114.018 503.86 114.898 503.3V501.38C113.998 502.06 112.858 502.6 111.498 502.6C109.558 502.6 108.118 501.54 107.858 499.6H115.378ZM110.918 495.56C112.098 495.56 113.538 496.22 113.698 498.18H107.898C108.218 496.36 109.618 495.56 110.918 495.56Z" fill="white"/>
<path d="M120.559 504H122.359L126.479 494.16H124.599L122.819 498.48C122.359 499.6 121.939 500.64 121.499 501.76H121.459C121.039 500.68 120.639 499.68 120.199 498.6L118.379 494.16H116.419L120.559 504Z" fill="white"/>
<path d="M136.609 499.6C136.649 499.36 136.669 499 136.669 498.7C136.669 495.62 134.589 493.94 132.189 493.94C129.549 493.94 127.289 495.98 127.289 499.08C127.289 502.18 129.569 504.22 132.609 504.22C133.889 504.22 135.249 503.86 136.129 503.3V501.38C135.229 502.06 134.089 502.6 132.729 502.6C130.789 502.6 129.349 501.54 129.089 499.6H136.609ZM132.149 495.56C133.329 495.56 134.769 496.22 134.929 498.18H129.129C129.449 496.36 130.849 495.56 132.149 495.56Z" fill="white"/>
<path d="M139.238 504H141.038V497.26C141.738 496.32 142.998 495.62 144.118 495.62C144.658 495.62 145.298 495.78 145.698 496.26C146.018 496.64 146.158 497.24 146.158 498.26V504H147.958V497.92C147.958 496.4 147.678 495.64 147.138 495.02C146.518 494.32 145.598 493.94 144.518 493.94C143.138 493.94 141.938 494.56 141.078 495.42L141.038 495.4V494.16H139.238V504Z" fill="white"/>
<path d="M152.574 503.3C153.214 504.04 154.094 504.22 154.814 504.22C155.494 504.22 156.194 504.06 156.594 503.86V502.16C156.214 502.4 155.634 502.58 155.114 502.58C153.814 502.58 153.634 501.46 153.634 500.24V495.78H156.594V494.16H153.634V491.18L151.834 491.48V494.16H150.014V495.78H151.834V500.58C151.834 501.96 152.094 502.76 152.574 503.3Z" fill="white"/>
<path d="M158.488 490.78C158.488 491.48 159.048 492.04 159.748 492.04C160.448 492.04 161.008 491.48 161.008 490.78C161.008 490.08 160.448 489.52 159.748 489.52C159.048 489.52 158.488 490.08 158.488 490.78ZM158.848 504H160.648V494.16H158.848V504Z" fill="white"/>
<path d="M163.129 499.08C163.129 501.98 165.349 504.22 168.329 504.22C171.309 504.22 173.529 501.98 173.529 499.08C173.529 496.18 171.309 493.94 168.329 493.94C165.349 493.94 163.129 496.18 163.129 499.08ZM164.929 499.08C164.929 497.1 166.369 495.58 168.329 495.58C170.289 495.58 171.729 497.1 171.729 499.08C171.729 501.06 170.289 502.58 168.329 502.58C166.369 502.58 164.929 501.06 164.929 499.08Z" fill="white"/>
<path d="M176.016 504H177.816V497.26C178.516 496.32 179.776 495.62 180.896 495.62C181.436 495.62 182.076 495.78 182.476 496.26C182.796 496.64 182.936 497.24 182.936 498.26V504H184.736V497.92C184.736 496.4 184.456 495.64 183.916 495.02C183.296 494.32 182.376 493.94 181.296 493.94C179.916 493.94 178.716 494.56 177.856 495.42L177.816 495.4V494.16H176.016V504Z" fill="white"/>
<path d="M192.735 504H194.635V497.34H202.515V504H204.415V489.52H202.515V495.62H194.635V489.52H192.735V504Z" fill="white"/>
<path d="M206.937 499.08C206.937 501.98 209.157 504.22 212.137 504.22C215.117 504.22 217.337 501.98 217.337 499.08C217.337 496.18 215.117 493.94 212.137 493.94C209.157 493.94 206.937 496.18 206.937 499.08ZM208.737 499.08C208.737 497.1 210.177 495.58 212.137 495.58C214.097 495.58 215.537 497.1 215.537 499.08C215.537 501.06 214.097 502.58 212.137 502.58C210.177 502.58 208.737 501.06 208.737 499.08Z" fill="white"/>
<path d="M221.324 503.3C221.964 504.04 222.844 504.22 223.564 504.22C224.244 504.22 224.944 504.06 225.344 503.86V502.16C224.964 502.4 224.384 502.58 223.864 502.58C222.564 502.58 222.384 501.46 222.384 500.24V495.78H225.344V494.16H222.384V491.18L220.584 491.48V494.16H218.764V495.78H220.584V500.58C220.584 501.96 220.844 502.76 221.324 503.3Z" fill="white"/>
<path d="M227.598 504H229.398V488.72H227.598V504Z" fill="white"/>
<path d="M232.199 490.78C232.199 491.48 232.759 492.04 233.459 492.04C234.159 492.04 234.719 491.48 234.719 490.78C234.719 490.08 234.159 489.52 233.459 489.52C232.759 489.52 232.199 490.08 232.199 490.78ZM232.559 504H234.359V494.16H232.559V504Z" fill="white"/>
<path d="M237.519 504H239.319V497.26C240.019 496.32 241.279 495.62 242.399 495.62C242.939 495.62 243.579 495.78 243.979 496.26C244.299 496.64 244.439 497.24 244.439 498.26V504H246.239V497.92C246.239 496.4 245.959 495.64 245.419 495.02C244.799 494.32 243.879 493.94 242.799 493.94C241.419 493.94 240.219 494.56 239.359 495.42L239.319 495.4V494.16H237.519V504Z" fill="white"/>
<path d="M257.995 499.6C258.035 499.36 258.055 499 258.055 498.7C258.055 495.62 255.975 493.94 253.575 493.94C250.935 493.94 248.675 495.98 248.675 499.08C248.675 502.18 250.955 504.22 253.995 504.22C255.275 504.22 256.635 503.86 257.515 503.3V501.38C256.615 502.06 255.475 502.6 254.115 502.6C252.175 502.6 250.735 501.54 250.475 499.6H257.995ZM253.535 495.56C254.715 495.56 256.155 496.22 256.315 498.18H250.515C250.835 496.36 252.235 495.56 253.535 495.56Z" fill="white"/>
<path d="M265.969 504H267.769V495.78H270.289V494.16H267.769V492.02C267.769 490.98 267.989 490.14 269.229 490.14C269.609 490.14 270.249 490.22 270.629 490.32V488.7C270.289 488.6 269.709 488.5 269.149 488.5C268.309 488.5 267.469 488.72 266.849 489.32C266.149 490 265.969 491 265.969 492.28V494.16H264.409V495.78H265.969V504Z" fill="white"/>
<path d="M271.566 499.08C271.566 501.98 273.786 504.22 276.766 504.22C279.746 504.22 281.966 501.98 281.966 499.08C281.966 496.18 279.746 493.94 276.766 493.94C273.786 493.94 271.566 496.18 271.566 499.08ZM273.366 499.08C273.366 497.1 274.806 495.58 276.766 495.58C278.726 495.58 280.166 497.1 280.166 499.08C280.166 501.06 278.726 502.58 276.766 502.58C274.806 502.58 273.366 501.06 273.366 499.08Z" fill="white"/>
<path d="M284.453 504H286.253V497.6C286.873 496.54 287.813 495.86 289.153 495.86C289.373 495.86 289.613 495.88 289.853 495.94V494.16C289.633 494.1 289.413 494.08 289.213 494.08C288.053 494.08 286.973 494.66 286.293 495.62L286.253 495.6V494.16H284.453V504Z" fill="white"/>
<path d="M117.072 516.78C117.072 517.48 117.632 518.04 118.332 518.04C119.032 518.04 119.592 517.48 119.592 516.78C119.592 516.08 119.032 515.52 118.332 515.52C117.632 515.52 117.072 516.08 117.072 516.78ZM117.432 530H119.232V520.16H117.432V530Z" fill="white"/>
<path d="M135.933 530H137.732V523.86C137.732 522.52 137.512 521.64 136.912 520.98C136.312 520.3 135.393 519.94 134.333 519.94C132.973 519.94 131.772 520.52 130.592 521.64C129.992 520.46 128.793 519.94 127.573 519.94C126.213 519.94 125.052 520.56 124.232 521.38L124.192 521.36V520.16H122.393V530H124.192V523.16C124.872 522.34 126.032 521.62 127.192 521.62C127.752 521.62 128.292 521.78 128.692 522.24C129.032 522.64 129.153 523.12 129.153 524.18V530H130.952V523.86C130.952 523.62 130.953 523.38 130.933 523.16C131.613 522.36 132.793 521.62 133.933 521.62C134.453 521.62 135.053 521.78 135.433 522.22C135.793 522.64 135.933 523.24 135.933 524.18V530Z" fill="white"/>
<path d="M154.39 530H156.19V523.86C156.19 522.52 155.97 521.64 155.37 520.98C154.77 520.3 153.85 519.94 152.79 519.94C151.43 519.94 150.23 520.52 149.05 521.64C148.45 520.46 147.25 519.94 146.03 519.94C144.67 519.94 143.51 520.56 142.69 521.38L142.65 521.36V520.16H140.85V530H142.65V523.16C143.33 522.34 144.49 521.62 145.65 521.62C146.21 521.62 146.75 521.78 147.15 522.24C147.49 522.64 147.61 523.12 147.61 524.18V530H149.41V523.86C149.41 523.62 149.41 523.38 149.39 523.16C150.07 522.36 151.25 521.62 152.39 521.62C152.91 521.62 153.51 521.78 153.89 522.22C154.25 522.64 154.39 523.24 154.39 524.18V530Z" fill="white"/>
<path d="M167.947 525.6C167.987 525.36 168.007 525 168.007 524.7C168.007 521.62 165.927 519.94 163.527 519.94C160.887 519.94 158.627 521.98 158.627 525.08C158.627 528.18 160.907 530.22 163.947 530.22C165.227 530.22 166.587 529.86 167.467 529.3V527.38C166.567 528.06 165.427 528.6 164.067 528.6C162.127 528.6 160.687 527.54 160.427 525.6H167.947ZM163.487 521.56C164.667 521.56 166.107 522.22 166.267 524.18H160.467C160.787 522.36 162.187 521.56 163.487 521.56Z" fill="white"/>
<path d="M169.936 525.24C169.936 528.28 172.096 530.22 174.756 530.22C175.936 530.22 176.856 529.84 177.516 529.38L177.556 529.4V530H179.356V514.72H177.556V520.44L177.516 520.46C176.876 520.18 176.136 519.94 175.156 519.94C172.056 519.94 169.936 522.22 169.936 525.24ZM171.756 525.14C171.756 523.12 173.056 521.54 175.136 521.54C176.016 521.54 176.896 521.82 177.556 522.16V527.78C176.856 528.26 175.976 528.62 174.996 528.62C172.976 528.62 171.756 527.1 171.756 525.14Z" fill="white"/>
<path d="M182.15 516.78C182.15 517.48 182.71 518.04 183.41 518.04C184.11 518.04 184.67 517.48 184.67 516.78C184.67 516.08 184.11 515.52 183.41 515.52C182.71 515.52 182.15 516.08 182.15 516.78ZM182.51 530H184.31V520.16H182.51V530Z" fill="white"/>
<path d="M190.191 530.22C191.511 530.22 192.651 529.66 193.211 529.14H193.251C193.631 529.84 194.371 530.18 195.151 530.18C195.531 530.18 195.871 530.1 196.111 530V528.5C195.951 528.58 195.731 528.64 195.531 528.64C194.991 528.64 194.771 528.2 194.771 527.6V523.42C194.771 522.2 194.371 521.36 193.791 520.84C193.091 520.2 192.051 519.94 190.851 519.94C189.391 519.94 188.331 520.32 187.571 520.78V522.54C188.311 522 189.351 521.56 190.591 521.56C191.431 521.56 192.031 521.76 192.411 522.1C192.791 522.46 192.971 523 192.971 523.72V524.54C192.331 524.38 191.631 524.28 190.871 524.28C189.851 524.28 188.851 524.46 188.111 524.94C187.331 525.44 186.811 526.24 186.811 527.34C186.811 528.3 187.211 529.04 187.851 529.52C188.511 530.02 189.391 530.22 190.191 530.22ZM190.511 528.62C189.451 528.62 188.631 528.14 188.631 527.18C188.631 526.02 189.831 525.66 191.051 525.66C191.671 525.66 192.431 525.76 192.971 525.92V527.76C192.371 528.24 191.451 528.62 190.511 528.62Z" fill="white"/>
<path d="M199.615 529.3C200.255 530.04 201.135 530.22 201.855 530.22C202.535 530.22 203.235 530.06 203.635 529.86V528.16C203.255 528.4 202.675 528.58 202.155 528.58C200.855 528.58 200.675 527.46 200.675 526.24V521.78H203.635V520.16H200.675V517.18L198.875 517.48V520.16H197.055V521.78H198.875V526.58C198.875 527.96 199.135 528.76 199.615 529.3Z" fill="white"/>
<path d="M214.294 525.6C214.334 525.36 214.354 525 214.354 524.7C214.354 521.62 212.274 519.94 209.874 519.94C207.234 519.94 204.974 521.98 204.974 525.08C204.974 528.18 207.254 530.22 210.294 530.22C211.574 530.22 212.934 529.86 213.814 529.3V527.38C212.914 528.06 211.774 528.6 210.414 528.6C208.474 528.6 207.034 527.54 206.774 525.6H214.294ZM209.834 521.56C211.014 521.56 212.454 522.22 212.614 524.18H206.814C207.134 522.36 208.534 521.56 209.834 521.56Z" fill="white"/>
<path d="M221.768 530H223.568V523.26C224.308 522.34 225.528 521.62 226.708 521.62C227.328 521.62 227.828 521.82 228.208 522.26C228.548 522.64 228.688 523.16 228.688 524.26V530H230.488V523.92C230.488 522.4 230.207 521.64 229.667 521.02C229.047 520.32 228.128 519.94 227.048 519.94C225.668 519.94 224.467 520.56 223.607 521.42L223.568 521.4V514.72H221.768V530Z" fill="white"/>
<path d="M242.243 525.6C242.283 525.36 242.303 525 242.303 524.7C242.303 521.62 240.223 519.94 237.823 519.94C235.183 519.94 232.923 521.98 232.923 525.08C232.923 528.18 235.203 530.22 238.243 530.22C239.523 530.22 240.883 529.86 241.763 529.3V527.38C240.863 528.06 239.723 528.6 238.363 528.6C236.423 528.6 234.983 527.54 234.723 525.6H242.243ZM237.783 521.56C238.963 521.56 240.403 522.22 240.563 524.18H234.763C235.083 522.36 236.483 521.56 237.783 521.56Z" fill="white"/>
<path d="M244.873 530H246.673V514.72H244.873V530Z" fill="white"/>
<path d="M251.634 529.7L251.674 529.68C252.294 529.98 253.114 530.22 254.094 530.22C256.934 530.22 259.234 528.2 259.234 525.04C259.234 522 257.114 519.94 254.474 519.94C253.314 519.94 252.354 520.34 251.674 520.82L251.634 520.8V520.16H249.834V534.4H251.634V529.7ZM251.634 527.96V522.46C252.334 521.88 253.294 521.56 254.174 521.56C256.134 521.56 257.414 523.18 257.414 525.18C257.414 527.2 256.094 528.64 254.134 528.64C253.174 528.64 252.254 528.3 251.634 527.96Z" fill="white"/>
<path d="M51.0121 549.556C50.0041 548.248 49.2121 546.244 49.2121 543.82C49.2121 541.396 50.0041 539.392 51.0121 538.084H50.3041C49.3801 539.308 48.5641 541.252 48.5641 543.82C48.5641 546.388 49.3801 548.332 50.3041 549.556H51.0121Z" fill="white"/>
<path d="M54.8304 547H55.5624V538.984H58.5504V538.312H51.8424V538.984H54.8304V547Z" fill="white"/>
<path d="M59.9561 547H60.6641V542.68C61.2521 542.068 62.0081 541.624 62.8361 541.624C63.3041 541.624 63.6521 541.768 63.9041 542.044C64.1801 542.332 64.2881 542.716 64.2881 543.46V547H64.9961V543.328C64.9961 542.452 64.8281 541.948 64.4681 541.564C64.1201 541.192 63.6161 540.964 62.9561 540.964C62.0441 540.964 61.2761 541.384 60.6881 541.936L60.6641 541.924V537.832H59.9561V547Z" fill="white"/>
<path d="M67.946 539.044C67.946 538.732 67.706 538.492 67.406 538.492C67.094 538.492 66.854 538.732 66.854 539.032C66.854 539.344 67.094 539.584 67.394 539.584C67.706 539.584 67.946 539.344 67.946 539.044ZM67.046 547H67.754V541.096H67.046V547Z" fill="white"/>
<path d="M69.5107 546.616C70.1107 546.952 70.9267 547.132 71.7067 547.132C73.1347 547.132 74.0827 546.532 74.0827 545.368C74.0827 544.12 72.9907 543.832 71.9227 543.664C71.0347 543.52 70.0747 543.436 70.0747 542.608C70.0747 541.936 70.7107 541.612 71.6347 541.612C72.3667 541.612 73.1587 541.816 73.7827 542.212V541.468C73.2067 541.156 72.4267 540.964 71.6587 540.964C70.3147 540.964 69.3667 541.54 69.3667 542.656C69.3667 543.856 70.4827 544.144 71.4667 544.3C72.3907 544.444 73.3747 544.54 73.3747 545.428C73.3747 546.136 72.7387 546.484 71.7427 546.484C70.9627 546.484 70.1467 546.268 69.5107 545.86V546.616Z" fill="white"/>
<path d="M80.0044 547H80.7364L81.7684 544.144C81.9604 543.616 82.2484 542.8 82.4284 542.272H82.4524C82.6324 542.8 82.9204 543.616 83.1004 544.12L84.1444 547H84.8524L86.9284 541.096H86.1964L85.1524 544.096C84.9484 544.684 84.6964 545.416 84.4924 546.04H84.4684C84.2524 545.416 83.9884 544.672 83.7604 544.048L82.6924 541.096H82.2004L81.1084 544.12C80.8924 544.72 80.6404 545.428 80.4244 546.052H80.4004C80.1844 545.404 79.9444 544.708 79.7284 544.084L78.6844 541.096H77.9284L80.0044 547Z" fill="white"/>
<path d="M89.2272 539.044C89.2272 538.732 88.9872 538.492 88.6872 538.492C88.3752 538.492 88.1352 538.732 88.1352 539.032C88.1352 539.344 88.3752 539.584 88.6752 539.584C88.9872 539.584 89.2272 539.344 89.2272 539.044ZM88.3272 547H89.0352V541.096H88.3272V547Z" fill="white"/>
<path d="M91.128 547H91.836V537.832H91.128V547Z" fill="white"/>
<path d="M93.9288 547H94.6368V537.832H93.9288V547Z" fill="white"/>
<path d="M99.227 544.048C99.227 545.788 100.523 547.132 102.287 547.132C104.051 547.132 105.347 545.788 105.347 544.048C105.347 542.308 104.051 540.964 102.287 540.964C100.523 540.964 99.227 542.308 99.227 544.048ZM99.935 544.048C99.935 542.656 100.943 541.612 102.287 541.612C103.631 541.612 104.639 542.656 104.639 544.048C104.639 545.44 103.631 546.484 102.287 546.484C100.943 546.484 99.935 545.44 99.935 544.048Z" fill="white"/>
<path d="M106.995 547H107.703V542.68C108.279 542.068 109.047 541.624 109.851 541.624C110.295 541.624 110.691 541.756 110.955 542.044C111.219 542.332 111.327 542.752 111.327 543.46V547H112.035V543.328C112.035 542.452 111.867 541.948 111.507 541.564C111.159 541.192 110.655 540.964 109.995 540.964C109.083 540.964 108.315 541.396 107.727 541.936L107.703 541.924V541.096H106.995V547Z" fill="white"/>
<path d="M114.097 547H114.805V537.832H114.097V547Z" fill="white"/>
<path d="M120.018 543.604C119.706 544.264 119.394 544.936 119.106 545.56H119.082C118.794 544.924 118.494 544.276 118.17 543.592L116.994 541.096H116.214L118.71 546.364L117.114 549.64H117.87L121.95 541.096H121.206L120.018 543.604Z" fill="white"/>
<path d="M129.883 546.4C130.051 546.856 130.447 547.096 130.951 547.096C131.155 547.096 131.335 547.06 131.467 547V546.388C131.359 546.448 131.227 546.484 131.083 546.484C130.603 546.484 130.483 546.112 130.483 545.608V543.052C130.483 542.332 130.279 541.804 129.883 541.468C129.487 541.132 128.911 540.952 128.203 540.952C127.459 540.952 126.799 541.18 126.319 541.48V542.188C126.799 541.84 127.435 541.612 128.131 541.612C128.659 541.612 129.067 541.744 129.343 541.984C129.667 542.272 129.775 542.644 129.775 543.22V543.904C129.283 543.772 128.791 543.688 128.251 543.688C127.675 543.688 127.075 543.796 126.631 544.084C126.175 544.384 125.887 544.828 125.887 545.452C125.887 546.004 126.115 546.436 126.499 546.724C126.883 547.012 127.387 547.132 127.891 547.132C128.695 547.132 129.415 546.784 129.859 546.4H129.883ZM129.775 545.8C129.307 546.208 128.659 546.496 127.987 546.496C127.267 546.496 126.607 546.16 126.607 545.392C126.607 544.516 127.471 544.252 128.311 544.252C128.791 544.252 129.319 544.336 129.775 544.468V545.8Z" fill="white"/>
<path d="M137.111 545.92C136.667 546.268 136.067 546.484 135.383 546.484C133.955 546.484 132.935 545.488 132.935 544.072C132.935 542.68 133.919 541.612 135.383 541.612C135.959 541.612 136.511 541.78 137.015 542.092V541.348C136.571 541.12 136.019 540.964 135.407 540.964C133.571 540.964 132.227 542.284 132.227 544.072C132.227 545.824 133.511 547.132 135.347 547.132C135.983 547.132 136.619 546.976 137.111 546.688V545.92Z" fill="white"/>
<path d="M143.216 545.92C142.772 546.268 142.172 546.484 141.488 546.484C140.06 546.484 139.04 545.488 139.04 544.072C139.04 542.68 140.024 541.612 141.488 541.612C142.064 541.612 142.616 541.78 143.12 542.092V541.348C142.676 541.12 142.124 540.964 141.512 540.964C139.676 540.964 138.332 542.284 138.332 544.072C138.332 545.824 139.616 547.132 141.452 547.132C142.088 547.132 142.724 546.976 143.216 546.688V545.92Z" fill="white"/>
<path d="M149.958 544.24C149.97 544.096 149.982 543.916 149.982 543.736C149.982 541.984 148.794 540.964 147.366 540.964C145.77 540.964 144.45 542.224 144.45 544.048C144.45 545.884 145.794 547.132 147.606 547.132C148.338 547.132 149.094 546.916 149.634 546.58V545.812C149.094 546.208 148.446 546.496 147.654 546.496C146.262 546.496 145.266 545.632 145.146 544.24H149.958ZM145.17 543.652C145.362 542.284 146.358 541.6 147.342 541.6C148.134 541.6 149.25 542.068 149.286 543.652H145.17Z" fill="white"/>
<path d="M151.343 546.616C151.943 546.952 152.759 547.132 153.539 547.132C154.967 547.132 155.915 546.532 155.915 545.368C155.915 544.12 154.823 543.832 153.755 543.664C152.867 543.52 151.907 543.436 151.907 542.608C151.907 541.936 152.543 541.612 153.467 541.612C154.199 541.612 154.991 541.816 155.615 542.212V541.468C155.039 541.156 154.259 540.964 153.491 540.964C152.147 540.964 151.199 541.54 151.199 542.656C151.199 543.856 152.315 544.144 153.299 544.3C154.223 544.444 155.207 544.54 155.207 545.428C155.207 546.136 154.571 546.484 153.575 546.484C152.795 546.484 151.979 546.268 151.343 545.86V546.616Z" fill="white"/>
<path d="M157.167 546.616C157.767 546.952 158.583 547.132 159.363 547.132C160.791 547.132 161.739 546.532 161.739 545.368C161.739 544.12 160.647 543.832 159.579 543.664C158.691 543.52 157.731 543.436 157.731 542.608C157.731 541.936 158.367 541.612 159.291 541.612C160.023 541.612 160.815 541.816 161.439 542.212V541.468C160.863 541.156 160.083 540.964 159.315 540.964C157.971 540.964 157.023 541.54 157.023 542.656C157.023 543.856 158.139 544.144 159.123 544.3C160.047 544.444 161.031 544.54 161.031 545.428C161.031 546.136 160.395 546.484 159.399 546.484C158.619 546.484 157.803 546.268 157.167 545.86V546.616Z" fill="white"/>
<path d="M169.389 543.604C169.077 544.264 168.765 544.936 168.477 545.56H168.453C168.165 544.924 167.865 544.276 167.541 543.592L166.365 541.096H165.585L168.081 546.364L166.485 549.64H167.241L171.321 541.096H170.577L169.389 543.604Z" fill="white"/>
<path d="M171.871 544.048C171.871 545.788 173.167 547.132 174.931 547.132C176.695 547.132 177.991 545.788 177.991 544.048C177.991 542.308 176.695 540.964 174.931 540.964C173.167 540.964 171.871 542.308 171.871 544.048ZM172.579 544.048C172.579 542.656 173.587 541.612 174.931 541.612C176.275 541.612 177.283 542.656 177.283 544.048C177.283 545.44 176.275 546.484 174.931 546.484C173.587 546.484 172.579 545.44 172.579 544.048Z" fill="white"/>
<path d="M183.948 546.16V547H184.656V541.096H183.948V545.392C183.384 545.992 182.652 546.484 181.812 546.484C181.368 546.484 180.96 546.34 180.696 546.04C180.42 545.728 180.324 545.26 180.324 544.528V541.096H179.616V544.66C179.616 545.548 179.772 546.1 180.132 546.508C180.504 546.928 181.068 547.132 181.68 547.132C182.604 547.132 183.36 546.688 183.924 546.148L183.948 546.16Z" fill="white"/>
<path d="M186.741 547H187.449V542.872C187.929 542.152 188.553 541.72 189.357 541.72C189.489 541.72 189.621 541.732 189.729 541.756V541.072C189.621 541.048 189.513 541.036 189.381 541.036C188.613 541.036 187.929 541.456 187.473 542.068L187.449 542.056V541.096H186.741V547Z" fill="white"/>
<path d="M202.338 547H203.046V543.292C203.046 542.428 202.89 541.936 202.53 541.552C202.17 541.168 201.642 540.964 201.018 540.964C200.142 540.964 199.362 541.36 198.63 542.056C198.306 541.288 197.562 540.964 196.806 540.964C195.918 540.964 195.198 541.384 194.622 541.912L194.598 541.9V541.096H193.89V547H194.598V542.632C195.15 542.08 195.87 541.624 196.674 541.624C197.118 541.624 197.49 541.756 197.754 542.032C198.03 542.332 198.114 542.728 198.114 543.412V547H198.822V543.292C198.822 543.064 198.81 542.848 198.786 542.656C199.35 542.068 200.106 541.624 200.898 541.624C201.318 541.624 201.714 541.756 201.966 542.032C202.242 542.332 202.338 542.764 202.338 543.412V547Z" fill="white"/>
<path d="M206.005 539.044C206.005 538.732 205.765 538.492 205.465 538.492C205.153 538.492 204.913 538.732 204.913 539.032C204.913 539.344 205.153 539.584 205.453 539.584C205.765 539.584 206.005 539.344 206.005 539.044ZM205.105 547H205.813V541.096H205.105V547Z" fill="white"/>
<path d="M212.345 545.92C211.901 546.268 211.301 546.484 210.617 546.484C209.189 546.484 208.169 545.488 208.169 544.072C208.169 542.68 209.153 541.612 210.617 541.612C211.193 541.612 211.745 541.78 212.249 542.092V541.348C211.805 541.12 211.253 540.964 210.641 540.964C208.805 540.964 207.461 542.284 207.461 544.072C207.461 545.824 208.745 547.132 210.581 547.132C211.217 547.132 211.853 546.976 212.345 546.688V545.92Z" fill="white"/>
<path d="M214.069 547H214.777V542.872C215.257 542.152 215.881 541.72 216.685 541.72C216.817 541.72 216.949 541.732 217.057 541.756V541.072C216.949 541.048 216.841 541.036 216.709 541.036C215.941 541.036 215.257 541.456 214.801 542.068L214.777 542.056V541.096H214.069V547Z" fill="white"/>
<path d="M217.692 544.048C217.692 545.788 218.988 547.132 220.752 547.132C222.516 547.132 223.812 545.788 223.812 544.048C223.812 542.308 222.516 540.964 220.752 540.964C218.988 540.964 217.692 542.308 217.692 544.048ZM218.4 544.048C218.4 542.656 219.408 541.612 220.752 541.612C222.096 541.612 223.104 542.656 223.104 544.048C223.104 545.44 222.096 546.484 220.752 546.484C219.408 546.484 218.4 545.44 218.4 544.048Z" fill="white"/>
<path d="M226.168 546.628L226.192 546.616C226.636 546.904 227.224 547.132 227.944 547.132C229.648 547.132 230.908 545.86 230.908 544.036C230.908 542.248 229.696 540.964 228.052 540.964C227.284 540.964 226.672 541.252 226.192 541.612L226.168 541.6V541.096H225.46V549.64H226.168V546.628ZM226.168 545.896V542.308C226.648 541.852 227.308 541.6 227.956 541.6C229.312 541.6 230.2 542.68 230.2 544.072C230.2 545.488 229.3 546.508 227.944 546.508C227.26 546.508 226.612 546.244 226.168 545.896Z" fill="white"/>
<path d="M232.562 547H233.27V542.68C233.858 542.068 234.614 541.624 235.442 541.624C235.91 541.624 236.258 541.768 236.51 542.044C236.786 542.332 236.894 542.716 236.894 543.46V547H237.602V543.328C237.602 542.452 237.434 541.948 237.074 541.564C236.726 541.192 236.222 540.964 235.562 540.964C234.65 540.964 233.882 541.384 233.294 541.936L233.27 541.924V537.832H232.562V547Z" fill="white"/>
<path d="M239.207 544.048C239.207 545.788 240.503 547.132 242.267 547.132C244.031 547.132 245.327 545.788 245.327 544.048C245.327 542.308 244.031 540.964 242.267 540.964C240.503 540.964 239.207 542.308 239.207 544.048ZM239.915 544.048C239.915 542.656 240.923 541.612 242.267 541.612C243.611 541.612 244.619 542.656 244.619 544.048C244.619 545.44 243.611 546.484 242.267 546.484C240.923 546.484 239.915 545.44 239.915 544.048Z" fill="white"/>
<path d="M246.976 547H247.684V542.68C248.26 542.068 249.028 541.624 249.832 541.624C250.276 541.624 250.672 541.756 250.936 542.044C251.2 542.332 251.308 542.752 251.308 543.46V547H252.016V543.328C252.016 542.452 251.848 541.948 251.488 541.564C251.14 541.192 250.636 540.964 249.976 540.964C249.064 540.964 248.296 541.396 247.708 541.936L247.684 541.924V541.096H246.976V547Z" fill="white"/>
<path d="M259.153 544.24C259.165 544.096 259.177 543.916 259.177 543.736C259.177 541.984 257.989 540.964 256.561 540.964C254.965 540.964 253.645 542.224 253.645 544.048C253.645 545.884 254.989 547.132 256.801 547.132C257.533 547.132 258.289 546.916 258.829 546.58V545.812C258.289 546.208 257.641 546.496 256.849 546.496C255.457 546.496 254.461 545.632 254.341 544.24H259.153ZM254.365 543.652C254.557 542.284 255.553 541.6 256.537 541.6C257.329 541.6 258.445 542.068 258.481 543.652H254.365Z" fill="white"/>
<path d="M264.079 547H264.787V541.72H266.431V541.096H264.787V539.716C264.787 538.9 264.991 538.348 265.879 538.348C266.107 538.348 266.419 538.384 266.623 538.444V537.808C266.431 537.748 266.143 537.7 265.855 537.7C265.411 537.7 264.919 537.82 264.583 538.144C264.199 538.516 264.079 539.068 264.079 539.812V541.096H263.071V541.72H264.079V547Z" fill="white"/>
<path d="M267.215 544.048C267.215 545.788 268.511 547.132 270.275 547.132C272.039 547.132 273.335 545.788 273.335 544.048C273.335 542.308 272.039 540.964 270.275 540.964C268.511 540.964 267.215 542.308 267.215 544.048ZM267.923 544.048C267.923 542.656 268.931 541.612 270.275 541.612C271.619 541.612 272.627 542.656 272.627 544.048C272.627 545.44 271.619 546.484 270.275 546.484C268.931 546.484 267.923 545.44 267.923 544.048Z" fill="white"/>
<path d="M274.983 547H275.691V542.872C276.171 542.152 276.795 541.72 277.599 541.72C277.731 541.72 277.863 541.732 277.971 541.756V541.072C277.863 541.048 277.755 541.036 277.623 541.036C276.855 541.036 276.171 541.456 275.715 542.068L275.691 542.056V541.096H274.983V547Z" fill="white"/>
<path d="M285.168 546.268C284.94 546.4 284.64 546.484 284.328 546.484C283.392 546.484 283.26 545.752 283.26 544.864V541.72H285.168V541.096H283.26V539.32L282.552 539.44V541.096H281.376V541.72H282.552V544.984C282.552 545.752 282.672 546.28 282.972 546.628C283.308 547.012 283.8 547.132 284.232 547.132C284.592 547.132 284.94 547.048 285.168 546.94V546.268Z" fill="white"/>
<path d="M286.597 547H287.305V542.68C287.893 542.068 288.649 541.624 289.477 541.624C289.945 541.624 290.293 541.768 290.545 542.044C290.821 542.332 290.929 542.716 290.929 543.46V547H291.637V543.328C291.637 542.452 291.469 541.948 291.109 541.564C290.761 541.192 290.257 540.964 289.597 540.964C288.685 540.964 287.917 541.384 287.329 541.936L287.305 541.924V537.832H286.597V547Z" fill="white"/>
<path d="M297.251 546.4C297.419 546.856 297.815 547.096 298.319 547.096C298.523 547.096 298.703 547.06 298.835 547V546.388C298.727 546.448 298.595 546.484 298.451 546.484C297.971 546.484 297.851 546.112 297.851 545.608V543.052C297.851 542.332 297.647 541.804 297.251 541.468C296.855 541.132 296.279 540.952 295.571 540.952C294.827 540.952 294.167 541.18 293.687 541.48V542.188C294.167 541.84 294.803 541.612 295.499 541.612C296.027 541.612 296.435 541.744 296.711 541.984C297.035 542.272 297.143 542.644 297.143 543.22V543.904C296.651 543.772 296.159 543.688 295.619 543.688C295.043 543.688 294.443 543.796 293.999 544.084C293.543 544.384 293.255 544.828 293.255 545.452C293.255 546.004 293.483 546.436 293.867 546.724C294.251 547.012 294.755 547.132 295.259 547.132C296.063 547.132 296.783 546.784 297.227 546.4H297.251ZM297.143 545.8C296.675 546.208 296.027 546.496 295.355 546.496C294.635 546.496 293.975 546.16 293.975 545.392C293.975 544.516 294.839 544.252 295.679 544.252C296.159 544.252 296.687 544.336 297.143 544.468V545.8Z" fill="white"/>
<path d="M303.074 546.268C302.846 546.4 302.546 546.484 302.234 546.484C301.298 546.484 301.166 545.752 301.166 544.864V541.72H303.074V541.096H301.166V539.32L300.458 539.44V541.096H299.282V541.72H300.458V544.984C300.458 545.752 300.578 546.28 300.878 546.628C301.214 547.012 301.706 547.132 302.138 547.132C302.498 547.132 302.846 547.048 303.074 546.94V546.268Z" fill="white"/>
<path d="M311.884 545.92C311.44 546.268 310.84 546.484 310.156 546.484C308.728 546.484 307.708 545.488 307.708 544.072C307.708 542.68 308.692 541.612 310.156 541.612C310.732 541.612 311.284 541.78 311.788 542.092V541.348C311.344 541.12 310.792 540.964 310.18 540.964C308.344 540.964 307 542.284 307 544.072C307 545.824 308.284 547.132 310.12 547.132C310.756 547.132 311.392 546.976 311.884 546.688V545.92Z" fill="white"/>
<path d="M317.172 546.4C317.34 546.856 317.736 547.096 318.24 547.096C318.444 547.096 318.624 547.06 318.756 547V546.388C318.648 546.448 318.516 546.484 318.372 546.484C317.892 546.484 317.772 546.112 317.772 545.608V543.052C317.772 542.332 317.568 541.804 317.172 541.468C316.776 541.132 316.2 540.952 315.492 540.952C314.748 540.952 314.088 541.18 313.608 541.48V542.188C314.088 541.84 314.724 541.612 315.42 541.612C315.948 541.612 316.356 541.744 316.632 541.984C316.956 542.272 317.064 542.644 317.064 543.22V543.904C316.572 543.772 316.08 543.688 315.54 543.688C314.964 543.688 314.364 543.796 313.92 544.084C313.464 544.384 313.176 544.828 313.176 545.452C313.176 546.004 313.404 546.436 313.788 546.724C314.172 547.012 314.676 547.132 315.18 547.132C315.984 547.132 316.704 546.784 317.148 546.4H317.172ZM317.064 545.8C316.596 546.208 315.948 546.496 315.276 546.496C314.556 546.496 313.896 546.16 313.896 545.392C313.896 544.516 314.76 544.252 315.6 544.252C316.08 544.252 316.608 544.336 317.064 544.468V545.8Z" fill="white"/>
<path d="M319.96 547H320.668V537.832H319.96V547Z" fill="white"/>
<path d="M322.761 547H323.469V537.832H322.761V547Z" fill="white"/>
<path d="M324.986 538.084C325.994 539.392 326.786 541.396 326.786 543.82C326.786 546.244 325.994 548.248 324.986 549.556H325.694C326.618 548.332 327.434 546.388 327.434 543.82C327.434 541.252 326.618 539.308 325.694 538.084H324.986Z" fill="white"/>
<path d="M111.627 384H114.807V378.06H119.967V375.42H114.807V372.3H120.807V369.52H111.627V384Z" fill="white"/>
<path d="M124.69 379.08C124.69 377.68 125.75 376.56 127.13 376.56C128.51 376.56 129.57 377.68 129.57 379.08C129.57 380.48 128.51 381.6 127.13 381.6C125.75 381.6 124.69 380.48 124.69 379.08ZM121.65 379.08C121.65 381.98 123.99 384.22 127.13 384.22C130.27 384.22 132.61 381.98 132.61 379.08C132.61 376.18 130.27 373.94 127.13 373.94C123.99 373.94 121.65 376.18 121.65 379.08Z" fill="white"/>
<path d="M134.516 384H137.556V378.04C138.276 377.2 139.156 376.88 140.216 376.88C140.496 376.88 140.796 376.92 141.036 376.98V374.12C140.816 374.06 140.596 374.04 140.396 374.04C139.176 374.04 138.216 374.54 137.536 375.5L137.496 375.48V374.16H134.516V384Z" fill="white"/>
<path d="M147.349 384H156.509V381.22H150.529V377.78H155.489V375.14H150.529V372.3H156.289V369.52H147.349V384Z" fill="white"/>
<path d="M171.22 384H174.26V377.82C174.26 376.42 173.98 375.56 173.36 374.92C172.78 374.32 171.92 373.94 170.82 373.94C169.58 373.94 168.42 374.4 167.36 375.34C166.78 374.36 165.56 373.94 164.5 373.94C163.3 373.94 162.3 374.42 161.54 375.06L161.5 375.04V374.16H158.5V384H161.54V377.36C162.04 376.94 162.76 376.56 163.46 376.56C163.86 376.56 164.22 376.68 164.5 376.98C164.76 377.26 164.86 377.66 164.86 378.32V384H167.9V377.82C167.9 377.68 167.9 377.52 167.88 377.38C168.4 376.92 169.12 376.56 169.82 376.56C170.22 376.56 170.58 376.68 170.86 376.98C171.1 377.24 171.22 377.58 171.22 378.32V384Z" fill="white"/>
<path d="M185.922 379.88C185.962 379.62 185.982 379.18 185.982 378.84C185.982 375.54 183.702 373.94 181.282 373.94C178.562 373.94 176.122 375.98 176.122 379.12C176.122 382.2 178.462 384.22 181.702 384.22C183.002 384.22 184.482 383.92 185.442 383.32V380.78C184.402 381.48 183.202 381.86 182.102 381.86C180.702 381.86 179.582 381.24 179.242 379.88H185.922ZM179.222 377.96C179.482 376.84 180.302 376.26 181.242 376.26C182.222 376.26 183.002 376.9 183.182 377.96H179.222Z" fill="white"/>
<path d="M187.953 384H190.993V378.04C191.713 377.2 192.593 376.88 193.653 376.88C193.933 376.88 194.233 376.92 194.473 376.98V374.12C194.253 374.06 194.033 374.04 193.833 374.04C192.613 374.04 191.653 374.54 190.973 375.5L190.933 375.48V374.16H187.953V384Z" fill="white"/>
<path d="M196.683 387.9C197.543 388.32 198.783 388.62 200.043 388.62C203.183 388.62 205.303 386.9 205.303 383.8V374.08L202.923 374.5C202.223 374.16 201.403 373.94 200.463 373.94C197.403 373.94 195.343 376.2 195.343 379.08C195.343 382.06 197.543 383.9 199.923 383.9C200.743 383.9 201.643 383.66 202.223 383.24L202.263 383.26V383.8C202.263 385.26 201.343 386.02 199.863 386.02C198.823 386.02 197.683 385.64 196.683 385.02V387.9ZM202.263 381C201.843 381.26 201.263 381.42 200.723 381.42C199.303 381.42 198.423 380.4 198.423 378.96C198.423 377.68 199.183 376.52 200.763 376.52C201.303 376.52 201.883 376.68 202.263 376.88V381Z" fill="white"/>
<path d="M217.036 379.88C217.076 379.62 217.096 379.18 217.096 378.84C217.096 375.54 214.816 373.94 212.396 373.94C209.676 373.94 207.236 375.98 207.236 379.12C207.236 382.2 209.576 384.22 212.816 384.22C214.116 384.22 215.596 383.92 216.556 383.32V380.78C215.516 381.48 214.316 381.86 213.216 381.86C211.816 381.86 210.696 381.24 210.356 379.88H217.036ZM210.336 377.96C210.596 376.84 211.416 376.26 212.356 376.26C213.336 376.26 214.116 376.9 214.296 377.96H210.336Z" fill="white"/>
<path d="M219.067 384H222.107V377.38C222.647 376.96 223.387 376.56 224.167 376.56C224.587 376.56 224.947 376.68 225.207 376.98C225.447 377.26 225.547 377.62 225.547 378.36V384H228.587V377.86C228.587 376.44 228.327 375.58 227.727 374.94C227.107 374.3 226.187 373.94 225.147 373.94C223.907 373.94 222.867 374.46 222.107 375.08L222.067 375.06V374.16H219.067V384Z" fill="white"/>
<path d="M239.159 380.66C238.339 381.28 237.239 381.64 236.279 381.64C234.639 381.64 233.499 380.58 233.499 379.08C233.499 377.6 234.619 376.5 236.239 376.5C237.179 376.5 238.139 376.86 239.019 377.42V374.6C238.219 374.2 237.199 373.94 236.099 373.94C233.019 373.94 230.459 376 230.459 379.1C230.459 382.06 232.779 384.22 235.939 384.22C237.059 384.22 238.219 383.98 239.159 383.46V380.66Z" fill="white"/>
<path d="M241.053 371.04C241.053 372 241.853 372.78 242.813 372.78C243.773 372.78 244.573 372 244.573 371.04C244.573 370.08 243.773 369.3 242.813 369.3C241.853 369.3 241.053 370.08 241.053 371.04ZM241.293 384H244.333V374.16H241.293V384Z" fill="white"/>
<path d="M256.04 379.88C256.08 379.62 256.1 379.18 256.1 378.84C256.1 375.54 253.82 373.94 251.4 373.94C248.68 373.94 246.24 375.98 246.24 379.12C246.24 382.2 248.58 384.22 251.82 384.22C253.12 384.22 254.6 383.92 255.56 383.32V380.78C254.52 381.48 253.32 381.86 252.22 381.86C250.82 381.86 249.7 381.24 249.36 379.88H256.04ZM249.34 377.96C249.6 376.84 250.42 376.26 251.36 376.26C252.34 376.26 253.12 376.9 253.3 377.96H249.34Z" fill="white"/>
<path d="M257.791 383.4C258.971 383.98 260.491 384.22 261.671 384.22C264.191 384.22 266.071 383.04 266.091 380.88C266.091 379.18 264.951 378.46 263.071 378C261.611 377.64 260.551 377.7 260.551 376.98C260.551 376.52 261.031 376.28 261.831 376.28C262.711 376.28 264.231 376.6 265.531 377.34V374.72C264.411 374.18 262.951 373.94 261.771 373.94C259.331 373.94 257.491 375.12 257.471 377.2C257.471 378.82 258.571 379.6 260.431 380.06C261.911 380.44 263.011 380.36 263.011 381.12C263.011 381.66 262.511 381.88 261.671 381.88C260.731 381.88 259.151 381.54 257.791 380.74V383.4Z" fill="white"/>
<g filter="url(#filter1_d)">
<path d="M68 626C68 621.582 71.5817 618 76 618H299C303.418 618 307 621.582 307 626V660C307 664.418 303.418 668 299 668H76C71.5817 668 68 664.418 68 660V626Z" fill="#0073CB"/>
</g>
<path d="M126.521 648H130.606C132.069 648 133.247 647.829 134.197 647.468C135.945 646.803 136.819 645.549 136.819 643.858C136.819 642.167 135.945 641.027 134.197 640.514V640.476C135.451 640.02 136.268 639.165 136.268 637.683C136.268 636.543 135.774 635.612 134.71 635.023C133.779 634.51 132.392 634.244 130.53 634.244H126.521V648ZM129.542 639.944V636.828H130.473C131.271 636.828 132.107 636.885 132.601 637.17C133.114 637.455 133.247 637.93 133.247 638.367C133.247 639.488 132.373 639.944 131.138 639.944H129.542ZM129.542 645.416V642.015H131.347C132.962 642.015 133.798 642.566 133.798 643.763C133.798 644.371 133.589 644.884 132.943 645.15C132.487 645.34 131.746 645.416 130.663 645.416H129.542Z" fill="white"/>
<path d="M147.32 644.086C147.358 643.839 147.377 643.421 147.377 643.098C147.377 639.963 145.211 638.443 142.912 638.443C140.328 638.443 138.01 640.381 138.01 643.364C138.01 646.29 140.233 648.209 143.311 648.209C144.546 648.209 145.952 647.924 146.864 647.354V644.941C145.876 645.606 144.736 645.967 143.691 645.967C142.361 645.967 141.297 645.378 140.974 644.086H147.32ZM140.955 642.262C141.202 641.198 141.981 640.647 142.874 640.647C143.805 640.647 144.546 641.255 144.717 642.262H140.955Z" fill="white"/>
<path d="M150.01 651.705C150.827 652.104 152.005 652.389 153.202 652.389C156.185 652.389 158.199 650.755 158.199 647.81V638.576L155.938 638.975C155.273 638.652 154.494 638.443 153.601 638.443C150.694 638.443 148.737 640.59 148.737 643.326C148.737 646.157 150.827 647.905 153.088 647.905C153.867 647.905 154.722 647.677 155.273 647.278L155.311 647.297V647.81C155.311 649.197 154.437 649.919 153.031 649.919C152.043 649.919 150.96 649.558 150.01 648.969V651.705ZM155.311 645.15C154.912 645.397 154.361 645.549 153.848 645.549C152.499 645.549 151.663 644.58 151.663 643.212C151.663 641.996 152.385 640.894 153.886 640.894C154.399 640.894 154.95 641.046 155.311 641.236V645.15Z" fill="white"/>
<path d="M160.396 635.688C160.396 636.6 161.156 637.341 162.068 637.341C162.98 637.341 163.74 636.6 163.74 635.688C163.74 634.776 162.98 634.035 162.068 634.035C161.156 634.035 160.396 634.776 160.396 635.688ZM160.624 648H163.512V638.652H160.624V648Z" fill="white"/>
<path d="M165.912 648H168.8V641.711C169.313 641.312 170.016 640.932 170.757 640.932C171.156 640.932 171.498 641.046 171.745 641.331C171.973 641.597 172.068 641.939 172.068 642.642V648H174.956V642.167C174.956 640.818 174.709 640.001 174.139 639.393C173.55 638.785 172.676 638.443 171.688 638.443C170.51 638.443 169.522 638.937 168.8 639.526L168.762 639.507V638.652H165.912V648Z" fill="white"/>
<path d="M185.191 648H188.231L193.475 634.244H190.378L188.117 640.267C187.642 641.54 187.186 642.775 186.749 644.029H186.711C186.293 642.794 185.837 641.521 185.381 640.286L183.177 634.244H179.928L185.191 648Z" fill="white"/>
<path d="M201.76 644.086C201.798 643.839 201.817 643.421 201.817 643.098C201.817 639.963 199.651 638.443 197.352 638.443C194.768 638.443 192.45 640.381 192.45 643.364C192.45 646.29 194.673 648.209 197.751 648.209C198.986 648.209 200.392 647.924 201.304 647.354V644.941C200.316 645.606 199.176 645.967 198.131 645.967C196.801 645.967 195.737 645.378 195.414 644.086H201.76ZM195.395 642.262C195.642 641.198 196.421 640.647 197.314 640.647C198.245 640.647 198.986 641.255 199.157 642.262H195.395Z" fill="white"/>
<path d="M203.689 648H206.577V641.711C207.09 641.312 207.793 640.932 208.534 640.932C208.933 640.932 209.275 641.046 209.522 641.331C209.75 641.597 209.845 641.939 209.845 642.642V648H212.733V642.167C212.733 640.818 212.486 640.001 211.916 639.393C211.327 638.785 210.453 638.443 209.465 638.443C208.287 638.443 207.299 638.937 206.577 639.526L206.539 639.507V638.652H203.689V648Z" fill="white"/>
<path d="M221.143 645.397C220.763 645.587 220.231 645.777 219.756 645.777C218.882 645.777 218.673 645.093 218.673 644.181V641.046H221.143V638.652H218.673V635.726L215.785 636.22V638.652H214.265V641.046H215.785V644.485C215.785 645.967 216.108 646.746 216.602 647.278C217.191 647.905 218.084 648.209 219.034 648.209C219.851 648.209 220.706 647.981 221.143 647.696V645.397Z" fill="white"/>
<path d="M222.647 635.688C222.647 636.6 223.407 637.341 224.319 637.341C225.231 637.341 225.991 636.6 225.991 635.688C225.991 634.776 225.231 634.035 224.319 634.035C223.407 634.035 222.647 634.776 222.647 635.688ZM222.875 648H225.763V638.652H222.875V648Z" fill="white"/>
<path d="M228.163 648H231.051V641.711C231.564 641.312 232.267 640.932 233.008 640.932C233.407 640.932 233.749 641.046 233.996 641.331C234.224 641.597 234.319 641.939 234.319 642.642V648H237.207V642.167C237.207 640.818 236.96 640.001 236.39 639.393C235.801 638.785 234.927 638.443 233.939 638.443C232.761 638.443 231.773 638.937 231.051 639.526L231.013 639.507V638.652H228.163V648Z" fill="white"/>
<path d="M240.315 651.705C241.132 652.104 242.31 652.389 243.507 652.389C246.49 652.389 248.504 650.755 248.504 647.81V638.576L246.243 638.975C245.578 638.652 244.799 638.443 243.906 638.443C240.999 638.443 239.042 640.59 239.042 643.326C239.042 646.157 241.132 647.905 243.393 647.905C244.172 647.905 245.027 647.677 245.578 647.278L245.616 647.297V647.81C245.616 649.197 244.742 649.919 243.336 649.919C242.348 649.919 241.265 649.558 240.315 648.969V651.705ZM245.616 645.15C245.217 645.397 244.666 645.549 244.153 645.549C242.804 645.549 241.968 644.58 241.968 643.212C241.968 641.996 242.69 640.894 244.191 640.894C244.704 640.894 245.255 641.046 245.616 641.236V645.15Z" fill="white"/>
<path d="M155 775C158.314 775 161 772.314 161 769C161 765.686 158.314 763 155 763C151.686 763 149 765.686 149 769C149 772.314 151.686 775 155 775Z" fill="white"/>
<path d="M188 775C191.314 775 194 772.314 194 769C194 765.686 191.314 763 188 763C184.686 763 182 765.686 182 769C182 772.314 184.686 775 188 775Z" fill="white"/>
<path d="M221 775C224.314 775 227 772.314 227 769C227 765.686 224.314 763 221 763C217.686 763 215 765.686 215 769C215 772.314 217.686 775 221 775Z" fill="#2B2B2B"/>
</g>
<defs>
<filter id="filter0_dd" x="142" y="183" width="92" height="98" filterUnits="userSpaceOnUse" color-interpolation-filters="sRGB">
<feFlood flood-opacity="0" result="BackgroundImageFix"/>
<feColorMatrix in="SourceAlpha" type="matrix" values="0 0 0 0 0 0 0 0 0 0 0 0 0 0 0 0 0 0 127 0"/>
<feOffset dy="6"/>
<feGaussianBlur stdDeviation="3"/>
<feColorMatrix type="matrix" values="0 0 0 0 0 0 0 0 0 0 0 0 0 0 0 0 0 0 0.24 0"/>
<feBlend mode="normal" in2="BackgroundImageFix" result="effect1_dropShadow"/>
<feColorMatrix in="SourceAlpha" type="matrix" values="0 0 0 0 0 0 0 0 0 0 0 0 0 0 0 0 0 0 127 0"/>
<feOffset/>
<feGaussianBlur stdDeviation="3"/>
<feColorMatrix type="matrix" values="0 0 0 0 0 0 0 0 0 0 0 0 0 0 0 0 0 0 0.12 0"/>
<feBlend mode="normal" in2="effect1_dropShadow" result="effect2_dropShadow"/>
<feBlend mode="normal" in="SourceGraphic" in2="effect2_dropShadow" result="shape"/>
</filter>
<filter id="filter1_d" x="59" y="612" width="257" height="68" filterUnits="userSpaceOnUse" color-interpolation-filters="sRGB">
<feFlood flood-opacity="0" result="BackgroundImageFix"/>
<feColorMatrix in="SourceAlpha" type="matrix" values="0 0 0 0 0 0 0 0 0 0 0 0 0 0 0 0 0 0 127 0"/>
<feOffset dy="3"/>
<feGaussianBlur stdDeviation="4.5"/>
<feColorMatrix type="matrix" values="0 0 0 0 0 0 0 0 0 0 0 0 0 0 0 0 0 0 0.5 0"/>
<feBlend mode="normal" in2="BackgroundImageFix" result="effect1_dropShadow"/>
<feBlend mode="normal" in="SourceGraphic" in2="effect1_dropShadow" result="shape"/>
</filter>
<linearGradient id="paint0_linear" x1="104.403" y1="133.795" x2="564.098" y2="495.531" gradientUnits="userSpaceOnUse">
<stop stop-color="#05A8FF"/>
<stop offset="1" stop-color="#24BDFF"/>
</linearGradient>
<linearGradient id="paint1_linear" x1="148.391" y1="189" x2="148.391" y2="268.217" gradientUnits="userSpaceOnUse">
<stop stop-opacity="0.01"/>
<stop offset="0.8" stop-opacity="0.02"/>
<stop offset="1" stop-opacity="0.04"/>
</linearGradient>
<linearGradient id="paint2_linear" x1="148" y1="189" x2="148" y2="269" gradientUnits="userSpaceOnUse">
<stop stop-color="white" stop-opacity="0.12"/>
<stop offset="0.2" stop-color="white" stop-opacity="0.06"/>
<stop offset="1" stop-color="white" stop-opacity="0.01"/>
</linearGradient>
<clipPath id="clip0">
<rect width="375" height="812" fill="white"/>
</clipPath>
</defs>
</svg>
