<svg width="375" height="812" viewBox="0 0 375 812" fill="none" xmlns="http://www.w3.org/2000/svg">
<g clip-path="url(#clip0)">
<rect width="375" height="812" fill="url(#paint0_linear)"/>
<path opacity="0.5" d="M228 110C228 373.992 10.1865 588 -258.5 588C-527.187 588 -745 373.992 -745 110C-745 -153.992 -527.187 -368 -258.5 -368C10.1865 -368 228 -153.992 228 110Z" fill="#33C2FF"/>
<path d="M155 764C158.314 764 161 761.314 161 758C161 754.686 158.314 752 155 752C151.686 752 149 754.686 149 758C149 761.314 151.686 764 155 764Z" fill="white"/>
<path d="M188 764C191.314 764 194 761.314 194 758C194 754.686 191.314 752 188 752C184.686 752 182 754.686 182 758C182 761.314 184.686 764 188 764Z" fill="#363636"/>
<path d="M221 764C224.314 764 227 761.314 227 758C227 754.686 224.314 752 221 752C217.686 752 215 754.686 215 758C215 761.314 217.686 764 221 764Z" fill="white"/>
<g filter="url(#filter0_dd)">
<path fill-rule="evenodd" clip-rule="evenodd" d="M188 269C210.091 269 228 251.091 228 229C228 206.909 210.091 189 188 189C165.909 189 148 206.909 148 229C148 251.091 165.909 269 188 269Z" fill="#FF5722"/>
</g>
<mask id="mask0" mask-type="alpha" maskUnits="userSpaceOnUse" x="148" y="189" width="80" height="80">
<path fill-rule="evenodd" clip-rule="evenodd" d="M188 269C210.091 269 228 251.091 228 229C228 206.909 210.091 189 188 189C165.909 189 148 206.909 148 229C148 251.091 165.909 269 188 269Z" fill="white"/>
</mask>
<g mask="url(#mask0)">
<path opacity="0.54" fill-rule="evenodd" clip-rule="evenodd" d="M193.66 227.298L193.677 216.226C193.677 213.167 191.2 210.69 188.143 210.69C185.087 210.69 182.607 213.167 182.607 216.226V227.298C182.607 230.353 185.087 232.833 188.143 232.833C191.2 232.833 193.66 230.353 193.66 227.298ZM197.921 227.298C197.921 232.833 193.239 236.708 188.143 236.708C183.048 236.708 178.363 232.833 178.363 227.298H175.226C175.226 233.599 180.243 238.799 186.298 239.694V245.75H189.988V239.694C196.039 238.799 201.059 233.599 201.059 227.298H197.921V227.298Z" fill="black"/>
<path d="M224.052 204.532L227.052 209.729L151.708 253.229L148.708 248.032L224.052 204.532Z" fill="white"/>
<path fill-rule="evenodd" clip-rule="evenodd" d="M224.419 203.166L228.419 210.095L151.342 254.595L147.342 247.666L224.419 203.166ZM224.053 204.532L148.708 248.032L151.708 253.229L227.053 209.729L224.053 204.532Z" fill="white"/>
</g>
<path d="M59.0307 424.06L62.1907 419.54C62.8507 418.6 63.4907 417.64 64.1307 416.68L64.1707 416.7C64.1507 417.56 64.1307 418.66 64.1307 419.84V428H66.0307V413.52H64.2107L59.0707 420.88L53.9307 413.52H52.0907V428H53.9307V419.84C53.9307 418.66 53.9107 417.56 53.8907 416.7L53.9307 416.68C54.5707 417.64 55.2107 418.6 55.8707 419.54L59.0307 424.06Z" fill="white"/>
<path d="M71.9582 428.22C73.2782 428.22 74.4182 427.66 74.9782 427.14H75.0182C75.3982 427.84 76.1382 428.18 76.9182 428.18C77.2982 428.18 77.6382 428.1 77.8782 428V426.5C77.7182 426.58 77.4982 426.64 77.2982 426.64C76.7582 426.64 76.5382 426.2 76.5382 425.6V421.42C76.5382 420.2 76.1382 419.36 75.5582 418.84C74.8582 418.2 73.8182 417.94 72.6182 417.94C71.1582 417.94 70.0982 418.32 69.3382 418.78V420.54C70.0782 420 71.1182 419.56 72.3582 419.56C73.1982 419.56 73.7982 419.76 74.1782 420.1C74.5582 420.46 74.7382 421 74.7382 421.72V422.54C74.0982 422.38 73.3982 422.28 72.6382 422.28C71.6182 422.28 70.6182 422.46 69.8782 422.94C69.0982 423.44 68.5782 424.24 68.5782 425.34C68.5782 426.3 68.9782 427.04 69.6182 427.52C70.2782 428.02 71.1582 428.22 71.9582 428.22ZM72.2782 426.62C71.2182 426.62 70.3982 426.14 70.3982 425.18C70.3982 424.02 71.5982 423.66 72.8182 423.66C73.4382 423.66 74.1982 423.76 74.7382 423.92V425.76C74.1382 426.24 73.2182 426.62 72.2782 426.62Z" fill="white"/>
<path d="M79.8828 428H81.6828V422.68L81.7228 422.66L86.5428 428H88.9028L83.9228 422.56L88.4228 418.16H86.1228L81.7228 422.5L81.6828 422.48V412.72H79.8828V428Z" fill="white"/>
<path d="M98.2103 423.6C98.2503 423.36 98.2703 423 98.2703 422.7C98.2703 419.62 96.1903 417.94 93.7903 417.94C91.1503 417.94 88.8903 419.98 88.8903 423.08C88.8903 426.18 91.1703 428.22 94.2103 428.22C95.4903 428.22 96.8503 427.86 97.7303 427.3V425.38C96.8303 426.06 95.6903 426.6 94.3303 426.6C92.3903 426.6 90.9503 425.54 90.6903 423.6H98.2103ZM93.7503 419.56C94.9303 419.56 96.3703 420.22 96.5303 422.18H90.7303C91.0503 420.36 92.4503 419.56 93.7503 419.56Z" fill="white"/>
<path d="M108.404 428.22C109.724 428.22 110.864 427.66 111.424 427.14H111.464C111.844 427.84 112.584 428.18 113.364 428.18C113.744 428.18 114.084 428.1 114.324 428V426.5C114.164 426.58 113.944 426.64 113.744 426.64C113.204 426.64 112.984 426.2 112.984 425.6V421.42C112.984 420.2 112.584 419.36 112.004 418.84C111.304 418.2 110.264 417.94 109.064 417.94C107.604 417.94 106.544 418.32 105.784 418.78V420.54C106.524 420 107.564 419.56 108.804 419.56C109.644 419.56 110.244 419.76 110.624 420.1C111.004 420.46 111.184 421 111.184 421.72V422.54C110.544 422.38 109.844 422.28 109.084 422.28C108.064 422.28 107.064 422.46 106.324 422.94C105.544 423.44 105.024 424.24 105.024 425.34C105.024 426.3 105.424 427.04 106.064 427.52C106.724 428.02 107.604 428.22 108.404 428.22ZM108.724 426.62C107.664 426.62 106.844 426.14 106.844 425.18C106.844 424.02 108.044 423.66 109.264 423.66C109.884 423.66 110.644 423.76 111.184 423.92V425.76C110.584 426.24 109.664 426.62 108.724 426.62Z" fill="white"/>
<path d="M128.772 425.62C128.032 426.2 127.052 426.58 125.932 426.58C123.812 426.58 122.312 425.16 122.312 423.14C122.312 421.16 123.732 419.58 125.872 419.58C126.832 419.58 127.792 419.9 128.612 420.42V418.56C127.912 418.2 126.972 417.94 125.952 417.94C122.892 417.94 120.492 420.1 120.492 423.14C120.492 426.06 122.712 428.22 125.832 428.22C126.832 428.22 127.932 428 128.772 427.54V425.62Z" fill="white"/>
<path d="M134.087 428.22C135.407 428.22 136.547 427.66 137.107 427.14H137.147C137.527 427.84 138.267 428.18 139.047 428.18C139.427 428.18 139.767 428.1 140.007 428V426.5C139.847 426.58 139.627 426.64 139.427 426.64C138.887 426.64 138.667 426.2 138.667 425.6V421.42C138.667 420.2 138.267 419.36 137.687 418.84C136.987 418.2 135.947 417.94 134.747 417.94C133.287 417.94 132.227 418.32 131.467 418.78V420.54C132.207 420 133.247 419.56 134.487 419.56C135.327 419.56 135.927 419.76 136.307 420.1C136.687 420.46 136.867 421 136.867 421.72V422.54C136.227 422.38 135.527 422.28 134.767 422.28C133.747 422.28 132.747 422.46 132.007 422.94C131.227 423.44 130.707 424.24 130.707 425.34C130.707 426.3 131.107 427.04 131.747 427.52C132.407 428.02 133.287 428.22 134.087 428.22ZM134.407 426.62C133.347 426.62 132.527 426.14 132.527 425.18C132.527 424.02 133.727 423.66 134.947 423.66C135.567 423.66 136.327 423.76 136.867 423.92V425.76C136.267 426.24 135.347 426.62 134.407 426.62Z" fill="white"/>
<path d="M142.012 428H143.812V412.72H142.012V428Z" fill="white"/>
<path d="M146.973 428H148.773V412.72H146.973V428Z" fill="white"/>
<path d="M159.497 428.22C160.817 428.22 161.957 427.66 162.517 427.14H162.557C162.937 427.84 163.677 428.18 164.457 428.18C164.837 428.18 165.177 428.1 165.417 428V426.5C165.257 426.58 165.037 426.64 164.837 426.64C164.297 426.64 164.077 426.2 164.077 425.6V421.42C164.077 420.2 163.677 419.36 163.097 418.84C162.397 418.2 161.357 417.94 160.157 417.94C158.697 417.94 157.637 418.32 156.877 418.78V420.54C157.617 420 158.657 419.56 159.897 419.56C160.737 419.56 161.337 419.76 161.717 420.1C162.097 420.46 162.277 421 162.277 421.72V422.54C161.637 422.38 160.937 422.28 160.177 422.28C159.157 422.28 158.157 422.46 157.417 422.94C156.637 423.44 156.117 424.24 156.117 425.34C156.117 426.3 156.517 427.04 157.157 427.52C157.817 428.02 158.697 428.22 159.497 428.22ZM159.817 426.62C158.757 426.62 157.937 426.14 157.937 425.18C157.937 424.02 159.137 423.66 160.357 423.66C160.977 423.66 161.737 423.76 162.277 423.92V425.76C161.677 426.24 160.757 426.62 159.817 426.62Z" fill="white"/>
<path d="M167.422 428H169.222V421.26C169.922 420.32 171.182 419.62 172.302 419.62C172.842 419.62 173.482 419.78 173.882 420.26C174.202 420.64 174.342 421.24 174.342 422.26V428H176.142V421.92C176.142 420.4 175.862 419.64 175.322 419.02C174.702 418.32 173.782 417.94 172.702 417.94C171.322 417.94 170.122 418.56 169.262 419.42L169.222 419.4V418.16H167.422V428Z" fill="white"/>
<path d="M178.618 423.24C178.618 426.28 180.778 428.22 183.438 428.22C184.618 428.22 185.538 427.84 186.198 427.38L186.238 427.4V428H188.038V412.72H186.238V418.44L186.198 418.46C185.558 418.18 184.818 417.94 183.838 417.94C180.738 417.94 178.618 420.22 178.618 423.24ZM180.438 423.14C180.438 421.12 181.738 419.54 183.818 419.54C184.698 419.54 185.578 419.82 186.238 420.16V425.78C185.538 426.26 184.658 426.62 183.678 426.62C181.658 426.62 180.438 425.1 180.438 423.14Z" fill="white"/>
<path d="M196.035 428H197.835V421.26C198.575 420.34 199.795 419.62 200.975 419.62C201.595 419.62 202.095 419.82 202.475 420.26C202.815 420.64 202.955 421.16 202.955 422.26V428H204.755V421.92C204.755 420.4 204.475 419.64 203.935 419.02C203.315 418.32 202.395 417.94 201.315 417.94C199.935 417.94 198.735 418.56 197.875 419.42L197.835 419.4V412.72H196.035V428Z" fill="white"/>
<path d="M210.591 428.22C211.911 428.22 213.051 427.66 213.611 427.14H213.651C214.031 427.84 214.771 428.18 215.551 428.18C215.931 428.18 216.271 428.1 216.511 428V426.5C216.351 426.58 216.131 426.64 215.931 426.64C215.391 426.64 215.171 426.2 215.171 425.6V421.42C215.171 420.2 214.771 419.36 214.191 418.84C213.491 418.2 212.451 417.94 211.251 417.94C209.791 417.94 208.731 418.32 207.971 418.78V420.54C208.711 420 209.751 419.56 210.991 419.56C211.831 419.56 212.431 419.76 212.811 420.1C213.191 420.46 213.371 421 213.371 421.72V422.54C212.731 422.38 212.031 422.28 211.271 422.28C210.251 422.28 209.251 422.46 208.511 422.94C207.731 423.44 207.211 424.24 207.211 425.34C207.211 426.3 207.611 427.04 208.251 427.52C208.911 428.02 209.791 428.22 210.591 428.22ZM210.911 426.62C209.851 426.62 209.031 426.14 209.031 425.18C209.031 424.02 210.231 423.66 211.451 423.66C212.071 423.66 212.831 423.76 213.371 423.92V425.76C212.771 426.24 211.851 426.62 210.911 426.62Z" fill="white"/>
<path d="M218.516 428H220.316V421.26C221.016 420.32 222.276 419.62 223.396 419.62C223.936 419.62 224.576 419.78 224.976 420.26C225.296 420.64 225.436 421.24 225.436 422.26V428H227.236V421.92C227.236 420.4 226.956 419.64 226.416 419.02C225.796 418.32 224.876 417.94 223.796 417.94C222.416 417.94 221.216 418.56 220.356 419.42L220.316 419.4V418.16H218.516V428Z" fill="white"/>
<path d="M231.012 431.88C231.832 432.3 232.932 432.62 234.132 432.62C237.152 432.62 239.072 430.84 239.072 427.96V418.2L237.331 418.5C236.671 418.18 235.851 417.94 234.831 417.94C231.631 417.94 229.732 420.32 229.732 423.1C229.732 426 231.871 428.02 234.551 428.02C235.591 428.02 236.552 427.72 237.232 427.26L237.271 427.28V428C237.271 429.86 236.012 430.98 234.132 430.98C233.032 430.98 231.952 430.58 231.012 429.96V431.88ZM231.551 422.98C231.551 421.06 232.812 419.54 234.792 419.54C235.692 419.54 236.651 419.84 237.271 420.22V425.64C236.671 426.12 235.711 426.44 234.811 426.44C232.871 426.44 231.551 424.96 231.551 422.98Z" fill="white"/>
<path d="M247.85 427.12C248.51 427.88 249.53 428.22 250.53 428.22C251.89 428.22 253.07 427.6 253.93 426.74L253.97 426.76V428H255.77V418.16H253.97V424.88C253.27 425.76 252.11 426.56 250.89 426.56C250.31 426.56 249.73 426.38 249.33 425.88C248.99 425.48 248.85 424.92 248.85 423.84V418.16H247.05V424.18C247.05 425.58 247.29 426.46 247.85 427.12Z" fill="white"/>
<path d="M260.726 427.7L260.766 427.68C261.386 427.98 262.206 428.22 263.186 428.22C266.026 428.22 268.326 426.2 268.326 423.04C268.326 420 266.206 417.94 263.566 417.94C262.406 417.94 261.446 418.34 260.766 418.82L260.726 418.8V418.16H258.926V432.4H260.726V427.7ZM260.726 425.96V420.46C261.426 419.88 262.386 419.56 263.266 419.56C265.226 419.56 266.506 421.18 266.506 423.18C266.506 425.2 265.186 426.64 263.226 426.64C262.266 426.64 261.346 426.3 260.726 425.96Z" fill="white"/>
<path d="M278.024 428H279.824L281.364 423.78C281.704 422.88 282.044 421.88 282.324 421.02H282.364C282.644 421.88 282.984 422.88 283.324 423.78L284.864 428H286.644L290.064 418.16H288.184L286.724 422.56C286.384 423.58 286.064 424.58 285.764 425.58H285.724C285.384 424.58 285.024 423.56 284.644 422.54L283.024 418.16H281.744L280.124 422.54C279.764 423.52 279.384 424.58 279.044 425.58H279.004C278.684 424.56 278.364 423.56 278.024 422.54L276.564 418.16H274.604L278.024 428Z" fill="white"/>
<path d="M292.168 428H293.968V421.26C294.708 420.34 295.928 419.62 297.108 419.62C297.728 419.62 298.228 419.82 298.608 420.26C298.948 420.64 299.088 421.16 299.088 422.26V428H300.888V421.92C300.888 420.4 300.608 419.64 300.068 419.02C299.448 418.32 298.528 417.94 297.448 417.94C296.068 417.94 294.868 418.56 294.008 419.42L293.968 419.4V412.72H292.168V428Z" fill="white"/>
<path d="M312.644 423.6C312.684 423.36 312.704 423 312.704 422.7C312.704 419.62 310.624 417.94 308.224 417.94C305.584 417.94 303.324 419.98 303.324 423.08C303.324 426.18 305.604 428.22 308.644 428.22C309.924 428.22 311.284 427.86 312.164 427.3V425.38C311.264 426.06 310.124 426.6 308.764 426.6C306.824 426.6 305.384 425.54 305.124 423.6H312.644ZM308.184 419.56C309.364 419.56 310.804 420.22 310.964 422.18H305.164C305.484 420.36 306.884 419.56 308.184 419.56Z" fill="white"/>
<path d="M315.273 428H317.073V421.26C317.773 420.32 319.033 419.62 320.153 419.62C320.693 419.62 321.333 419.78 321.733 420.26C322.053 420.64 322.193 421.24 322.193 422.26V428H323.993V421.92C323.993 420.4 323.713 419.64 323.173 419.02C322.553 418.32 321.633 417.94 320.553 417.94C319.173 417.94 317.973 418.56 317.113 419.42L317.073 419.4V418.16H315.273V428Z" fill="white"/>
<path d="M60.9025 458.4L67.5625 444.16H65.6625L63.9425 447.88C63.4825 448.88 63.0425 449.86 62.6025 450.84H62.5625C62.1625 449.94 61.6825 448.88 61.2225 447.88L59.5025 444.16H57.5025L61.6025 452.94L58.9425 458.4H60.9025Z" fill="white"/>
<path d="M68.1383 449.08C68.1383 451.98 70.3583 454.22 73.3383 454.22C76.3183 454.22 78.5383 451.98 78.5383 449.08C78.5383 446.18 76.3183 443.94 73.3383 443.94C70.3583 443.94 68.1383 446.18 68.1383 449.08ZM69.9383 449.08C69.9383 447.1 71.3783 445.58 73.3383 445.58C75.2983 445.58 76.7383 447.1 76.7383 449.08C76.7383 451.06 75.2983 452.58 73.3383 452.58C71.3783 452.58 69.9383 451.06 69.9383 449.08Z" fill="white"/>
<path d="M81.7853 453.12C82.4453 453.88 83.4653 454.22 84.4653 454.22C85.8253 454.22 87.0053 453.6 87.8653 452.74L87.9053 452.76V454H89.7053V444.16H87.9053V450.88C87.2053 451.76 86.0453 452.56 84.8253 452.56C84.2453 452.56 83.6653 452.38 83.2653 451.88C82.9253 451.48 82.7853 450.92 82.7853 449.84V444.16H80.9853V450.18C80.9853 451.58 81.2253 452.46 81.7853 453.12Z" fill="white"/>
<path d="M100.425 454.22C101.745 454.22 102.885 453.66 103.445 453.14H103.485C103.865 453.84 104.605 454.18 105.385 454.18C105.765 454.18 106.105 454.1 106.345 454V452.5C106.185 452.58 105.965 452.64 105.765 452.64C105.225 452.64 105.005 452.2 105.005 451.6V447.42C105.005 446.2 104.605 445.36 104.025 444.84C103.325 444.2 102.285 443.94 101.085 443.94C99.625 443.94 98.565 444.32 97.805 444.78V446.54C98.545 446 99.585 445.56 100.825 445.56C101.665 445.56 102.265 445.76 102.645 446.1C103.025 446.46 103.205 447 103.205 447.72V448.54C102.565 448.38 101.865 448.28 101.105 448.28C100.085 448.28 99.085 448.46 98.345 448.94C97.565 449.44 97.045 450.24 97.045 451.34C97.045 452.3 97.445 453.04 98.085 453.52C98.745 454.02 99.625 454.22 100.425 454.22ZM100.745 452.62C99.685 452.62 98.865 452.14 98.865 451.18C98.865 450.02 100.065 449.66 101.285 449.66C101.905 449.66 102.665 449.76 103.205 449.92V451.76C102.605 452.24 101.685 452.62 100.745 452.62Z" fill="white"/>
<path d="M108.35 454H110.15V447.6C110.77 446.54 111.71 445.86 113.05 445.86C113.27 445.86 113.51 445.88 113.75 445.94V444.16C113.53 444.1 113.31 444.08 113.11 444.08C111.95 444.08 110.87 444.66 110.19 445.62L110.15 445.6V444.16H108.35V454Z" fill="white"/>
<path d="M124.099 449.6C124.139 449.36 124.159 449 124.159 448.7C124.159 445.62 122.079 443.94 119.679 443.94C117.039 443.94 114.779 445.98 114.779 449.08C114.779 452.18 117.059 454.22 120.099 454.22C121.379 454.22 122.739 453.86 123.619 453.3V451.38C122.719 452.06 121.579 452.6 120.219 452.6C118.279 452.6 116.839 451.54 116.579 449.6H124.099ZM119.639 445.56C120.819 445.56 122.259 446.22 122.419 448.18H116.619C116.939 446.36 118.339 445.56 119.639 445.56Z" fill="white"/>
<path d="M132.072 454H133.872V445.78H136.392V444.16H133.872V442.02C133.872 440.98 134.092 440.14 135.332 440.14C135.712 440.14 136.352 440.22 136.732 440.32V438.7C136.392 438.6 135.812 438.5 135.252 438.5C134.412 438.5 133.572 438.72 132.952 439.32C132.252 440 132.072 441 132.072 442.28V444.16H130.512V445.78H132.072V454ZM138.092 440.78C138.092 441.48 138.652 442.04 139.352 442.04C140.052 442.04 140.612 441.48 140.612 440.78C140.612 440.08 140.052 439.52 139.352 439.52C138.652 439.52 138.092 440.08 138.092 440.78ZM138.452 454H140.252V444.16H138.452V454Z" fill="white"/>
<path d="M143.408 454H145.208V447.26C145.908 446.32 147.168 445.62 148.288 445.62C148.828 445.62 149.468 445.78 149.868 446.26C150.188 446.64 150.328 447.24 150.328 448.26V454H152.128V447.92C152.128 446.4 151.848 445.64 151.308 445.02C150.688 444.32 149.768 443.94 148.688 443.94C147.308 443.94 146.108 444.56 145.248 445.42L145.208 445.4V444.16H143.408V454Z" fill="white"/>
<path d="M154.884 440.78C154.884 441.48 155.444 442.04 156.144 442.04C156.844 442.04 157.404 441.48 157.404 440.78C157.404 440.08 156.844 439.52 156.144 439.52C155.444 439.52 154.884 440.08 154.884 440.78ZM155.244 454H157.044V444.16H155.244V454Z" fill="white"/>
<path d="M159.925 453.42C160.945 453.96 162.345 454.22 163.605 454.22C165.705 454.22 167.745 453.36 167.745 451.08C167.745 449.04 166.185 448.52 164.305 448.2C162.845 447.94 161.445 447.94 161.445 446.82C161.445 445.94 162.325 445.56 163.585 445.56C164.725 445.56 166.085 445.88 167.185 446.52V444.72C166.205 444.2 164.845 443.94 163.665 443.94C161.385 443.94 159.645 444.92 159.625 446.96C159.625 448.9 161.105 449.46 162.985 449.78C164.505 450.04 165.925 450.06 165.925 451.24C165.925 452.2 165.045 452.6 163.685 452.6C162.465 452.6 161.045 452.26 159.925 451.54V453.42Z" fill="white"/>
<path d="M170.185 454H171.985V447.26C172.725 446.34 173.945 445.62 175.125 445.62C175.745 445.62 176.245 445.82 176.625 446.26C176.965 446.64 177.105 447.16 177.105 448.26V454H178.905V447.92C178.905 446.4 178.625 445.64 178.085 445.02C177.465 444.32 176.545 443.94 175.465 443.94C174.085 443.94 172.885 444.56 172.025 445.42L171.985 445.4V438.72H170.185V454Z" fill="white"/>
<path d="M190.661 449.6C190.701 449.36 190.721 449 190.721 448.7C190.721 445.62 188.641 443.94 186.241 443.94C183.601 443.94 181.341 445.98 181.341 449.08C181.341 452.18 183.621 454.22 186.661 454.22C187.941 454.22 189.301 453.86 190.181 453.3V451.38C189.281 452.06 188.141 452.6 186.781 452.6C184.841 452.6 183.401 451.54 183.141 449.6H190.661ZM186.201 445.56C187.381 445.56 188.821 446.22 188.981 448.18H183.181C183.501 446.36 184.901 445.56 186.201 445.56Z" fill="white"/>
<path d="M192.651 449.24C192.651 452.28 194.811 454.22 197.471 454.22C198.651 454.22 199.571 453.84 200.231 453.38L200.271 453.4V454H202.071V438.72H200.271V444.44L200.231 444.46C199.591 444.18 198.851 443.94 197.871 443.94C194.771 443.94 192.651 446.22 192.651 449.24ZM194.471 449.14C194.471 447.12 195.771 445.54 197.851 445.54C198.731 445.54 199.611 445.82 200.271 446.16V451.78C199.571 452.26 198.691 452.62 197.711 452.62C195.691 452.62 194.471 451.1 194.471 449.14Z" fill="white"/>
<path d="M213.068 454H214.868L218.988 444.16H217.108L215.328 448.48C214.868 449.6 214.448 450.64 214.008 451.76H213.968C213.548 450.68 213.148 449.68 212.708 448.6L210.888 444.16H208.928L213.068 454Z" fill="white"/>
<path d="M229.118 449.6C229.158 449.36 229.178 449 229.178 448.7C229.178 445.62 227.098 443.94 224.698 443.94C222.058 443.94 219.798 445.98 219.798 449.08C219.798 452.18 222.078 454.22 225.118 454.22C226.398 454.22 227.758 453.86 228.638 453.3V451.38C227.738 452.06 226.598 452.6 225.238 452.6C223.298 452.6 221.858 451.54 221.598 449.6H229.118ZM224.658 445.56C225.838 445.56 227.278 446.22 227.438 448.18H221.638C221.958 446.36 223.358 445.56 224.658 445.56Z" fill="white"/>
<path d="M231.748 454H233.548V447.26C234.248 446.32 235.508 445.62 236.628 445.62C237.168 445.62 237.808 445.78 238.208 446.26C238.528 446.64 238.668 447.24 238.668 448.26V454H240.468V447.92C240.468 446.4 240.188 445.64 239.648 445.02C239.028 444.32 238.108 443.94 237.028 443.94C235.648 443.94 234.448 444.56 233.588 445.42L233.548 445.4V444.16H231.748V454Z" fill="white"/>
<path d="M245.084 453.3C245.724 454.04 246.604 454.22 247.324 454.22C248.004 454.22 248.704 454.06 249.104 453.86V452.16C248.724 452.4 248.144 452.58 247.624 452.58C246.324 452.58 246.144 451.46 246.144 450.24V445.78H249.104V444.16H246.144V441.18L244.344 441.48V444.16H242.524V445.78H244.344V450.58C244.344 451.96 244.604 452.76 245.084 453.3Z" fill="white"/>
<path d="M250.997 440.78C250.997 441.48 251.557 442.04 252.257 442.04C252.957 442.04 253.517 441.48 253.517 440.78C253.517 440.08 252.957 439.52 252.257 439.52C251.557 439.52 250.997 440.08 250.997 440.78ZM251.357 454H253.157V444.16H251.357V454Z" fill="white"/>
<path d="M256.318 454H258.118V447.26C258.818 446.32 260.078 445.62 261.198 445.62C261.738 445.62 262.378 445.78 262.778 446.26C263.098 446.64 263.238 447.24 263.238 448.26V454H265.038V447.92C265.038 446.4 264.758 445.64 264.218 445.02C263.598 444.32 262.678 443.94 261.598 443.94C260.218 443.94 259.018 444.56 258.158 445.42L258.118 445.4V444.16H256.318V454Z" fill="white"/>
<path d="M268.814 457.88C269.634 458.3 270.734 458.62 271.934 458.62C274.954 458.62 276.874 456.84 276.874 453.96V444.2L275.134 444.5C274.474 444.18 273.654 443.94 272.634 443.94C269.434 443.94 267.534 446.32 267.534 449.1C267.534 452 269.674 454.02 272.354 454.02C273.394 454.02 274.354 453.72 275.034 453.26L275.074 453.28V454C275.074 455.86 273.814 456.98 271.934 456.98C270.834 456.98 269.754 456.58 268.814 455.96V457.88ZM269.354 448.98C269.354 447.06 270.614 445.54 272.594 445.54C273.494 445.54 274.454 445.84 275.074 446.22V451.64C274.474 452.12 273.514 452.44 272.614 452.44C270.674 452.44 269.354 450.96 269.354 448.98Z" fill="white"/>
<path d="M280.109 452.9C280.109 453.62 280.709 454.22 281.429 454.22C282.149 454.22 282.749 453.62 282.749 452.9C282.749 452.18 282.149 451.58 281.429 451.58C280.709 451.58 280.109 452.18 280.109 452.9Z" fill="white"/>
<path d="M293.326 454H295.386L297.686 446.66C298.046 445.52 298.386 444.38 298.706 443.28H298.746C299.066 444.38 299.406 445.5 299.766 446.64L302.086 454H304.106L308.606 439.52H306.686L304.266 447.34C303.886 448.58 303.486 449.9 303.126 451.14H303.086C302.706 449.86 302.326 448.64 301.926 447.36L299.466 439.52H298.066L295.606 447.34C295.206 448.62 294.806 449.9 294.446 451.14H294.406C294.046 449.9 293.646 448.58 293.266 447.36L290.846 439.52H288.826L293.326 454Z" fill="white"/>
<path d="M317.888 449.6C317.928 449.36 317.948 449 317.948 448.7C317.948 445.62 315.868 443.94 313.468 443.94C310.828 443.94 308.568 445.98 308.568 449.08C308.568 452.18 310.848 454.22 313.888 454.22C315.168 454.22 316.528 453.86 317.408 453.3V451.38C316.508 452.06 315.368 452.6 314.008 452.6C312.068 452.6 310.628 451.54 310.368 449.6H317.888ZM313.428 445.56C314.608 445.56 316.048 446.22 316.208 448.18H310.408C310.728 446.36 312.128 445.56 313.428 445.56Z" fill="white"/>
<path d="M71.8163 479H73.6163V472.26C74.3163 471.32 75.5763 470.62 76.6963 470.62C77.2363 470.62 77.8763 470.78 78.2763 471.26C78.5963 471.64 78.7363 472.24 78.7363 473.26V479H80.5363V472.92C80.5363 471.4 80.2563 470.64 79.7163 470.02C79.0963 469.32 78.1763 468.94 77.0963 468.94C75.7163 468.94 74.5163 469.56 73.6563 470.42L73.6163 470.4V469.16H71.8163V479Z" fill="white"/>
<path d="M92.2923 474.6C92.3323 474.36 92.3523 474 92.3523 473.7C92.3523 470.62 90.2723 468.94 87.8723 468.94C85.2323 468.94 82.9723 470.98 82.9723 474.08C82.9723 477.18 85.2523 479.22 88.2923 479.22C89.5723 479.22 90.9323 478.86 91.8123 478.3V476.38C90.9123 477.06 89.7723 477.6 88.4123 477.6C86.4723 477.6 85.0323 476.54 84.7723 474.6H92.2923ZM87.8323 470.56C89.0123 470.56 90.4523 471.22 90.6123 473.18H84.8123C85.1323 471.36 86.5323 470.56 87.8323 470.56Z" fill="white"/>
<path d="M97.4726 479H99.2726L103.393 469.16H101.513L99.7326 473.48C99.2726 474.6 98.8526 475.64 98.4126 476.76H98.3726C97.9526 475.68 97.5526 474.68 97.1126 473.6L95.2926 469.16H93.3326L97.4726 479Z" fill="white"/>
<path d="M113.523 474.6C113.563 474.36 113.583 474 113.583 473.7C113.583 470.62 111.503 468.94 109.103 468.94C106.463 468.94 104.203 470.98 104.203 474.08C104.203 477.18 106.483 479.22 109.523 479.22C110.803 479.22 112.163 478.86 113.043 478.3V476.38C112.143 477.06 111.003 477.6 109.643 477.6C107.703 477.6 106.263 476.54 106.003 474.6H113.523ZM109.063 470.56C110.243 470.56 111.683 471.22 111.843 473.18H106.043C106.363 471.36 107.763 470.56 109.063 470.56Z" fill="white"/>
<path d="M116.152 479H117.952V472.6C118.572 471.54 119.512 470.86 120.852 470.86C121.072 470.86 121.312 470.88 121.552 470.94V469.16C121.332 469.1 121.112 469.08 120.912 469.08C119.752 469.08 118.672 469.66 117.992 470.62L117.952 470.6V469.16H116.152V479Z" fill="white"/>
<path d="M131.06 479.22C132.38 479.22 133.52 478.66 134.08 478.14H134.12C134.5 478.84 135.24 479.18 136.02 479.18C136.4 479.18 136.74 479.1 136.98 479V477.5C136.82 477.58 136.6 477.64 136.4 477.64C135.86 477.64 135.64 477.2 135.64 476.6V472.42C135.64 471.2 135.24 470.36 134.66 469.84C133.96 469.2 132.92 468.94 131.72 468.94C130.26 468.94 129.2 469.32 128.44 469.78V471.54C129.18 471 130.22 470.56 131.46 470.56C132.3 470.56 132.9 470.76 133.28 471.1C133.66 471.46 133.84 472 133.84 472.72V473.54C133.2 473.38 132.5 473.28 131.74 473.28C130.72 473.28 129.72 473.46 128.98 473.94C128.2 474.44 127.68 475.24 127.68 476.34C127.68 477.3 128.08 478.04 128.72 478.52C129.38 479.02 130.26 479.22 131.06 479.22ZM131.38 477.62C130.32 477.62 129.5 477.14 129.5 476.18C129.5 475.02 130.7 474.66 131.92 474.66C132.54 474.66 133.3 474.76 133.84 474.92V476.76C133.24 477.24 132.32 477.62 131.38 477.62Z" fill="white"/>
<path d="M146.584 476.62C145.844 477.2 144.864 477.58 143.744 477.58C141.624 477.58 140.124 476.16 140.124 474.14C140.124 472.16 141.544 470.58 143.684 470.58C144.644 470.58 145.604 470.9 146.424 471.42V469.56C145.724 469.2 144.784 468.94 143.764 468.94C140.704 468.94 138.304 471.1 138.304 474.14C138.304 477.06 140.524 479.22 143.644 479.22C144.644 479.22 145.744 479 146.584 478.54V476.62Z" fill="white"/>
<path d="M156.741 476.62C156.001 477.2 155.021 477.58 153.901 477.58C151.781 477.58 150.281 476.16 150.281 474.14C150.281 472.16 151.701 470.58 153.841 470.58C154.801 470.58 155.761 470.9 156.581 471.42V469.56C155.881 469.2 154.941 468.94 153.921 468.94C150.861 468.94 148.461 471.1 148.461 474.14C148.461 477.06 150.681 479.22 153.801 479.22C154.801 479.22 155.901 479 156.741 478.54V476.62Z" fill="white"/>
<path d="M167.937 474.6C167.977 474.36 167.997 474 167.997 473.7C167.997 470.62 165.917 468.94 163.517 468.94C160.877 468.94 158.617 470.98 158.617 474.08C158.617 477.18 160.897 479.22 163.937 479.22C165.217 479.22 166.577 478.86 167.457 478.3V476.38C166.557 477.06 165.417 477.6 164.057 477.6C162.117 477.6 160.677 476.54 160.417 474.6H167.937ZM163.477 470.56C164.657 470.56 166.097 471.22 166.257 473.18H160.457C160.777 471.36 162.177 470.56 163.477 470.56Z" fill="white"/>
<path d="M170.286 478.42C171.306 478.96 172.706 479.22 173.966 479.22C176.066 479.22 178.106 478.36 178.106 476.08C178.106 474.04 176.546 473.52 174.666 473.2C173.206 472.94 171.806 472.94 171.806 471.82C171.806 470.94 172.686 470.56 173.946 470.56C175.086 470.56 176.446 470.88 177.546 471.52V469.72C176.566 469.2 175.206 468.94 174.026 468.94C171.746 468.94 170.006 469.92 169.986 471.96C169.986 473.9 171.466 474.46 173.346 474.78C174.866 475.04 176.286 475.06 176.286 476.24C176.286 477.2 175.406 477.6 174.046 477.6C172.826 477.6 171.406 477.26 170.286 476.54V478.42Z" fill="white"/>
<path d="M180.267 478.42C181.287 478.96 182.687 479.22 183.947 479.22C186.047 479.22 188.087 478.36 188.087 476.08C188.087 474.04 186.527 473.52 184.647 473.2C183.187 472.94 181.787 472.94 181.787 471.82C181.787 470.94 182.667 470.56 183.927 470.56C185.067 470.56 186.427 470.88 187.527 471.52V469.72C186.547 469.2 185.187 468.94 184.007 468.94C181.727 468.94 179.987 469.92 179.967 471.96C179.967 473.9 181.447 474.46 183.327 474.78C184.847 475.04 186.267 475.06 186.267 476.24C186.267 477.2 185.387 477.6 184.027 477.6C182.807 477.6 181.387 477.26 180.267 476.54V478.42Z" fill="white"/>
<path d="M208.911 479H210.711V472.86C210.711 471.52 210.491 470.64 209.891 469.98C209.291 469.3 208.371 468.94 207.311 468.94C205.951 468.94 204.751 469.52 203.571 470.64C202.971 469.46 201.771 468.94 200.551 468.94C199.191 468.94 198.031 469.56 197.211 470.38L197.171 470.36V469.16H195.371V479H197.171V472.16C197.851 471.34 199.011 470.62 200.171 470.62C200.731 470.62 201.271 470.78 201.671 471.24C202.011 471.64 202.131 472.12 202.131 473.18V479H203.931V472.86C203.931 472.62 203.931 472.38 203.911 472.16C204.591 471.36 205.771 470.62 206.911 470.62C207.431 470.62 208.031 470.78 208.411 471.22C208.771 471.64 208.911 472.24 208.911 473.18V479Z" fill="white"/>
<path d="M213.468 465.78C213.468 466.48 214.028 467.04 214.728 467.04C215.428 467.04 215.988 466.48 215.988 465.78C215.988 465.08 215.428 464.52 214.728 464.52C214.028 464.52 213.468 465.08 213.468 465.78ZM213.828 479H215.628V469.16H213.828V479Z" fill="white"/>
<path d="M226.389 476.62C225.649 477.2 224.669 477.58 223.549 477.58C221.429 477.58 219.929 476.16 219.929 474.14C219.929 472.16 221.349 470.58 223.489 470.58C224.449 470.58 225.409 470.9 226.229 471.42V469.56C225.529 469.2 224.589 468.94 223.569 468.94C220.509 468.94 218.109 471.1 218.109 474.14C218.109 477.06 220.329 479.22 223.449 479.22C224.449 479.22 225.549 479 226.389 478.54V476.62Z" fill="white"/>
<path d="M228.984 479H230.784V472.6C231.404 471.54 232.344 470.86 233.684 470.86C233.904 470.86 234.144 470.88 234.384 470.94V469.16C234.164 469.1 233.944 469.08 233.744 469.08C232.584 469.08 231.504 469.66 230.824 470.62L230.784 470.6V469.16H228.984V479Z" fill="white"/>
<path d="M235.414 474.08C235.414 476.98 237.634 479.22 240.614 479.22C243.594 479.22 245.814 476.98 245.814 474.08C245.814 471.18 243.594 468.94 240.614 468.94C237.634 468.94 235.414 471.18 235.414 474.08ZM237.214 474.08C237.214 472.1 238.654 470.58 240.614 470.58C242.574 470.58 244.014 472.1 244.014 474.08C244.014 476.06 242.574 477.58 240.614 477.58C238.654 477.58 237.214 476.06 237.214 474.08Z" fill="white"/>
<path d="M250.101 478.7L250.141 478.68C250.761 478.98 251.581 479.22 252.561 479.22C255.401 479.22 257.701 477.2 257.701 474.04C257.701 471 255.581 468.94 252.941 468.94C251.781 468.94 250.821 469.34 250.141 469.82L250.101 469.8V469.16H248.301V483.4H250.101V478.7ZM250.101 476.96V471.46C250.801 470.88 251.761 470.56 252.641 470.56C254.601 470.56 255.881 472.18 255.881 474.18C255.881 476.2 254.561 477.64 252.601 477.64C251.641 477.64 250.721 477.3 250.101 476.96Z" fill="white"/>
<path d="M260.195 479H261.995V472.26C262.735 471.34 263.955 470.62 265.135 470.62C265.755 470.62 266.255 470.82 266.635 471.26C266.975 471.64 267.115 472.16 267.115 473.26V479H268.915V472.92C268.915 471.4 268.635 470.64 268.095 470.02C267.475 469.32 266.555 468.94 265.475 468.94C264.095 468.94 262.895 469.56 262.035 470.42L261.995 470.4V463.72H260.195V479Z" fill="white"/>
<path d="M271.351 474.08C271.351 476.98 273.571 479.22 276.551 479.22C279.531 479.22 281.751 476.98 281.751 474.08C281.751 471.18 279.531 468.94 276.551 468.94C273.571 468.94 271.351 471.18 271.351 474.08ZM273.151 474.08C273.151 472.1 274.591 470.58 276.551 470.58C278.511 470.58 279.951 472.1 279.951 474.08C279.951 476.06 278.511 477.58 276.551 477.58C274.591 477.58 273.151 476.06 273.151 474.08Z" fill="white"/>
<path d="M284.238 479H286.038V472.26C286.738 471.32 287.998 470.62 289.118 470.62C289.658 470.62 290.298 470.78 290.698 471.26C291.018 471.64 291.158 472.24 291.158 473.26V479H292.958V472.92C292.958 471.4 292.678 470.64 292.138 470.02C291.518 469.32 290.598 468.94 289.518 468.94C288.138 468.94 286.938 469.56 286.078 470.42L286.038 470.4V469.16H284.238V479Z" fill="white"/>
<path d="M304.714 474.6C304.754 474.36 304.774 474 304.774 473.7C304.774 470.62 302.694 468.94 300.294 468.94C297.654 468.94 295.394 470.98 295.394 474.08C295.394 477.18 297.674 479.22 300.714 479.22C301.994 479.22 303.354 478.86 304.234 478.3V476.38C303.334 477.06 302.194 477.6 300.834 477.6C298.894 477.6 297.454 476.54 297.194 474.6H304.714ZM300.254 470.56C301.434 470.56 302.874 471.22 303.034 473.18H297.234C297.554 471.36 298.954 470.56 300.254 470.56Z" fill="white"/>
<path d="M46.6328 504H48.4328V495.78H50.9528V494.16H48.4328V492.02C48.4328 490.98 48.6528 490.14 49.8928 490.14C50.2728 490.14 50.9128 490.22 51.2928 490.32V488.7C50.9528 488.6 50.3728 488.5 49.8128 488.5C48.9728 488.5 48.1328 488.72 47.5128 489.32C46.8128 490 46.6328 491 46.6328 492.28V494.16H45.0728V495.78H46.6328V504Z" fill="white"/>
<path d="M61.5501 499.6C61.5901 499.36 61.6101 499 61.6101 498.7C61.6101 495.62 59.5301 493.94 57.1301 493.94C54.4901 493.94 52.2301 495.98 52.2301 499.08C52.2301 502.18 54.5101 504.22 57.5501 504.22C58.8301 504.22 60.1901 503.86 61.0701 503.3V501.38C60.1701 502.06 59.0301 502.6 57.6701 502.6C55.7301 502.6 54.2901 501.54 54.0301 499.6H61.5501ZM57.0901 495.56C58.2701 495.56 59.7101 496.22 59.8701 498.18H54.0701C54.3901 496.36 55.7901 495.56 57.0901 495.56Z" fill="white"/>
<path d="M66.8996 504.22C68.2196 504.22 69.3596 503.66 69.9196 503.14H69.9596C70.3396 503.84 71.0796 504.18 71.8596 504.18C72.2396 504.18 72.5796 504.1 72.8196 504V502.5C72.6596 502.58 72.4396 502.64 72.2396 502.64C71.6996 502.64 71.4796 502.2 71.4796 501.6V497.42C71.4796 496.2 71.0796 495.36 70.4996 494.84C69.7996 494.2 68.7596 493.94 67.5596 493.94C66.0996 493.94 65.0396 494.32 64.2796 494.78V496.54C65.0196 496 66.0596 495.56 67.2996 495.56C68.1396 495.56 68.7396 495.76 69.1196 496.1C69.4996 496.46 69.6796 497 69.6796 497.72V498.54C69.0396 498.38 68.3396 498.28 67.5796 498.28C66.5596 498.28 65.5596 498.46 64.8196 498.94C64.0396 499.44 63.5196 500.24 63.5196 501.34C63.5196 502.3 63.9196 503.04 64.5596 503.52C65.2196 504.02 66.0996 504.22 66.8996 504.22ZM67.2196 502.62C66.1596 502.62 65.3396 502.14 65.3396 501.18C65.3396 500.02 66.5396 499.66 67.7596 499.66C68.3796 499.66 69.1396 499.76 69.6796 499.92V501.76C69.0796 502.24 68.1596 502.62 67.2196 502.62Z" fill="white"/>
<path d="M76.3242 503.3C76.9642 504.04 77.8442 504.22 78.5642 504.22C79.2442 504.22 79.9442 504.06 80.3442 503.86V502.16C79.9642 502.4 79.3842 502.58 78.8642 502.58C77.5642 502.58 77.3842 501.46 77.3842 500.24V495.78H80.3442V494.16H77.3842V491.18L75.5842 491.48V494.16H73.7642V495.78H75.5842V500.58C75.5842 501.96 75.8442 502.76 76.3242 503.3Z" fill="white"/>
<path d="M83.3576 503.12C84.0176 503.88 85.0376 504.22 86.0376 504.22C87.3976 504.22 88.5776 503.6 89.4376 502.74L89.4776 502.76V504H91.2776V494.16H89.4776V500.88C88.7776 501.76 87.6176 502.56 86.3976 502.56C85.8176 502.56 85.2376 502.38 84.8376 501.88C84.4976 501.48 84.3576 500.92 84.3576 499.84V494.16H82.5576V500.18C82.5576 501.58 82.7976 502.46 83.3576 503.12Z" fill="white"/>
<path d="M94.4335 504H96.2335V497.6C96.8535 496.54 97.7935 495.86 99.1335 495.86C99.3535 495.86 99.5935 495.88 99.8335 495.94V494.16C99.6135 494.1 99.3935 494.08 99.1935 494.08C98.0335 494.08 96.9535 494.66 96.2735 495.62L96.2335 495.6V494.16H94.4335V504Z" fill="white"/>
<path d="M110.183 499.6C110.223 499.36 110.243 499 110.243 498.7C110.243 495.62 108.163 493.94 105.763 493.94C103.123 493.94 100.863 495.98 100.863 499.08C100.863 502.18 103.143 504.22 106.183 504.22C107.463 504.22 108.823 503.86 109.703 503.3V501.38C108.803 502.06 107.663 502.6 106.303 502.6C104.363 502.6 102.923 501.54 102.663 499.6H110.183ZM105.723 495.56C106.903 495.56 108.343 496.22 108.503 498.18H102.703C103.023 496.36 104.423 495.56 105.723 495.56Z" fill="white"/>
<path d="M112.532 503.42C113.552 503.96 114.952 504.22 116.212 504.22C118.312 504.22 120.352 503.36 120.352 501.08C120.352 499.04 118.792 498.52 116.912 498.2C115.452 497.94 114.052 497.94 114.052 496.82C114.052 495.94 114.932 495.56 116.192 495.56C117.332 495.56 118.692 495.88 119.792 496.52V494.72C118.812 494.2 117.452 493.94 116.272 493.94C113.992 493.94 112.252 494.92 112.232 496.96C112.232 498.9 113.712 499.46 115.592 499.78C117.112 500.04 118.532 500.06 118.532 501.24C118.532 502.2 117.652 502.6 116.292 502.6C115.072 502.6 113.652 502.26 112.532 501.54V503.42Z" fill="white"/>
<path d="M129.137 503.3C129.777 504.04 130.657 504.22 131.377 504.22C132.057 504.22 132.757 504.06 133.157 503.86V502.16C132.777 502.4 132.197 502.58 131.677 502.58C130.377 502.58 130.197 501.46 130.197 500.24V495.78H133.157V494.16H130.197V491.18L128.397 491.48V494.16H126.577V495.78H128.397V500.58C128.397 501.96 128.657 502.76 129.137 503.3Z" fill="white"/>
<path d="M134.496 499.08C134.496 501.98 136.716 504.22 139.696 504.22C142.676 504.22 144.896 501.98 144.896 499.08C144.896 496.18 142.676 493.94 139.696 493.94C136.716 493.94 134.496 496.18 134.496 499.08ZM136.296 499.08C136.296 497.1 137.736 495.58 139.696 495.58C141.656 495.58 143.096 497.1 143.096 499.08C143.096 501.06 141.656 502.58 139.696 502.58C137.736 502.58 136.296 501.06 136.296 499.08Z" fill="white"/>
<path d="M160.867 499.6C160.907 499.36 160.927 499 160.927 498.7C160.927 495.62 158.847 493.94 156.447 493.94C153.807 493.94 151.547 495.98 151.547 499.08C151.547 502.18 153.827 504.22 156.867 504.22C158.147 504.22 159.507 503.86 160.387 503.3V501.38C159.487 502.06 158.347 502.6 156.987 502.6C155.047 502.6 153.607 501.54 153.347 499.6H160.867ZM156.407 495.56C157.587 495.56 159.027 496.22 159.187 498.18H153.387C153.707 496.36 155.107 495.56 156.407 495.56Z" fill="white"/>
<path d="M163.496 504H165.296V497.26C165.996 496.32 167.256 495.62 168.376 495.62C168.916 495.62 169.556 495.78 169.956 496.26C170.276 496.64 170.416 497.24 170.416 498.26V504H172.216V497.92C172.216 496.4 171.936 495.64 171.396 495.02C170.776 494.32 169.856 493.94 168.776 493.94C167.396 493.94 166.196 494.56 165.336 495.42L165.296 495.4V494.16H163.496V504Z" fill="white"/>
<path d="M175.052 503.42C176.072 503.96 177.472 504.22 178.732 504.22C180.832 504.22 182.872 503.36 182.872 501.08C182.872 499.04 181.312 498.52 179.432 498.2C177.972 497.94 176.572 497.94 176.572 496.82C176.572 495.94 177.452 495.56 178.712 495.56C179.852 495.56 181.212 495.88 182.312 496.52V494.72C181.332 494.2 179.972 493.94 178.792 493.94C176.512 493.94 174.772 494.92 174.752 496.96C174.752 498.9 176.232 499.46 178.112 499.78C179.632 500.04 181.052 500.06 181.052 501.24C181.052 502.2 180.172 502.6 178.812 502.6C177.592 502.6 176.172 502.26 175.052 501.54V503.42Z" fill="white"/>
<path d="M186.072 503.12C186.732 503.88 187.752 504.22 188.752 504.22C190.112 504.22 191.292 503.6 192.152 502.74L192.192 502.76V504H193.992V494.16H192.192V500.88C191.492 501.76 190.332 502.56 189.112 502.56C188.532 502.56 187.952 502.38 187.552 501.88C187.212 501.48 187.072 500.92 187.072 499.84V494.16H185.272V500.18C185.272 501.58 185.512 502.46 186.072 503.12Z" fill="white"/>
<path d="M197.148 504H198.948V497.6C199.568 496.54 200.508 495.86 201.848 495.86C202.068 495.86 202.308 495.88 202.548 495.94V494.16C202.328 494.1 202.108 494.08 201.908 494.08C200.748 494.08 199.668 494.66 198.988 495.62L198.948 495.6V494.16H197.148V504Z" fill="white"/>
<path d="M212.898 499.6C212.938 499.36 212.958 499 212.958 498.7C212.958 495.62 210.878 493.94 208.478 493.94C205.838 493.94 203.578 495.98 203.578 499.08C203.578 502.18 205.858 504.22 208.898 504.22C210.178 504.22 211.538 503.86 212.418 503.3V501.38C211.518 502.06 210.378 502.6 209.018 502.6C207.078 502.6 205.638 501.54 205.378 499.6H212.898ZM208.438 495.56C209.618 495.56 211.058 496.22 211.218 498.18H205.418C205.738 496.36 207.138 495.56 208.438 495.56Z" fill="white"/>
<path d="M222.631 508.4L229.291 494.16H227.391L225.671 497.88C225.211 498.88 224.771 499.86 224.331 500.84H224.291C223.891 499.94 223.411 498.88 222.951 497.88L221.231 494.16H219.231L223.331 502.94L220.671 508.4H222.631Z" fill="white"/>
<path d="M229.867 499.08C229.867 501.98 232.087 504.22 235.067 504.22C238.047 504.22 240.267 501.98 240.267 499.08C240.267 496.18 238.047 493.94 235.067 493.94C232.087 493.94 229.867 496.18 229.867 499.08ZM231.667 499.08C231.667 497.1 233.107 495.58 235.067 495.58C237.027 495.58 238.467 497.1 238.467 499.08C238.467 501.06 237.027 502.58 235.067 502.58C233.107 502.58 231.667 501.06 231.667 499.08Z" fill="white"/>
<path d="M243.514 503.12C244.174 503.88 245.194 504.22 246.194 504.22C247.554 504.22 248.734 503.6 249.594 502.74L249.634 502.76V504H251.434V494.16H249.634V500.88C248.934 501.76 247.774 502.56 246.554 502.56C245.974 502.56 245.394 502.38 244.994 501.88C244.654 501.48 244.514 500.92 244.514 499.84V494.16H242.714V500.18C242.714 501.58 242.954 502.46 243.514 503.12Z" fill="white"/>
<path d="M254.59 504H256.39V497.6C257.01 496.54 257.95 495.86 259.29 495.86C259.51 495.86 259.75 495.88 259.99 495.94V494.16C259.77 494.1 259.55 494.08 259.35 494.08C258.19 494.08 257.11 494.66 256.43 495.62L256.39 495.6V494.16H254.59V504Z" fill="white"/>
<path d="M268.577 503.7L268.617 503.68C269.237 503.98 270.057 504.22 271.037 504.22C273.877 504.22 276.177 502.2 276.177 499.04C276.177 496 274.057 493.94 271.417 493.94C270.257 493.94 269.297 494.34 268.617 494.82L268.577 494.8V494.16H266.777V508.4H268.577V503.7ZM268.577 501.96V496.46C269.277 495.88 270.237 495.56 271.117 495.56C273.077 495.56 274.357 497.18 274.357 499.18C274.357 501.2 273.037 502.64 271.077 502.64C270.117 502.64 269.197 502.3 268.577 501.96Z" fill="white"/>
<path d="M278.672 504H280.472V497.6C281.092 496.54 282.032 495.86 283.372 495.86C283.592 495.86 283.832 495.88 284.072 495.94V494.16C283.852 494.1 283.632 494.08 283.432 494.08C282.272 494.08 281.192 494.66 280.512 495.62L280.472 495.6V494.16H278.672V504Z" fill="white"/>
<path d="M285.656 490.78C285.656 491.48 286.216 492.04 286.916 492.04C287.616 492.04 288.176 491.48 288.176 490.78C288.176 490.08 287.616 489.52 286.916 489.52C286.216 489.52 285.656 490.08 285.656 490.78ZM286.016 504H287.816V494.16H286.016V504Z" fill="white"/>
<path d="M293.977 504H295.777L299.896 494.16H298.016L296.236 498.48C295.776 499.6 295.356 500.64 294.916 501.76H294.877C294.457 500.68 294.057 499.68 293.617 498.6L291.796 494.16H289.837L293.977 504Z" fill="white"/>
<path d="M303.911 504.22C305.231 504.22 306.371 503.66 306.931 503.14H306.971C307.351 503.84 308.091 504.18 308.871 504.18C309.251 504.18 309.591 504.1 309.831 504V502.5C309.671 502.58 309.451 502.64 309.251 502.64C308.711 502.64 308.491 502.2 308.491 501.6V497.42C308.491 496.2 308.091 495.36 307.511 494.84C306.811 494.2 305.771 493.94 304.571 493.94C303.111 493.94 302.051 494.32 301.291 494.78V496.54C302.031 496 303.071 495.56 304.311 495.56C305.151 495.56 305.751 495.76 306.131 496.1C306.511 496.46 306.691 497 306.691 497.72V498.54C306.051 498.38 305.351 498.28 304.591 498.28C303.571 498.28 302.571 498.46 301.831 498.94C301.051 499.44 300.531 500.24 300.531 501.34C300.531 502.3 300.931 503.04 301.571 503.52C302.231 504.02 303.111 504.22 303.911 504.22ZM304.231 502.62C303.171 502.62 302.351 502.14 302.351 501.18C302.351 500.02 303.551 499.66 304.771 499.66C305.391 499.66 306.151 499.76 306.691 499.92V501.76C306.091 502.24 305.171 502.62 304.231 502.62Z" fill="white"/>
<path d="M319.436 501.62C318.696 502.2 317.716 502.58 316.596 502.58C314.476 502.58 312.976 501.16 312.976 499.14C312.976 497.16 314.396 495.58 316.536 495.58C317.496 495.58 318.456 495.9 319.276 496.42V494.56C318.576 494.2 317.636 493.94 316.616 493.94C313.556 493.94 311.156 496.1 311.156 499.14C311.156 502.06 313.376 504.22 316.496 504.22C317.496 504.22 318.596 504 319.436 503.54V501.62Z" fill="white"/>
<path d="M324.291 508.4L330.951 494.16H329.051L327.331 497.88C326.871 498.88 326.431 499.86 325.991 500.84H325.951C325.551 499.94 325.071 498.88 324.611 497.88L322.891 494.16H320.891L324.991 502.94L322.331 508.4H324.291Z" fill="white"/>
<path d="M135.682 384H138.682V369.52H135.622V374.9C135.622 376.3 135.642 377.7 135.662 379.08L135.622 379.1C134.722 377.84 133.842 376.62 132.902 375.36L128.562 369.52H125.562V384H128.622V378.62C128.622 377.22 128.602 375.82 128.582 374.44L128.622 374.42C129.522 375.68 130.402 376.9 131.342 378.16L135.682 384Z" fill="white"/>
<path d="M143.684 379.08C143.684 377.68 144.744 376.56 146.124 376.56C147.504 376.56 148.564 377.68 148.564 379.08C148.564 380.48 147.504 381.6 146.124 381.6C144.744 381.6 143.684 380.48 143.684 379.08ZM140.644 379.08C140.644 381.98 142.984 384.22 146.124 384.22C149.264 384.22 151.604 381.98 151.604 379.08C151.604 376.18 149.264 373.94 146.124 373.94C142.984 373.94 140.644 376.18 140.644 379.08Z" fill="white"/>
<path d="M158.316 384H161.496V378.28H162.916L166.576 384H170.236L166.156 377.88C168.076 377.26 169.096 375.74 169.096 373.88C169.096 372.22 168.416 371.14 167.356 370.48C166.196 369.76 164.576 369.52 162.856 369.52H158.316V384ZM161.496 375.9V372.3H162.716C163.816 372.3 164.596 372.42 165.096 372.68C165.676 372.98 165.916 373.42 165.916 374.1C165.916 374.8 165.636 375.28 165.096 375.56C164.616 375.8 163.956 375.9 163.096 375.9H161.496Z" fill="white"/>
<path d="M179.975 379.88C180.015 379.62 180.035 379.18 180.035 378.84C180.035 375.54 177.755 373.94 175.335 373.94C172.615 373.94 170.175 375.98 170.175 379.12C170.175 382.2 172.515 384.22 175.755 384.22C177.055 384.22 178.535 383.92 179.495 383.32V380.78C178.455 381.48 177.255 381.86 176.155 381.86C174.755 381.86 173.635 381.24 173.295 379.88H179.975ZM173.275 377.96C173.535 376.84 174.355 376.26 175.295 376.26C176.275 376.26 177.055 376.9 177.235 377.96H173.275Z" fill="white"/>
<path d="M190.106 380.66C189.286 381.28 188.186 381.64 187.226 381.64C185.586 381.64 184.446 380.58 184.446 379.08C184.446 377.6 185.566 376.5 187.186 376.5C188.126 376.5 189.086 376.86 189.966 377.42V374.6C189.166 374.2 188.146 373.94 187.046 373.94C183.966 373.94 181.406 376 181.406 379.1C181.406 382.06 183.726 384.22 186.886 384.22C188.006 384.22 189.166 383.98 190.106 383.46V380.66Z" fill="white"/>
<path d="M194.602 379.08C194.602 377.68 195.662 376.56 197.042 376.56C198.422 376.56 199.482 377.68 199.482 379.08C199.482 380.48 198.422 381.6 197.042 381.6C195.662 381.6 194.602 380.48 194.602 379.08ZM191.562 379.08C191.562 381.98 193.902 384.22 197.042 384.22C200.182 384.22 202.522 381.98 202.522 379.08C202.522 376.18 200.182 373.94 197.042 373.94C193.902 373.94 191.562 376.18 191.562 379.08Z" fill="white"/>
<path d="M204.428 384H207.468V378.04C208.188 377.2 209.068 376.88 210.128 376.88C210.408 376.88 210.708 376.92 210.948 376.98V374.12C210.728 374.06 210.508 374.04 210.308 374.04C209.088 374.04 208.128 374.54 207.448 375.5L207.408 375.48V374.16H204.428V384Z" fill="white"/>
<path d="M218.978 383.48V384H221.958V368.72H218.918V374.28L218.878 374.3C218.358 374.08 217.758 373.94 217.018 373.94C214.078 373.94 211.818 376.18 211.818 379.28C211.818 382.3 213.958 384.22 216.438 384.22C217.398 384.22 218.278 383.92 218.938 383.46L218.978 383.48ZM218.918 381.24C218.478 381.52 217.878 381.74 217.218 381.74C215.718 381.74 214.878 380.6 214.878 379.14C214.878 377.66 215.738 376.46 217.338 376.46C217.938 376.46 218.478 376.62 218.918 376.84V381.24Z" fill="white"/>
<path d="M224.247 371.04C224.247 372 225.047 372.78 226.007 372.78C226.967 372.78 227.767 372 227.767 371.04C227.767 370.08 226.967 369.3 226.007 369.3C225.047 369.3 224.247 370.08 224.247 371.04ZM224.487 384H227.527V374.16H224.487V384Z" fill="white"/>
<path d="M230.053 384H233.093V377.38C233.633 376.96 234.373 376.56 235.153 376.56C235.573 376.56 235.933 376.68 236.193 376.98C236.433 377.26 236.533 377.62 236.533 378.36V384H239.573V377.86C239.573 376.44 239.313 375.58 238.713 374.94C238.093 374.3 237.173 373.94 236.133 373.94C234.893 373.94 233.853 374.46 233.093 375.08L233.053 375.06V374.16H230.053V384Z" fill="white"/>
<path d="M242.845 387.9C243.705 388.32 244.945 388.62 246.205 388.62C249.345 388.62 251.465 386.9 251.465 383.8V374.08L249.085 374.5C248.385 374.16 247.565 373.94 246.625 373.94C243.565 373.94 241.505 376.2 241.505 379.08C241.505 382.06 243.705 383.9 246.085 383.9C246.905 383.9 247.805 383.66 248.385 383.24L248.425 383.26V383.8C248.425 385.26 247.505 386.02 246.025 386.02C244.985 386.02 243.845 385.64 242.845 385.02V387.9ZM248.425 381C248.005 381.26 247.425 381.42 246.885 381.42C245.465 381.42 244.585 380.4 244.585 378.96C244.585 377.68 245.345 376.52 246.925 376.52C247.465 376.52 248.045 376.68 248.425 376.88V381Z" fill="white"/>
</g>
<defs>
<filter id="filter0_dd" x="142" y="183" width="92" height="98" filterUnits="userSpaceOnUse" color-interpolation-filters="sRGB">
<feFlood flood-opacity="0" result="BackgroundImageFix"/>
<feColorMatrix in="SourceAlpha" type="matrix" values="0 0 0 0 0 0 0 0 0 0 0 0 0 0 0 0 0 0 127 0"/>
<feOffset dy="6"/>
<feGaussianBlur stdDeviation="3"/>
<feColorMatrix type="matrix" values="0 0 0 0 0 0 0 0 0 0 0 0 0 0 0 0 0 0 0.24 0"/>
<feBlend mode="normal" in2="BackgroundImageFix" result="effect1_dropShadow"/>
<feColorMatrix in="SourceAlpha" type="matrix" values="0 0 0 0 0 0 0 0 0 0 0 0 0 0 0 0 0 0 127 0"/>
<feOffset/>
<feGaussianBlur stdDeviation="3"/>
<feColorMatrix type="matrix" values="0 0 0 0 0 0 0 0 0 0 0 0 0 0 0 0 0 0 0.12 0"/>
<feBlend mode="normal" in2="effect1_dropShadow" result="effect2_dropShadow"/>
<feBlend mode="normal" in="SourceGraphic" in2="effect2_dropShadow" result="shape"/>
</filter>
<linearGradient id="paint0_linear" x1="104.403" y1="133.795" x2="564.098" y2="495.531" gradientUnits="userSpaceOnUse">
<stop stop-color="#05A8FF"/>
<stop offset="1" stop-color="#24BDFF"/>
</linearGradient>
<clipPath id="clip0">
<rect width="375" height="812" fill="white"/>
</clipPath>
</defs>
</svg>
