<svg aria-hidden="true" version="1.1" xmlns="http://www.w3.org/2000/svg" xmlns:xlink="http://www.w3.org/1999/xlink">
<defs>
<symbol id="icon-arrow-right" viewBox="0 0 33 32">
<title>arrow-right</title>
<path d="M13.95 2.142l1.626-1.626c0.688-0.688 1.801-0.688 2.482 0l14.235 14.228c0.688 0.688 0.688 1.801 0 2.482l-14.235 14.235c-0.688 0.688-1.801 0.688-2.482 0l-1.626-1.626c-0.696-0.696-0.681-1.831 0.029-2.512l8.824-8.406h-21.045c-0.974 0-1.757-0.784-1.757-1.757v-2.343c0-0.974 0.784-1.757 1.757-1.757h21.045l-8.824-8.406c-0.718-0.681-0.732-1.816-0.029-2.512z"></path>
</symbol>
<symbol id="icon-behance" viewBox="0 0 51 32">
<title>behance</title>
<path d="M20.508 14.303c2.811-1.344 4.278-3.377 4.278-6.541 0-6.241-4.65-7.761-10.015-7.761h-14.771v31.328h15.187c5.693 0 11.041-2.732 11.041-9.096 0-3.934-1.865-6.842-5.719-7.929zM6.886 5.348h6.462c2.484 0 4.72 0.698 4.72 3.58 0 2.661-1.741 3.73-4.199 3.73h-6.983zM14.25 26.007h-7.364v-8.628h7.505c3.032 0 4.95 1.264 4.95 4.473 0 3.165-2.29 4.155-5.092 4.155zM45.94 4.729h-12.703v-3.085h12.703zM50.917 20.314c0-6.709-3.925-12.305-11.041-12.305-6.913 0-11.607 5.198-11.607 12.004 0 7.063 4.446 11.907 11.607 11.907 5.419 0 8.928-2.44 10.617-7.629h-5.498c-0.592 1.936-3.032 2.961-4.924 2.961-3.651 0-5.569-2.139-5.569-5.772h16.362c0.027-0.371 0.053-0.769 0.053-1.167zM34.511 17.556c0.203-2.979 2.183-4.844 5.171-4.844 3.129 0 4.703 1.839 4.968 4.844z"></path>
</symbol>
<symbol id="icon-chevron-down" viewBox="0 0 53 32">
<title>chevron-down</title>
<path d="M24.225 31.035l-23.38-23.38c-1.128-1.128-1.128-2.956 0-4.083l2.727-2.727c1.126-1.126 2.95-1.128 4.078-0.005l18.616 18.529 18.616-18.529c1.128-1.123 2.953-1.121 4.078 0.005l2.727 2.727c1.128 1.128 1.128 2.956 0 4.083l-23.38 23.38c-1.128 1.127-2.956 1.127-4.083 0z"></path>
</symbol>
<symbol id="icon-heart" viewBox="0 0 37 32">
<title>heart</title>
<path d="M27.451 0c-3.654 0-7.081 2.87-8.733 4.494-1.652-1.624-5.079-4.494-8.733-4.494-6.249 0-9.985 3.64-9.985 9.738 0 4.996 4.597 9.173 4.762 9.318l12.869 12.442c0.606 0.585 1.569 0.585 2.175 0l12.848-12.401c0.186-0.186 4.783-4.37 4.783-9.359 0-6.097-3.737-9.738-9.985-9.738z"></path>
</symbol>
<symbol id="icon-instagram" viewBox="0 0 32 32">
<title>instagram</title>
<path d="M15.977 7.781c-4.533 0-8.189 3.656-8.189 8.189s3.656 8.189 8.189 8.189 8.189-3.656 8.189-8.189-3.656-8.189-8.189-8.189zM15.977 21.294c-2.929 0-5.324-2.388-5.324-5.324s2.388-5.324 5.324-5.324 5.324 2.388 5.324 5.324-2.395 5.324-5.324 5.324zM26.411 7.446c0 1.062-0.855 1.91-1.91 1.91-1.062 0-1.91-0.855-1.91-1.91s0.855-1.91 1.91-1.91 1.91 0.855 1.91 1.91zM31.834 9.384c-0.121-2.559-0.706-4.825-2.58-6.692-1.867-1.867-4.134-2.452-6.692-2.58-2.637-0.15-10.541-0.15-13.178 0-2.551 0.121-4.818 0.706-6.692 2.573s-2.452 4.134-2.58 6.692c-0.15 2.637-0.15 10.541 0 13.178 0.121 2.559 0.706 4.825 2.58 6.692s4.134 2.452 6.692 2.58c2.637 0.15 10.541 0.15 13.178 0 2.559-0.121 4.825-0.706 6.692-2.58 1.867-1.867 2.452-4.134 2.58-6.692 0.15-2.637 0.15-10.534 0-13.171zM28.428 25.384c-0.556 1.397-1.632 2.473-3.036 3.036-2.102 0.834-7.091 0.641-9.415 0.641s-7.319 0.185-9.415-0.641c-1.397-0.556-2.473-1.632-3.036-3.036-0.834-2.102-0.641-7.091-0.641-9.415s-0.185-7.319 0.641-9.415c0.556-1.397 1.632-2.473 3.036-3.036 2.102-0.834 7.091-0.641 9.415-0.641s7.319-0.185 9.415 0.641c1.397 0.556 2.473 1.632 3.036 3.036 0.834 2.102 0.641 7.091 0.641 9.415s0.192 7.319-0.641 9.415z"></path>
</symbol>
<symbol id="icon-linkedin" viewBox="0 0 32 32">
<title>linkedin</title>
<path d="M7.164 32h-6.636v-21.364h6.636zM3.843 7.721c-2.121 0-3.843-1.757-3.843-3.879s1.721-3.843 3.843-3.843 3.843 1.721 3.843 3.843-1.721 3.879-3.843 3.879zM32 32h-6.621v-10.4c0-2.479-0.050-5.657-3.45-5.657-3.45 0-3.979 2.693-3.979 5.479v10.579h-6.629v-21.364h6.364v2.914h0.093c0.886-1.679 3.050-3.45 6.279-3.45 6.714 0 7.95 4.421 7.95 10.164v11.736z"></path>
</symbol>
<symbol id="icon-pinterest" viewBox="0 0 25 32">
<title>pinterest</title>
<path d="M13.056 0c-6.566 0-13.056 4.378-13.056 11.462 0 4.506 2.534 7.066 4.070 7.066 0.634 0 0.998-1.766 0.998-2.266 0-0.595-1.517-1.862-1.517-4.339 0-5.146 3.917-8.794 8.986-8.794 4.358 0 7.584 2.477 7.584 7.027 0 3.398-1.363 9.773-5.779 9.773-1.594 0-2.957-1.152-2.957-2.803 0-2.419 1.69-4.762 1.69-7.258 0-4.237-6.010-3.469-6.010 1.651 0 1.075 0.134 2.266 0.614 3.245-0.883 3.802-2.688 9.466-2.688 13.382 0 1.21 0.173 2.4 0.288 3.61 0.218 0.243 0.109 0.218 0.442 0.096 3.226-4.416 3.11-5.28 4.57-11.059 0.787 1.498 2.822 2.304 4.435 2.304 6.797 0 9.85-6.624 9.85-12.595 0-6.355-5.491-10.502-11.52-10.502z"></path>
</symbol>
</defs>
</svg>
