<svg viewBox="0 0 468.36 468.36" xmlns="http://www.w3.org/2000/svg"><path d="m186.77 94.94v138.9a193.84 193.84 0 0 0 22.38-2v-85.35l27.32 25.51q9.53-6.52 19.53-12.36z" fill="#cd3137"/><path d="m283.61 312.61a27.6 27.6 0 0 1 -41.86-20.55 26.17 26.17 0 0 1 -.16-3 27.62 27.62 0 0 1 27.31-27.59 172.69 172.69 0 0 0 -11.54-21 50.07 50.07 0 0 0 -38.16 48.63 49.56 49.56 0 0 0 4.23 20.09l-14.28 13.33v-129.6q-11.68 9.95-22.38 21v160.15l50.14-46.85a49.91 49.91 0 0 0 48.09 9.29c0-.5 0-1 0-1.5a176.21 176.21 0 0 0 -1.39-22.4z" fill="#eab331"/><path d="m283.61 312.61a27.6 27.6 0 0 1 -41.86-20.55 26.17 26.17 0 0 1 -.16-3 27.62 27.62 0 0 1 27.31-27.59 172.69 172.69 0 0 0 -11.54-21 50.07 50.07 0 0 0 -38.16 48.63 49.56 49.56 0 0 0 4.23 20.09l-14.28 13.33v-131.78a173.78 173.78 0 0 0 -22.38-13.08v196.41l50.14-46.85a49.91 49.91 0 0 0 48.09 9.29c0-.5 0-1 0-1.5a176.21 176.21 0 0 0 -1.39-22.4z" fill="#455fa8"/><path d="m283.61 312.61a27.6 27.6 0 0 1 -41.86-20.55 26.17 26.17 0 0 1 -.16-3 27.62 27.62 0 0 1 27.31-27.59 172.69 172.69 0 0 0 -11.54-21 50.07 50.07 0 0 0 -38.16 48.63 49.56 49.56 0 0 0 4.23 20.09l-14.28 13.33v-176l27.32 25.48q9.53-6.52 19.53-12.36l-69.25-64.7v279.13l50.14-46.85a49.91 49.91 0 0 0 48.11 9.29c0-.5 0-1 0-1.5a176.21 176.21 0 0 0 -1.39-22.4zm-74.46-119.69v129.6l14.28-13.33a49.56 49.56 0 0 1 -4.23-20.09 50.07 50.07 0 0 1 38.16-48.57" fill="none"/><path d="m234.18 0-184.69 184.69a197.45 197.45 0 0 0 19.09 14.85l33.09-33.09 132.51-132.51 94.45 94.45q13.41-3.91 27.27-6.67z" fill="#cd3137"/><path d="m234.18 434.42-115.74-115.74q-5 12.27-8.92 25l124.66 124.68 15.26-15.26a174.44 174.44 0 0 0 35.31-69.25z" fill="#eab331"/><path d="m234.18 434.42-200.24-200.24 34.64-34.64 33.09-33.09a174 174 0 0 0 -42.54 8.6l-59.13 59.13 234.18 234.18 15.26-15.26a174.44 174.44 0 0 0 35.31-69.25z" fill="#455fa8"/><path d="m101.67 166.45 132.51-132.51 94.45 94.45q13.41-3.91 27.27-6.67l-121.72-121.72-234.18 234.18 234.18 234.18 15.26-15.26a174.44 174.44 0 0 0 35.31-69.25l-50.57 50.57-200.24-200.24 34.64-34.64z" fill="none"/><g fill="#eab331"><path d="m468.36 234.18-218.92 218.92a174.44 174.44 0 0 0 35.31-69.25l149.67-149.67-89.22-89.18-16.57-16.57q13.41-3.91 27.27-6.67z"/><path d="m309.42 259.47a50 50 0 0 1 -24.4 77c0-.5 0-1 0-1.5a176.21 176.21 0 0 0 -1.42-22.4 27.59 27.59 0 0 0 -9.6-50.64 26.32 26.32 0 0 0 -4.81-.43h-.29a172.69 172.69 0 0 0 -11.54-21 49.9 49.9 0 0 1 35 4.27l11-10.3-27.21-25.42-30-28-9.7-9.06q9.55-6.51 19.55-12.35l5.43 5.08 34.18 31.94 40.5 37.84z"/></g></svg>