<svg width="702" height="883" viewBox="0 0 702 883" fill="none" xmlns="http://www.w3.org/2000/svg">
<path fill-rule="evenodd" clip-rule="evenodd" d="M56.3 565.066L112.51 614.013L100.69 627.587L56.3 588.934L11.9103 627.587L0.0897217 614.013L56.3 565.066Z" fill="#7D7C7B"/>
<path fill-rule="evenodd" clip-rule="evenodd" d="M56.3 597.566L112.51 646.513L100.69 660.087L56.3 621.434L11.9103 660.087L0.0897217 646.513L56.3 597.566Z" fill="#7D7C7B"/>
<path fill-rule="evenodd" clip-rule="evenodd" d="M56.3 630.066L112.51 679.013L100.69 692.587L56.3 653.934L11.9103 692.587L0.0897217 679.013L56.3 630.066Z" fill="#7D7C7B"/>
<path d="M136.855 586.104H132.659V578.76H125.81V586.104H122.531V590.904H125.81V601.464C125.81 605.064 126.1 606.312 127.161 607.464C128.173 608.568 129.669 609 132.659 609H136.855V603.864H134.395C132.804 603.864 132.659 603.576 132.659 599.928V590.904H136.855V586.104Z" fill="black"/>
<path d="M148.325 576.984H141.476V609H148.325V595.992C148.325 593.592 148.47 592.92 149.241 592.104C149.965 591.384 151.074 590.952 152.232 590.952C153.389 590.952 154.354 591.384 154.933 592.152C155.511 592.968 155.704 593.832 155.704 595.992V609H162.553V594.744C162.553 591.288 161.974 589.32 160.479 587.688C158.984 586.056 156.862 585.192 154.499 585.192C152.087 585.192 150.254 585.96 148.325 587.784V576.984Z" fill="black"/>
<path d="M190.841 599.4C190.841 596.184 190.504 594.024 189.684 592.008C187.948 587.64 184.234 585.192 179.314 585.192C172.273 585.192 167.401 590.184 167.401 597.432C167.401 604.728 172.176 609.624 179.363 609.624C184.909 609.624 189.25 606.744 190.552 602.232H183.607C182.69 603.672 181.388 604.296 179.555 604.296C176.613 604.296 174.732 602.568 174.298 599.4H190.841ZM174.347 594.6C174.877 591.864 176.613 590.376 179.266 590.376C181.919 590.376 183.51 591.864 183.8 594.6H174.347Z" fill="black"/>
<path d="M144.138 628.776C143.511 623.88 139.893 621.192 133.913 621.192C127.691 621.192 123.977 624.024 123.977 628.68C123.977 632.376 125.955 634.248 131.067 635.352L135.312 636.312C137.144 636.744 137.916 637.32 137.916 638.424C137.916 639.816 136.517 640.68 134.347 640.68C131.598 640.68 130.151 639.672 129.765 637.464H123.35C123.736 642.6 127.739 645.624 134.202 645.624C140.665 645.624 144.668 642.552 144.668 637.656C144.668 635.784 144.041 634.056 142.932 633C141.919 631.944 140.472 631.32 137.627 630.744L133.334 629.832C131.164 629.352 130.489 628.92 130.489 628.056C130.489 626.904 131.791 626.136 133.768 626.136C136.035 626.136 137.434 627.048 137.723 628.776H144.138Z" fill="black"/>
<path d="M155.563 629.112C155.852 627.24 157.203 626.376 159.711 626.376C161.929 626.376 163.28 627.192 163.28 628.488C163.28 629.448 162.749 629.832 161.206 630.072L157.492 630.696C150.981 631.752 148.232 634.008 148.232 638.376C148.232 642.744 151.656 645.624 156.817 645.624C159.566 645.624 161.206 645.048 163.472 643.176C163.714 644.04 163.714 644.184 164.003 645H170.996C170.225 643.848 170.128 643.512 170.128 641.016V630.36C170.128 626.952 169.501 625.08 167.813 623.592C165.98 622.008 163.28 621.192 159.759 621.192C153.199 621.192 149.872 623.784 149.437 629.112H155.563ZM163.472 637.512C162.363 639.48 160.723 640.44 158.457 640.44C156.286 640.44 154.984 639.528 154.984 637.992C154.984 636.6 156.045 635.784 158.505 635.208L160.964 634.68C162.122 634.44 162.749 634.248 163.472 633.96V637.512Z" fill="black"/>
<path d="M183.038 612.984H176.189V645H183.038V612.984Z" fill="black"/>
<path d="M201.197 645L209.107 621.816H201.776L199.412 630.696C199.075 632.088 198.496 634.776 197.965 637.368C197.194 634.536 196.615 632.328 196.133 630.696L193.528 621.816H186.342L194.686 645H201.197Z" fill="black"/>
<path d="M218.017 629.112C218.307 627.24 219.657 626.376 222.165 626.376C224.384 626.376 225.734 627.192 225.734 628.488C225.734 629.448 225.204 629.832 223.66 630.072L219.946 630.696C213.435 631.752 210.686 634.008 210.686 638.376C210.686 642.744 214.111 645.624 219.271 645.624C222.02 645.624 223.66 645.048 225.927 643.176C226.168 644.04 226.168 644.184 226.458 645H233.451C232.679 643.848 232.583 643.512 232.583 641.016V630.36C232.583 626.952 231.956 625.08 230.268 623.592C228.435 622.008 225.734 621.192 222.213 621.192C215.654 621.192 212.326 623.784 211.892 629.112H218.017ZM225.927 637.512C224.818 639.48 223.178 640.44 220.911 640.44C218.741 640.44 217.439 639.528 217.439 637.992C217.439 636.6 218.5 635.784 220.959 635.208L223.419 634.68C224.577 634.44 225.204 634.248 225.927 633.96V637.512Z" fill="black"/>
<path d="M250.507 622.104H246.311V614.76H239.462V622.104H236.183V626.904H239.462V637.464C239.462 641.064 239.752 642.312 240.813 643.464C241.826 644.568 243.321 645 246.311 645H250.507V639.864H248.047C246.456 639.864 246.311 639.576 246.311 635.928V626.904H250.507V622.104Z" fill="black"/>
<path d="M261.977 621.816H255.129V645H261.977V621.816ZM261.977 612.984H255.129V618.6H261.977V612.984Z" fill="black"/>
<path d="M279.176 621.192C271.942 621.192 266.829 626.232 266.829 633.384C266.829 640.584 271.942 645.624 279.176 645.624C286.363 645.624 291.572 640.584 291.572 633.576C291.572 626.184 286.556 621.192 279.176 621.192ZM279.176 626.616C282.745 626.616 284.675 629.064 284.675 633.528C284.675 637.752 282.649 640.2 279.225 640.2C275.704 640.2 273.726 637.752 273.726 633.384C273.726 629.064 275.704 626.616 279.176 626.616Z" fill="black"/>
<path d="M296.435 621.816V645H303.284V631.992C303.284 629.976 303.525 629.016 304.297 628.152C305.02 627.336 306.081 626.904 307.239 626.904C308.445 626.904 309.458 627.384 310.036 628.248C310.615 629.112 310.76 630.024 310.76 632.376V645H317.609V629.976C317.609 624.504 314.522 621.144 309.458 621.144C307.046 621.144 305.599 621.768 303.091 624.072V621.816H296.435Z" fill="black"/>
<path d="M131.212 664.112C131.501 662.24 132.852 661.376 135.36 661.376C137.578 661.376 138.929 662.192 138.929 663.488C138.929 664.448 138.398 664.832 136.855 665.072L133.141 665.696C126.63 666.752 123.881 669.008 123.881 673.376C123.881 677.744 127.305 680.624 132.466 680.624C135.215 680.624 136.855 680.048 139.122 678.176C139.363 679.04 139.363 679.184 139.652 680H146.646C145.874 678.848 145.778 678.512 145.778 676.016V665.36C145.778 661.952 145.151 660.08 143.463 658.592C141.63 657.008 138.929 656.192 135.408 656.192C128.849 656.192 125.521 658.784 125.087 664.112H131.212ZM139.122 672.512C138.012 674.48 136.373 675.44 134.106 675.44C131.935 675.44 130.633 674.528 130.633 672.992C130.633 671.6 131.694 670.784 134.154 670.208L136.614 669.68C137.771 669.44 138.398 669.248 139.122 668.96V672.512Z" fill="black"/>
<path d="M151.838 656.816V680H158.687V673.472C158.687 669.008 158.928 666.848 159.603 665.312C160.375 663.584 162.304 662.528 164.668 662.528C165.246 662.528 165.584 662.528 166.404 662.624V656.192C161.436 656.144 159.7 657.2 158.35 660.944L158.542 656.816H151.838Z" fill="black"/>
<path d="M170.113 656.816V680H176.962V667.232C176.962 663.68 178.071 662.096 180.435 662.096C182.846 662.096 183.907 663.68 183.907 667.232V680H190.756V667.232C190.756 663.68 191.817 662.096 194.228 662.096C196.592 662.096 197.653 663.68 197.653 667.232V680H204.501V664.592C204.501 661.616 203.971 659.744 202.669 658.352C201.318 656.96 199.293 656.192 196.881 656.192C193.891 656.192 192.154 657.104 189.647 659.936C188.296 657.392 186.174 656.192 183.184 656.192C180.386 656.192 178.939 656.96 176.769 659.6V656.816H170.113Z" fill="black"/>
<path d="M223.655 656.816L220.616 667.28C220.086 669.344 219.7 670.928 219.411 672.464L219.121 671.552C218.591 669.632 218.591 669.584 217.916 667.424L214.491 656.816H207.16L214.829 676.304C215.649 678.32 215.697 678.464 215.697 679.28C215.697 681.296 214.588 682.208 212.176 682.208H210.15V687.344H214.154C216.71 687.344 218.253 687.008 219.362 686.192C220.568 685.328 221.34 683.984 222.642 680.192L230.745 656.816H223.655Z" fill="black"/>
<path fill-rule="evenodd" clip-rule="evenodd" d="M56.3 190.078L112.503 238.906L100.697 252.494L56.3 213.922L11.9026 252.494L0.0974121 238.906L56.3 190.078Z" fill="#20753B"/>
<path fill-rule="evenodd" clip-rule="evenodd" d="M56.3 222.566L112.51 271.513L100.69 285.087L56.3 246.434L11.9103 285.087L0.0897217 271.513L56.3 222.566Z" fill="#20753B"/>
<path fill-rule="evenodd" clip-rule="evenodd" d="M56.3 255.066L112.51 304.013L100.69 317.587L56.3 278.934L11.9103 317.587L0.0897217 304.013L56.3 255.066Z" fill="#20753B"/>
<path d="M136.855 211.104H132.659V203.76H125.81V211.104H122.531V215.904H125.81V226.464C125.81 230.064 126.1 231.312 127.161 232.464C128.173 233.568 129.669 234 132.659 234H136.855V228.864H134.395C132.804 228.864 132.659 228.576 132.659 224.928V215.904H136.855V211.104Z" fill="black"/>
<path d="M148.325 201.984H141.476V234H148.325V220.992C148.325 218.592 148.47 217.92 149.241 217.104C149.965 216.384 151.074 215.952 152.232 215.952C153.389 215.952 154.354 216.384 154.933 217.152C155.511 217.968 155.704 218.832 155.704 220.992V234H162.553V219.744C162.553 216.288 161.974 214.32 160.479 212.688C158.984 211.056 156.862 210.192 154.499 210.192C152.087 210.192 150.254 210.96 148.325 212.784V201.984Z" fill="black"/>
<path d="M190.841 224.4C190.841 221.184 190.504 219.024 189.684 217.008C187.948 212.64 184.234 210.192 179.314 210.192C172.273 210.192 167.401 215.184 167.401 222.432C167.401 229.728 172.176 234.624 179.363 234.624C184.909 234.624 189.25 231.744 190.552 227.232H183.607C182.69 228.672 181.388 229.296 179.555 229.296C176.613 229.296 174.732 227.568 174.298 224.4H190.841ZM174.347 219.6C174.877 216.864 176.613 215.376 179.266 215.376C181.919 215.376 183.51 216.864 183.8 219.6H174.347Z" fill="black"/>
<path d="M144.138 253.776C143.511 248.88 139.893 246.192 133.913 246.192C127.691 246.192 123.977 249.024 123.977 253.68C123.977 257.376 125.955 259.248 131.067 260.352L135.312 261.312C137.144 261.744 137.916 262.32 137.916 263.424C137.916 264.816 136.517 265.68 134.347 265.68C131.598 265.68 130.151 264.672 129.765 262.464H123.35C123.736 267.6 127.739 270.624 134.202 270.624C140.665 270.624 144.668 267.552 144.668 262.656C144.668 260.784 144.041 259.056 142.932 258C141.919 256.944 140.472 256.32 137.627 255.744L133.334 254.832C131.164 254.352 130.489 253.92 130.489 253.056C130.489 251.904 131.791 251.136 133.768 251.136C136.035 251.136 137.434 252.048 137.723 253.776H144.138Z" fill="black"/>
<path d="M155.563 254.112C155.852 252.24 157.203 251.376 159.711 251.376C161.929 251.376 163.28 252.192 163.28 253.488C163.28 254.448 162.749 254.832 161.206 255.072L157.492 255.696C150.981 256.752 148.232 259.008 148.232 263.376C148.232 267.744 151.656 270.624 156.817 270.624C159.566 270.624 161.206 270.048 163.472 268.176C163.714 269.04 163.714 269.184 164.003 270H170.996C170.225 268.848 170.128 268.512 170.128 266.016V255.36C170.128 251.952 169.501 250.08 167.813 248.592C165.98 247.008 163.28 246.192 159.759 246.192C153.199 246.192 149.872 248.784 149.437 254.112H155.563ZM163.472 262.512C162.363 264.48 160.723 265.44 158.457 265.44C156.286 265.44 154.984 264.528 154.984 262.992C154.984 261.6 156.045 260.784 158.505 260.208L160.964 259.68C162.122 259.44 162.749 259.248 163.472 258.96V262.512Z" fill="black"/>
<path d="M183.038 237.984H176.189V270H183.038V237.984Z" fill="black"/>
<path d="M201.197 270L209.107 246.816H201.776L199.412 255.696C199.075 257.088 198.496 259.776 197.965 262.368C197.194 259.536 196.615 257.328 196.133 255.696L193.528 246.816H186.342L194.686 270H201.197Z" fill="black"/>
<path d="M218.017 254.112C218.307 252.24 219.657 251.376 222.165 251.376C224.384 251.376 225.734 252.192 225.734 253.488C225.734 254.448 225.204 254.832 223.66 255.072L219.946 255.696C213.435 256.752 210.686 259.008 210.686 263.376C210.686 267.744 214.111 270.624 219.271 270.624C222.02 270.624 223.66 270.048 225.927 268.176C226.168 269.04 226.168 269.184 226.458 270H233.451C232.679 268.848 232.583 268.512 232.583 266.016V255.36C232.583 251.952 231.956 250.08 230.268 248.592C228.435 247.008 225.734 246.192 222.213 246.192C215.654 246.192 212.326 248.784 211.892 254.112H218.017ZM225.927 262.512C224.818 264.48 223.178 265.44 220.911 265.44C218.741 265.44 217.439 264.528 217.439 262.992C217.439 261.6 218.5 260.784 220.959 260.208L223.419 259.68C224.577 259.44 225.204 259.248 225.927 258.96V262.512Z" fill="black"/>
<path d="M250.507 247.104H246.311V239.76H239.462V247.104H236.183V251.904H239.462V262.464C239.462 266.064 239.752 267.312 240.813 268.464C241.826 269.568 243.321 270 246.311 270H250.507V264.864H248.047C246.456 264.864 246.311 264.576 246.311 260.928V251.904H250.507V247.104Z" fill="black"/>
<path d="M261.977 246.816H255.129V270H261.977V246.816ZM261.977 237.984H255.129V243.6H261.977V237.984Z" fill="black"/>
<path d="M279.176 246.192C271.942 246.192 266.829 251.232 266.829 258.384C266.829 265.584 271.942 270.624 279.176 270.624C286.363 270.624 291.572 265.584 291.572 258.576C291.572 251.184 286.556 246.192 279.176 246.192ZM279.176 251.616C282.745 251.616 284.675 254.064 284.675 258.528C284.675 262.752 282.649 265.2 279.225 265.2C275.704 265.2 273.726 262.752 273.726 258.384C273.726 254.064 275.704 251.616 279.176 251.616Z" fill="black"/>
<path d="M296.435 246.816V270H303.284V256.992C303.284 254.976 303.525 254.016 304.297 253.152C305.02 252.336 306.081 251.904 307.239 251.904C308.445 251.904 309.458 252.384 310.036 253.248C310.615 254.112 310.76 255.024 310.76 257.376V270H317.609V254.976C317.609 249.504 314.522 246.144 309.458 246.144C307.046 246.144 305.599 246.768 303.091 249.072V246.816H296.435Z" fill="black"/>
<path d="M131.212 289.112C131.501 287.24 132.852 286.376 135.36 286.376C137.578 286.376 138.929 287.192 138.929 288.488C138.929 289.448 138.398 289.832 136.855 290.072L133.141 290.696C126.63 291.752 123.881 294.008 123.881 298.376C123.881 302.744 127.305 305.624 132.466 305.624C135.215 305.624 136.855 305.048 139.122 303.176C139.363 304.04 139.363 304.184 139.652 305H146.646C145.874 303.848 145.778 303.512 145.778 301.016V290.36C145.778 286.952 145.151 285.08 143.463 283.592C141.63 282.008 138.929 281.192 135.408 281.192C128.849 281.192 125.521 283.784 125.087 289.112H131.212ZM139.122 297.512C138.012 299.48 136.373 300.44 134.106 300.44C131.935 300.44 130.633 299.528 130.633 297.992C130.633 296.6 131.694 295.784 134.154 295.208L136.614 294.68C137.771 294.44 138.398 294.248 139.122 293.96V297.512Z" fill="black"/>
<path d="M151.838 281.816V305H158.687V298.472C158.687 294.008 158.928 291.848 159.603 290.312C160.375 288.584 162.304 287.528 164.668 287.528C165.246 287.528 165.584 287.528 166.404 287.624V281.192C161.436 281.144 159.7 282.2 158.35 285.944L158.542 281.816H151.838Z" fill="black"/>
<path d="M170.113 281.816V305H176.962V292.232C176.962 288.68 178.071 287.096 180.435 287.096C182.846 287.096 183.907 288.68 183.907 292.232V305H190.756V292.232C190.756 288.68 191.817 287.096 194.228 287.096C196.592 287.096 197.653 288.68 197.653 292.232V305H204.501V289.592C204.501 286.616 203.971 284.744 202.669 283.352C201.318 281.96 199.293 281.192 196.881 281.192C193.891 281.192 192.154 282.104 189.647 284.936C188.296 282.392 186.174 281.192 183.184 281.192C180.386 281.192 178.939 281.96 176.769 284.6V281.816H170.113Z" fill="black"/>
<path d="M223.655 281.816L220.616 292.28C220.086 294.344 219.7 295.928 219.411 297.464L219.121 296.552C218.591 294.632 218.591 294.584 217.916 292.424L214.491 281.816H207.16L214.829 301.304C215.649 303.32 215.697 303.464 215.697 304.28C215.697 306.296 214.588 307.208 212.176 307.208H210.15V312.344H214.154C216.71 312.344 218.253 312.008 219.362 311.192C220.568 310.328 221.34 308.984 222.642 305.192L230.745 281.816H223.655Z" fill="black"/>
<path fill-rule="evenodd" clip-rule="evenodd" d="M56.3 0.06604L112.51 49.0126L100.69 62.5873L56.3 23.9339L11.9103 62.5873L0.0897217 49.0126L56.3 0.06604Z" fill="#E41E2E"/>
<path fill-rule="evenodd" clip-rule="evenodd" d="M56.3 32.666L112.51 81.6125L100.69 95.1873L56.3 56.5338L11.9103 95.1873L0.0897217 81.6125L56.3 32.666Z" fill="#E41E2E"/>
<path fill-rule="evenodd" clip-rule="evenodd" d="M56.3 65.166L112.51 114.113L100.69 127.687L56.3 89.0338L11.9103 127.687L0.0897217 114.113L56.3 65.166Z" fill="#E41E2E"/>
<path d="M136.855 22.1039H132.659V14.7599H125.81V22.1039H122.531V26.9039H125.81V37.4639C125.81 41.0639 126.1 42.3119 127.161 43.4639C128.173 44.5679 129.669 44.9999 132.659 44.9999H136.855V39.8639H134.395C132.804 39.8639 132.659 39.5759 132.659 35.9279V26.9039H136.855V22.1039Z" fill="black"/>
<path d="M148.325 12.9839H141.476V44.9999H148.325V31.9919C148.325 29.5919 148.47 28.9199 149.241 28.1039C149.965 27.3839 151.074 26.9519 152.232 26.9519C153.389 26.9519 154.354 27.3839 154.933 28.1519C155.511 28.9679 155.704 29.8319 155.704 31.9919V44.9999H162.553V30.7439C162.553 27.2879 161.974 25.3199 160.479 23.6879C158.984 22.0559 156.862 21.1919 154.499 21.1919C152.087 21.1919 150.254 21.9599 148.325 23.7839V12.9839Z" fill="black"/>
<path d="M190.841 35.3999C190.841 32.1839 190.504 30.0239 189.684 28.0079C187.948 23.6399 184.234 21.1919 179.314 21.1919C172.273 21.1919 167.401 26.1839 167.401 33.4319C167.401 40.7279 172.176 45.6239 179.363 45.6239C184.909 45.6239 189.25 42.7439 190.552 38.2319H183.607C182.69 39.6719 181.388 40.2959 179.555 40.2959C176.613 40.2959 174.732 38.5679 174.298 35.3999H190.841ZM174.347 30.5999C174.877 27.8639 176.613 26.3759 179.266 26.3759C181.919 26.3759 183.51 27.8639 183.8 30.5999H174.347Z" fill="black"/>
<path d="M144.138 64.7759C143.511 59.8799 139.893 57.1919 133.913 57.1919C127.691 57.1919 123.977 60.0239 123.977 64.6799C123.977 68.3759 125.955 70.2479 131.067 71.3519L135.312 72.3119C137.144 72.7439 137.916 73.3199 137.916 74.4239C137.916 75.8159 136.517 76.6799 134.347 76.6799C131.598 76.6799 130.151 75.6719 129.765 73.4639H123.35C123.736 78.5999 127.739 81.6239 134.202 81.6239C140.665 81.6239 144.668 78.5519 144.668 73.6559C144.668 71.7839 144.041 70.0559 142.932 68.9999C141.919 67.9439 140.472 67.3199 137.627 66.7439L133.334 65.8319C131.164 65.3519 130.489 64.9199 130.489 64.0559C130.489 62.9039 131.791 62.1359 133.768 62.1359C136.035 62.1359 137.434 63.0479 137.723 64.7759H144.138Z" fill="black"/>
<path d="M155.563 65.1119C155.852 63.2399 157.203 62.3759 159.711 62.3759C161.929 62.3759 163.28 63.1919 163.28 64.4879C163.28 65.4479 162.749 65.8319 161.206 66.0719L157.492 66.6959C150.981 67.7519 148.232 70.0079 148.232 74.3759C148.232 78.7439 151.656 81.6239 156.817 81.6239C159.566 81.6239 161.206 81.0479 163.472 79.1759C163.714 80.0399 163.714 80.1839 164.003 80.9999H170.996C170.225 79.8479 170.128 79.5119 170.128 77.0159V66.3599C170.128 62.9519 169.501 61.0799 167.813 59.5919C165.98 58.0079 163.28 57.1919 159.759 57.1919C153.199 57.1919 149.872 59.7839 149.437 65.1119H155.563ZM163.472 73.5119C162.363 75.4799 160.723 76.4399 158.457 76.4399C156.286 76.4399 154.984 75.5279 154.984 73.9919C154.984 72.5999 156.045 71.7839 158.505 71.2079L160.964 70.6799C162.122 70.4399 162.749 70.2479 163.472 69.9599V73.5119Z" fill="black"/>
<path d="M183.038 48.9839H176.189V80.9999H183.038V48.9839Z" fill="black"/>
<path d="M201.197 80.9999L209.107 57.8159H201.776L199.412 66.6959C199.075 68.0879 198.496 70.7759 197.965 73.3679C197.194 70.5359 196.615 68.3279 196.133 66.6959L193.528 57.8159H186.342L194.686 80.9999H201.197Z" fill="black"/>
<path d="M218.017 65.1119C218.307 63.2399 219.657 62.3759 222.165 62.3759C224.384 62.3759 225.734 63.1919 225.734 64.4879C225.734 65.4479 225.204 65.8319 223.66 66.0719L219.946 66.6959C213.435 67.7519 210.686 70.0079 210.686 74.3759C210.686 78.7439 214.111 81.6239 219.271 81.6239C222.02 81.6239 223.66 81.0479 225.927 79.1759C226.168 80.0399 226.168 80.1839 226.458 80.9999H233.451C232.679 79.8479 232.583 79.5119 232.583 77.0159V66.3599C232.583 62.9519 231.956 61.0799 230.268 59.5919C228.435 58.0079 225.734 57.1919 222.213 57.1919C215.654 57.1919 212.326 59.7839 211.892 65.1119H218.017ZM225.927 73.5119C224.818 75.4799 223.178 76.4399 220.911 76.4399C218.741 76.4399 217.439 75.5279 217.439 73.9919C217.439 72.5999 218.5 71.7839 220.959 71.2079L223.419 70.6799C224.577 70.4399 225.204 70.2479 225.927 69.9599V73.5119Z" fill="black"/>
<path d="M250.507 58.1039H246.311V50.7599H239.462V58.1039H236.183V62.9039H239.462V73.4639C239.462 77.0639 239.752 78.3119 240.813 79.4639C241.826 80.5679 243.321 80.9999 246.311 80.9999H250.507V75.8639H248.047C246.456 75.8639 246.311 75.5759 246.311 71.9279V62.9039H250.507V58.1039Z" fill="black"/>
<path d="M261.977 57.8159H255.129V80.9999H261.977V57.8159ZM261.977 48.9839H255.129V54.5999H261.977V48.9839Z" fill="black"/>
<path d="M279.176 57.1919C271.942 57.1919 266.829 62.2319 266.829 69.3839C266.829 76.5839 271.942 81.6239 279.176 81.6239C286.363 81.6239 291.572 76.5839 291.572 69.5759C291.572 62.1839 286.556 57.1919 279.176 57.1919ZM279.176 62.6159C282.745 62.6159 284.675 65.0639 284.675 69.5279C284.675 73.7519 282.649 76.1999 279.225 76.1999C275.704 76.1999 273.726 73.7519 273.726 69.3839C273.726 65.0639 275.704 62.6159 279.176 62.6159Z" fill="black"/>
<path d="M296.435 57.8159V80.9999H303.284V67.9919C303.284 65.9759 303.525 65.0159 304.297 64.1519C305.02 63.3359 306.081 62.9039 307.239 62.9039C308.445 62.9039 309.458 63.3839 310.036 64.2479C310.615 65.1119 310.76 66.0239 310.76 68.3759V80.9999H317.609V65.9759C317.609 60.5039 314.522 57.1439 309.458 57.1439C307.046 57.1439 305.599 57.7679 303.091 60.0719V57.8159H296.435Z" fill="black"/>
<path d="M131.212 100.112C131.501 98.2399 132.852 97.3759 135.36 97.3759C137.578 97.3759 138.929 98.1919 138.929 99.4879C138.929 100.448 138.398 100.832 136.855 101.072L133.141 101.696C126.63 102.752 123.881 105.008 123.881 109.376C123.881 113.744 127.305 116.624 132.466 116.624C135.215 116.624 136.855 116.048 139.122 114.176C139.363 115.04 139.363 115.184 139.652 116H146.646C145.874 114.848 145.778 114.512 145.778 112.016V101.36C145.778 97.9519 145.151 96.0799 143.463 94.5919C141.63 93.0079 138.929 92.1919 135.408 92.1919C128.849 92.1919 125.521 94.7839 125.087 100.112H131.212ZM139.122 108.512C138.012 110.48 136.373 111.44 134.106 111.44C131.935 111.44 130.633 110.528 130.633 108.992C130.633 107.6 131.694 106.784 134.154 106.208L136.614 105.68C137.771 105.44 138.398 105.248 139.122 104.96V108.512Z" fill="black"/>
<path d="M151.838 92.8159V116H158.687V109.472C158.687 105.008 158.928 102.848 159.603 101.312C160.375 99.5839 162.304 98.5279 164.668 98.5279C165.246 98.5279 165.584 98.5279 166.404 98.6239V92.1919C161.436 92.1439 159.7 93.1999 158.35 96.9439L158.542 92.8159H151.838Z" fill="black"/>
<path d="M170.113 92.8159V116H176.962V103.232C176.962 99.6799 178.071 98.0959 180.435 98.0959C182.846 98.0959 183.907 99.6799 183.907 103.232V116H190.756V103.232C190.756 99.6799 191.817 98.0959 194.228 98.0959C196.592 98.0959 197.653 99.6799 197.653 103.232V116H204.501V100.592C204.501 97.6159 203.971 95.7439 202.669 94.3519C201.318 92.9599 199.293 92.1919 196.881 92.1919C193.891 92.1919 192.154 93.1039 189.647 95.9359C188.296 93.3919 186.174 92.1919 183.184 92.1919C180.386 92.1919 178.939 92.9599 176.769 95.5999V92.8159H170.113Z" fill="black"/>
<path d="M223.655 92.8159L220.616 103.28C220.086 105.344 219.7 106.928 219.411 108.464L219.121 107.552C218.591 105.632 218.591 105.584 217.916 103.424L214.491 92.8159H207.16L214.829 112.304C215.649 114.32 215.697 114.464 215.697 115.28C215.697 117.296 214.588 118.208 212.176 118.208H210.15V123.344H214.154C216.71 123.344 218.253 123.008 219.362 122.192C220.568 121.328 221.34 119.984 222.642 116.192L230.745 92.8159H223.655Z" fill="black"/>
<path fill-rule="evenodd" clip-rule="evenodd" d="M425.5 255.066L481.71 304.013L469.89 317.587L425.5 278.934L381.11 317.587L369.29 304.013L425.5 255.066Z" fill="#593316"/>
<path fill-rule="evenodd" clip-rule="evenodd" d="M425.5 190.078L481.703 238.906L469.897 252.494L425.5 213.922L381.103 252.494L369.297 238.906L425.5 190.078Z" fill="#593316"/>
<path fill-rule="evenodd" clip-rule="evenodd" d="M425.5 222.566L481.71 271.513L469.89 285.087L425.5 246.434L381.11 285.087L369.29 271.513L425.5 222.566Z" fill="#593316"/>
<path d="M511.855 211.104H507.659V203.76H500.81V211.104H497.531V215.904H500.81V226.464C500.81 230.064 501.1 231.312 502.161 232.464C503.173 233.568 504.669 234 507.659 234H511.855V228.864H509.395C507.804 228.864 507.659 228.576 507.659 224.928V215.904H511.855V211.104Z" fill="black"/>
<path d="M523.325 201.984H516.476V234H523.325V220.992C523.325 218.592 523.47 217.92 524.241 217.104C524.965 216.384 526.074 215.952 527.232 215.952C528.389 215.952 529.354 216.384 529.933 217.152C530.511 217.968 530.704 218.832 530.704 220.992V234H537.553V219.744C537.553 216.288 536.974 214.32 535.479 212.688C533.984 211.056 531.862 210.192 529.499 210.192C527.087 210.192 525.254 210.96 523.325 212.784V201.984Z" fill="black"/>
<path d="M565.841 224.4C565.841 221.184 565.504 219.024 564.684 217.008C562.948 212.64 559.234 210.192 554.314 210.192C547.273 210.192 542.401 215.184 542.401 222.432C542.401 229.728 547.176 234.624 554.363 234.624C559.909 234.624 564.25 231.744 565.552 227.232H558.607C557.69 228.672 556.388 229.296 554.555 229.296C551.613 229.296 549.732 227.568 549.298 224.4H565.841ZM549.347 219.6C549.877 216.864 551.613 215.376 554.266 215.376C556.919 215.376 558.51 216.864 558.8 219.6H549.347Z" fill="black"/>
<path d="M519.138 253.776C518.511 248.88 514.893 246.192 508.913 246.192C502.691 246.192 498.977 249.024 498.977 253.68C498.977 257.376 500.955 259.248 506.067 260.352L510.312 261.312C512.144 261.744 512.916 262.32 512.916 263.424C512.916 264.816 511.517 265.68 509.347 265.68C506.598 265.68 505.151 264.672 504.765 262.464H498.35C498.736 267.6 502.739 270.624 509.202 270.624C515.665 270.624 519.668 267.552 519.668 262.656C519.668 260.784 519.041 259.056 517.932 258C516.919 256.944 515.472 256.32 512.627 255.744L508.334 254.832C506.164 254.352 505.489 253.92 505.489 253.056C505.489 251.904 506.791 251.136 508.768 251.136C511.035 251.136 512.434 252.048 512.723 253.776H519.138Z" fill="black"/>
<path d="M530.563 254.112C530.852 252.24 532.203 251.376 534.711 251.376C536.929 251.376 538.28 252.192 538.28 253.488C538.28 254.448 537.749 254.832 536.206 255.072L532.492 255.696C525.981 256.752 523.232 259.008 523.232 263.376C523.232 267.744 526.656 270.624 531.817 270.624C534.566 270.624 536.206 270.048 538.472 268.176C538.714 269.04 538.714 269.184 539.003 270H545.996C545.225 268.848 545.128 268.512 545.128 266.016V255.36C545.128 251.952 544.501 250.08 542.813 248.592C540.98 247.008 538.28 246.192 534.759 246.192C528.199 246.192 524.872 248.784 524.437 254.112H530.563ZM538.472 262.512C537.363 264.48 535.723 265.44 533.457 265.44C531.286 265.44 529.984 264.528 529.984 262.992C529.984 261.6 531.045 260.784 533.505 260.208L535.964 259.68C537.122 259.44 537.749 259.248 538.472 258.96V262.512Z" fill="black"/>
<path d="M558.038 237.984H551.189V270H558.038V237.984Z" fill="black"/>
<path d="M576.197 270L584.107 246.816H576.776L574.412 255.696C574.075 257.088 573.496 259.776 572.965 262.368C572.194 259.536 571.615 257.328 571.133 255.696L568.528 246.816H561.342L569.686 270H576.197Z" fill="black"/>
<path d="M593.017 254.112C593.307 252.24 594.657 251.376 597.165 251.376C599.384 251.376 600.734 252.192 600.734 253.488C600.734 254.448 600.204 254.832 598.66 255.072L594.946 255.696C588.435 256.752 585.686 259.008 585.686 263.376C585.686 267.744 589.111 270.624 594.271 270.624C597.02 270.624 598.66 270.048 600.927 268.176C601.168 269.04 601.168 269.184 601.458 270H608.451C607.679 268.848 607.583 268.512 607.583 266.016V255.36C607.583 251.952 606.956 250.08 605.268 248.592C603.435 247.008 600.734 246.192 597.213 246.192C590.654 246.192 587.326 248.784 586.892 254.112H593.017ZM600.927 262.512C599.818 264.48 598.178 265.44 595.911 265.44C593.741 265.44 592.439 264.528 592.439 262.992C592.439 261.6 593.5 260.784 595.959 260.208L598.419 259.68C599.577 259.44 600.204 259.248 600.927 258.96V262.512Z" fill="black"/>
<path d="M625.507 247.104H621.311V239.76H614.462V247.104H611.183V251.904H614.462V262.464C614.462 266.064 614.752 267.312 615.813 268.464C616.826 269.568 618.321 270 621.311 270H625.507V264.864H623.047C621.456 264.864 621.311 264.576 621.311 260.928V251.904H625.507V247.104Z" fill="black"/>
<path d="M636.977 246.816H630.129V270H636.977V246.816ZM636.977 237.984H630.129V243.6H636.977V237.984Z" fill="black"/>
<path d="M654.176 246.192C646.942 246.192 641.829 251.232 641.829 258.384C641.829 265.584 646.942 270.624 654.176 270.624C661.363 270.624 666.572 265.584 666.572 258.576C666.572 251.184 661.556 246.192 654.176 246.192ZM654.176 251.616C657.745 251.616 659.675 254.064 659.675 258.528C659.675 262.752 657.649 265.2 654.225 265.2C650.704 265.2 648.726 262.752 648.726 258.384C648.726 254.064 650.704 251.616 654.176 251.616Z" fill="black"/>
<path d="M671.435 246.816V270H678.284V256.992C678.284 254.976 678.525 254.016 679.297 253.152C680.02 252.336 681.081 251.904 682.239 251.904C683.445 251.904 684.458 252.384 685.036 253.248C685.615 254.112 685.76 255.024 685.76 257.376V270H692.609V254.976C692.609 249.504 689.522 246.144 684.458 246.144C682.046 246.144 680.599 246.768 678.091 249.072V246.816H671.435Z" fill="black"/>
<path d="M506.212 289.112C506.501 287.24 507.852 286.376 510.36 286.376C512.578 286.376 513.929 287.192 513.929 288.488C513.929 289.448 513.398 289.832 511.855 290.072L508.141 290.696C501.63 291.752 498.881 294.008 498.881 298.376C498.881 302.744 502.305 305.624 507.466 305.624C510.215 305.624 511.855 305.048 514.122 303.176C514.363 304.04 514.363 304.184 514.652 305H521.646C520.874 303.848 520.778 303.512 520.778 301.016V290.36C520.778 286.952 520.151 285.08 518.463 283.592C516.63 282.008 513.929 281.192 510.408 281.192C503.849 281.192 500.521 283.784 500.087 289.112H506.212ZM514.122 297.512C513.012 299.48 511.373 300.44 509.106 300.44C506.935 300.44 505.633 299.528 505.633 297.992C505.633 296.6 506.694 295.784 509.154 295.208L511.614 294.68C512.771 294.44 513.398 294.248 514.122 293.96V297.512Z" fill="black"/>
<path d="M526.838 281.816V305H533.687V298.472C533.687 294.008 533.928 291.848 534.603 290.312C535.375 288.584 537.304 287.528 539.668 287.528C540.246 287.528 540.584 287.528 541.404 287.624V281.192C536.436 281.144 534.7 282.2 533.35 285.944L533.542 281.816H526.838Z" fill="black"/>
<path d="M545.113 281.816V305H551.962V292.232C551.962 288.68 553.071 287.096 555.435 287.096C557.846 287.096 558.907 288.68 558.907 292.232V305H565.756V292.232C565.756 288.68 566.817 287.096 569.228 287.096C571.592 287.096 572.653 288.68 572.653 292.232V305H579.501V289.592C579.501 286.616 578.971 284.744 577.669 283.352C576.318 281.96 574.293 281.192 571.881 281.192C568.891 281.192 567.154 282.104 564.647 284.936C563.296 282.392 561.174 281.192 558.184 281.192C555.386 281.192 553.939 281.96 551.769 284.6V281.816H545.113Z" fill="black"/>
<path d="M598.655 281.816L595.616 292.28C595.086 294.344 594.7 295.928 594.411 297.464L594.121 296.552C593.591 294.632 593.591 294.584 592.916 292.424L589.491 281.816H582.16L589.829 301.304C590.649 303.32 590.697 303.464 590.697 304.28C590.697 306.296 589.588 307.208 587.176 307.208H585.15V312.344H589.154C591.71 312.344 593.253 312.008 594.362 311.192C595.568 310.328 596.34 308.984 597.642 305.192L605.745 281.816H598.655Z" fill="black"/>
<path fill-rule="evenodd" clip-rule="evenodd" d="M431.5 0.06604L487.71 49.0126L475.89 62.5873L431.5 23.9339L387.11 62.5873L375.29 49.0126L431.5 0.06604Z" fill="#10140E"/>
<path fill-rule="evenodd" clip-rule="evenodd" d="M431.5 32.666L487.71 81.6125L475.89 95.1873L431.5 56.5338L387.11 95.1873L375.29 81.6125L431.5 32.666Z" fill="#10140E"/>
<path fill-rule="evenodd" clip-rule="evenodd" d="M431.5 65.166L487.71 114.113L475.89 127.687L431.5 89.0338L387.11 127.687L375.29 114.113L431.5 65.166Z" fill="#10140E"/>
<path d="M511.855 23.104H507.659V15.76H500.81V23.104H497.531V27.904H500.81V38.464C500.81 42.064 501.1 43.312 502.161 44.464C503.173 45.568 504.669 46 507.659 46H511.855V40.864H509.395C507.804 40.864 507.659 40.576 507.659 36.928V27.904H511.855V23.104Z" fill="black"/>
<path d="M523.325 13.984H516.476V46H523.325V32.992C523.325 30.592 523.47 29.92 524.241 29.104C524.965 28.384 526.074 27.952 527.232 27.952C528.389 27.952 529.354 28.384 529.933 29.152C530.511 29.968 530.704 30.832 530.704 32.992V46H537.553V31.744C537.553 28.288 536.974 26.32 535.479 24.688C533.984 23.056 531.862 22.192 529.499 22.192C527.087 22.192 525.254 22.96 523.325 24.784V13.984Z" fill="black"/>
<path d="M565.841 36.4C565.841 33.184 565.504 31.024 564.684 29.008C562.948 24.64 559.234 22.192 554.314 22.192C547.273 22.192 542.401 27.184 542.401 34.432C542.401 41.728 547.176 46.624 554.363 46.624C559.909 46.624 564.25 43.744 565.552 39.232H558.607C557.69 40.672 556.388 41.296 554.555 41.296C551.613 41.296 549.732 39.568 549.298 36.4H565.841ZM549.347 31.6C549.877 28.864 551.613 27.376 554.266 27.376C556.919 27.376 558.51 28.864 558.8 31.6H549.347Z" fill="black"/>
<path d="M519.138 65.776C518.511 60.88 514.893 58.192 508.913 58.192C502.691 58.192 498.977 61.024 498.977 65.68C498.977 69.376 500.955 71.248 506.067 72.352L510.312 73.312C512.144 73.744 512.916 74.32 512.916 75.424C512.916 76.816 511.517 77.68 509.347 77.68C506.598 77.68 505.151 76.672 504.765 74.464H498.35C498.736 79.6 502.739 82.624 509.202 82.624C515.665 82.624 519.668 79.552 519.668 74.656C519.668 72.784 519.041 71.056 517.932 70C516.919 68.944 515.472 68.32 512.627 67.744L508.334 66.832C506.164 66.352 505.489 65.92 505.489 65.056C505.489 63.904 506.791 63.136 508.768 63.136C511.035 63.136 512.434 64.048 512.723 65.776H519.138Z" fill="black"/>
<path d="M530.563 66.112C530.852 64.24 532.203 63.376 534.711 63.376C536.929 63.376 538.28 64.192 538.28 65.488C538.28 66.448 537.749 66.832 536.206 67.072L532.492 67.696C525.981 68.752 523.232 71.008 523.232 75.376C523.232 79.744 526.656 82.624 531.817 82.624C534.566 82.624 536.206 82.048 538.472 80.176C538.714 81.04 538.714 81.184 539.003 82H545.996C545.225 80.848 545.128 80.512 545.128 78.016V67.36C545.128 63.952 544.501 62.08 542.813 60.592C540.98 59.008 538.28 58.192 534.759 58.192C528.199 58.192 524.872 60.784 524.437 66.112H530.563ZM538.472 74.512C537.363 76.48 535.723 77.44 533.457 77.44C531.286 77.44 529.984 76.528 529.984 74.992C529.984 73.6 531.045 72.784 533.505 72.208L535.964 71.68C537.122 71.44 537.749 71.248 538.472 70.96V74.512Z" fill="black"/>
<path d="M558.038 49.984H551.189V82H558.038V49.984Z" fill="black"/>
<path d="M576.197 82L584.107 58.816H576.776L574.412 67.696C574.075 69.088 573.496 71.776 572.965 74.368C572.194 71.536 571.615 69.328 571.133 67.696L568.528 58.816H561.342L569.686 82H576.197Z" fill="black"/>
<path d="M593.017 66.112C593.307 64.24 594.657 63.376 597.165 63.376C599.384 63.376 600.734 64.192 600.734 65.488C600.734 66.448 600.204 66.832 598.66 67.072L594.946 67.696C588.435 68.752 585.686 71.008 585.686 75.376C585.686 79.744 589.111 82.624 594.271 82.624C597.02 82.624 598.66 82.048 600.927 80.176C601.168 81.04 601.168 81.184 601.458 82H608.451C607.679 80.848 607.583 80.512 607.583 78.016V67.36C607.583 63.952 606.956 62.08 605.268 60.592C603.435 59.008 600.734 58.192 597.213 58.192C590.654 58.192 587.326 60.784 586.892 66.112H593.017ZM600.927 74.512C599.818 76.48 598.178 77.44 595.911 77.44C593.741 77.44 592.439 76.528 592.439 74.992C592.439 73.6 593.5 72.784 595.959 72.208L598.419 71.68C599.577 71.44 600.204 71.248 600.927 70.96V74.512Z" fill="black"/>
<path d="M625.507 59.104H621.311V51.76H614.462V59.104H611.183V63.904H614.462V74.464C614.462 78.064 614.752 79.312 615.813 80.464C616.826 81.568 618.321 82 621.311 82H625.507V76.864H623.047C621.456 76.864 621.311 76.576 621.311 72.928V63.904H625.507V59.104Z" fill="black"/>
<path d="M636.977 58.816H630.129V82H636.977V58.816ZM636.977 49.984H630.129V55.6H636.977V49.984Z" fill="black"/>
<path d="M654.176 58.192C646.942 58.192 641.829 63.232 641.829 70.384C641.829 77.584 646.942 82.624 654.176 82.624C661.363 82.624 666.572 77.584 666.572 70.576C666.572 63.184 661.556 58.192 654.176 58.192ZM654.176 63.616C657.745 63.616 659.675 66.064 659.675 70.528C659.675 74.752 657.649 77.2 654.225 77.2C650.704 77.2 648.726 74.752 648.726 70.384C648.726 66.064 650.704 63.616 654.176 63.616Z" fill="black"/>
<path d="M671.435 58.816V82H678.284V68.992C678.284 66.976 678.525 66.016 679.297 65.152C680.02 64.336 681.081 63.904 682.239 63.904C683.445 63.904 684.458 64.384 685.036 65.248C685.615 66.112 685.76 67.024 685.76 69.376V82H692.609V66.976C692.609 61.504 689.522 58.144 684.458 58.144C682.046 58.144 680.599 58.768 678.091 61.072V58.816H671.435Z" fill="black"/>
<path d="M506.212 101.112C506.501 99.24 507.852 98.376 510.36 98.376C512.578 98.376 513.929 99.192 513.929 100.488C513.929 101.448 513.398 101.832 511.855 102.072L508.141 102.696C501.63 103.752 498.881 106.008 498.881 110.376C498.881 114.744 502.305 117.624 507.466 117.624C510.215 117.624 511.855 117.048 514.122 115.176C514.363 116.04 514.363 116.184 514.652 117H521.646C520.874 115.848 520.778 115.512 520.778 113.016V102.36C520.778 98.952 520.151 97.08 518.463 95.592C516.63 94.008 513.929 93.192 510.408 93.192C503.849 93.192 500.521 95.784 500.087 101.112H506.212ZM514.122 109.512C513.012 111.48 511.373 112.44 509.106 112.44C506.935 112.44 505.633 111.528 505.633 109.992C505.633 108.6 506.694 107.784 509.154 107.208L511.614 106.68C512.771 106.44 513.398 106.248 514.122 105.96V109.512Z" fill="black"/>
<path d="M526.838 93.816V117H533.687V110.472C533.687 106.008 533.928 103.848 534.603 102.312C535.375 100.584 537.304 99.528 539.668 99.528C540.246 99.528 540.584 99.528 541.404 99.624V93.192C536.436 93.144 534.7 94.2 533.35 97.944L533.542 93.816H526.838Z" fill="black"/>
<path d="M545.113 93.816V117H551.962V104.232C551.962 100.68 553.071 99.096 555.435 99.096C557.846 99.096 558.907 100.68 558.907 104.232V117H565.756V104.232C565.756 100.68 566.817 99.096 569.228 99.096C571.592 99.096 572.653 100.68 572.653 104.232V117H579.501V101.592C579.501 98.616 578.971 96.744 577.669 95.352C576.318 93.96 574.293 93.192 571.881 93.192C568.891 93.192 567.154 94.104 564.647 96.936C563.296 94.392 561.174 93.192 558.184 93.192C555.386 93.192 553.939 93.96 551.769 96.6V93.816H545.113Z" fill="black"/>
<path d="M598.655 93.816L595.616 104.28C595.086 106.344 594.7 107.928 594.411 109.464L594.121 108.552C593.591 106.632 593.591 106.584 592.916 104.424L589.491 93.816H582.16L589.829 113.304C590.649 115.32 590.697 115.464 590.697 116.28C590.697 118.296 589.588 119.208 587.176 119.208H585.15V124.344H589.154C591.71 124.344 593.253 124.008 594.362 123.192C595.568 122.328 596.34 120.984 597.642 117.192L605.745 93.816H598.655Z" fill="black"/>
<path d="M136.855 396.104H132.659V388.76H125.81V396.104H122.531V400.904H125.81V411.464C125.81 415.064 126.1 416.312 127.161 417.464C128.173 418.568 129.669 419 132.659 419H136.855V413.864H134.395C132.804 413.864 132.659 413.576 132.659 409.928V400.904H136.855V396.104Z" fill="black"/>
<path d="M148.325 386.984H141.476V419H148.325V405.992C148.325 403.592 148.47 402.92 149.241 402.104C149.965 401.384 151.074 400.952 152.232 400.952C153.389 400.952 154.354 401.384 154.933 402.152C155.511 402.968 155.704 403.832 155.704 405.992V419H162.553V404.744C162.553 401.288 161.974 399.32 160.479 397.688C158.984 396.056 156.862 395.192 154.499 395.192C152.087 395.192 150.254 395.96 148.325 397.784V386.984Z" fill="black"/>
<path d="M190.841 409.4C190.841 406.184 190.504 404.024 189.684 402.008C187.948 397.64 184.234 395.192 179.314 395.192C172.273 395.192 167.401 400.184 167.401 407.432C167.401 414.728 172.176 419.624 179.363 419.624C184.909 419.624 189.25 416.744 190.552 412.232H183.607C182.69 413.672 181.388 414.296 179.555 414.296C176.613 414.296 174.732 412.568 174.298 409.4H190.841ZM174.347 404.6C174.877 401.864 176.613 400.376 179.266 400.376C181.919 400.376 183.51 401.864 183.8 404.6H174.347Z" fill="black"/>
<path d="M144.138 438.776C143.511 433.88 139.893 431.192 133.913 431.192C127.691 431.192 123.977 434.024 123.977 438.68C123.977 442.376 125.955 444.248 131.067 445.352L135.312 446.312C137.144 446.744 137.916 447.32 137.916 448.424C137.916 449.816 136.517 450.68 134.347 450.68C131.598 450.68 130.151 449.672 129.765 447.464H123.35C123.736 452.6 127.739 455.624 134.202 455.624C140.665 455.624 144.668 452.552 144.668 447.656C144.668 445.784 144.041 444.056 142.932 443C141.919 441.944 140.472 441.32 137.627 440.744L133.334 439.832C131.164 439.352 130.489 438.92 130.489 438.056C130.489 436.904 131.791 436.136 133.768 436.136C136.035 436.136 137.434 437.048 137.723 438.776H144.138Z" fill="black"/>
<path d="M155.563 439.112C155.852 437.24 157.203 436.376 159.711 436.376C161.929 436.376 163.28 437.192 163.28 438.488C163.28 439.448 162.749 439.832 161.206 440.072L157.492 440.696C150.981 441.752 148.232 444.008 148.232 448.376C148.232 452.744 151.656 455.624 156.817 455.624C159.566 455.624 161.206 455.048 163.472 453.176C163.714 454.04 163.714 454.184 164.003 455H170.996C170.225 453.848 170.128 453.512 170.128 451.016V440.36C170.128 436.952 169.501 435.08 167.813 433.592C165.98 432.008 163.28 431.192 159.759 431.192C153.199 431.192 149.872 433.784 149.437 439.112H155.563ZM163.472 447.512C162.363 449.48 160.723 450.44 158.457 450.44C156.286 450.44 154.984 449.528 154.984 447.992C154.984 446.6 156.045 445.784 158.505 445.208L160.964 444.68C162.122 444.44 162.749 444.248 163.472 443.96V447.512Z" fill="black"/>
<path d="M183.038 422.984H176.189V455H183.038V422.984Z" fill="black"/>
<path d="M201.197 455L209.107 431.816H201.776L199.412 440.696C199.075 442.088 198.496 444.776 197.965 447.368C197.194 444.536 196.615 442.328 196.133 440.696L193.528 431.816H186.342L194.686 455H201.197Z" fill="black"/>
<path d="M218.017 439.112C218.307 437.24 219.657 436.376 222.165 436.376C224.384 436.376 225.734 437.192 225.734 438.488C225.734 439.448 225.204 439.832 223.66 440.072L219.946 440.696C213.435 441.752 210.686 444.008 210.686 448.376C210.686 452.744 214.111 455.624 219.271 455.624C222.02 455.624 223.66 455.048 225.927 453.176C226.168 454.04 226.168 454.184 226.458 455H233.451C232.679 453.848 232.583 453.512 232.583 451.016V440.36C232.583 436.952 231.956 435.08 230.268 433.592C228.435 432.008 225.734 431.192 222.213 431.192C215.654 431.192 212.326 433.784 211.892 439.112H218.017ZM225.927 447.512C224.818 449.48 223.178 450.44 220.911 450.44C218.741 450.44 217.439 449.528 217.439 447.992C217.439 446.6 218.5 445.784 220.959 445.208L223.419 444.68C224.577 444.44 225.204 444.248 225.927 443.96V447.512Z" fill="black"/>
<path d="M250.507 432.104H246.311V424.76H239.462V432.104H236.183V436.904H239.462V447.464C239.462 451.064 239.752 452.312 240.813 453.464C241.826 454.568 243.321 455 246.311 455H250.507V449.864H248.047C246.456 449.864 246.311 449.576 246.311 445.928V436.904H250.507V432.104Z" fill="black"/>
<path d="M261.977 431.816H255.129V455H261.977V431.816ZM261.977 422.984H255.129V428.6H261.977V422.984Z" fill="black"/>
<path d="M279.176 431.192C271.942 431.192 266.829 436.232 266.829 443.384C266.829 450.584 271.942 455.624 279.176 455.624C286.363 455.624 291.572 450.584 291.572 443.576C291.572 436.184 286.556 431.192 279.176 431.192ZM279.176 436.616C282.745 436.616 284.675 439.064 284.675 443.528C284.675 447.752 282.649 450.2 279.225 450.2C275.704 450.2 273.726 447.752 273.726 443.384C273.726 439.064 275.704 436.616 279.176 436.616Z" fill="black"/>
<path d="M296.435 431.816V455H303.284V441.992C303.284 439.976 303.525 439.016 304.297 438.152C305.02 437.336 306.081 436.904 307.239 436.904C308.445 436.904 309.458 437.384 310.036 438.248C310.615 439.112 310.76 440.024 310.76 442.376V455H317.609V439.976C317.609 434.504 314.522 431.144 309.458 431.144C307.046 431.144 305.599 431.768 303.091 434.072V431.816H296.435Z" fill="black"/>
<path d="M131.212 474.112C131.501 472.24 132.852 471.376 135.36 471.376C137.578 471.376 138.929 472.192 138.929 473.488C138.929 474.448 138.398 474.832 136.855 475.072L133.141 475.696C126.63 476.752 123.881 479.008 123.881 483.376C123.881 487.744 127.305 490.624 132.466 490.624C135.215 490.624 136.855 490.048 139.122 488.176C139.363 489.04 139.363 489.184 139.652 490H146.646C145.874 488.848 145.778 488.512 145.778 486.016V475.36C145.778 471.952 145.151 470.08 143.463 468.592C141.63 467.008 138.929 466.192 135.408 466.192C128.849 466.192 125.521 468.784 125.087 474.112H131.212ZM139.122 482.512C138.012 484.48 136.373 485.44 134.106 485.44C131.935 485.44 130.633 484.528 130.633 482.992C130.633 481.6 131.694 480.784 134.154 480.208L136.614 479.68C137.771 479.44 138.398 479.248 139.122 478.96V482.512Z" fill="black"/>
<path d="M151.838 466.816V490H158.687V483.472C158.687 479.008 158.928 476.848 159.603 475.312C160.375 473.584 162.304 472.528 164.668 472.528C165.246 472.528 165.584 472.528 166.404 472.624V466.192C161.436 466.144 159.7 467.2 158.35 470.944L158.542 466.816H151.838Z" fill="black"/>
<path d="M170.113 466.816V490H176.962V477.232C176.962 473.68 178.071 472.096 180.435 472.096C182.846 472.096 183.907 473.68 183.907 477.232V490H190.756V477.232C190.756 473.68 191.817 472.096 194.228 472.096C196.592 472.096 197.653 473.68 197.653 477.232V490H204.501V474.592C204.501 471.616 203.971 469.744 202.669 468.352C201.318 466.96 199.293 466.192 196.881 466.192C193.891 466.192 192.154 467.104 189.647 469.936C188.296 467.392 186.174 466.192 183.184 466.192C180.386 466.192 178.939 466.96 176.769 469.6V466.816H170.113Z" fill="black"/>
<path d="M223.655 466.816L220.616 477.28C220.086 479.344 219.7 480.928 219.411 482.464L219.121 481.552C218.591 479.632 218.591 479.584 217.916 477.424L214.491 466.816H207.16L214.829 486.304C215.649 488.32 215.697 488.464 215.697 489.28C215.697 491.296 214.588 492.208 212.176 492.208H210.15V497.344H214.154C216.71 497.344 218.253 497.008 219.362 496.192C220.568 495.328 221.34 493.984 222.642 490.192L230.745 466.816H223.655Z" fill="black"/>
<path fill-rule="evenodd" clip-rule="evenodd" d="M56.3 375.066L112.51 424.013L100.69 437.587L56.3 398.934L11.9103 437.587L0.0897217 424.013L56.3 375.066Z" fill="#E97B3A"/>
<path fill-rule="evenodd" clip-rule="evenodd" d="M56.3 407.666L112.51 456.613L100.69 470.187L56.3 431.534L11.9103 470.187L0.0897217 456.613L56.3 407.666Z" fill="#E97B3A"/>
<path fill-rule="evenodd" clip-rule="evenodd" d="M56.3 440.166L112.51 489.113L100.69 502.687L56.3 464.034L11.9103 502.687L0.0897217 489.113L56.3 440.166Z" fill="#E97B3A"/>
<path d="M511.855 586.104H507.659V578.76H500.81V586.104H497.531V590.904H500.81V601.464C500.81 605.064 501.1 606.312 502.161 607.464C503.173 608.568 504.669 609 507.659 609H511.855V603.864H509.395C507.804 603.864 507.659 603.576 507.659 599.928V590.904H511.855V586.104Z" fill="black"/>
<path d="M523.325 576.984H516.476V609H523.325V595.992C523.325 593.592 523.47 592.92 524.241 592.104C524.965 591.384 526.074 590.952 527.232 590.952C528.389 590.952 529.354 591.384 529.933 592.152C530.511 592.968 530.704 593.832 530.704 595.992V609H537.553V594.744C537.553 591.288 536.974 589.32 535.479 587.688C533.984 586.056 531.862 585.192 529.499 585.192C527.087 585.192 525.254 585.96 523.325 587.784V576.984Z" fill="black"/>
<path d="M565.841 599.4C565.841 596.184 565.504 594.024 564.684 592.008C562.948 587.64 559.234 585.192 554.314 585.192C547.273 585.192 542.401 590.184 542.401 597.432C542.401 604.728 547.176 609.624 554.363 609.624C559.909 609.624 564.25 606.744 565.552 602.232H558.607C557.69 603.672 556.388 604.296 554.555 604.296C551.613 604.296 549.732 602.568 549.298 599.4H565.841ZM549.347 594.6C549.877 591.864 551.613 590.376 554.266 590.376C556.919 590.376 558.51 591.864 558.8 594.6H549.347Z" fill="black"/>
<path d="M519.138 628.776C518.511 623.88 514.893 621.192 508.913 621.192C502.691 621.192 498.977 624.024 498.977 628.68C498.977 632.376 500.955 634.248 506.067 635.352L510.312 636.312C512.144 636.744 512.916 637.32 512.916 638.424C512.916 639.816 511.517 640.68 509.347 640.68C506.598 640.68 505.151 639.672 504.765 637.464H498.35C498.736 642.6 502.739 645.624 509.202 645.624C515.665 645.624 519.668 642.552 519.668 637.656C519.668 635.784 519.041 634.056 517.932 633C516.919 631.944 515.472 631.32 512.627 630.744L508.334 629.832C506.164 629.352 505.489 628.92 505.489 628.056C505.489 626.904 506.791 626.136 508.768 626.136C511.035 626.136 512.434 627.048 512.723 628.776H519.138Z" fill="black"/>
<path d="M530.563 629.112C530.852 627.24 532.203 626.376 534.711 626.376C536.929 626.376 538.28 627.192 538.28 628.488C538.28 629.448 537.749 629.832 536.206 630.072L532.492 630.696C525.981 631.752 523.232 634.008 523.232 638.376C523.232 642.744 526.656 645.624 531.817 645.624C534.566 645.624 536.206 645.048 538.472 643.176C538.714 644.04 538.714 644.184 539.003 645H545.996C545.225 643.848 545.128 643.512 545.128 641.016V630.36C545.128 626.952 544.501 625.08 542.813 623.592C540.98 622.008 538.28 621.192 534.759 621.192C528.199 621.192 524.872 623.784 524.437 629.112H530.563ZM538.472 637.512C537.363 639.48 535.723 640.44 533.457 640.44C531.286 640.44 529.984 639.528 529.984 637.992C529.984 636.6 531.045 635.784 533.505 635.208L535.964 634.68C537.122 634.44 537.749 634.248 538.472 633.96V637.512Z" fill="black"/>
<path d="M558.038 612.984H551.189V645H558.038V612.984Z" fill="black"/>
<path d="M576.197 645L584.107 621.816H576.776L574.412 630.696C574.075 632.088 573.496 634.776 572.965 637.368C572.194 634.536 571.615 632.328 571.133 630.696L568.528 621.816H561.342L569.686 645H576.197Z" fill="black"/>
<path d="M593.017 629.112C593.307 627.24 594.657 626.376 597.165 626.376C599.384 626.376 600.734 627.192 600.734 628.488C600.734 629.448 600.204 629.832 598.66 630.072L594.946 630.696C588.435 631.752 585.686 634.008 585.686 638.376C585.686 642.744 589.111 645.624 594.271 645.624C597.02 645.624 598.66 645.048 600.927 643.176C601.168 644.04 601.168 644.184 601.458 645H608.451C607.679 643.848 607.583 643.512 607.583 641.016V630.36C607.583 626.952 606.956 625.08 605.268 623.592C603.435 622.008 600.734 621.192 597.213 621.192C590.654 621.192 587.326 623.784 586.892 629.112H593.017ZM600.927 637.512C599.818 639.48 598.178 640.44 595.911 640.44C593.741 640.44 592.439 639.528 592.439 637.992C592.439 636.6 593.5 635.784 595.959 635.208L598.419 634.68C599.577 634.44 600.204 634.248 600.927 633.96V637.512Z" fill="black"/>
<path d="M625.507 622.104H621.311V614.76H614.462V622.104H611.183V626.904H614.462V637.464C614.462 641.064 614.752 642.312 615.813 643.464C616.826 644.568 618.321 645 621.311 645H625.507V639.864H623.047C621.456 639.864 621.311 639.576 621.311 635.928V626.904H625.507V622.104Z" fill="black"/>
<path d="M636.977 621.816H630.129V645H636.977V621.816ZM636.977 612.984H630.129V618.6H636.977V612.984Z" fill="black"/>
<path d="M654.176 621.192C646.942 621.192 641.829 626.232 641.829 633.384C641.829 640.584 646.942 645.624 654.176 645.624C661.363 645.624 666.572 640.584 666.572 633.576C666.572 626.184 661.556 621.192 654.176 621.192ZM654.176 626.616C657.745 626.616 659.675 629.064 659.675 633.528C659.675 637.752 657.649 640.2 654.225 640.2C650.704 640.2 648.726 637.752 648.726 633.384C648.726 629.064 650.704 626.616 654.176 626.616Z" fill="black"/>
<path d="M671.435 621.816V645H678.284V631.992C678.284 629.976 678.525 629.016 679.297 628.152C680.02 627.336 681.081 626.904 682.239 626.904C683.445 626.904 684.458 627.384 685.036 628.248C685.615 629.112 685.76 630.024 685.76 632.376V645H692.609V629.976C692.609 624.504 689.522 621.144 684.458 621.144C682.046 621.144 680.599 621.768 678.091 624.072V621.816H671.435Z" fill="black"/>
<path d="M506.212 664.112C506.501 662.24 507.852 661.376 510.36 661.376C512.578 661.376 513.929 662.192 513.929 663.488C513.929 664.448 513.398 664.832 511.855 665.072L508.141 665.696C501.63 666.752 498.881 669.008 498.881 673.376C498.881 677.744 502.305 680.624 507.466 680.624C510.215 680.624 511.855 680.048 514.122 678.176C514.363 679.04 514.363 679.184 514.652 680H521.646C520.874 678.848 520.778 678.512 520.778 676.016V665.36C520.778 661.952 520.151 660.08 518.463 658.592C516.63 657.008 513.929 656.192 510.408 656.192C503.849 656.192 500.521 658.784 500.087 664.112H506.212ZM514.122 672.512C513.012 674.48 511.373 675.44 509.106 675.44C506.935 675.44 505.633 674.528 505.633 672.992C505.633 671.6 506.694 670.784 509.154 670.208L511.614 669.68C512.771 669.44 513.398 669.248 514.122 668.96V672.512Z" fill="black"/>
<path d="M526.838 656.816V680H533.687V673.472C533.687 669.008 533.928 666.848 534.603 665.312C535.375 663.584 537.304 662.528 539.668 662.528C540.246 662.528 540.584 662.528 541.404 662.624V656.192C536.436 656.144 534.7 657.2 533.35 660.944L533.542 656.816H526.838Z" fill="black"/>
<path d="M545.113 656.816V680H551.962V667.232C551.962 663.68 553.071 662.096 555.435 662.096C557.846 662.096 558.907 663.68 558.907 667.232V680H565.756V667.232C565.756 663.68 566.817 662.096 569.228 662.096C571.592 662.096 572.653 663.68 572.653 667.232V680H579.501V664.592C579.501 661.616 578.971 659.744 577.669 658.352C576.318 656.96 574.293 656.192 571.881 656.192C568.891 656.192 567.154 657.104 564.647 659.936C563.296 657.392 561.174 656.192 558.184 656.192C555.386 656.192 553.939 656.96 551.769 659.6V656.816H545.113Z" fill="black"/>
<path d="M598.655 656.816L595.616 667.28C595.086 669.344 594.7 670.928 594.411 672.464L594.121 671.552C593.591 669.632 593.591 669.584 592.916 667.424L589.491 656.816H582.16L589.829 676.304C590.649 678.32 590.697 678.464 590.697 679.28C590.697 681.296 589.588 682.208 587.176 682.208H585.15V687.344H589.154C591.71 687.344 593.253 687.008 594.362 686.192C595.568 685.328 596.34 683.984 597.642 680.192L605.745 656.816H598.655Z" fill="black"/>
<path fill-rule="evenodd" clip-rule="evenodd" d="M425.5 565.066L481.71 614.013L469.89 627.587L425.5 588.934L381.11 627.587L369.29 614.013L425.5 565.066Z" fill="#C1942D"/>
<path fill-rule="evenodd" clip-rule="evenodd" d="M425.5 597.566L481.71 646.513L469.89 660.087L425.5 621.434L381.11 660.087L369.29 646.513L425.5 597.566Z" fill="#C1942D"/>
<path fill-rule="evenodd" clip-rule="evenodd" d="M425.5 630.066L481.71 679.013L469.89 692.587L425.5 653.934L381.11 692.587L369.29 679.013L425.5 630.066Z" fill="#C1942D"/>
<path d="M511.855 396.104H507.659V388.76H500.81V396.104H497.531V400.904H500.81V411.464C500.81 415.064 501.1 416.312 502.161 417.464C503.173 418.568 504.669 419 507.659 419H511.855V413.864H509.395C507.804 413.864 507.659 413.576 507.659 409.928V400.904H511.855V396.104Z" fill="black"/>
<path d="M523.325 386.984H516.476V419H523.325V405.992C523.325 403.592 523.47 402.92 524.241 402.104C524.965 401.384 526.074 400.952 527.232 400.952C528.389 400.952 529.354 401.384 529.933 402.152C530.511 402.968 530.704 403.832 530.704 405.992V419H537.553V404.744C537.553 401.288 536.974 399.32 535.479 397.688C533.984 396.056 531.862 395.192 529.499 395.192C527.087 395.192 525.254 395.96 523.325 397.784V386.984Z" fill="black"/>
<path d="M565.841 409.4C565.841 406.184 565.504 404.024 564.684 402.008C562.948 397.64 559.234 395.192 554.314 395.192C547.273 395.192 542.401 400.184 542.401 407.432C542.401 414.728 547.176 419.624 554.363 419.624C559.909 419.624 564.25 416.744 565.552 412.232H558.607C557.69 413.672 556.388 414.296 554.555 414.296C551.613 414.296 549.732 412.568 549.298 409.4H565.841ZM549.347 404.6C549.877 401.864 551.613 400.376 554.266 400.376C556.919 400.376 558.51 401.864 558.8 404.6H549.347Z" fill="black"/>
<path d="M519.138 438.776C518.511 433.88 514.893 431.192 508.913 431.192C502.691 431.192 498.977 434.024 498.977 438.68C498.977 442.376 500.955 444.248 506.067 445.352L510.312 446.312C512.144 446.744 512.916 447.32 512.916 448.424C512.916 449.816 511.517 450.68 509.347 450.68C506.598 450.68 505.151 449.672 504.765 447.464H498.35C498.736 452.6 502.739 455.624 509.202 455.624C515.665 455.624 519.668 452.552 519.668 447.656C519.668 445.784 519.041 444.056 517.932 443C516.919 441.944 515.472 441.32 512.627 440.744L508.334 439.832C506.164 439.352 505.489 438.92 505.489 438.056C505.489 436.904 506.791 436.136 508.768 436.136C511.035 436.136 512.434 437.048 512.723 438.776H519.138Z" fill="black"/>
<path d="M530.563 439.112C530.852 437.24 532.203 436.376 534.711 436.376C536.929 436.376 538.28 437.192 538.28 438.488C538.28 439.448 537.749 439.832 536.206 440.072L532.492 440.696C525.981 441.752 523.232 444.008 523.232 448.376C523.232 452.744 526.656 455.624 531.817 455.624C534.566 455.624 536.206 455.048 538.472 453.176C538.714 454.04 538.714 454.184 539.003 455H545.996C545.225 453.848 545.128 453.512 545.128 451.016V440.36C545.128 436.952 544.501 435.08 542.813 433.592C540.98 432.008 538.28 431.192 534.759 431.192C528.199 431.192 524.872 433.784 524.437 439.112H530.563ZM538.472 447.512C537.363 449.48 535.723 450.44 533.457 450.44C531.286 450.44 529.984 449.528 529.984 447.992C529.984 446.6 531.045 445.784 533.505 445.208L535.964 444.68C537.122 444.44 537.749 444.248 538.472 443.96V447.512Z" fill="black"/>
<path d="M558.038 422.984H551.189V455H558.038V422.984Z" fill="black"/>
<path d="M576.197 455L584.107 431.816H576.776L574.412 440.696C574.075 442.088 573.496 444.776 572.965 447.368C572.194 444.536 571.615 442.328 571.133 440.696L568.528 431.816H561.342L569.686 455H576.197Z" fill="black"/>
<path d="M593.017 439.112C593.307 437.24 594.657 436.376 597.165 436.376C599.384 436.376 600.734 437.192 600.734 438.488C600.734 439.448 600.204 439.832 598.66 440.072L594.946 440.696C588.435 441.752 585.686 444.008 585.686 448.376C585.686 452.744 589.111 455.624 594.271 455.624C597.02 455.624 598.66 455.048 600.927 453.176C601.168 454.04 601.168 454.184 601.458 455H608.451C607.679 453.848 607.583 453.512 607.583 451.016V440.36C607.583 436.952 606.956 435.08 605.268 433.592C603.435 432.008 600.734 431.192 597.213 431.192C590.654 431.192 587.326 433.784 586.892 439.112H593.017ZM600.927 447.512C599.818 449.48 598.178 450.44 595.911 450.44C593.741 450.44 592.439 449.528 592.439 447.992C592.439 446.6 593.5 445.784 595.959 445.208L598.419 444.68C599.577 444.44 600.204 444.248 600.927 443.96V447.512Z" fill="black"/>
<path d="M625.507 432.104H621.311V424.76H614.462V432.104H611.183V436.904H614.462V447.464C614.462 451.064 614.752 452.312 615.813 453.464C616.826 454.568 618.321 455 621.311 455H625.507V449.864H623.047C621.456 449.864 621.311 449.576 621.311 445.928V436.904H625.507V432.104Z" fill="black"/>
<path d="M636.977 431.816H630.129V455H636.977V431.816ZM636.977 422.984H630.129V428.6H636.977V422.984Z" fill="black"/>
<path d="M654.176 431.192C646.942 431.192 641.829 436.232 641.829 443.384C641.829 450.584 646.942 455.624 654.176 455.624C661.363 455.624 666.572 450.584 666.572 443.576C666.572 436.184 661.556 431.192 654.176 431.192ZM654.176 436.616C657.745 436.616 659.675 439.064 659.675 443.528C659.675 447.752 657.649 450.2 654.225 450.2C650.704 450.2 648.726 447.752 648.726 443.384C648.726 439.064 650.704 436.616 654.176 436.616Z" fill="black"/>
<path d="M671.435 431.816V455H678.284V441.992C678.284 439.976 678.525 439.016 679.297 438.152C680.02 437.336 681.081 436.904 682.239 436.904C683.445 436.904 684.458 437.384 685.036 438.248C685.615 439.112 685.76 440.024 685.76 442.376V455H692.609V439.976C692.609 434.504 689.522 431.144 684.458 431.144C682.046 431.144 680.599 431.768 678.091 434.072V431.816H671.435Z" fill="black"/>
<path d="M506.212 474.112C506.501 472.24 507.852 471.376 510.36 471.376C512.578 471.376 513.929 472.192 513.929 473.488C513.929 474.448 513.398 474.832 511.855 475.072L508.141 475.696C501.63 476.752 498.881 479.008 498.881 483.376C498.881 487.744 502.305 490.624 507.466 490.624C510.215 490.624 511.855 490.048 514.122 488.176C514.363 489.04 514.363 489.184 514.652 490H521.646C520.874 488.848 520.778 488.512 520.778 486.016V475.36C520.778 471.952 520.151 470.08 518.463 468.592C516.63 467.008 513.929 466.192 510.408 466.192C503.849 466.192 500.521 468.784 500.087 474.112H506.212ZM514.122 482.512C513.012 484.48 511.373 485.44 509.106 485.44C506.935 485.44 505.633 484.528 505.633 482.992C505.633 481.6 506.694 480.784 509.154 480.208L511.614 479.68C512.771 479.44 513.398 479.248 514.122 478.96V482.512Z" fill="black"/>
<path d="M526.838 466.816V490H533.687V483.472C533.687 479.008 533.928 476.848 534.603 475.312C535.375 473.584 537.304 472.528 539.668 472.528C540.246 472.528 540.584 472.528 541.404 472.624V466.192C536.436 466.144 534.7 467.2 533.35 470.944L533.542 466.816H526.838Z" fill="black"/>
<path d="M545.113 466.816V490H551.962V477.232C551.962 473.68 553.071 472.096 555.435 472.096C557.846 472.096 558.907 473.68 558.907 477.232V490H565.756V477.232C565.756 473.68 566.817 472.096 569.228 472.096C571.592 472.096 572.653 473.68 572.653 477.232V490H579.501V474.592C579.501 471.616 578.971 469.744 577.669 468.352C576.318 466.96 574.293 466.192 571.881 466.192C568.891 466.192 567.154 467.104 564.647 469.936C563.296 467.392 561.174 466.192 558.184 466.192C555.386 466.192 553.939 466.96 551.769 469.6V466.816H545.113Z" fill="black"/>
<path d="M598.655 466.816L595.616 477.28C595.086 479.344 594.7 480.928 594.411 482.464L594.121 481.552C593.591 479.632 593.591 479.584 592.916 477.424L589.491 466.816H582.16L589.829 486.304C590.649 488.32 590.697 488.464 590.697 489.28C590.697 491.296 589.588 492.208 587.176 492.208H585.15V497.344H589.154C591.71 497.344 593.253 497.008 594.362 496.192C595.568 495.328 596.34 493.984 597.642 490.192L605.745 466.816H598.655Z" fill="black"/>
<path fill-rule="evenodd" clip-rule="evenodd" d="M431.5 374.066L487.71 423.013L475.89 436.587L431.5 397.934L387.11 436.587L375.29 423.013L431.5 374.066Z" fill="#AB322A"/>
<path fill-rule="evenodd" clip-rule="evenodd" d="M431.5 406.666L487.71 455.613L475.89 469.187L431.5 430.534L387.11 469.187L375.29 455.613L431.5 406.666Z" fill="#AB322A"/>
<path fill-rule="evenodd" clip-rule="evenodd" d="M431.5 439.166L487.71 488.113L475.89 501.687L431.5 463.034L387.11 501.687L375.29 488.113L431.5 439.166Z" fill="#AB322A"/>
<path d="M136.855 776.104H132.659V768.76H125.81V776.104H122.531V780.904H125.81V791.464C125.81 795.064 126.1 796.312 127.161 797.464C128.173 798.568 129.669 799 132.659 799H136.855V793.864H134.395C132.804 793.864 132.659 793.576 132.659 789.928V780.904H136.855V776.104Z" fill="black"/>
<path d="M148.325 766.984H141.476V799H148.325V785.992C148.325 783.592 148.47 782.92 149.241 782.104C149.965 781.384 151.074 780.952 152.232 780.952C153.389 780.952 154.354 781.384 154.933 782.152C155.511 782.968 155.704 783.832 155.704 785.992V799H162.553V784.744C162.553 781.288 161.974 779.32 160.479 777.688C158.984 776.056 156.862 775.192 154.499 775.192C152.087 775.192 150.254 775.96 148.325 777.784V766.984Z" fill="black"/>
<path d="M190.841 789.4C190.841 786.184 190.504 784.024 189.684 782.008C187.948 777.64 184.234 775.192 179.314 775.192C172.273 775.192 167.401 780.184 167.401 787.432C167.401 794.728 172.176 799.624 179.363 799.624C184.909 799.624 189.25 796.744 190.552 792.232H183.607C182.69 793.672 181.388 794.296 179.555 794.296C176.613 794.296 174.732 792.568 174.298 789.4H190.841ZM174.347 784.6C174.877 781.864 176.613 780.376 179.266 780.376C181.919 780.376 183.51 781.864 183.8 784.6H174.347Z" fill="black"/>
<path d="M144.138 818.776C143.511 813.88 139.893 811.192 133.913 811.192C127.691 811.192 123.977 814.024 123.977 818.68C123.977 822.376 125.955 824.248 131.067 825.352L135.312 826.312C137.144 826.744 137.916 827.32 137.916 828.424C137.916 829.816 136.517 830.68 134.347 830.68C131.598 830.68 130.151 829.672 129.765 827.464H123.35C123.736 832.6 127.739 835.624 134.202 835.624C140.665 835.624 144.668 832.552 144.668 827.656C144.668 825.784 144.041 824.056 142.932 823C141.919 821.944 140.472 821.32 137.627 820.744L133.334 819.832C131.164 819.352 130.489 818.92 130.489 818.056C130.489 816.904 131.791 816.136 133.768 816.136C136.035 816.136 137.434 817.048 137.723 818.776H144.138Z" fill="black"/>
<path d="M155.563 819.112C155.852 817.24 157.203 816.376 159.711 816.376C161.929 816.376 163.28 817.192 163.28 818.488C163.28 819.448 162.749 819.832 161.206 820.072L157.492 820.696C150.981 821.752 148.232 824.008 148.232 828.376C148.232 832.744 151.656 835.624 156.817 835.624C159.566 835.624 161.206 835.048 163.472 833.176C163.714 834.04 163.714 834.184 164.003 835H170.996C170.225 833.848 170.128 833.512 170.128 831.016V820.36C170.128 816.952 169.501 815.08 167.813 813.592C165.98 812.008 163.28 811.192 159.759 811.192C153.199 811.192 149.872 813.784 149.437 819.112H155.563ZM163.472 827.512C162.363 829.48 160.723 830.44 158.457 830.44C156.286 830.44 154.984 829.528 154.984 827.992C154.984 826.6 156.045 825.784 158.505 825.208L160.964 824.68C162.122 824.44 162.749 824.248 163.472 823.96V827.512Z" fill="black"/>
<path d="M183.038 802.984H176.189V835H183.038V802.984Z" fill="black"/>
<path d="M201.197 835L209.107 811.816H201.776L199.412 820.696C199.075 822.088 198.496 824.776 197.965 827.368C197.194 824.536 196.615 822.328 196.133 820.696L193.528 811.816H186.342L194.686 835H201.197Z" fill="black"/>
<path d="M218.017 819.112C218.307 817.24 219.657 816.376 222.165 816.376C224.384 816.376 225.734 817.192 225.734 818.488C225.734 819.448 225.204 819.832 223.66 820.072L219.946 820.696C213.435 821.752 210.686 824.008 210.686 828.376C210.686 832.744 214.111 835.624 219.271 835.624C222.02 835.624 223.66 835.048 225.927 833.176C226.168 834.04 226.168 834.184 226.458 835H233.451C232.679 833.848 232.583 833.512 232.583 831.016V820.36C232.583 816.952 231.956 815.08 230.268 813.592C228.435 812.008 225.734 811.192 222.213 811.192C215.654 811.192 212.326 813.784 211.892 819.112H218.017ZM225.927 827.512C224.818 829.48 223.178 830.44 220.911 830.44C218.741 830.44 217.439 829.528 217.439 827.992C217.439 826.6 218.5 825.784 220.959 825.208L223.419 824.68C224.577 824.44 225.204 824.248 225.927 823.96V827.512Z" fill="black"/>
<path d="M250.507 812.104H246.311V804.76H239.462V812.104H236.183V816.904H239.462V827.464C239.462 831.064 239.752 832.312 240.813 833.464C241.826 834.568 243.321 835 246.311 835H250.507V829.864H248.047C246.456 829.864 246.311 829.576 246.311 825.928V816.904H250.507V812.104Z" fill="black"/>
<path d="M261.977 811.816H255.129V835H261.977V811.816ZM261.977 802.984H255.129V808.6H261.977V802.984Z" fill="black"/>
<path d="M279.176 811.192C271.942 811.192 266.829 816.232 266.829 823.384C266.829 830.584 271.942 835.624 279.176 835.624C286.363 835.624 291.572 830.584 291.572 823.576C291.572 816.184 286.556 811.192 279.176 811.192ZM279.176 816.616C282.745 816.616 284.675 819.064 284.675 823.528C284.675 827.752 282.649 830.2 279.225 830.2C275.704 830.2 273.726 827.752 273.726 823.384C273.726 819.064 275.704 816.616 279.176 816.616Z" fill="black"/>
<path d="M296.435 811.816V835H303.284V821.992C303.284 819.976 303.525 819.016 304.297 818.152C305.02 817.336 306.081 816.904 307.239 816.904C308.445 816.904 309.458 817.384 310.036 818.248C310.615 819.112 310.76 820.024 310.76 822.376V835H317.609V819.976C317.609 814.504 314.522 811.144 309.458 811.144C307.046 811.144 305.599 811.768 303.091 814.072V811.816H296.435Z" fill="black"/>
<path d="M131.212 854.112C131.501 852.24 132.852 851.376 135.36 851.376C137.578 851.376 138.929 852.192 138.929 853.488C138.929 854.448 138.398 854.832 136.855 855.072L133.141 855.696C126.63 856.752 123.881 859.008 123.881 863.376C123.881 867.744 127.305 870.624 132.466 870.624C135.215 870.624 136.855 870.048 139.122 868.176C139.363 869.04 139.363 869.184 139.652 870H146.646C145.874 868.848 145.778 868.512 145.778 866.016V855.36C145.778 851.952 145.151 850.08 143.463 848.592C141.63 847.008 138.929 846.192 135.408 846.192C128.849 846.192 125.521 848.784 125.087 854.112H131.212ZM139.122 862.512C138.012 864.48 136.373 865.44 134.106 865.44C131.935 865.44 130.633 864.528 130.633 862.992C130.633 861.6 131.694 860.784 134.154 860.208L136.614 859.68C137.771 859.44 138.398 859.248 139.122 858.96V862.512Z" fill="black"/>
<path d="M151.838 846.816V870H158.687V863.472C158.687 859.008 158.928 856.848 159.603 855.312C160.375 853.584 162.304 852.528 164.668 852.528C165.246 852.528 165.584 852.528 166.404 852.624V846.192C161.436 846.144 159.7 847.2 158.35 850.944L158.542 846.816H151.838Z" fill="black"/>
<path d="M170.113 846.816V870H176.962V857.232C176.962 853.68 178.071 852.096 180.435 852.096C182.846 852.096 183.907 853.68 183.907 857.232V870H190.756V857.232C190.756 853.68 191.817 852.096 194.228 852.096C196.592 852.096 197.653 853.68 197.653 857.232V870H204.501V854.592C204.501 851.616 203.971 849.744 202.669 848.352C201.318 846.96 199.293 846.192 196.881 846.192C193.891 846.192 192.154 847.104 189.647 849.936C188.296 847.392 186.174 846.192 183.184 846.192C180.386 846.192 178.939 846.96 176.769 849.6V846.816H170.113Z" fill="black"/>
<path d="M223.655 846.816L220.616 857.28C220.086 859.344 219.7 860.928 219.411 862.464L219.121 861.552C218.591 859.632 218.591 859.584 217.916 857.424L214.491 846.816H207.16L214.829 866.304C215.649 868.32 215.697 868.464 215.697 869.28C215.697 871.296 214.588 872.208 212.176 872.208H210.15V877.344H214.154C216.71 877.344 218.253 877.008 219.362 876.192C220.568 875.328 221.34 873.984 222.642 870.192L230.745 846.816H223.655Z" fill="black"/>
<path fill-rule="evenodd" clip-rule="evenodd" d="M56.3 755.066L112.51 804.013L100.69 817.587L56.3 778.934L11.9103 817.587L0.0897217 804.013L56.3 755.066Z" fill="#22619E"/>
<path fill-rule="evenodd" clip-rule="evenodd" d="M56.3 787.666L112.51 836.613L100.69 850.187L56.3 811.534L11.9103 850.187L0.0897217 836.613L56.3 787.666Z" fill="#22619E"/>
<path fill-rule="evenodd" clip-rule="evenodd" d="M56.3 820.166L112.51 869.113L100.69 882.687L56.3 844.034L11.9103 882.687L0.0897217 869.113L56.3 820.166Z" fill="#22619E"/>
<path d="M517.855 766.104H513.659V758.76H506.81V766.104H503.531V770.904H506.81V781.464C506.81 785.064 507.1 786.312 508.161 787.464C509.173 788.568 510.669 789 513.659 789H517.855V783.864H515.395C513.804 783.864 513.659 783.576 513.659 779.928V770.904H517.855V766.104Z" fill="black"/>
<path d="M529.325 756.984H522.476V789H529.325V775.992C529.325 773.592 529.47 772.92 530.241 772.104C530.965 771.384 532.074 770.952 533.232 770.952C534.389 770.952 535.354 771.384 535.933 772.152C536.511 772.968 536.704 773.832 536.704 775.992V789H543.553V774.744C543.553 771.288 542.974 769.32 541.479 767.688C539.984 766.056 537.862 765.192 535.499 765.192C533.087 765.192 531.254 765.96 529.325 767.784V756.984Z" fill="black"/>
<path d="M571.841 779.4C571.841 776.184 571.504 774.024 570.684 772.008C568.948 767.64 565.234 765.192 560.314 765.192C553.273 765.192 548.401 770.184 548.401 777.432C548.401 784.728 553.176 789.624 560.363 789.624C565.909 789.624 570.25 786.744 571.552 782.232H564.607C563.69 783.672 562.388 784.296 560.555 784.296C557.613 784.296 555.732 782.568 555.298 779.4H571.841ZM555.347 774.6C555.877 771.864 557.613 770.376 560.266 770.376C562.919 770.376 564.51 771.864 564.8 774.6H555.347Z" fill="black"/>
<path d="M525.138 808.776C524.511 803.88 520.893 801.192 514.913 801.192C508.691 801.192 504.977 804.024 504.977 808.68C504.977 812.376 506.955 814.248 512.067 815.352L516.312 816.312C518.144 816.744 518.916 817.32 518.916 818.424C518.916 819.816 517.517 820.68 515.347 820.68C512.598 820.68 511.151 819.672 510.765 817.464H504.35C504.736 822.6 508.739 825.624 515.202 825.624C521.665 825.624 525.668 822.552 525.668 817.656C525.668 815.784 525.041 814.056 523.932 813C522.919 811.944 521.472 811.32 518.627 810.744L514.334 809.832C512.164 809.352 511.489 808.92 511.489 808.056C511.489 806.904 512.791 806.136 514.768 806.136C517.035 806.136 518.434 807.048 518.723 808.776H525.138Z" fill="black"/>
<path d="M536.563 809.112C536.852 807.24 538.203 806.376 540.711 806.376C542.929 806.376 544.28 807.192 544.28 808.488C544.28 809.448 543.749 809.832 542.206 810.072L538.492 810.696C531.981 811.752 529.232 814.008 529.232 818.376C529.232 822.744 532.656 825.624 537.817 825.624C540.566 825.624 542.206 825.048 544.472 823.176C544.714 824.04 544.714 824.184 545.003 825H551.996C551.225 823.848 551.128 823.512 551.128 821.016V810.36C551.128 806.952 550.501 805.08 548.813 803.592C546.98 802.008 544.28 801.192 540.759 801.192C534.199 801.192 530.872 803.784 530.437 809.112H536.563ZM544.472 817.512C543.363 819.48 541.723 820.44 539.457 820.44C537.286 820.44 535.984 819.528 535.984 817.992C535.984 816.6 537.045 815.784 539.505 815.208L541.964 814.68C543.122 814.44 543.749 814.248 544.472 813.96V817.512Z" fill="black"/>
<path d="M564.038 792.984H557.189V825H564.038V792.984Z" fill="black"/>
<path d="M582.197 825L590.107 801.816H582.776L580.412 810.696C580.075 812.088 579.496 814.776 578.965 817.368C578.194 814.536 577.615 812.328 577.133 810.696L574.528 801.816H567.342L575.686 825H582.197Z" fill="black"/>
<path d="M599.017 809.112C599.307 807.24 600.657 806.376 603.165 806.376C605.384 806.376 606.734 807.192 606.734 808.488C606.734 809.448 606.204 809.832 604.66 810.072L600.946 810.696C594.435 811.752 591.686 814.008 591.686 818.376C591.686 822.744 595.111 825.624 600.271 825.624C603.02 825.624 604.66 825.048 606.927 823.176C607.168 824.04 607.168 824.184 607.458 825H614.451C613.679 823.848 613.583 823.512 613.583 821.016V810.36C613.583 806.952 612.956 805.08 611.268 803.592C609.435 802.008 606.734 801.192 603.213 801.192C596.654 801.192 593.326 803.784 592.892 809.112H599.017ZM606.927 817.512C605.818 819.48 604.178 820.44 601.911 820.44C599.741 820.44 598.439 819.528 598.439 817.992C598.439 816.6 599.5 815.784 601.959 815.208L604.419 814.68C605.577 814.44 606.204 814.248 606.927 813.96V817.512Z" fill="black"/>
<path d="M631.507 802.104H627.311V794.76H620.462V802.104H617.183V806.904H620.462V817.464C620.462 821.064 620.752 822.312 621.813 823.464C622.826 824.568 624.321 825 627.311 825H631.507V819.864H629.047C627.456 819.864 627.311 819.576 627.311 815.928V806.904H631.507V802.104Z" fill="black"/>
<path d="M642.977 801.816H636.129V825H642.977V801.816ZM642.977 792.984H636.129V798.6H642.977V792.984Z" fill="black"/>
<path d="M660.176 801.192C652.942 801.192 647.829 806.232 647.829 813.384C647.829 820.584 652.942 825.624 660.176 825.624C667.363 825.624 672.572 820.584 672.572 813.576C672.572 806.184 667.556 801.192 660.176 801.192ZM660.176 806.616C663.745 806.616 665.675 809.064 665.675 813.528C665.675 817.752 663.649 820.2 660.225 820.2C656.704 820.2 654.726 817.752 654.726 813.384C654.726 809.064 656.704 806.616 660.176 806.616Z" fill="black"/>
<path d="M677.435 801.816V825H684.284V811.992C684.284 809.976 684.525 809.016 685.297 808.152C686.02 807.336 687.081 806.904 688.239 806.904C689.445 806.904 690.458 807.384 691.036 808.248C691.615 809.112 691.76 810.024 691.76 812.376V825H698.609V809.976C698.609 804.504 695.522 801.144 690.458 801.144C688.046 801.144 686.599 801.768 684.091 804.072V801.816H677.435Z" fill="black"/>
<path d="M512.212 844.112C512.501 842.24 513.852 841.376 516.36 841.376C518.578 841.376 519.929 842.192 519.929 843.488C519.929 844.448 519.398 844.832 517.855 845.072L514.141 845.696C507.63 846.752 504.881 849.008 504.881 853.376C504.881 857.744 508.305 860.624 513.466 860.624C516.215 860.624 517.855 860.048 520.122 858.176C520.363 859.04 520.363 859.184 520.652 860H527.646C526.874 858.848 526.778 858.512 526.778 856.016V845.36C526.778 841.952 526.151 840.08 524.463 838.592C522.63 837.008 519.929 836.192 516.408 836.192C509.849 836.192 506.521 838.784 506.087 844.112H512.212ZM520.122 852.512C519.012 854.48 517.373 855.44 515.106 855.44C512.935 855.44 511.633 854.528 511.633 852.992C511.633 851.6 512.694 850.784 515.154 850.208L517.614 849.68C518.771 849.44 519.398 849.248 520.122 848.96V852.512Z" fill="black"/>
<path d="M532.838 836.816V860H539.687V853.472C539.687 849.008 539.928 846.848 540.603 845.312C541.375 843.584 543.304 842.528 545.668 842.528C546.246 842.528 546.584 842.528 547.404 842.624V836.192C542.436 836.144 540.7 837.2 539.35 840.944L539.542 836.816H532.838Z" fill="black"/>
<path d="M551.113 836.816V860H557.962V847.232C557.962 843.68 559.071 842.096 561.435 842.096C563.846 842.096 564.907 843.68 564.907 847.232V860H571.756V847.232C571.756 843.68 572.817 842.096 575.228 842.096C577.592 842.096 578.653 843.68 578.653 847.232V860H585.501V844.592C585.501 841.616 584.971 839.744 583.669 838.352C582.318 836.96 580.293 836.192 577.881 836.192C574.891 836.192 573.154 837.104 570.647 839.936C569.296 837.392 567.174 836.192 564.184 836.192C561.386 836.192 559.939 836.96 557.769 839.6V836.816H551.113Z" fill="black"/>
<path d="M604.655 836.816L601.616 847.28C601.086 849.344 600.7 850.928 600.411 852.464L600.121 851.552C599.591 849.632 599.591 849.584 598.916 847.424L595.491 836.816H588.16L595.829 856.304C596.649 858.32 596.697 858.464 596.697 859.28C596.697 861.296 595.588 862.208 593.176 862.208H591.15V867.344H595.154C597.71 867.344 599.253 867.008 600.362 866.192C601.568 865.328 602.34 863.984 603.642 860.192L611.745 836.816H604.655Z" fill="black"/>
<mask id="mask0" mask-type="alpha" maskUnits="userSpaceOnUse" x="375" y="746" width="113" height="130">
<path d="M386.8 808.3L375 794.8L431.1 746L487.1 794.8L475.3 808.3L431.1 769.8L386.8 808.3Z" fill="black"/>
<path d="M386.8 840.8L375 827.2L431.1 778.4L487.1 827.2L475.3 840.8L431.1 802.2L386.8 840.8Z" fill="black"/>
<path d="M375 861.7L386.8 875.3L431.1 836.7L475.3 875.3L487.1 861.7L431.1 812.9L375 861.7Z" fill="black"/>
</mask>
<g mask="url(#mask0)">
<path d="M393.3 745.9H374.5V877.6H393.3V745.9Z" fill="#EA1D25"/>
<path d="M412.1 745.9H393.3V877.6H412.1V745.9Z" fill="#F68926"/>
<path d="M430.9 745.9H412.1V877.6H430.9V745.9Z" fill="#FAE82E"/>
<path d="M449.7 745.9H430.9V877.6H449.7V745.9Z" fill="#0B7F40"/>
<path d="M468.6 745.9H449.8V877.6H468.6V745.9Z" fill="#405DAA"/>
<path d="M487.4 745.9H468.6V877.6H487.4V745.9Z" fill="#752982"/>
</g>
</svg>
