<svg width="635" height="189" viewBox="0 0 635 189" fill="none" xmlns="http://www.w3.org/2000/svg">
<g clip-path="url(#clip0)">
<g clip-path="url(#clip1)">
<path d="M107.5 176.6C104.3 176.6 101.5 179.1 101.5 182.5C101.5 186 104.2 188.5 107.5 188.5C110.7 188.5 113.4 186 113.4 182.5C113.4 179.1 110.7 176.6 107.5 176.6ZM107.5 187.5C104.8 187.5 102.7 185.4 102.7 182.5C102.7 179.7 104.8 177.5 107.5 177.5C110.2 177.5 112.3 179.6 112.3 182.5C112.3 185.4 110.2 187.5 107.5 187.5ZM110.2 181C110.2 179.6 109.4 179 107.8 179H105.2V185.9H106.2V182.9H107.4L109.2 185.9H110.4L108.5 182.9C109.4 182.8 110.2 182.3 110.2 181ZM106.3 182.1V180H107.7C108.4 180 109.2 180.2 109.2 181C109.2 182.1 108.4 182.1 107.5 182.1H106.3ZM152.4 80.3C150.4 68.7 148.3 56.8 148.3 42.5C148.3 29.8 150.3 23.6 151.6 19.5C152.3 17.4 152.8 15.7 152.8 14C152.8 9.8 150.2 9.3 149.1 9.3C147.1 9.3 144.6 10.3 141.3 11.5C135.7 13.7 128 16.7 117.8 16.7C97 16.7 88.1 8.5 83.3 4.2C81.2 2.3 79.8 1 78.3 1C76.7 1 75.4 2.3 73.3 4.2C68.5 8.6 59.6 16.7 38.7 16.7C28.6 16.7 20.9 13.7 15.2 11.5C12 10.3 9.4 9.3 7.4 9.3C6.3 9.3 3.7 9.8 3.7 14C3.7 15.7 4.2 17.4 4.9 19.5C6.2 23.6 8.2 29.8 8.2 42.5C8.2 56.8 6.1 68.7 4.1 80.3C2.1 92 0 104.1 0 118.7C0 143.6 14.1 159.5 45.7 170.1C61.8 175.5 69.3 182.4 73.2 186.1C75.4 188.1 76.7 189.4 78.3 189.4C79.8 189.4 81.2 188.2 83.4 186.1C87.4 182.4 94.8 175.5 110.9 170.1C142.5 159.4 156.6 143.6 156.6 118.7C156.6 104.1 154.5 92 152.4 80.3ZM110.2 167.9C93.6 173.5 85.9 180.6 81.8 184.4C80.3 185.8 78.9 187.1 78.3 187.1C77.7 187.1 76.3 185.9 74.8 184.4C70.7 180.6 63 173.5 46.4 167.9C15.5 157.5 2.3 142.7 2.3 118.6C2.3 104.2 4.4 92.2 6.4 80.6C8.4 69 10.5 56.9 10.5 42.4C10.5 29.3 8.4 22.9 7 18.7C6.5 16.8 6 15.4 6 14C6 11.6 7 11.6 7.4 11.6C9 11.6 11.3 12.5 14.3 13.7C20.1 15.9 28 19 38.6 19C60.4 19 69.7 10.5 74.8 5.9C76.2 4.6 77.6 3.3 78.3 3.3C79 3.3 80.3 4.5 81.8 5.9C86.8 10.5 96.1 19 118 19C128.6 19 136.5 15.9 142.3 13.7C145.3 12.5 147.7 11.6 149.2 11.6C149.7 11.6 150.6 11.6 150.6 14C150.6 15.4 150.1 16.8 149.5 18.8C148.1 23 146 29.4 146 42.5C146 57 148.1 69 150.1 80.7C152.1 92.3 154.2 104.3 154.2 118.7C154.3 142.7 141.1 157.5 110.2 167.9ZM78.7 91L82.7 88.7C81.8 85 80.7 80.4 80.7 80.4C80.7 80.4 79.7 85.9 78.7 91ZM87.1 117.2C85.8 117.2 84.8 117.9 84.8 117.9C84.8 117.9 84.8 125.2 84.8 132.1C85 132.1 85.2 132.1 85.4 132.1C87.2 132.1 90.6 128.8 90.6 122.8C90.6 117.7 89 117.2 87.1 117.2ZM147.9 81.1C145.8 69.4 143.7 57.2 143.7 42.5C143.7 29.1 145.8 22.5 147.3 18.1C147.9 16.3 148.3 15 148.3 14C147 14.3 145.1 15 143 15.8C137 18.1 128.9 21.3 117.9 21.3C95.2 21.3 85.4 12.4 80.2 7.6C79.6 7.1 78.8 6.3 78.2 5.9C77.6 6.3 76.8 7.1 76.2 7.6C71 12.4 61.2 21.3 38.5 21.3C27.5 21.3 19.4 18.1 13.4 15.8C11.4 15 9.5 14.3 8.1 14C8.1 15 8.5 16.3 9.1 18.1C10.5 22.5 12.7 29.1 12.7 42.5C12.7 57.2 10.6 69.3 8.5 81.1C6.5 92.6 4.4 104.5 4.4 118.7C4.4 141.6 17.1 155.7 47 165.8C64.1 171.6 71.9 178.9 76.2 182.8C76.8 183.4 77.6 184.1 78.2 184.6C78.8 184.1 79.6 183.4 80.2 182.8C84.4 178.9 92.3 171.5 109.4 165.8C139.3 155.7 152 141.6 152 118.7C152 104.5 149.9 92.6 147.9 81.1ZM108.2 51.2C107.7 52.1 107.3 53.4 107.3 55.2V80.8C107.3 82.8 108.1 83.8 108.8 84.2L101.4 88.8C102.5 86.5 102.7 85 102.7 83.4V58.9C102.7 57.2 101.7 56.2 101 55.6L108.2 51.2ZM97.5 91.1L90.8 95.3C90.8 95.5 90.8 95.3 90.8 95.3C91.1 94.4 91.7 92.2 91.7 90.1V67.3C91.7 63.6 90 64.7 88.9 66.7C87.8 68.6 86.6 73.2 86.6 73.2V64L100 56V67C100 67 98.3 63.1 97.4 62.2C96.5 61.3 95.4 61.9 95.4 63.2V86.4C95.4 89.6 96.7 90.8 97.5 91.1ZM83.6 92.1C83.6 92 83.5 91.9 83.5 91.7L78 94.8C77.7 96.4 77.5 97.8 77.3 98.6C76.9 100.9 78.1 102.2 78.8 102.8L71.8 107.2C71.8 107.2 73.8 102.5 74.7 98.1C75.6 93.7 81.4 63.4 81.4 63.4C81.4 63.4 87.2 88.3 88 92C88.6 94.6 89.5 95.5 90.1 95.7C90.1 95.7 90.2 95.7 90.1 95.7L83.9 99.6C84.1 98.5 84.5 95.9 83.6 92.1ZM84 19.4V26C84 26 82.1 23.4 79.3 24.7C76.9 25.8 76.7 26.1 76.7 26.1C76.7 26.1 76.7 30.6 76.7 35.7C77.1 35.3 77.9 34.8 79.4 34C81.3 33 82.5 33.3 84.8 32.3C86.8 31.3 88.1 28.8 88.1 28.8C88.1 28.8 88.7 33.6 85.3 35.4C82.3 37 80.5 36.3 78.5 37.2C77.8 37.6 77.2 38.1 76.8 38.6V49.1C76.8 51.2 77.4 51.9 80.2 49.5C84.8 45.8 86.8 40.3 86.8 40.3L86.7 47.6L71.5 56.8C72 55.6 72.7 54 72.7 52V31.6C72.7 29.3 70.7 28.5 69.5 28.3L84 19.4ZM68.8 75.1L76 70.8C76 70.8 74.7 73.9 73.6 80.3C72.6 85.8 67.8 112.7 67.8 112.7C67.8 112.7 61.1 86.9 60.6 84.8C60.1 82.9 58.9 82 58.2 81.6L65.1 77.4C64.7 78.7 64.3 80.9 65 83.6C66.1 88.1 67.9 96.4 67.9 96.4C67.9 96.4 70.4 82 70.7 78.4C70.9 76.5 69.8 75.5 68.8 75.1ZM57 35.9C56.4 37 55.7 38.6 55.7 40.1V47.7L62.2 44.2V38.4C62.2 36.5 60.7 34.9 59.8 34.2L66.3 30.2C66 31.1 65.5 32.4 65.5 33.3V55.6C65.5 57.3 66.6 58.5 67.4 59.2L61.1 63C61.5 61.9 62.2 59.8 62.2 56.9V47.4L55.8 51V61.2C55.8 63.1 57 64.4 57.8 65.1L50.1 69.8C50.7 68.7 51.8 66.3 51.8 63.8V43.8C51.8 41.4 49.2 40.7 49.2 40.7L57 35.9ZM32.7 46.4L46.7 37.8V48.5C46.7 48.5 45.1 45.3 43.8 44.1C42.6 42.9 42.2 44.2 42.2 46.8V68.8C42.2 71.4 43.9 72.5 44.8 72.9L37 77.6C37 77.6 38.2 74.4 38.2 72.3V47.6C38.2 46.1 36.8 46 35.8 48.4C34.8 50.8 32.6 58.2 32.6 58.2V46.4H32.7ZM29.2 108.2C29.6 109.4 30.2 111.6 30.2 111.6L25.6 108.1C27.8 104.3 24 102 22.1 102C20.2 102 17.4 102.9 17.4 106.1C17.4 110.2 21.1 113 24.6 116C27.6 118.7 30.5 121.7 30.5 127.3C30.5 134.1 25.4 139.3 20.2 139.3C15 139.3 11.9 134.6 11.9 131.7C11.9 128.8 13.9 126.1 17.2 126.1C21 126.1 21.2 130.4 21.2 130.4C21.2 130.4 19.7 129.5 18.8 129.5C17.9 129.5 17.1 130.1 17.1 131.4C17.1 132.7 18.7 134.8 21.3 134.8C23.9 134.8 26.4 132.2 26.4 129.2C26.4 125 23 122.3 19.7 119C16.5 115.9 13.4 112.4 13.4 107.5C13.4 101.4 18.3 98.8 21.3 98.8C24.3 98.8 25.2 100.4 26.9 100.4C29.3 100.4 31 97.9 31 97.9C31 97.9 29.9 101 29.4 102.5C28.7 104.2 28.8 107 29.2 108.2ZM43.1 125.5C43.5 124.2 44 121.9 43.3 119C43.1 118.4 43 117.6 42.8 116.8L37.7 119.8C37.4 121.8 37.2 123.5 37.1 124.4C36.9 126.7 38.7 127.3 40 127.5L31.2 133.1C31.2 133.1 33.1 128.4 33.8 123.5C34.5 118.6 40.1 86.9 40.1 86.9C40.1 86.9 46.6 114 47.4 117.3C48 119.9 48.8 121 49.3 121.5L43.1 125.5ZM48.3 87.5L56.2 82.7C55.7 83.9 54.7 86.5 54.7 90.1V114.3C54.7 115.4 56.3 115.3 57.8 112.9C60 109.5 61.8 103.1 61.8 103.1V113.4L50.5 120.6V91.8C50.6 87.8 48.3 87.5 48.3 87.5ZM72.6 156.4C72.9 155.1 73.3 152.5 72.6 149.8C72.4 149.1 72.2 148.2 72 147.1L65.5 151.2C65.1 153.8 64.8 155.8 64.7 156.6C64.6 158.6 66 159.6 66.9 160L57.6 165.9C57.6 165.9 60.2 161.5 61.1 156.9C62 152.3 68.7 115.8 68.7 115.8C68.7 115.8 75.5 143.8 76.4 147.8C77.1 150.8 78.2 152.1 78.7 152.5L72.6 156.4ZM96.8 150.8C94.5 150.8 91.4 148.4 90.1 145.3C88.9 142.6 86.3 136.8 85.6 135.4C85.4 135.4 85.3 135.5 85.2 135.5C85 135.5 84.9 135.5 84.8 135.5V144.1C84.8 145.9 86 146.9 86.7 147.4L80 151.7C80.5 149.6 80.5 149.5 80.5 146.4V122.3C80.5 119.1 77.7 119.2 77.7 119.2C77.7 119.2 80.1 117.8 82.3 116.3C84.4 114.9 86.3 113.8 88.8 113.8C92.4 113.8 95 116.4 95 121.6C95 127.1 91.7 131.2 88.9 133.4C89.5 134.7 91.8 139.2 93.1 141.9C94.7 145.1 96.5 147 98.7 147C100.9 147 102.5 144.8 102.5 144.8C102.5 144.8 101.2 150.8 96.8 150.8ZM108.7 133.4C109.3 131.9 110.2 129.1 110.2 127C110.2 124 110.2 111.2 110.2 111.2L106.1 125.6L101.7 117C101.7 117 101.7 130.3 101.7 133.2C101.7 135.2 103 136.2 103.8 136.6L96.1 141.5C96.7 140.3 97.7 138.1 97.7 135.5V113.2C97.7 109.1 94.1 109 94.1 109L100.2 105.2L105.6 115.2L110 99L114.9 96C114.4 97.1 113.8 98.8 113.8 100.6V125.3C113.8 127.8 114.7 128.8 115.3 129.2L108.7 133.4ZM109 62.6C109 51.8 113.5 45.3 117.7 45.3C121.9 45.3 124.3 51.4 124.3 60.9C124.3 70.5 120.9 79.8 115.8 79.8C111.6 79.9 109 73.2 109 62.6ZM133.8 91.7C132.9 94.2 128.6 106.2 128.6 106.2C128.6 106.2 128.6 111 128.6 115C128.6 119 130.6 119.4 130.6 119.4L122.9 124.3C123.6 123 124.5 120.8 124.5 119C124.5 116.1 124.5 107.6 124.5 107.6C124.5 107.6 120.5 98.7 119.5 96.8C118.9 95.6 117.5 95.1 116.5 94.9L123.7 90.4C123.7 90.4 122.7 93.8 123.7 96.2C124.4 98.1 126.7 102.9 126.7 102.9C126.7 102.9 128.4 98.5 129.5 95.7C130.5 92.8 131.8 90 131.8 87.5C131.8 84.6 129.8 83.8 129.8 83.8C129.8 83.8 131.7 81.6 132.6 81.6C133.6 81.6 135.5 84 135.5 86C135.5 87.8 134.7 89.2 133.8 91.7ZM138.5 37.8C138.5 40.5 138.5 69 138.5 69H137.8L129.5 51.5C129.5 51.5 129.5 61.5 129.5 65.4C129.5 69.3 131.4 70 131.4 70L125 74C125.6 72.8 126.4 70.8 126.4 67.9V44.5C126.4 42.4 124.9 42 123.7 42L129.2 38.7L134.4 49.8C134.4 49.8 135 37.7 135 34.9C135 32.1 132.9 31 132.9 31C132.9 31 134.7 29.4 135.6 29.4C136.5 29.4 137.5 29.5 138.4 31.4C139.2 33.4 138.5 35.1 138.5 37.8ZM117.3 48.6C115.2 48.6 113 54 113 62.7C113 71.3 114.5 76.7 116.3 76.7C118.8 76.7 120.5 68.1 120.5 61.4C120.5 53.7 119.8 48.6 117.3 48.6ZM66.2 147.4L71.4 144.1C70.2 138.8 68.8 132.4 68.8 132.4C68.8 132.4 67.3 140.5 66.2 147.4ZM38.2 115.7L41.9 113.5C40.9 109.2 39.9 104.6 39.9 104.6C39.9 104.6 39.1 110.3 38.2 115.7Z" fill="white"/>
</g>
<path fill-rule="evenodd" clip-rule="evenodd" d="M362.2 28.9661L418.41 77.9127L406.59 91.4874L362.2 52.834L317.81 91.4874L305.99 77.9127L362.2 28.9661Z" fill="white"/>
<path fill-rule="evenodd" clip-rule="evenodd" d="M362.2 61.5661L418.41 110.513L406.59 124.087L362.2 85.4339L317.81 124.087L305.99 110.513L362.2 61.5661Z" fill="white"/>
<path fill-rule="evenodd" clip-rule="evenodd" d="M362.2 94.0661L418.41 143.013L406.59 156.587L362.2 117.934L317.81 156.587L305.99 143.013L362.2 94.0661Z" fill="white"/>
<path d="M453.855 51.104H449.659V43.76H442.81V51.104H439.531V55.904H442.81V66.464C442.81 70.064 443.1 71.312 444.161 72.464C445.174 73.568 446.669 74 449.659 74H453.855V68.864H451.395C449.804 68.864 449.659 68.576 449.659 64.928V55.904H453.855V51.104Z" fill="white"/>
<path d="M465.325 41.984H458.477V74H465.325V60.992C465.325 58.592 465.47 57.92 466.242 57.104C466.965 56.384 468.074 55.952 469.232 55.952C470.39 55.952 471.354 56.384 471.933 57.152C472.512 57.968 472.705 58.832 472.705 60.992V74H479.553V59.744C479.553 56.288 478.975 54.32 477.479 52.688C475.984 51.056 473.862 50.192 471.499 50.192C469.087 50.192 467.255 50.96 465.325 52.784V41.984Z" fill="white"/>
<path d="M507.842 64.4C507.842 61.184 507.504 59.024 506.684 57.008C504.948 52.64 501.234 50.192 496.315 50.192C489.273 50.192 484.402 55.184 484.402 62.432C484.402 69.728 489.176 74.624 496.363 74.624C501.909 74.624 506.25 71.744 507.552 67.232H500.607C499.691 68.672 498.388 69.296 496.556 69.296C493.614 69.296 491.733 67.568 491.299 64.4H507.842ZM491.347 59.6C491.877 56.864 493.614 55.376 496.266 55.376C498.919 55.376 500.511 56.864 500.8 59.6H491.347Z" fill="white"/>
<path d="M461.138 95.776C460.511 90.88 456.894 88.192 450.913 88.192C444.691 88.192 440.978 91.024 440.978 95.68C440.978 99.376 442.955 101.248 448.068 102.352L452.312 103.312C454.145 103.744 454.916 104.32 454.916 105.424C454.916 106.816 453.518 107.68 451.347 107.68C448.598 107.68 447.151 106.672 446.765 104.464H440.351C440.737 109.6 444.74 112.624 451.203 112.624C457.665 112.624 461.669 109.552 461.669 104.656C461.669 102.784 461.042 101.056 459.932 100C458.919 98.944 457.472 98.32 454.627 97.744L450.334 96.832C448.164 96.352 447.489 95.92 447.489 95.056C447.489 93.904 448.791 93.136 450.768 93.136C453.035 93.136 454.434 94.048 454.723 95.776H461.138Z" fill="white"/>
<path d="M472.563 96.112C472.852 94.24 474.203 93.376 476.711 93.376C478.929 93.376 480.28 94.192 480.28 95.488C480.28 96.448 479.749 96.832 478.206 97.072L474.492 97.696C467.981 98.752 465.232 101.008 465.232 105.376C465.232 109.744 468.656 112.624 473.817 112.624C476.566 112.624 478.206 112.048 480.473 110.176C480.714 111.04 480.714 111.184 481.003 112H487.997C487.225 110.848 487.129 110.512 487.129 108.016V97.36C487.129 93.952 486.502 92.08 484.813 90.592C482.981 89.008 480.28 88.192 476.759 88.192C470.2 88.192 466.872 90.784 466.438 96.112H472.563ZM480.473 104.512C479.363 106.48 477.724 107.44 475.457 107.44C473.286 107.44 471.984 106.528 471.984 104.992C471.984 103.6 473.045 102.784 475.505 102.208L477.965 101.68C479.122 101.44 479.749 101.248 480.473 100.96V104.512Z" fill="white"/>
<path d="M500.038 79.984H493.189V112H500.038V79.984Z" fill="white"/>
<path d="M518.197 112L526.107 88.816H518.776L516.413 97.696C516.075 99.088 515.496 101.776 514.966 104.368C514.194 101.536 513.615 99.328 513.133 97.696L510.529 88.816H503.342L511.686 112H518.197Z" fill="white"/>
<path d="M535.018 96.112C535.307 94.24 536.657 93.376 539.165 93.376C541.384 93.376 542.734 94.192 542.734 95.488C542.734 96.448 542.204 96.832 540.66 97.072L536.947 97.696C530.436 98.752 527.687 101.008 527.687 105.376C527.687 109.744 531.111 112.624 536.272 112.624C539.021 112.624 540.66 112.048 542.927 110.176C543.168 111.04 543.168 111.184 543.458 112H550.451C549.68 110.848 549.583 110.512 549.583 108.016V97.36C549.583 93.952 548.956 92.08 547.268 90.592C545.435 89.008 542.734 88.192 539.214 88.192C532.654 88.192 529.326 90.784 528.892 96.112H535.018ZM542.927 104.512C541.818 106.48 540.178 107.44 537.911 107.44C535.741 107.44 534.439 106.528 534.439 104.992C534.439 103.6 535.5 102.784 537.96 102.208L540.419 101.68C541.577 101.44 542.204 101.248 542.927 100.96V104.512Z" fill="white"/>
<path d="M567.507 89.104H563.311V81.76H556.463V89.104H553.183V93.904H556.463V104.464C556.463 108.064 556.752 109.312 557.813 110.464C558.826 111.568 560.321 112 563.311 112H567.507V106.864H565.048C563.456 106.864 563.311 106.576 563.311 102.928V93.904H567.507V89.104Z" fill="white"/>
<path d="M578.978 88.816H572.129V112H578.978V88.816ZM578.978 79.984H572.129V85.6H578.978V79.984Z" fill="white"/>
<path d="M596.177 88.192C588.942 88.192 583.83 93.232 583.83 100.384C583.83 107.584 588.942 112.624 596.177 112.624C603.363 112.624 608.572 107.584 608.572 100.576C608.572 93.184 603.556 88.192 596.177 88.192ZM596.177 93.616C599.746 93.616 601.675 96.064 601.675 100.528C601.675 104.752 599.649 107.2 596.225 107.2C592.704 107.2 590.727 104.752 590.727 100.384C590.727 96.064 592.704 93.616 596.177 93.616Z" fill="white"/>
<path d="M613.436 88.816V112H620.284V98.992C620.284 96.976 620.526 96.016 621.297 95.152C622.021 94.336 623.082 93.904 624.239 93.904C625.445 93.904 626.458 94.384 627.037 95.248C627.615 96.112 627.76 97.024 627.76 99.376V112H634.609V96.976C634.609 91.504 631.522 88.144 626.458 88.144C624.046 88.144 622.599 88.768 620.091 91.072V88.816H613.436Z" fill="white"/>
<path d="M448.212 134.112C448.502 132.24 449.852 131.376 452.36 131.376C454.579 131.376 455.929 132.192 455.929 133.488C455.929 134.448 455.399 134.832 453.855 135.072L450.141 135.696C443.63 136.752 440.881 139.008 440.881 143.376C440.881 147.744 444.306 150.624 449.466 150.624C452.215 150.624 453.855 150.048 456.122 148.176C456.363 149.04 456.363 149.184 456.653 150H463.646C462.874 148.848 462.778 148.512 462.778 146.016V135.36C462.778 131.952 462.151 130.08 460.463 128.592C458.63 127.008 455.929 126.192 452.408 126.192C445.849 126.192 442.521 128.784 442.087 134.112H448.212ZM456.122 142.512C455.013 144.48 453.373 145.44 451.106 145.44C448.936 145.44 447.633 144.528 447.633 142.992C447.633 141.6 448.695 140.784 451.154 140.208L453.614 139.68C454.772 139.44 455.399 139.248 456.122 138.96V142.512Z" fill="white"/>
<path d="M468.839 126.816V150H475.687V143.472C475.687 139.008 475.929 136.848 476.604 135.312C477.375 133.584 479.305 132.528 481.668 132.528C482.247 132.528 482.584 132.528 483.404 132.624V126.192C478.436 126.144 476.7 127.2 475.35 130.944L475.543 126.816H468.839Z" fill="white"/>
<path d="M487.113 126.816V150H493.962V137.232C493.962 133.68 495.071 132.096 497.435 132.096C499.846 132.096 500.907 133.68 500.907 137.232V150H507.756V137.232C507.756 133.68 508.817 132.096 511.229 132.096C513.592 132.096 514.653 133.68 514.653 137.232V150H521.502V134.592C521.502 131.616 520.971 129.744 519.669 128.352C518.319 126.96 516.293 126.192 513.881 126.192C510.891 126.192 509.155 127.104 506.647 129.936C505.296 127.392 503.174 126.192 500.184 126.192C497.387 126.192 495.94 126.96 493.769 129.6V126.816H487.113Z" fill="white"/>
<path d="M540.655 126.816L537.617 137.28C537.086 139.344 536.7 140.928 536.411 142.464L536.122 141.552C535.591 139.632 535.591 139.584 534.916 137.424L531.491 126.816H524.16L531.829 146.304C532.649 148.32 532.697 148.464 532.697 149.28C532.697 151.296 531.588 152.208 529.176 152.208H527.151V157.344H531.154C533.71 157.344 535.253 157.008 536.363 156.192C537.568 155.328 538.34 153.984 539.642 150.192L547.745 126.816H540.655Z" fill="white"/>
<path d="M203 95.7576H255M255 95.7576L239.242 80M255 95.7576L239.242 111.515" stroke="black" stroke-opacity="0.4" stroke-width="7" stroke-linecap="round" stroke-linejoin="round"/>
</g>
<defs>
<clipPath id="clip0">
<rect width="635" height="189" fill="white"/>
</clipPath>
<clipPath id="clip1">
<rect width="156.6" height="188.4" fill="white" transform="translate(0 1)"/>
</clipPath>
</defs>
</svg>
