<svg width="1152" height="700" viewBox="0 0 1152 700" fill="none" xmlns="http://www.w3.org/2000/svg">
<rect width="1152" height="700" fill="#E41E2E"/>
<path d="M208 324.217L326.535 221L445.069 324.217" stroke="white" stroke-width="42.418" stroke-miterlimit="10"/>
<path d="M208 400.805L326.535 297.588L445.069 400.805" stroke="white" stroke-width="42.418" stroke-miterlimit="10"/>
<path d="M208 477.393L326.535 374.176L445.069 477.393" stroke="white" stroke-width="42.418" stroke-miterlimit="10"/>
<path d="M524.851 244.636H514.962V227.33H498.823V244.636H491.094V255.948H498.823V280.833C498.823 289.317 499.505 292.258 502.005 294.972C504.392 297.574 507.916 298.592 514.962 298.592H524.851V286.489H519.054C515.303 286.489 514.962 285.81 514.962 277.213V255.948H524.851V244.636ZM551.881 223.145H535.741V298.592H551.881V267.938C551.881 262.282 552.222 260.699 554.04 258.776C555.745 257.079 558.359 256.061 561.087 256.061C563.815 256.061 566.088 257.079 567.452 258.889C568.816 260.812 569.27 262.848 569.27 267.938V298.592H585.41V264.997C585.41 256.853 584.046 252.215 580.522 248.369C576.999 244.523 571.998 242.487 566.429 242.487C560.746 242.487 556.427 244.297 551.881 248.595V223.145ZM652.072 275.969C652.072 268.391 651.277 263.3 649.345 258.55C645.253 248.256 636.501 242.487 624.908 242.487C608.314 242.487 596.835 254.251 596.835 271.332C596.835 288.525 608.087 300.063 625.022 300.063C638.092 300.063 648.322 293.276 651.39 282.643H635.024C632.864 286.036 629.795 287.507 625.477 287.507C618.543 287.507 614.111 283.435 613.088 275.969H652.072ZM613.201 264.658C614.452 258.21 618.543 254.704 624.795 254.704C631.046 254.704 634.796 258.21 635.478 264.658H613.201ZM542.013 345.359C540.535 333.822 532.011 327.487 517.917 327.487C503.256 327.487 494.504 334.161 494.504 345.133C494.504 353.843 499.164 358.254 511.212 360.856L521.213 363.118C525.532 364.136 527.351 365.494 527.351 368.095C527.351 371.376 524.055 373.412 518.94 373.412C512.462 373.412 509.052 371.036 508.143 365.833H493.026C493.936 377.936 503.369 385.063 518.599 385.063C533.829 385.063 543.263 377.823 543.263 366.286C543.263 361.874 541.785 357.802 539.171 355.313C536.785 352.825 533.375 351.354 526.669 349.997L516.554 347.848C511.439 346.717 509.848 345.699 509.848 343.663C509.848 340.948 512.916 339.138 517.576 339.138C522.918 339.138 526.214 341.287 526.896 345.359H542.013ZM568.936 346.151C569.618 341.74 572.801 339.704 578.711 339.704C583.939 339.704 587.122 341.627 587.122 344.681C587.122 346.943 585.871 347.848 582.234 348.414L573.483 349.884C558.139 352.373 551.66 357.689 551.66 367.982C551.66 378.276 559.73 385.063 571.891 385.063C578.37 385.063 582.234 383.705 587.576 379.294C588.144 381.33 588.144 381.669 588.826 383.592H605.307C603.488 380.877 603.261 380.086 603.261 374.204V349.092C603.261 341.061 601.783 336.65 597.805 333.143C593.486 329.41 587.122 327.487 578.825 327.487C563.367 327.487 555.525 333.595 554.502 346.151H568.936ZM587.576 365.946C584.962 370.584 581.098 372.846 575.756 372.846C570.641 372.846 567.572 370.697 567.572 367.077C567.572 363.797 570.073 361.874 575.869 360.517L581.666 359.273C584.394 358.707 585.871 358.254 587.576 357.576V365.946ZM633.683 308.145H617.544V383.592H633.683V308.145ZM676.476 383.592L695.116 328.958H677.84L672.271 349.884C671.475 353.164 670.111 359.499 668.861 365.607C667.042 358.933 665.678 353.73 664.542 349.884L658.404 328.958H641.469L661.132 383.592H676.476ZM716.114 346.151C716.796 341.74 719.978 339.704 725.888 339.704C731.117 339.704 734.299 341.627 734.299 344.681C734.299 346.943 733.049 347.848 729.412 348.414L720.66 349.884C705.316 352.373 698.838 357.689 698.838 367.982C698.838 378.276 706.908 385.063 719.069 385.063C725.548 385.063 729.412 383.705 734.754 379.294C735.322 381.33 735.322 381.669 736.004 383.592H752.484C750.666 380.877 750.439 380.086 750.439 374.204V349.092C750.439 341.061 748.961 336.65 744.983 333.143C740.664 329.41 734.299 327.487 726.002 327.487C710.545 327.487 702.702 333.595 701.679 346.151H716.114ZM734.754 365.946C732.14 370.584 728.275 372.846 722.933 372.846C717.819 372.846 714.75 370.697 714.75 367.077C714.75 363.797 717.251 361.874 723.047 360.517L728.844 359.273C731.571 358.707 733.049 358.254 734.754 357.576V365.946ZM792.678 329.636H782.79V312.33H766.651V329.636H758.922V340.948H766.651V365.833C766.651 374.317 767.333 377.258 769.833 379.972C772.22 382.574 775.743 383.592 782.79 383.592H792.678V371.489H786.882C783.131 371.489 782.79 370.81 782.79 362.213V340.948H792.678V329.636ZM819.708 328.958H803.569V383.592H819.708V328.958ZM819.708 308.145H803.569V321.379H819.708V308.145ZM860.239 327.487C843.19 327.487 831.142 339.364 831.142 356.218C831.142 373.186 843.19 385.063 860.239 385.063C877.174 385.063 889.449 373.186 889.449 356.671C889.449 339.251 877.628 327.487 860.239 327.487ZM860.239 340.269C868.649 340.269 873.196 346.038 873.196 356.558C873.196 366.512 868.422 372.281 860.352 372.281C852.055 372.281 847.396 366.512 847.396 356.218C847.396 346.038 852.055 340.269 860.239 340.269ZM900.91 328.958V383.592H917.05V352.938C917.05 348.187 917.618 345.925 919.437 343.889C921.141 341.966 923.642 340.948 926.37 340.948C929.211 340.948 931.598 342.079 932.962 344.115C934.326 346.151 934.667 348.3 934.667 353.843V383.592H950.806V348.187C950.806 335.292 943.532 327.374 931.598 327.374C925.915 327.374 922.505 328.845 916.595 334.274V328.958H900.91ZM511.553 430.151C512.235 425.74 515.417 423.704 521.327 423.704C526.555 423.704 529.738 425.627 529.738 428.681C529.738 430.943 528.488 431.848 524.851 432.414L516.099 433.884C500.755 436.373 494.277 441.689 494.277 451.982C494.277 462.276 502.346 469.063 514.508 469.063C520.986 469.063 524.851 467.705 530.192 463.294C530.761 465.33 530.761 465.669 531.443 467.592H547.923C546.104 464.877 545.877 464.086 545.877 458.204V433.092C545.877 425.061 544.4 420.65 540.422 417.143C536.103 413.41 529.738 411.487 521.441 411.487C505.983 411.487 498.141 417.595 497.118 430.151H511.553ZM530.192 449.946C527.578 454.584 523.714 456.846 518.372 456.846C513.257 456.846 510.189 454.697 510.189 451.077C510.189 447.797 512.689 445.874 518.486 444.517L524.282 443.273C527.01 442.707 528.488 442.254 530.192 441.576V449.946ZM560.16 412.958V467.592H576.299V452.209C576.299 441.689 576.867 436.599 578.459 432.979C580.277 428.907 584.824 426.418 590.393 426.418C591.757 426.418 592.552 426.418 594.484 426.645V411.487C582.778 411.374 578.686 413.863 575.504 422.686L575.958 412.958H560.16ZM603.225 412.958V467.592H619.365V437.504C619.365 429.133 621.979 425.4 627.548 425.4C633.231 425.4 635.731 429.133 635.731 437.504V467.592H651.871V437.504C651.871 429.133 654.371 425.4 660.054 425.4C665.623 425.4 668.124 429.133 668.124 437.504V467.592H684.263V431.282C684.263 424.269 683.013 419.858 679.944 416.577C676.762 413.297 671.988 411.487 666.305 411.487C659.259 411.487 655.167 413.636 649.257 420.31C646.074 414.315 641.073 411.487 634.027 411.487C627.434 411.487 624.025 413.297 618.91 419.518V412.958H603.225ZM729.399 412.958L722.239 437.617C720.989 442.481 720.08 446.213 719.398 449.833L718.716 447.684C717.465 443.159 717.465 443.046 715.874 437.956L707.805 412.958H690.529L708.6 458.882C710.532 463.633 710.646 463.972 710.646 465.895C710.646 470.646 708.032 472.795 702.349 472.795H697.575V484.899H707.009C713.033 484.899 716.67 484.107 719.284 482.184C722.125 480.148 723.944 476.981 727.013 468.045L746.107 412.958H729.399Z" fill="white"/>
</svg>
