<svg height="568" viewBox="0 0 320 568" width="320" xmlns="http://www.w3.org/2000/svg" xmlns:xlink="http://www.w3.org/1999/xlink"><mask id="a" fill="#fff"><path d="m15.498 15 1.502-1.386-5-4.614-5 4.614 1.502 1.386 3.498-3.228z" fill="none"/></mask><mask id="b" fill="#fff"><path d="m15.498 15 1.502-1.386-5-4.614-5 4.614 1.502 1.386 3.498-3.228z" fill="none"/></mask><mask id="c" fill="#fff"><path d="m15.498 15 1.502-1.386-5-4.614-5 4.614 1.502 1.386 3.498-3.228z" fill="none"/></mask><mask id="d" fill="#fff"><path d="m15.498 15 1.502-1.386-5-4.614-5 4.614 1.502 1.386 3.498-3.228z" fill="none"/></mask><g fill="none" fill-rule="evenodd"><path d="m0 0h320v568h-320z" fill="#fff"/><g fill-rule="nonzero"><path d="m0 112h320v398h-320z" fill="#d8d8d8"/><path d="m0 0h282v568h-282z" fill="#e8e8e8"/><circle cx="282" cy="85" fill="#5c5858" r="18"/></g><rect fill="#fff" height="25.2" rx="7" width="251.3" x="15.6" y="527.6"/><g fill="#8e8e93" transform="translate(10 522)"><path d="m4.19999993 0c1.15979795 0 2.09999996.94020201 2.09999996 2.09999996v4.89999992c0 1.15979796-.94020201 2.09999997-2.09999996 2.09999997-1.15979796 0-2.09999997-.94020201-2.09999997-2.09999997v-4.89999992c0-1.15979795.94020201-2.09999996 2.09999997-2.09999996zm3.67499994 4.54999992c-.28994949 0-.525.2350505-.525.52499999v1.92499997c0 1.73969693-1.41030301 3.14999992-3.14999994 3.14999992s-3.14999995-1.41030299-3.14999995-3.14999992v-1.92499997c0-.28994949-.2350505-.52499999-.52499999-.52499999s-.52499999.2350505-.52499999.52499999v1.92499997c.00103694 2.11581685 1.57577771 3.90052302 3.67499994 4.16499992v1.085h-1.39999998c-.28994949 0-.52499999.2350505-.52499999.525s.2350505.525.52499999.525h3.84999994c.28994948 0 .52499999-.2350505.52499999-.525s-.23505051-.525-.52499999-.525h-1.39999998v-1.085c2.09922223-.2644769 3.673963-2.04918307 3.67499994-4.16499992v-1.92499997c0-.28994949-.23505051-.52499999-.52499999-.52499999z" transform="translate(241.5 11.2)"/><path d="m9.62016609 8.80183885-2.68309995-2.68414995c.48094948-.65596745.73859225-1.44901642.73499998-2.26239996-.00917678-2.12320094-1.72646457-3.84298683-3.84964993-3.85524994-1.01606387-.0045971-1.991765.39735959-2.70974476 1.11632551-.71797977.71896591-1.11859688 1.69521782-1.11260517 2.71127443.00917679 2.12339423 1.72662127 3.84333682 3.84999993 3.85559993.81669712.00353966 1.61264352-.25711038 2.26904996-.74304999l.0028-.0021 2.68064996 2.68204996c.1449342.15204944.36089604.21359547.56421042.1607919.20331438-.05280358.36203469-.21165978.41466425-.41501927.05262956-.2033595-.00910127-.41926859-.16127469-.56407262zm-5.7728999-1.88719997c-1.69861013-.00977129-3.07254337-1.38557808-3.07999995-3.08419994-.00458458-.81274001.31593547-1.5935847.89021114-2.16871494.57427567-.57513025 1.35464288-.89681106 2.16738881-.89343501 1.69861013.00977129 3.07254337 1.38557808 3.07999995 3.08419995.00458458.81274001-.31593547 1.59358469-.89021114 2.16871494-.57427567.57513024-1.35464288.89681105-2.16738881.893435z" transform="translate(12.6 12.6)"/><text font-family="SFProText-Regular, SF Pro Text" font-size="11.9" letter-spacing="-.287"><tspan x="26.95" y="21.15">Search</tspan></text></g><g transform="translate(23 88)"><g fill-rule="nonzero"><g transform="translate(0 357)"><path d="m0 0h130v24h-130z" fill="#5c5858"/><path d="m.5 33.25h199" stroke="#979797" stroke-linecap="square"/></g><g transform="translate(0 306)"><path d="m0 0h130v24h-130z" fill="#5c5858"/><path d="m.5 33.25h199" stroke="#979797" stroke-linecap="square"/></g><g transform="translate(0 255)"><path d="m0 0h130v24h-130z" fill="#5c5858"/><path d="m.5 33.25h199" stroke="#979797" stroke-linecap="square"/></g><g transform="translate(0 204)"><path d="m0 0h130v24h-130z" fill="#5c5858"/><path d="m.5 33.25h199" stroke="#979797" stroke-linecap="square"/></g><g transform="translate(0 153)"><path d="m0 0h130v24h-130z" fill="#5c5858"/><path d="m.5 33.25h199" stroke="#979797" stroke-linecap="square"/></g><g transform="translate(0 102)"><path d="m0 0h130v24h-130z" fill="#5c5858"/><path d="m.5 33.25h199" stroke="#979797" stroke-linecap="square"/></g><g transform="translate(0 51)"><path d="m0 0h130v24h-130z" fill="#5c5858"/><path d="m.5 33.25h199" stroke="#979797" stroke-linecap="square"/></g><path d="m0 0h130v24h-130z" fill="#5c5858"/><path d="m.5 33.25h199" stroke="#979797" stroke-linecap="square"/></g><g transform="matrix(-1 0 0 -1 157 24)"><path d="m0 0h24v24h-24z"/><g fill="#0c0033" mask="url(#a)"><path d="m0 0h24v24h-24z"/></g></g><g transform="matrix(-1 0 0 -1 157 76)"><path d="m0 0h24v24h-24z"/><g fill="#0c0033" mask="url(#b)"><path d="m0 0h24v24h-24z"/></g></g><g transform="matrix(-1 0 0 -1 157 128)"><path d="m0 0h24v24h-24z"/><g fill="#0c0033" mask="url(#c)"><path d="m0 0h24v24h-24z"/></g></g><g transform="matrix(-1 0 0 -1 157 234)"><path d="m0 0h24v24h-24z"/><g fill="#0c0033" mask="url(#d)"><path d="m0 0h24v24h-24z"/></g></g></g><path d="m23.5 55.2083333h233" stroke="#979797" stroke-linecap="square"/><path d="m25.886 19.7h4.329l8.892 13.728 8.892-13.728h4.329v27.3h-4.68v-18.33l-8.541 12.987-8.541-12.987v18.33h-4.68zm36.894 4.446v6.63h10.92v4.446h-10.92v7.332h12.09v4.446h-16.77v-27.3h16.536v4.446zm16.614-4.446h4.212l13.65 18.798v-18.798h4.68v27.3h-4.212l-13.65-18.759v18.759h-4.68zm44.694 16.809c0-9.009 0-16.809 0-16.809h4.68v17.394c0 6.006-4.095 10.374-10.53 10.374s-10.53-4.368-10.53-10.374v-17.394h4.68v16.809c0 3.9 1.95 6.513 5.85 6.513 3.861 0 5.85-2.613 5.85-6.513z" fill="#171717"/></g></svg>