<svg xmlns="http://www.w3.org/2000/svg" width="70" height="70" viewBox="0 0 70 70">
  <g fill="none" fill-rule="evenodd">
    <circle cx="35" cy="35" r="35" fill="#1769FF"/>
    <g fill="#FFF" transform="translate(18 24)">
      <polygon points="23 5.173 31.711 5.173 31.711 3 23 3"/>
      <path d="M26.9041667 9.19491027C29.0018333 9.19491027 29.9460556 10.0933936 30.3423333 12.2411114L23.3182222 12.2411114C23.3781111 11.0487135 24.1687222 9.19491027 26.9041667 9.19491027M19 14.1494153C19 18.9232894 22.0706667 22.2661302 27.0266667 22.2661302 30.5857778 22.2661302 32.8292778 21.2173806 34.0433889 17.5759537L30.5857778 17.5759537C30.3123889 18.5320521 28.912 19.0731664 27.1775556 19.0731664 24.7761667 19.0731664 23.4387778 18.083589 23.3182222 15.3959247L34.6586111 15.3959247C34.9623333 10.6512475 32.377 6 27.0266667 6 22.2546111 6 19 9.52191462 19 14.1494153M4.36527778 17.6344877L4.36527778 11.7834457 9.56277778 11.7834457C11.6009444 11.7834457 12.9978333 12.6507858 12.9978333 14.828479 12.9978333 17.0388726 11.3575 17.6344877 9.47216667 17.6344877L4.36527778 17.6344877zM4.36527778 3.60716932L8.83438889 3.60716932C10.5357778 3.60716932 12.1177778 4.0264356 12.1177778 6.05658755 12.1177778 7.84537916 10.8702222 8.5908712 9.19877778 8.5908712L4.36527778 8.5908712 4.36527778 3.60716932zM18.1840556 15.2648741C18.1840556 12.6099103 16.8466667 10.6112909 14.1987222 9.86463097 16.086 8.96809407 17.15 7.50747467 17.15 5.41581476 17.15 1.4473835 14.3523333 0 10.2188333 0L0 0 0 21.4456454 10.5198333 21.4456454C14.4421667 21.4456454 18.1840556 19.5933994 18.1840556 15.2648741L18.1840556 15.2648741z"/>
    </g>
  </g>
</svg>
