<svg width="449" height="449" viewBox="0 0 449 449" fill="none" xmlns="http://www.w3.org/2000/svg">
<path d="M224.175 109.175C160.575 109.175 109.275 160.475 109.275 224.075C109.275 287.675 160.575 338.975 224.175 338.975C287.775 338.975 339.075 287.675 339.075 224.075C339.075 160.475 287.775 109.175 224.175 109.175ZM224.175 298.775C183.075 298.775 149.475 265.275 149.475 224.075C149.475 182.875 182.975 149.375 224.175 149.375C265.375 149.375 298.875 182.875 298.875 224.075C298.875 265.275 265.275 298.775 224.175 298.775ZM370.575 104.475C370.575 119.375 358.575 131.275 343.775 131.275C328.875 131.275 316.975 119.275 316.975 104.475C316.975 89.675 328.975 77.675 343.775 77.675C358.575 77.675 370.575 89.675 370.575 104.475ZM446.675 131.675C444.975 95.775 436.775 63.975 410.475 37.775C384.275 11.575 352.475 3.375 316.575 1.575C279.575 -0.524998 168.675 -0.524998 131.675 1.575C95.875 3.275 64.075 11.475 37.775 37.675C11.475 63.875 3.375 95.675 1.575 131.575C-0.525 168.575 -0.525 279.475 1.575 316.475C3.275 352.375 11.475 384.175 37.775 410.375C64.075 436.575 95.775 444.775 131.675 446.575C168.675 448.675 279.575 448.675 316.575 446.575C352.475 444.875 384.275 436.675 410.475 410.375C436.675 384.175 444.875 352.375 446.675 316.475C448.775 279.475 448.775 168.675 446.675 131.675ZM398.875 356.175C391.075 375.775 375.975 390.875 356.275 398.775C326.775 410.475 256.775 407.775 224.175 407.775C191.575 407.775 121.475 410.375 92.075 398.775C72.475 390.975 57.375 375.875 49.475 356.175C37.775 326.675 40.475 256.675 40.475 224.075C40.475 191.475 37.875 121.375 49.475 91.975C57.275 72.375 72.375 57.275 92.075 49.375C121.575 37.675 191.575 40.375 224.175 40.375C256.775 40.375 326.875 37.775 356.275 49.375C375.875 57.175 390.975 72.275 398.875 91.975C410.575 121.475 407.875 191.475 407.875 224.075C407.875 256.675 410.575 326.775 398.875 356.175Z" fill="url(#paint0_linear)"/>
<defs>
<linearGradient id="paint0_linear" x1="224.125" y1="0" x2="224.125" y2="448.15" gradientUnits="userSpaceOnUse">
<stop stop-color="#405DE6"/>
<stop offset="0.121547" stop-color="#5851DB"/>
<stop offset="0.254144" stop-color="#833AB4"/>
<stop offset="0.370166" stop-color="#C13584"/>
<stop offset="0.513812" stop-color="#E13306"/>
<stop offset="0.640884" stop-color="#FD1D1D"/>
<stop offset="0.751381" stop-color="#F56040"/>
<stop offset="0.867403" stop-color="#F77737"/>
<stop offset="0.944751" stop-color="#FCAF45"/>
<stop offset="1" stop-color="#FFDC80"/>
</linearGradient>
</defs>
</svg>
