<?xml version="1.0" encoding="utf-8"?>
<!-- Generator: Adobe Illustrator 23.0.1, SVG Export Plug-In . SVG Version: 6.00 Build 0)  -->
<svg version="1.1" id="Layer_1" xmlns="http://www.w3.org/2000/svg" xmlns:xlink="http://www.w3.org/1999/xlink" x="0px" y="0px"
	 viewBox="0 0 60 60" style="enable-background:new 0 0 60 60;" xml:space="preserve">
<style type="text/css">
	.st0{fill-rule:evenodd;clip-rule:evenodd;fill:#231F20;}
</style>
<title>MAIN LOGO</title>
<desc>Created with Sketch.</desc>
<g id="Welcome">
	<g id="HOMEPAGE-V2-CLIENT-DESCRIPTION-MOBILE-Copy" transform="translate(-282.000000, -6.000000)">
		<g id="MAIN-LOGO" transform="translate(282.000000, 6.000000)">
			<path id="Fill-1" class="st0" d="M30,0L0,30l30,30l30-30L30,0z M3.3,30L30,3.3L56.7,30L30,56.7L3.3,30z"/>
			<g id="Group-12" transform="translate(23.617021, 11.489362)">
				<path id="Fill-2" class="st0" d="M2.4,31.3V5.8l12.2,12.8l-2.1,2.2c0.8,0.2,1.5,0.6,2.2,1l3.1-3.2L0.1,0.1V37L5,31.9
					c-0.5-0.6-0.8-1.4-1.1-2.2L2.4,31.3z"/>
				<path id="Fill-4" class="st0" d="M14.7,21.8l-1.6,1.7c1.4,0.8,2.4,2.4,2.4,4.2c0,2.7-2.2,4.8-4.8,4.8c-1.7,0-3.2-0.9-4.1-2.3
					L5,31.9c1.3,1.7,3.3,2.9,5.7,2.9c3.9,0,7.1-3.2,7.1-7.1C17.7,25.2,16.5,23,14.7,21.8"/>
				<path id="Fill-6" class="st0" d="M10.5,22.8l2-2.1c-0.6-0.2-1.2-0.2-1.8-0.2c-3.9,0-7.1,3.2-7.1,7.1c0,0.7,0.1,1.4,0.3,2.1l2-2
					c0,0,0,0,0,0C5.9,25,8,22.9,10.5,22.8"/>
				<path id="Fill-8" class="st0" d="M5.9,27.7l-2,2c0.2,0.8,0.6,1.5,1.1,2.2l1.6-1.7C6.2,29.5,5.9,28.6,5.9,27.7"/>
				<path id="Fill-10" class="st0" d="M10.5,22.8c0.1,0,0.1,0,0.2,0c0.9,0,1.7,0.2,2.4,0.6l1.6-1.7c-0.7-0.5-1.4-0.8-2.2-1
					L10.5,22.8z"/>
			</g>
		</g>
	</g>
</g>
</svg>
