<svg viewBox="0 0 70 70" xmlns="http://www.w3.org/2000/svg"><g fill="none" fill-rule="evenodd"><circle cx="35" cy="35" fill="#0976b4" r="35"/><g fill="#fff"><path d="m21.3652778 25.9668379c2.4095555 0 4.3629444-1.7813951 4.3629444-3.9812778 0-2.2018293-1.9533889-3.9855601-4.3629444-3.9855601-2.4118889 0-4.3652778 1.7837308-4.3652778 3.9855601 0 2.1998827 1.9533889 3.9812778 4.3652778 3.9812778"/><path d="m18 51.578h7.828v-22.578h-7.828z"/><path d="m36.8155 39.0204356c0-2.5891737 1.225-5.1211216 4.1541111-5.1211216s3.6493333 2.5319479 3.6493333 5.0592244v12.3307887h7.7933334v-12.8349204c0-8.917097-5.271-10.4544067-8.5135556-10.4544067-3.2398333 0-5.0267778 1.0958538-7.0832222 3.7512069v-3.0395832h-7.8155v22.5777034h7.8155z"/></g></g></svg>