<svg width="462" height="272" viewBox="0 0 462 272" fill="none" xmlns="http://www.w3.org/2000/svg">
<g id="content-container">
<g clip-path="url(#clip0)">
<rect id="container-background" x="1" y="1" width="459" height="270" fill="white" stroke="#E6E7E9" stroke-width="2"/>
<g id="research__scroll">
<path d="M49 72H397V182H49V72Z" fill="#CCCFD4"/>
<path d="M50 197C50 194.239 52.2386 192 55 192H109C111.761 192 114 194.239 114 197C114 199.761 111.761 202 109 202H55C52.2386 202 50 199.761 50 197Z" fill="#CCCFD4"/>
<path d="M50 213C50 211.343 51.3431 210 53 210H177C178.657 210 180 211.343 180 213C180 214.657 178.657 216 177 216H53C51.3431 216 50 214.657 50 213Z" fill="#CCCFD4"/>
<path d="M50 223C50 221.343 51.3431 220 53 220H177C178.657 220 180 221.343 180 223C180 224.657 178.657 226 177 226H53C51.3431 226 50 224.657 50 223Z" fill="#CCCFD4"/>
<path d="M50 233C50 231.343 51.3431 230 53 230H177C178.657 230 180 231.343 180 233C180 234.657 178.657 236 177 236H53C51.3431 236 50 234.657 50 233Z" fill="#CCCFD4"/>
<path d="M50 243C50 241.343 51.3431 240 53 240H177C178.657 240 180 241.343 180 243C180 244.657 178.657 246 177 246H53C51.3431 246 50 244.657 50 243Z" fill="#CCCFD4"/>
<path d="M50 282C50 279.239 52.2386 277 55 277H109C111.761 277 114 279.239 114 282C114 284.761 111.761 287 109 287H55C52.2386 287 50 284.761 50 282Z" fill="#CCCFD4"/>
<path d="M50 298C50 296.343 51.3431 295 53 295H177C178.657 295 180 296.343 180 298C180 299.657 178.657 301 177 301H53C51.3431 301 50 299.657 50 298Z" fill="#CCCFD4"/>
<path d="M50 308C50 306.343 51.3431 305 53 305H177C178.657 305 180 306.343 180 308C180 309.657 178.657 311 177 311H53C51.3431 311 50 309.657 50 308Z" fill="#CCCFD4"/>
<path d="M50 318C50 316.343 51.3431 315 53 315H177C178.657 315 180 316.343 180 318C180 319.657 178.657 321 177 321H53C51.3431 321 50 319.657 50 318Z" fill="#CCCFD4"/>
<path d="M50 328C50 326.343 51.3431 325 53 325H177C178.657 325 180 326.343 180 328C180 329.657 178.657 331 177 331H53C51.3431 331 50 329.657 50 328Z" fill="#CCCFD4"/>
<path d="M190 197C190 194.239 192.239 192 195 192H288C290.761 192 293 194.239 293 197C293 199.761 290.761 202 288 202H195C192.239 202 190 199.761 190 197Z" fill="#CCCFD4"/>
<path d="M190 220C190 215.582 193.582 212 198 212H388C392.418 212 396 215.582 396 220V344C396 348.418 392.418 352 388 352H198C193.582 352 190 348.418 190 344V220Z" fill="#CCCFD4"/>
<path d="M50 367C50 364.239 52.2386 362 55 362H148C150.761 362 153 364.239 153 367C153 369.761 150.761 372 148 372H55C52.2386 372 50 369.761 50 367Z" fill="#CCCFD4"/>
<path d="M50 390C50 385.582 53.5817 382 58 382H248C252.418 382 256 385.582 256 390V514C256 518.418 252.418 522 248 522H58C53.5817 522 50 518.418 50 514V390Z" fill="#CCCFD4"/>
<path d="M266 367C266 364.239 268.239 362 271 362H325C327.761 362 330 364.239 330 367C330 369.761 327.761 372 325 372H271C268.239 372 266 369.761 266 367Z" fill="#CCCFD4"/>
<path d="M266 383C266 381.343 267.343 380 269 380H393C394.657 380 396 381.343 396 383C396 384.657 394.657 386 393 386H269C267.343 386 266 384.657 266 383Z" fill="#CCCFD4"/>
<path d="M266 393C266 391.343 267.343 390 269 390H393C394.657 390 396 391.343 396 393C396 394.657 394.657 396 393 396H269C267.343 396 266 394.657 266 393Z" fill="#CCCFD4"/>
<path d="M266 403C266 401.343 267.343 400 269 400H393C394.657 400 396 401.343 396 403C396 404.657 394.657 406 393 406H269C267.343 406 266 404.657 266 403Z" fill="#CCCFD4"/>
<path d="M266 413C266 411.343 267.343 410 269 410H393C394.657 410 396 411.343 396 413C396 414.657 394.657 416 393 416H269C267.343 416 266 414.657 266 413Z" fill="#CCCFD4"/>
<path d="M266 452C266 449.239 268.239 447 271 447H325C327.761 447 330 449.239 330 452C330 454.761 327.761 457 325 457H271C268.239 457 266 454.761 266 452Z" fill="#CCCFD4"/>
<path d="M266 468C266 466.343 267.343 465 269 465H393C394.657 465 396 466.343 396 468C396 469.657 394.657 471 393 471H269C267.343 471 266 469.657 266 468Z" fill="#CCCFD4"/>
<path d="M266 478C266 476.343 267.343 475 269 475H393C394.657 475 396 476.343 396 478C396 479.657 394.657 481 393 481H269C267.343 481 266 479.657 266 478Z" fill="#CCCFD4"/>
<path d="M266 488C266 486.343 267.343 485 269 485H393C394.657 485 396 486.343 396 488C396 489.657 394.657 491 393 491H269C267.343 491 266 489.657 266 488Z" fill="#CCCFD4"/>
<path d="M266 498C266 496.343 267.343 495 269 495H393C394.657 495 396 496.343 396 498C396 499.657 394.657 501 393 501H269C267.343 501 266 499.657 266 498Z" fill="#CCCFD4"/>
</g>
<g id="process__scroll-container">
<rect id="tab__background" x="460" y="56" width="215" height="11" transform="rotate(90 460 56)" fill="white" stroke="#E6E7E9" stroke-width="2"/>
<rect id="process__scrollbar" width="12.16" height="3" rx="1.5" transform="matrix(-1.57357e-06 -1 -1 -4.39083e-08 456 70)" fill="#C4C4C4"/>
</g>
<g id="process__navbar">
<rect width="461" height="24" fill="white"/>
<rect id="Rectangle 4" width="461" height="24" fill="#E6E7E9"/>
<circle id="Ellipse 1" cx="16.2801" cy="11.8399" r="4.44" fill="#D13137"/>
<circle id="Ellipse 1_2" cx="34.0401" cy="11.8399" r="4.44" fill="#EAB331"/>
<circle id="Ellipse 1_3" cx="51.8001" cy="11.8399" r="4.44" fill="#219653"/>
</g>
<g class="phone-wireframe">
<rect id="Rectangle 9" x="92" y="65" width="88" height="198" rx="9" fill="white" stroke="#808692" stroke-width="2"/>
<rect id="Rectangle 18" x="138" y="185" width="33" height="30" rx="2" fill="#CCCFD4"/>
<rect id="Rectangle 17" x="101" y="185" width="33" height="30" rx="2" fill="#E6E7E9"/>
<rect id="Rectangle 19" x="138" y="219" width="33" height="30" rx="2" fill="#E6E7E9"/>
<rect id="Rectangle 20" x="101" y="219" width="33" height="30" rx="2" fill="#CCCFD4"/>
<rect id="Rectangle 10" x="93" y="83" width="86" height="70" fill="#F0BABC"/>
<rect id="Rectangle 10_2" x="101" y="161" width="30" height="4" rx="2" fill="#9A9EA8"/>
<rect id="Rectangle 14" x="101" y="167" width="70" height="2" rx="1" fill="#C4C4C4"/>
<rect id="Rectangle 15" x="101" y="171" width="70" height="2" rx="1" fill="#C4C4C4"/>
<rect id="Rectangle 16" x="101" y="175" width="70" height="2" rx="1" fill="#C4C4C4"/>
<rect id="Rectangle 11" x="101" y="71" width="9" height="2" rx="1" fill="#C4C4C4"/>
<rect id="Rectangle 13" x="162" y="71" width="9" height="2" rx="1" fill="#C4C4C4"/>
<rect id="Rectangle 12" x="150" y="71" width="9" height="2" rx="1" fill="#C4C4C4"/>
</g>
<g class="phone-wireframe">
<rect id="Rectangle 9_2" x="213" y="65" width="88" height="198" rx="9" fill="white" stroke="#808692" stroke-width="2"/>
<rect id="Rectangle 18_2" x="259" y="148" width="33" height="30" rx="2" fill="#E6E7E9"/>
<rect id="Rectangle 17_2" x="222" y="134" width="33" height="30" rx="2" fill="#CCCFD4"/>
<rect id="Rectangle 19_2" x="259" y="182" width="33" height="30" rx="2" fill="#CCCFD4"/>
<rect id="Rectangle 20_2" x="222" y="168" width="33" height="30" rx="2" fill="#E6E7E9"/>
<rect id="Rectangle 10_3" x="214" y="86" width="86" height="40" fill="#BEC8E5"/>
<rect id="Rectangle 10_4" x="222" y="227" width="30" height="4" rx="2" fill="#9A9EA8"/>
<rect id="Rectangle 14_2" x="222" y="233" width="70" height="2" rx="1" fill="#C4C4C4"/>
<rect id="Rectangle 15_2" x="222" y="237" width="70" height="2" rx="1" fill="#C4C4C4"/>
<rect id="Rectangle 16_2" x="222" y="241" width="70" height="2" rx="1" fill="#C4C4C4"/>
<rect id="Rectangle 21" x="222" y="245" width="70" height="2" rx="1" fill="#C4C4C4"/>
<rect id="Rectangle 22" x="222" y="249" width="70" height="2" rx="1" fill="#C4C4C4"/>
<rect id="Rectangle 23" x="222" y="253" width="70" height="2" rx="1" fill="#C4C4C4"/>
<rect id="Rectangle 11_2" x="222" y="71" width="9" height="2" rx="1" fill="#C4C4C4"/>
<rect id="Rectangle 13_2" x="283" y="71" width="9" height="2" rx="1" fill="#C4C4C4"/>
<rect id="Rectangle 12_2" x="271" y="71" width="9" height="2" rx="1" fill="#C4C4C4"/>
</g>
<g class="phone-wireframe">
<rect id="Rectangle 9_3" x="334" y="65" width="88" height="198" rx="9" fill="white" stroke="#808692" stroke-width="2"/>
<rect id="Rectangle 18_3" x="343" y="163" width="70" height="30" rx="2" fill="#E6E7E9"/>
<rect id="Rectangle 19_3" x="380" y="197" width="33" height="30" rx="2" fill="#CCCFD4"/>
<rect id="Rectangle 19_4" x="343" y="231" width="70" height="12" rx="2" fill="#E6E7E9"/>
<rect id="Rectangle 19_5" x="343" y="251" width="70" height="2" rx="1" fill="#C4C4C4"/>
<rect id="Rectangle 19_6" x="343" y="255" width="70" height="2" rx="1" fill="#C4C4C4"/>
<rect id="Rectangle 20_3" x="343" y="197" width="33" height="30" rx="2" fill="#CCCFD4"/>
<rect id="Rectangle 10_5" x="335" y="83" width="86" height="70" fill="#F8E6BA"/>
<rect id="Rectangle 11_3" x="343" y="71" width="9" height="2" rx="1" fill="#C4C4C4"/>
<rect id="Rectangle 13_3" x="404" y="71" width="9" height="2" rx="1" fill="#C4C4C4"/>
<rect id="Rectangle 12_3" x="392" y="71" width="9" height="2" rx="1" fill="#C4C4C4"/>
</g>
<rect id="site-sidebar" x="1" y="23" width="66" height="248" fill="white" stroke="#E6E7E9" stroke-width="2"/>
<g id="process-userflows">
<rect class="flow-item" x="91" y="64" width="64" height="30" rx="8" fill="#7E92CA"/>
<line class="flow-line" x1="166" y1="78" x2="214" y2="78" stroke="#EAB331" stroke-width="2" stroke-linecap="round" stroke-linejoin="round"/>
<rect class="flow-item" x="225" y="64" width="64" height="30" rx="8" fill="#F0BABC"/>
<line class="flow-line" x1="300" y1="78" x2="348" y2="78" stroke="#EAB331" stroke-width="2" stroke-linecap="round" stroke-linejoin="round"/>
<rect class="flow-item" x="359" y="64" width="64" height="30" rx="8" fill="#F8E6BA"/>
<line class="flow-line" x1="390" y1="119" x2="390" y2="105" stroke="#EAB331" stroke-width="2" stroke-linecap="round" stroke-linejoin="round"/>
<rect class="flow-item" x="91" y="130" width="64" height="30" rx="8" fill="#E6E7E9"/>
<line class="flow-line" x1="166" y1="144" x2="214" y2="144" stroke="#EAB331" stroke-width="2" stroke-linecap="round" stroke-linejoin="round"/>
<rect class="flow-item" x="225" y="130" width="64" height="30" rx="8" fill="#7E92CA"/>
<line class="flow-line" x1="300" y1="144" x2="348" y2="144" stroke="#EAB331" stroke-width="2" stroke-linecap="round" stroke-linejoin="round"/>
<rect class="flow-item" x="359" y="130" width="64" height="30" rx="8" fill="#F0BABC"/>
<line class="flow-line" x1="122" y1="185" x2="122" y2="171" stroke="#EAB331" stroke-width="2" stroke-linecap="round" stroke-linejoin="round"/>
<rect class="flow-item" x="91" y="196" width="64" height="30" rx="8" fill="#F0BABC"/>
<line class="flow-line" x1="166" y1="210" x2="214" y2="210" stroke="#EAB331" stroke-width="2" stroke-linecap="round" stroke-linejoin="round"/>
<rect class="flow-item" x="225" y="196" width="64" height="30" rx="8" fill="#F8E6BA"/>
<line class="flow-line" x1="300" y1="210" x2="348" y2="210" stroke="#EAB331" stroke-width="2" stroke-linecap="round" stroke-linejoin="round"/>
<rect class="flow-item" x="359" y="196" width="64" height="30" rx="8" fill="#E6E7E9"/>
</g>
<g id="process__collaboration">
<path id="Vector_2" fill-rule="evenodd" clip-rule="evenodd" d="M347.702 231.334C349.44 225.683 350.354 219.822 350.354 213.813C350.354 167.535 296.121 130.019 229.222 130.019C162.322 130.019 108.09 167.535 108.09 213.813C108.09 219.822 109.004 225.683 110.741 231.334H347.702Z" fill="#E6E7E9"/>
<path id="Vector_3" fill-rule="evenodd" clip-rule="evenodd" d="M283.568 159.295L271.781 162.108L267.83 150.89C266.789 151.794 263.363 152.706 261.196 153.213C261.062 153.919 260.993 154.647 260.993 155.391C260.993 161.811 266.197 167.016 272.616 167.016C277.666 167.016 281.964 163.795 283.568 159.295Z" fill="#E4B69D"/>
<path id="Vector_4" fill-rule="evenodd" clip-rule="evenodd" d="M166.636 135.333L173.135 138.893L177.412 135.603C178.656 137.159 181.536 139.457 184.614 138.589C184.717 139.72 184.68 140.883 184.49 142.056C183.268 149.588 176.172 154.703 168.641 153.481C168.165 153.403 167.699 153.303 167.244 153.18L164.391 159.096L164.348 159.095C163.489 159.078 162.485 159.059 161.691 158.416C161.292 158.093 160.908 157.562 160.52 157.026C160.217 156.606 159.911 156.183 159.593 155.852L162.141 150.567C159.764 148.633 158.074 145.94 157.383 142.924C157.835 143.001 158.389 143.03 158.956 143.059C159.924 143.108 160.929 143.16 161.528 143.459C160.118 137.552 162.029 134.635 166.636 135.333Z" fill="#DFB28B"/>
<path id="Vector_5" fill-rule="evenodd" clip-rule="evenodd" d="M301.711 107.452C304.308 103.098 305.799 98.0082 305.799 92.5704C305.799 76.5006 292.773 63.4729 276.705 63.4729C260.636 63.4729 247.61 76.5006 247.61 92.5704C247.61 108.641 260.636 121.668 276.705 121.668C280.595 121.668 284.308 120.904 287.701 119.518V109.838V107.452H290.087H301.711ZM276.711 79.4186L281.945 74.1847C280.732 72.9724 279.137 72.2179 277.431 72.0497C275.725 71.8816 274.013 72.3104 272.588 73.2631C271.162 74.2155 270.111 75.633 269.614 77.2738C269.469 77.7489 269.374 78.2342 269.328 78.7225L276.688 79.4319L276.711 79.4186Z" fill="#F8E6BA"/>
<path id="Vector_6" d="M192.251 125.564L194.23 112.035L202.744 114.306L192.251 125.564Z" stroke="#D13137"/>
<path id="Vector_7" d="M95.425 231.334H361.931" stroke="#E0767A" stroke-linecap="round"/>
<path id="Vector_8" d="M95.425 232.223H361.931" stroke="#E0767A" stroke-linecap="round"/>
<path id="Vector_9" fill-rule="evenodd" clip-rule="evenodd" d="M253.723 217.833V248.241C253.723 248.241 252.252 249.962 249.522 248.579L245.628 217.833C244.903 214.5 251.212 215.708 253.723 217.833Z" fill="#CEA28B"/>
<path id="Vector_10" fill-rule="evenodd" clip-rule="evenodd" d="M257.563 253.822C259.013 254.024 259.588 253.241 259.588 253.241L260.006 228.908L252.029 225.957L255.651 251.866L255.433 253.218L257.563 253.822Z" fill="#E4B69D"/>
<path id="Vector_11" d="M203.75 245.199L202.77 239.622H206.319L208.161 245.199C213.535 245.977 221.555 248.781 222.366 249.836C223.38 251.155 204.128 251.464 203.391 250.298C202.161 248.348 202.77 245.199 203.75 245.199Z" fill="#E0767A"/>
<path id="Vector_12" d="M202.695 252.169L201.715 246.591H205.263L207.106 252.169C212.48 252.946 220.5 255.75 221.311 256.805C222.325 258.123 203.073 258.433 202.336 257.267C201.105 255.318 201.715 252.169 202.695 252.169Z" fill="#E0767A"/>
<path id="Vector_13" fill-rule="evenodd" clip-rule="evenodd" d="M198.985 208.673L201.291 244.836C201.291 244.836 209.722 243.885 209.689 244.46L210.612 203.857C210.933 198.349 206.074 193.96 200.627 194.837L165.123 200.561C161.02 201.222 158.23 205.086 158.891 209.189C159.552 213.293 163.415 216.084 167.518 215.422L198.985 208.673Z" fill="#D13137"/>
<path id="Vector_14" d="M125.823 103.559C130.889 103.559 134.997 99.4513 134.997 94.3844C134.997 89.3178 130.889 85.2102 125.823 85.2102C120.757 85.2102 116.65 89.3178 116.65 94.3844C116.65 99.4513 120.757 103.559 125.823 103.559Z" fill="#F8E6BA"/>
<path id="Vector_15" d="M251.471 144.588L249.491 131.06L240.978 133.33L251.471 144.588Z" stroke="#D13137"/>
<path id="Vector_16" d="M249.302 120.464H212.032C208.166 120.464 205.032 123.598 205.032 127.465C205.032 131.332 208.166 134.466 212.032 134.466H249.302C253.168 134.466 256.302 131.332 256.302 127.465C256.302 123.598 253.168 120.464 249.302 120.464Z" fill="#E0767A"/>
<path id="Vector_17" d="M210.878 248.425L213.628 243.499" stroke="#D13137" stroke-width="3" stroke-linecap="round"/>
<path id="Vector_18" d="M209.539 246.731L214.967 245.192" stroke="#D13137" stroke-width="3" stroke-linecap="round"/>
<path id="Vector_19" d="M99.7808 202.842H122.964V221.42C122.964 223.651 121.156 231.333 118.926 231.333H103.819C101.589 231.333 99.7808 223.651 99.7808 221.42V202.842Z" fill="white" fill-opacity="0.37"/>
<path id="Vector_20" d="M253.756 251.772C253.756 251.772 254.657 247.29 253.756 247.29C253.756 247.29 252.152 248.666 251.36 248.666C250.569 248.666 249.46 247.956 249.46 247.956C244.522 248.67 240.348 250.537 239.603 251.506C238.671 252.717 253.756 251.772 253.756 251.772Z" fill="#E0767A"/>
<path id="Vector_21" d="M199.952 195.281C197.285 192.403 191.576 192.575 189.301 193.112C188.772 194.065 188.206 196.466 188.206 197.705C188.207 199.254 194.361 200.634 195.356 200.634C196.696 200.634 197.86 202.152 201.719 201.586C202.241 200.683 202.619 198.158 199.952 195.281Z" fill="#CEA28B"/>
<path id="Vector_22" d="M170.81 165.385C169.699 162.23 166.24 160.572 163.085 161.683C159.929 162.794 158.272 166.254 159.383 169.409L170.81 165.385ZM173.808 192.142L168.095 194.154L169.174 197.218L172.323 198.015L173.808 192.142ZM159.383 169.409L168.095 194.154L179.521 190.13L170.81 165.385L159.383 169.409ZM172.323 198.015L191.866 202.96L194.838 191.215L175.294 186.269L172.323 198.015Z" fill="#F8E6BA"/>
<path id="Vector_23" d="M224.406 208.869C225.512 208.869 226.408 209.765 226.408 210.871V250.159C226.408 251.265 225.512 252.161 224.406 252.161C223.301 252.161 222.405 251.265 222.405 250.159V210.871C222.405 209.765 223.301 208.869 224.406 208.869Z" fill="#F8E6BA"/>
<path id="Vector_24" d="M222.405 211.972C222.405 210.867 223.301 209.97 224.406 209.97C225.511 209.97 226.407 210.867 226.407 211.972V212.882H222.405V211.972Z" fill="#E6E7E9"/>
<path id="Vector_25" d="M255.66 208.869C255.66 210.406 241.674 211.653 224.421 211.653C207.168 211.653 193.182 210.406 193.182 208.869C193.182 208.455 192.192 205.836 194.015 205.483C198.955 204.525 211.82 206.086 224.421 206.086C237.022 206.086 249.827 204.563 254.767 205.521C256.59 205.874 255.66 208.455 255.66 208.869Z" fill="#E0767A"/>
<path id="Vector_26" d="M224.421 208.868C241.674 208.868 255.66 207.622 255.66 206.085C255.66 204.548 241.674 203.302 224.421 203.302C207.168 203.302 193.182 204.548 193.182 206.085C193.182 207.622 207.168 208.868 224.421 208.868Z" fill="#F8E6BA"/>
<path id="Vector_27" d="M216.242 250.322H232.571C233.566 250.322 234.372 251.129 234.372 252.124C234.372 253.118 233.566 253.925 232.571 253.925H216.242C215.247 253.925 214.441 253.118 214.441 252.124C214.441 251.129 215.247 250.322 216.242 250.322Z" fill="#F8E6BA"/>
<path id="Vector_28" d="M194.338 203.883L211.863 204.86L221.19 185.4" stroke="#F0BABC" stroke-width="4" stroke-linecap="round"/>
<path id="Vector_29" d="M252.81 204.473H235.966L232.75 183.899" stroke="#F0BABC" stroke-width="4" stroke-linecap="round"/>
<path id="Vector_30" fill-rule="evenodd" clip-rule="evenodd" d="M173.836 182.505C174.643 190.906 176.615 196.947 178.276 199.376L153.736 216.169C147.768 207.445 145.192 195.29 144.237 185.347C143.793 180.719 144.308 174.246 146.488 169.128C149.575 161.884 155.137 156.648 163.27 159.615L168.388 163.464C172.352 168.562 173.052 174.338 173.836 182.505Z" fill="#7E92CA"/>
<path id="Vector_31" d="M199.912 196.779C197.245 193.902 191.536 194.073 189.262 194.611C188.732 195.564 188.166 197.965 188.166 199.204C188.167 200.753 194.321 202.132 195.317 202.132C196.657 202.132 197.82 203.651 201.679 203.084C202.201 202.182 202.579 199.657 199.912 196.779Z" fill="#DFB28B"/>
<path id="Vector_32" fill-rule="evenodd" clip-rule="evenodd" d="M282.433 84.1264C283.52 82.8011 284.114 81.1397 284.114 79.4248H276.704L281.944 74.1846C280.732 72.9723 279.137 72.2178 277.43 72.0496C275.725 71.8815 274.012 72.3103 272.587 73.2631C271.162 74.2154 270.111 75.633 269.613 77.2737C269.116 78.9145 269.202 80.6771 269.858 82.261C270.514 83.8452 271.699 85.1526 273.211 85.9611C274.723 86.7691 276.468 87.028 278.15 86.6935C279.831 86.359 281.345 85.4518 282.433 84.1264ZM153.791 216.129L153.815 216.931C154.723 216.843 158.075 217.063 161.984 217.32C163.571 217.425 165.326 217.339 167.157 217.25H167.157C169.61 217.131 172.198 217.004 174.695 217.32C176.448 217.542 178.453 217.632 180.527 217.724C184.338 217.894 188.375 218.073 191.473 219.107L200.514 251.356L209.117 249.632C207.646 240.124 204.084 219.107 200.514 209.338C198.756 207.487 196.376 206.555 195.119 206.099C193.504 205.513 191.638 205.014 189.732 204.583C185.892 203.714 181.211 202.973 176.587 202.387C175.821 202.29 175.052 202.197 174.284 202.107L153.791 216.129ZM213.053 250.735C213.201 250.469 213.106 250.134 212.841 249.985C212.575 249.837 212.24 249.932 212.092 250.198L210.828 252.462L208.334 253.169C208.041 253.252 207.871 253.556 207.954 253.849C208.037 254.141 208.342 254.311 208.634 254.229L210.068 253.822L209.342 255.124C209.194 255.389 209.289 255.725 209.554 255.873C209.82 256.022 210.155 255.926 210.303 255.661L211.567 253.397L214.061 252.69C214.354 252.607 214.524 252.302 214.441 252.01C214.358 251.717 214.053 251.547 213.761 251.63L212.326 252.037L213.053 250.735ZM247.54 245.47C247.805 245.322 248.141 245.417 248.289 245.682L249.441 247.746L251.715 248.391C252.007 248.474 252.177 248.778 252.094 249.071C252.011 249.364 251.707 249.533 251.414 249.451L250.2 249.106L250.815 250.208C250.963 250.474 250.868 250.809 250.603 250.958C250.337 251.106 250.002 251.011 249.854 250.745L248.702 248.681L246.427 248.037C246.135 247.954 245.965 247.649 246.048 247.356C246.131 247.064 246.436 246.894 246.728 246.977L247.943 247.321L247.327 246.219C247.179 245.953 247.274 245.618 247.54 245.47ZM352.212 110.895H290.642V186.976C291.399 186.065 292.666 185.667 293.853 186.073C295.388 186.597 296.206 188.267 295.682 189.802C292.815 198.189 291.778 205.656 291.457 211.01C291.296 213.686 291.315 215.827 291.372 217.284C291.4 218.013 291.439 218.569 291.468 218.935C291.483 219.118 291.496 219.253 291.505 219.338C291.507 219.362 291.51 219.382 291.511 219.397C291.512 219.41 291.514 219.42 291.514 219.427L291.516 219.44L291.516 219.443V219.444V219.444L291.911 222.728H290.642V227.892H352.212V110.895ZM295.451 128.191H347.403V126.722H295.451V128.191ZM347.403 158.063H295.451V156.594H347.403V158.063ZM295.451 159.709H347.403V158.241H295.451V159.709ZM295.452 198.935H347.404V197.466H295.452V198.935ZM347.403 143.193H321.293V141.725H347.403V143.193ZM295.452 173.892H347.404V172.423H295.452V173.892ZM347.404 197.29H295.452V195.821H347.404V197.29ZM295.453 221.497H347.405V220.028H295.453V221.497ZM273.299 224.021C273.658 223.551 274.021 223.118 274.388 222.729H275.392C274.887 223.205 274.377 223.784 273.865 224.454C272.186 226.648 270.528 229.763 268.978 233.275C265.88 240.295 263.249 248.825 261.775 254.538L261.085 254.36C262.566 248.624 265.208 240.055 268.326 232.987C269.885 229.456 271.57 226.281 273.299 224.021ZM283.391 225.017C282.763 224.106 282.126 223.335 281.489 222.729H282.487C282.994 223.276 283.492 223.909 283.977 224.612C285.603 226.968 287.125 230.152 288.436 233.644C291.057 240.626 292.865 248.916 292.968 254.443L292.256 254.456C292.155 249.033 290.371 240.825 287.769 233.895C286.469 230.431 284.971 227.306 283.391 225.017ZM163.664 223.069C163.513 222.871 163.361 222.68 163.208 222.495H162.241C162.52 222.807 162.8 223.148 163.081 223.515C164.811 225.777 166.521 228.99 168.12 232.612C171.313 239.85 174.027 248.646 175.548 254.538L176.258 254.354C174.732 248.439 172.007 239.602 168.791 232.315C167.184 228.674 165.447 225.399 163.664 223.069ZM152.653 223.678C152.942 223.259 153.236 222.863 153.534 222.495H154.493C154.079 222.967 153.666 223.503 153.257 224.096C151.627 226.456 150.083 229.678 148.742 233.25C146.06 240.397 144.22 248.861 144.116 254.453L143.382 254.439C143.488 248.74 145.352 240.191 148.055 232.992C149.407 229.391 150.976 226.108 152.653 223.678ZM99.7808 202.841H122.964V221.42C122.964 223.65 121.156 231.333 118.926 231.333H103.819C101.589 231.333 99.7808 223.65 99.7808 221.42V202.841ZM164.029 168.551C162.917 165.395 159.459 163.737 156.303 164.849C153.148 165.96 151.491 169.419 152.602 172.574L161.314 197.319L162.619 201.027L166.537 201.345L190.636 203.302L191.617 191.226L171.435 189.587L164.029 168.551Z" fill="white"/>
<path id="Vector_33" d="M231.689 100.554H194.419C190.553 100.554 187.419 103.688 187.419 107.555C187.419 111.421 190.553 114.556 194.419 114.556H231.689C235.555 114.556 238.689 111.421 238.689 107.555C238.689 103.688 235.555 100.554 231.689 100.554Z" fill="#E6E7E9"/>
<path id="Vector_34" d="M164.046 168.563C162.934 165.408 159.476 163.75 156.32 164.861C153.165 165.972 151.508 169.432 152.619 172.587L164.046 168.563ZM167.044 195.32L161.331 197.332L162.636 201.04L166.554 201.358L167.044 195.32ZM152.619 172.587L161.331 197.332L172.757 193.308L164.046 168.563L152.619 172.587ZM166.554 201.358L190.653 203.315L191.634 191.239L167.534 189.282L166.554 201.358Z" fill="white" fill-opacity="0.22"/>
<path id="Vector_35" d="M155.235 159.737C155.235 159.737 156.689 155.824 158.091 155.291C159.493 154.758 160.525 157.471 161.691 158.416C162.858 159.361 164.481 158.959 165.426 159.181C166.182 159.359 165.741 162 165.426 162.964L163.481 164.516L158.091 164.238L155.235 159.737Z" fill="#7E92CA"/>
<path id="Vector_36" d="M92.0446 157.132C78.2303 126.399 96.8374 108.354 123.62 115.403C138.912 119.428 164.78 110.095 164.78 97.076C164.78 82.781 187.225 81.0657 189.198 80.7837" stroke="#E0767A" stroke-dasharray="4 4"/>
<path id="Vector_37" d="M197 78.5996L192.31 72.9404L215.803 76.1661L192.758 89.0341L197 78.5996Z" fill="#F1CC76"/>
<path id="Vector_38" d="M193.716 81.3655L197.256 78.566L215.292 76.2317L193.716 81.3655Z" fill="#E0767A"/>
<path id="Vector_39" fill-rule="evenodd" clip-rule="evenodd" d="M293.872 186.082C295.407 186.607 296.226 188.277 295.701 189.811C292.835 198.198 291.798 205.665 291.476 211.019C291.316 213.695 291.335 215.836 291.392 217.293C291.42 218.022 291.458 218.578 291.488 218.944C291.503 219.127 291.516 219.262 291.525 219.347C291.529 219.39 291.532 219.419 291.534 219.437L291.536 219.449L291.536 219.452V219.452V219.453L291.931 222.737H264.137C262.515 222.737 261.2 221.423 261.2 219.8C261.2 218.178 262.515 216.863 264.137 216.863H285.501C285.457 215.286 285.462 213.186 285.613 210.667C285.96 204.895 287.074 196.892 290.144 187.911C290.668 186.376 292.338 185.557 293.872 186.082Z" fill="#E6E7E9"/>
<path id="Vector_40" fill-rule="evenodd" clip-rule="evenodd" d="M275.888 203.932H278.282L278.676 202.463L285.891 202.903C285.891 202.903 286.053 203.333 286.28 204.053C285.938 206.483 285.731 208.704 285.613 210.667C285.462 213.186 285.457 215.285 285.501 216.863H264.137C262.515 216.863 261.2 218.178 261.2 219.8C261.2 220.538 261.473 221.212 261.922 221.728C261.75 222.707 261.922 223.978 262.121 225.456C262.299 226.77 262.499 228.248 262.499 229.83L243.194 222.69C243.194 222.69 243.018 214.406 244.781 211.41C246.543 208.414 253.655 203.856 262.499 205.505C264.933 205.958 266.145 204.734 266.74 203.22L275.888 203.932Z" fill="#F8E6BA"/>
<path id="collaboration__female-foot" fill-rule="evenodd" clip-rule="evenodd" d="M257.563 253.822L258.034 254.303C258.246 254.52 258.242 254.869 258.025 255.081C257.808 255.294 257.459 255.29 257.246 255.073L255.433 253.219L254.02 253.204C249.763 255.285 246.009 257.881 246.662 258.831C247.721 260.373 260.817 256.281 260.817 256.281C260.817 256.281 260.531 252.363 259.655 252.225L259.272 252.943C259.272 252.943 259.013 254.024 257.563 253.822Z" fill="#E0767A"/>
<path id="Vector_41" fill-rule="evenodd" clip-rule="evenodd" d="M274.71 166.827C276.212 166.554 277.614 165.992 278.855 165.201L279.449 169.471C279.347 170.484 278.88 170.727 278.182 171.09L278.123 171.121C276.91 171.752 275.039 170.765 275.039 170.765L274.71 166.827Z" fill="#CEA28B"/>
<path id="Vector_42" fill-rule="evenodd" clip-rule="evenodd" d="M275.822 189.013L273.47 197.783L253.102 198.558C251.401 197.668 247.64 196.505 245.22 197.897C242.65 199.376 242.038 202.79 242.038 202.79C242.038 202.79 245.269 202.877 247.336 202.79C248.043 202.761 248.838 202.808 249.609 202.854H249.609C251.322 202.956 252.914 203.051 253.154 202.28C253.165 202.244 253.176 202.206 253.187 202.166L275.888 203.932H278.282L278.902 201.62L282.007 190.041L275.822 189.013Z" fill="#E4B69D"/>
<path id="Vector_43" fill-rule="evenodd" clip-rule="evenodd" d="M298.678 117.663H302.411V126.272H298.678V117.663ZM298.678 135.655H302.411V156.145H298.678V135.655ZM303.399 135.655H307.132V156.145H303.399V135.655ZM311.852 142.458H308.119V156.145H311.852V142.458ZM312.839 142.458H316.573V156.145H312.839V142.458ZM321.293 147.536H317.559V156.146H321.293V147.536ZM307.132 117.663H303.399V126.272H307.132V117.663ZM308.119 117.663H311.852V126.272H308.119V117.663ZM316.573 117.663H312.839V126.272H316.573V117.663ZM317.559 117.663H321.293V126.272H317.559V117.663ZM341.499 132.534H337.766V141.143H341.499V132.534ZM342.815 132.534H346.548V141.143H342.815V132.534ZM340.425 162.407H337.765V171.842H340.425V162.407ZM341.413 162.407H344.073V171.842H341.413V162.407ZM335.462 179.154H332.802V195.24H335.462V179.154ZM336.449 179.154H339.11V195.24H336.449V179.154ZM342.756 179.154H340.096V195.24H342.756V179.154ZM343.743 179.154H346.403V195.24H343.743V179.154ZM342.714 209.978H341.159V219.413H342.714V209.978ZM343.493 209.978H345.047V219.413H343.493V209.978ZM338.046 209.978H336.492V219.413H338.046V209.978ZM338.825 209.978H340.38V219.413H338.825V209.978ZM333.38 209.978H331.825V219.413H333.38V209.978ZM334.158 209.978H335.713V219.413H334.158V209.978ZM328.712 209.978H327.157V219.413H328.712V209.978ZM329.49 209.978H331.046V219.413H329.49V209.978ZM324.045 209.978H322.49V219.413H324.045V209.978ZM324.824 209.978H326.378V219.413H324.824V209.978ZM319.377 209.978H317.823V219.413H319.377V209.978ZM320.156 209.978H321.711V219.413H320.156V209.978ZM314.71 209.978H313.155V219.413H314.71V209.978ZM315.489 209.978H317.044V219.413H315.489V209.978Z" fill="#E6E7E9"/>
<path id="Vector_44" d="M301.398 69.9672C302.9 69.9672 304.117 68.7496 304.117 67.2475C304.117 65.7453 302.9 64.5276 301.398 64.5276C299.896 64.5276 298.678 65.7453 298.678 67.2475C298.678 68.7496 299.896 69.9672 301.398 69.9672Z" fill="#FDF2D8"/>
<path id="Vector_45" fill-rule="evenodd" clip-rule="evenodd" d="M281.944 74.1846L276.711 79.4186L276.688 79.4318L269.328 78.7225C269.374 78.2342 269.469 77.7488 269.614 77.2737C270.111 75.633 271.162 74.2154 272.588 73.2631C274.013 72.3103 275.725 71.8815 277.431 72.0496C279.137 72.2178 280.732 72.9723 281.944 74.1846ZM287.701 107.452H290.087H352.769H355.155V109.838V228.947V231.333H352.769H290.087H287.701V228.947V222.728H264.117C262.496 222.728 261.181 221.413 261.181 219.791C261.181 218.169 262.496 216.854 264.117 216.854H285.481C285.437 215.277 285.443 213.178 285.594 210.659C285.827 206.771 286.408 201.872 287.701 196.345V109.838V107.452ZM290.643 227.892V222.728H291.912L291.516 219.444V219.444V219.443L291.516 219.44L291.514 219.427L291.511 219.4C291.51 219.384 291.507 219.363 291.505 219.338C291.499 219.283 291.492 219.206 291.484 219.109L291.481 219.085L291.478 219.051C291.475 219.014 291.472 218.976 291.468 218.935C291.439 218.569 291.401 218.013 291.372 217.284C291.315 215.827 291.296 213.686 291.457 211.01C291.778 205.656 292.815 198.189 295.682 189.802C296.206 188.267 295.388 186.597 293.853 186.073C292.666 185.667 291.399 186.065 290.643 186.976V110.895H352.212V227.892H290.643ZM347.403 128.191H295.451V126.722H347.403V128.191ZM295.451 158.063H347.403V156.594H295.451V158.063ZM347.403 159.709H295.452V158.241H347.403V159.709ZM347.405 198.935H295.452V197.466H347.405V198.935ZM321.293 143.193H347.403V141.725H321.293V143.193ZM347.404 173.892H295.452V172.423H347.404V173.892ZM295.452 197.29H347.404V195.821H295.452V197.29ZM347.405 221.497H295.453V220.028H347.405V221.497ZM102.411 202.841H115.752C126.195 191.913 138.386 176.366 135.257 161.377C130.348 137.861 130.348 127.265 135.257 116.928C133.366 118.86 131.407 120.765 129.467 122.651C119.037 132.792 109.155 142.401 113.294 152.849C117.409 163.236 114.265 169.04 110.764 175.504C109 178.762 107.144 182.187 106.082 186.451C105.277 183.989 105.062 181.376 106.378 178.053C107.995 173.973 104.604 170.961 100.283 167.123L100.283 167.122L100.283 167.122L100.282 167.122C98.8594 165.858 97.3356 164.504 95.8569 162.994C97.8282 167.144 96.8025 171.694 95.0474 179.477V179.477C94.6389 181.29 94.1906 183.278 93.7314 185.478C92.4341 191.692 97.4035 197.886 102.411 202.841ZM144.424 187.136C145.129 193.364 146.48 200.294 148.881 206.636C149.025 207.984 149.127 209.251 149.197 210.425C149.348 212.944 149.353 215.043 149.31 216.62H170.674C172.296 216.62 173.61 217.935 173.61 219.557C173.61 221.179 172.296 222.495 170.674 222.495H142.879L143.274 219.21L143.275 219.21V219.209L143.275 219.206L143.277 219.194C143.278 219.183 143.279 219.168 143.281 219.147L143.286 219.104C143.295 219.019 143.307 218.884 143.323 218.701C143.352 218.336 143.39 217.779 143.419 217.051C143.476 215.593 143.495 213.452 143.334 210.776C143.013 205.422 141.976 197.955 139.109 189.568C138.584 188.033 139.403 186.364 140.938 185.839C142.284 185.379 143.734 185.952 144.424 187.136ZM168.193 140.141C168.189 140.27 168.081 140.372 167.952 140.368C167.823 140.365 167.721 140.257 167.725 140.127C167.751 139.212 167.599 137.96 167.092 137.127C166.467 136.102 165.384 136.11 164.384 136.589C163.476 137.024 162.967 137.639 162.725 138.304C162.48 138.975 162.501 139.718 162.691 140.412C162.881 141.107 163.238 141.738 163.645 142.175C164.062 142.623 164.485 142.824 164.81 142.78C165.21 142.725 165.507 142.582 165.718 142.387C165.929 142.192 166.066 141.934 166.126 141.631C166.249 141.02 166.057 140.224 165.529 139.469C165.455 139.363 165.481 139.217 165.587 139.143C165.693 139.069 165.839 139.095 165.913 139.201C166.492 140.029 166.739 140.952 166.585 141.723C166.508 142.111 166.327 142.461 166.036 142.731C165.744 143 165.354 143.178 164.874 143.243C164.32 143.319 163.755 142.98 163.302 142.494C162.84 141.998 162.448 141.299 162.239 140.536C162.03 139.772 162 138.927 162.285 138.144C162.637 137.261 163.881 135.604 166.036 136.042C168.19 136.48 168.372 138.957 168.193 140.141Z" fill="#EAB331"/>
<path id="Vector_46" fill-rule="evenodd" clip-rule="evenodd" d="M274.948 169.675C271.977 170.678 270.151 173.867 269.579 175.616C269.418 176.108 269.257 176.59 269.096 177.068L269.096 177.071C267.802 180.935 266.577 184.596 266.024 191.862C265.812 194.646 266.091 196.633 266.559 198.046L273.47 197.783L275.822 189.014L282.008 190.042L278.902 201.621L278.282 203.933H275.888L272.623 203.679C275.611 205.413 279.951 207.293 283.062 205.921C283.573 205.696 284.041 205.505 284.469 205.329C285.14 205.055 285.715 204.82 286.211 204.554C286.821 200.031 287.9 194.755 289.761 189.057C289.751 186.122 289.433 183.092 288.389 180.003C286.435 174.222 282.849 170.893 279.401 169.784C279.24 170.541 278.802 170.769 278.182 171.091L278.123 171.121C276.91 171.753 275.039 170.766 275.039 170.766L274.948 169.675Z" fill="#E0767A"/>
<path id="Vector_47" d="M281.714 173.713C278.414 173.165 275.294 175.396 274.746 178.696L273.107 188.563L285.058 190.548L286.697 180.681C287.245 177.381 285.014 174.261 281.714 173.713Z" fill="#D13137"/>
<path id="Vector_48" fill-rule="evenodd" clip-rule="evenodd" d="M306.483 72.4896C306.137 72.0168 305.473 71.9147 305 72.2609C304.527 72.6075 304.425 73.2716 304.772 73.7445C315.149 87.9085 312.081 107.805 297.919 118.184C297.446 118.53 297.344 119.194 297.69 119.667C298.036 120.14 298.7 120.242 299.173 119.896C314.281 108.824 317.554 87.5994 306.483 72.4896ZM264.939 95.7055C264.939 96.521 264.278 97.1818 263.463 97.1818C262.648 97.1818 261.986 96.521 261.986 95.7055C261.986 94.8901 262.648 94.2289 263.463 94.2289C264.278 94.2289 264.939 94.8901 264.939 95.7055ZM266.764 94.3611H287.058C287.188 94.3611 287.294 94.4664 287.294 94.5968V96.8899C287.294 97.0199 287.188 97.1256 287.058 97.1256H266.764C266.633 97.1256 266.528 97.0199 266.528 96.8899V94.5968C266.528 94.4664 266.633 94.3611 266.764 94.3611ZM266.764 99.6442H292.055C292.185 99.6442 292.291 99.75 292.291 99.8803V102.173C292.291 102.303 292.185 102.409 292.055 102.409H266.764C266.633 102.409 266.528 102.303 266.528 102.173V99.8803C266.528 99.75 266.633 99.6442 266.764 99.6442ZM263.463 102.562C264.278 102.562 264.939 101.9 264.939 101.085C264.939 100.269 264.278 99.6086 263.463 99.6086C262.647 99.6086 261.986 100.269 261.986 101.085C261.986 101.9 262.647 102.562 263.463 102.562Z" fill="#F1CC76"/>
<path id="Vector_49" fill-rule="evenodd" clip-rule="evenodd" d="M282.433 84.1266C283.521 82.8012 284.115 81.1395 284.115 79.425H276.705L276.718 79.4121L276.664 79.4217L277.778 86.7579C277.903 86.7395 278.027 86.7182 278.15 86.6936C279.832 86.3592 281.345 85.452 282.433 84.1266Z" fill="#E0767A"/>
<path id="Vector_50" fill-rule="evenodd" clip-rule="evenodd" d="M277.395 165.991C276.549 166.373 275.649 166.657 274.71 166.828L274.83 168.266C275.727 167.704 277.194 166.653 277.395 165.991Z" fill="#B08874"/>
<path id="Vector_51" d="M282.011 190.05L275.817 189.011L281.455 192.039L282.011 190.05Z" fill="#E6E7E9"/>
<path id="Vector_52" fill-rule="evenodd" clip-rule="evenodd" d="M86.0083 84.498L85.6541 84.187L85.7047 84.6555C88.0854 106.682 93.7354 126.157 99.1138 144.695C99.9434 147.555 100.766 150.393 101.57 153.214C106.327 169.91 110.403 186.036 111.122 202.841H111.489C110.77 185.982 106.682 169.817 101.923 153.113C101.119 150.29 100.295 147.45 99.4654 144.59C94.1252 126.182 88.5273 106.886 86.121 85.0865C105.894 102.578 115.346 122.355 118.25 144.21C120.66 162.355 118.558 181.937 114.087 202.841H114.463C118.926 181.945 121.029 162.341 118.614 144.162C115.681 122.09 106.091 102.126 86.0083 84.498Z" fill="#E0767A"/>
<path id="Vector_53" d="M99.7808 110.426C109.226 127.638 115.189 145.516 113.14 180.038" stroke="#E0767A"/>
<path id="Vector_54" d="M190.831 201.052L191.371 194.34C191.856 196.757 192.769 201.593 192.549 201.593C192.328 201.593 191.311 201.232 190.831 201.052Z" fill="#E6E7E9"/>
<path id="Vector_55" fill-rule="evenodd" clip-rule="evenodd" d="M166.636 135.334L173.135 138.893L177.412 135.604C178.946 137.523 182.971 140.571 186.787 137.413C191.556 133.465 167.872 119.812 165.898 126.885C163.192 123.773 159.596 126.471 159.138 129.43C159.11 129.423 159.095 129.42 159.095 129.42C159.095 129.42 154.316 138.29 156.381 142.43C156.636 142.94 157.767 142.998 158.956 143.059C159.924 143.109 160.929 143.16 161.528 143.46C160.118 137.552 162.029 134.635 166.636 135.334Z" fill="#383838"/>
<path id="Vector_56" fill-rule="evenodd" clip-rule="evenodd" d="M286.529 158.588L271.78 162.108L267.83 150.89C266.269 152.246 259.346 153.618 259.346 153.618C259.346 153.618 258.795 150.952 260.936 147.362C266.544 137.962 279.541 140.739 279.77 143.245C283.065 140.612 288.136 155.955 286.529 158.588Z" fill="#212121"/>
<path id="Vector_57" d="M163.902 151.095C164.549 151.932 166.409 152.839 167.258 153.188L166.31 155.202C165.331 154.854 164.296 152.319 163.902 151.095Z" fill="#CEA28B"/>
<path id="Vector_58" fill-rule="evenodd" clip-rule="evenodd" d="M274.175 169.995C271.66 171.239 270.1 174.026 269.579 175.616C269.417 176.108 269.256 176.592 269.094 177.069C268.448 179.001 267.821 180.884 267.281 183.19C267.222 183.45 267.16 183.715 267.101 183.986L267.068 183.975L267.072 183.968L265.177 183.245L268.731 173.897C269.623 171.551 271.815 170.083 274.175 169.995Z" fill="#D13137"/>
<path id="Vector_59" fill-rule="evenodd" clip-rule="evenodd" d="M266.47 197.765L265.908 197.908L265.156 198.099L253.1 198.558C251.4 197.67 247.641 196.506 245.218 197.897C243.225 199.046 242.41 201.363 242.146 202.34C242.047 202.321 241.992 202.31 241.992 202.31C241.992 202.31 241.166 199.843 243.409 197.905C245.648 195.973 249.91 196.575 251.58 197.167L262.402 193.528L262.34 193.495L267.068 183.975L267.101 183.986C266.646 186.127 266.272 188.638 266.026 191.861C265.827 194.464 266.059 196.37 266.47 197.765Z" fill="#CEA28B"/>
<path id="Vector_60" d="M258.497 252.703L252.856 252.641" stroke="#D13137" stroke-width="3" stroke-miterlimit="10" stroke-linecap="round"/>
<path id="Vector_61" d="M257.649 254.689L253.704 250.656" stroke="#D13137" stroke-width="3" stroke-miterlimit="10" stroke-linecap="round"/>
</g>
<rect id="site-header_2" x="2" y="26" width="457" height="16" fill="white" stroke="#CCCFD4" stroke-width="4"/>
<g id="process__tab">
<rect id="tab__background_2" x="0.74" y="44.74" width="49.52" height="10.52" fill="white" stroke="#E6E7E9" stroke-width="1.48"/>
<rect id="tab__description" x="7.3999" y="48.4399" width="37.52" height="2.96" rx="1.48" fill="#C4C4C4"/>
</g>
<g id="process__tab_2">
<rect id="tab__background_3" x="51.74" y="44.74" width="48.52" height="10.52" fill="white" stroke="#E6E7E9" stroke-width="1.48"/>
<rect id="tab__description_2" x="58.3999" y="48.4399" width="39" height="2.96" rx="1.48" fill="#C4C4C4"/>
</g>
<g id="process__tab_3">
<rect id="tab__background_4" x="101.74" y="44.74" width="49.52" height="10.52" fill="white" stroke="#E6E7E9" stroke-width="1.48"/>
<rect id="tab__description_3" x="108.4" y="48.4399" width="38.52" height="2.96" rx="1.48" fill="#C4C4C4"/>
</g>
<g id="process__tab_4">
<rect id="tab__background_5" x="152.74" y="44.74" width="49.52" height="10.52" fill="white" stroke="#E6E7E9" stroke-width="1.48"/>
<rect id="tab__description_4" x="159.4" y="48.4399" width="37.04" height="2.96" rx="1.48" fill="#C4C4C4"/>
</g>
<g id="process__tab_5">
<rect id="tab__background_6" x="203.74" y="44.74" width="52.52" height="10.52" fill="white" stroke="#E6E7E9" stroke-width="1.48"/>
<rect id="tab__description_5" x="210.4" y="48.4399" width="44.48" height="2.96" rx="1.48" fill="#C4C4C4"/>
</g>
<g id="process__tab_6">
<rect id="tab__background_7" x="257.74" y="44.74" width="49.52" height="10.52" fill="white" stroke="#E6E7E9" stroke-width="1.48"/>
<rect id="tab__description_6" x="264.4" y="48.4399" width="37.04" height="2.96" rx="1.48" fill="#C4C4C4"/>
</g>
<g id="process__tab_7">
<rect id="tab__background_8" x="308.74" y="44.74" width="50.36" height="10.36" fill="white" stroke="#E6E7E9" stroke-width="1.48"/>
<rect id="tab__description_7" x="315.4" y="48.4399" width="38.52" height="2.96" rx="1.48" fill="#C4C4C4"/>
</g>
<g id="process__tab_8">
<rect id="tab__background_9" x="360.74" y="44.74" width="48.52" height="10.52" fill="white" stroke="#E6E7E9" stroke-width="1.48"/>
<rect id="tab__description_8" x="367.4" y="48.4399" width="39" height="2.96" rx="1.48" fill="#C4C4C4"/>
</g>
<g id="process__tab_9">
<rect id="tab__background_10" x="410.74" y="44.74" width="49.52" height="10.52" fill="white" stroke="#E6E7E9" stroke-width="1.48"/>
<rect id="tab__description_9" x="417.4" y="48.4399" width="37.52" height="2.96" rx="1.48" fill="#C4C4C4"/>
</g>
</g>
</g>
<defs>
<clipPath id="clip0">
<rect width="462" height="272" rx="6" fill="white"/>
</clipPath>
</defs>
</svg>
