<svg viewBox="0 0 460 341" fill="none" xmlns="http://www.w3.org/2000/svg">
<g>
<g id="process--main-container">
<g clip-path="url(#clip0)">
<rect x="1.48" y="46.48" width="457.04" height="293.04" rx="6.52" fill="white"/>
<g id="process__navbar">
<rect id="Rectangle 4" y="45" width="460" height="24" fill="#E6E7E9"/>
<circle id="Ellipse 1" cx="16.2801" cy="56.8399" r="4.44" fill="#D13137"/>
<circle id="Ellipse 1_2" cx="34.0401" cy="56.8399" r="4.44" fill="#EAB331"/>
<circle id="Ellipse 1_3" cx="51.8001" cy="56.8399" r="4.44" fill="#219653"/>
</g>
<g id="content__userflows-wireframe">
<g id="userflows-container">
<g clip-path="url(#clip1)">
<rect id="site-header" x="-1" y="68" width="66" height="274" fill="white" stroke="#E6E7E9" stroke-width="2"/>
<g id="content__userflows">
<g id="content__wireframes">
<g id="phone-wireframe">
<rect id="Rectangle 9" x="97" y="105" width="88" height="198" rx="9" fill="white" stroke="#808692" stroke-width="2"/>
<rect id="Rectangle 18" x="143" y="225" width="33" height="30" rx="2" fill="#CCCFD4"/>
<rect id="Rectangle 17" x="106" y="225" width="33" height="30" rx="2" fill="#E6E7E9"/>
<rect id="Rectangle 19" x="143" y="259" width="33" height="30" rx="2" fill="#E6E7E9"/>
<rect id="Rectangle 20" x="106" y="259" width="33" height="30" rx="2" fill="#CCCFD4"/>
<rect id="Rectangle 10" x="98" y="123" width="86" height="70" fill="#F0BABC"/>
<rect id="Rectangle 10_2" x="106" y="201" width="30" height="4" rx="2" fill="#9A9EA8"/>
<rect id="Rectangle 14" x="106" y="207" width="70" height="2" rx="1" fill="#C4C4C4"/>
<rect id="Rectangle 15" x="106" y="211" width="70" height="2" rx="1" fill="#C4C4C4"/>
<rect id="Rectangle 16" x="106" y="215" width="70" height="2" rx="1" fill="#C4C4C4"/>
<rect id="Rectangle 11" x="106" y="111" width="9" height="2" rx="1" fill="#C4C4C4"/>
<rect id="Rectangle 13" x="167" y="111" width="9" height="2" rx="1" fill="#C4C4C4"/>
<rect id="Rectangle 12" x="155" y="111" width="9" height="2" rx="1" fill="#C4C4C4"/>
</g>
<g id="phone-wireframe_2">
<rect id="Rectangle 9_2" x="218" y="105" width="88" height="198" rx="9" fill="white" stroke="#808692" stroke-width="2"/>
<rect id="Rectangle 18_2" x="264" y="188" width="33" height="30" rx="2" fill="#E6E7E9"/>
<rect id="Rectangle 17_2" x="227" y="174" width="33" height="30" rx="2" fill="#CCCFD4"/>
<rect id="Rectangle 19_2" x="264" y="222" width="33" height="30" rx="2" fill="#CCCFD4"/>
<rect id="Rectangle 20_2" x="227" y="208" width="33" height="30" rx="2" fill="#E6E7E9"/>
<rect id="Rectangle 10_3" x="219" y="126" width="86" height="40" fill="#BEC8E5"/>
<rect id="Rectangle 10_4" x="227" y="267" width="30" height="4" rx="2" fill="#9A9EA8"/>
<rect id="Rectangle 14_2" x="227" y="273" width="70" height="2" rx="1" fill="#C4C4C4"/>
<rect id="Rectangle 15_2" x="227" y="277" width="70" height="2" rx="1" fill="#C4C4C4"/>
<rect id="Rectangle 16_2" x="227" y="281" width="70" height="2" rx="1" fill="#C4C4C4"/>
<rect id="Rectangle 21" x="227" y="285" width="70" height="2" rx="1" fill="#C4C4C4"/>
<rect id="Rectangle 22" x="227" y="289" width="70" height="2" rx="1" fill="#C4C4C4"/>
<rect id="Rectangle 23" x="227" y="293" width="70" height="2" rx="1" fill="#C4C4C4"/>
<rect id="Rectangle 11_2" x="227" y="111" width="9" height="2" rx="1" fill="#C4C4C4"/>
<rect id="Rectangle 13_2" x="288" y="111" width="9" height="2" rx="1" fill="#C4C4C4"/>
<rect id="Rectangle 12_2" x="276" y="111" width="9" height="2" rx="1" fill="#C4C4C4"/>
</g>
<g id="phone-wireframe_3">
<rect id="Rectangle 9_3" x="339" y="105" width="88" height="198" rx="9" fill="white" stroke="#808692" stroke-width="2"/>
<rect id="Rectangle 18_3" x="348" y="203" width="70" height="30" rx="2" fill="#E6E7E9"/>
<rect id="Rectangle 19_3" x="385" y="237" width="33" height="30" rx="2" fill="#CCCFD4"/>
<rect id="Rectangle 19_4" x="348" y="271" width="70" height="12" rx="2" fill="#E6E7E9"/>
<rect id="Rectangle 19_5" x="348" y="291" width="70" height="2" rx="1" fill="#C4C4C4"/>
<rect id="Rectangle 19_6" x="348" y="295" width="70" height="2" rx="1" fill="#C4C4C4"/>
<rect id="Rectangle 20_3" x="348" y="237" width="33" height="30" rx="2" fill="#CCCFD4"/>
<rect id="Rectangle 10_5" x="340" y="123" width="86" height="70" fill="#F8E6BA"/>
<rect id="Rectangle 11_3" x="348" y="111" width="9" height="2" rx="1" fill="#C4C4C4"/>
<rect id="Rectangle 13_3" x="409" y="111" width="9" height="2" rx="1" fill="#C4C4C4"/>
<rect id="Rectangle 12_3" x="397" y="111" width="9" height="2" rx="1" fill="#C4C4C4"/>
</g>
</g>
<g id="userflow-items">
<g id="flow-container">
<rect id="flow-item" x="96" y="104" width="64" height="30" rx="8" fill="#7E92CA"/>
<line id="flow-line" x1="171" y1="118" x2="219" y2="118" stroke="#EAB331" stroke-width="2" stroke-linecap="round" stroke-linejoin="round"/>
<rect id="flow-item_2" x="230" y="104" width="64" height="30" rx="8" fill="#F0BABC"/>
<line id="flow-line_2" x1="305" y1="118" x2="353" y2="118" stroke="#EAB331" stroke-width="2" stroke-linecap="round" stroke-linejoin="round"/>
<rect id="flow-item_3" x="364" y="104" width="64" height="30" rx="8" fill="#F8E6BA"/>
</g>
<g id="flow-container_2">
<line id="flow-line_3" x1="395" y1="159" x2="395" y2="145" stroke="#EAB331" stroke-width="2" stroke-linecap="round" stroke-linejoin="round"/>
</g>
<g id="flow-container_3">
<rect id="flow-item_4" x="96" y="170" width="64" height="30" rx="8" fill="#E6E7E9"/>
<line id="flow-line_4" x1="171" y1="184" x2="219" y2="184" stroke="#EAB331" stroke-width="2" stroke-linecap="round" stroke-linejoin="round"/>
<rect id="flow-item_5" x="230" y="170" width="64" height="30" rx="8" fill="#7E92CA"/>
<line id="flow-line_5" x1="305" y1="184" x2="353" y2="184" stroke="#EAB331" stroke-width="2" stroke-linecap="round" stroke-linejoin="round"/>
<rect id="flow-item_6" x="364" y="170" width="64" height="30" rx="8" fill="#F0BABC"/>
</g>
<g id="flow-container_4">
<line id="flow-line_6" x1="127" y1="225" x2="127" y2="211" stroke="#EAB331" stroke-width="2" stroke-linecap="round" stroke-linejoin="round"/>
</g>
<g id="flow-container_5">
<rect id="flow-item_7" x="96" y="236" width="64" height="30" rx="8" fill="#F0BABC"/>
<line id="flow-line_7" x1="171" y1="250" x2="219" y2="250" stroke="#EAB331" stroke-width="2" stroke-linecap="round" stroke-linejoin="round"/>
<rect id="flow-item_8" x="230" y="236" width="64" height="30" rx="8" fill="#F8E6BA"/>
<line id="flow-line_8" x1="305" y1="250" x2="353" y2="250" stroke="#EAB331" stroke-width="2" stroke-linecap="round" stroke-linejoin="round"/>
<rect id="flow-item_9" x="364" y="236" width="64" height="30" rx="8" fill="#E6E7E9"/>
</g>
</g>
</g>
</g>
</g>
</g>
<g id="content__collaboration">
<g id="collaboration">
<path id="Vector" fill-rule="evenodd" clip-rule="evenodd" d="M354.202 267.334C355.94 261.683 356.854 255.822 356.854 249.813C356.854 203.535 302.621 166.019 235.722 166.019C168.822 166.019 114.59 203.535 114.59 249.813C114.59 255.822 115.504 261.683 117.241 267.334H354.202Z" fill="#E6E7E9"/>
<path id="Vector_2" fill-rule="evenodd" clip-rule="evenodd" d="M290.068 195.295L278.281 198.108L274.33 186.89C273.289 187.794 269.863 188.706 267.696 189.213C267.562 189.919 267.493 190.647 267.493 191.391C267.493 197.811 272.697 203.016 279.116 203.016C284.166 203.016 288.464 199.795 290.068 195.295Z" fill="#E4B69D"/>
<path id="Vector_3" fill-rule="evenodd" clip-rule="evenodd" d="M173.136 171.333L179.635 174.893L183.912 171.603C185.156 173.159 188.036 175.457 191.114 174.589C191.217 175.72 191.18 176.883 190.99 178.056C189.768 185.588 182.672 190.703 175.141 189.481C174.665 189.403 174.199 189.303 173.744 189.18L170.891 195.096L170.848 195.095C169.989 195.078 168.985 195.059 168.191 194.416C167.792 194.093 167.408 193.562 167.02 193.026C166.717 192.606 166.411 192.183 166.093 191.852L168.641 186.567C166.264 184.633 164.574 181.94 163.883 178.924C164.335 179.001 164.889 179.03 165.456 179.059C166.424 179.108 167.429 179.16 168.028 179.459C166.618 173.552 168.529 170.635 173.136 171.333Z" fill="#DFB28B"/>
<path id="Vector_4" fill-rule="evenodd" clip-rule="evenodd" d="M308.211 143.452C310.808 139.098 312.299 134.008 312.299 128.57C312.299 112.501 299.273 99.4729 283.205 99.4729C267.136 99.4729 254.11 112.501 254.11 128.57C254.11 144.641 267.136 157.668 283.205 157.668C287.095 157.668 290.808 156.904 294.201 155.518V145.838V143.452H296.587H308.211ZM283.211 115.419L288.445 110.185C287.232 108.972 285.637 108.218 283.931 108.05C282.225 107.882 280.513 108.31 279.088 109.263C277.662 110.215 276.611 111.633 276.114 113.274C275.969 113.749 275.874 114.234 275.828 114.723L283.188 115.432L283.211 115.419Z" fill="#F8E6BA"/>
<path id="Vector_5" d="M198.751 161.564L200.73 148.035L209.244 150.306L198.751 161.564Z" stroke="#D13137"/>
<path id="Vector_6" d="M101.925 267.334H368.431" stroke="#E0767A" stroke-linecap="round"/>
<path id="Vector_7" d="M101.925 268.223H368.431" stroke="#E0767A" stroke-linecap="round"/>
<path id="Vector_8" fill-rule="evenodd" clip-rule="evenodd" d="M260.223 253.833V284.241C260.223 284.241 258.752 285.962 256.022 284.579L252.128 253.833C251.403 250.5 257.712 251.708 260.223 253.833Z" fill="#CEA28B"/>
<path id="Vector_9" fill-rule="evenodd" clip-rule="evenodd" d="M264.063 289.822C265.513 290.024 266.088 289.241 266.088 289.241L266.506 264.908L258.529 261.957L262.151 287.866L261.933 289.218L264.063 289.822Z" fill="#E4B69D"/>
<path id="Vector_10" d="M210.25 281.199L209.27 275.622H212.819L214.661 281.199C220.035 281.977 228.055 284.781 228.866 285.836C229.88 287.155 210.628 287.464 209.891 286.298C208.661 284.348 209.27 281.199 210.25 281.199Z" fill="#E0767A"/>
<path id="Vector_11" d="M209.195 288.169L208.215 282.591H211.763L213.606 288.169C218.98 288.946 227 291.75 227.811 292.805C228.825 294.123 209.573 294.433 208.836 293.267C207.605 291.318 208.215 288.169 209.195 288.169Z" fill="#E0767A"/>
<path id="Vector_12" fill-rule="evenodd" clip-rule="evenodd" d="M205.485 244.673L207.791 280.836C207.791 280.836 216.222 279.885 216.189 280.46L217.112 239.857C217.433 234.349 212.574 229.96 207.127 230.837L171.623 236.561C167.52 237.222 164.73 241.086 165.391 245.189C166.052 249.293 169.915 252.084 174.018 251.422L205.485 244.673Z" fill="#D13137"/>
<path id="Vector_13" d="M132.323 139.559C137.389 139.559 141.497 135.451 141.497 130.384C141.497 125.318 137.389 121.21 132.323 121.21C127.257 121.21 123.15 125.318 123.15 130.384C123.15 135.451 127.257 139.559 132.323 139.559Z" fill="#F8E6BA"/>
<path id="Vector_14" d="M257.971 180.588L255.991 167.06L247.478 169.33L257.971 180.588Z" stroke="#D13137"/>
<path id="Vector_15" d="M255.802 156.464H218.532C214.666 156.464 211.532 159.598 211.532 163.465C211.532 167.332 214.666 170.466 218.532 170.466H255.802C259.668 170.466 262.802 167.332 262.802 163.465C262.802 159.598 259.668 156.464 255.802 156.464Z" fill="#E0767A"/>
<path id="Vector_16" d="M217.378 284.425L220.128 279.499" stroke="#D13137" stroke-width="3" stroke-linecap="round"/>
<path id="Vector_17" d="M216.039 282.731L221.467 281.192" stroke="#D13137" stroke-width="3" stroke-linecap="round"/>
<path id="Vector_18" d="M106.281 238.842H129.464V257.42C129.464 259.651 127.656 267.333 125.426 267.333H110.319C108.089 267.333 106.281 259.651 106.281 257.42V238.842Z" fill="white" fill-opacity="0.37"/>
<path id="Vector_19" d="M260.256 287.772C260.256 287.772 261.157 283.29 260.256 283.29C260.256 283.29 258.652 284.666 257.86 284.666C257.069 284.666 255.96 283.956 255.96 283.956C251.022 284.67 246.848 286.537 246.103 287.506C245.171 288.717 260.256 287.772 260.256 287.772Z" fill="#E0767A"/>
<path id="Vector_20" d="M206.452 231.281C203.785 228.403 198.076 228.575 195.801 229.112C195.272 230.065 194.706 232.466 194.706 233.705C194.707 235.254 200.861 236.634 201.856 236.634C203.196 236.634 204.36 238.152 208.219 237.586C208.741 236.683 209.119 234.158 206.452 231.281Z" fill="#CEA28B"/>
<path id="Vector_21" d="M177.31 201.385C176.199 198.23 172.74 196.572 169.585 197.683C166.429 198.794 164.772 202.254 165.883 205.409L177.31 201.385ZM180.308 228.142L174.595 230.154L175.674 233.218L178.823 234.015L180.308 228.142ZM165.883 205.409L174.595 230.154L186.021 226.13L177.31 201.385L165.883 205.409ZM178.823 234.015L198.366 238.96L201.338 227.215L181.794 222.269L178.823 234.015Z" fill="#F8E6BA"/>
<path id="Vector_22" d="M230.906 244.869C232.012 244.869 232.908 245.765 232.908 246.871V286.159C232.908 287.265 232.012 288.161 230.906 288.161C229.801 288.161 228.905 287.265 228.905 286.159V246.871C228.905 245.765 229.801 244.869 230.906 244.869Z" fill="#F8E6BA"/>
<path id="Vector_23" d="M228.905 247.972C228.905 246.867 229.801 245.97 230.906 245.97C232.011 245.97 232.907 246.867 232.907 247.972V248.882H228.905V247.972Z" fill="#E6E7E9"/>
<path id="Vector_24" d="M262.16 244.869C262.16 246.406 248.174 247.653 230.921 247.653C213.668 247.653 199.682 246.406 199.682 244.869C199.682 244.455 198.692 241.836 200.515 241.483C205.455 240.525 218.32 242.086 230.921 242.086C243.522 242.086 256.327 240.563 261.267 241.521C263.09 241.874 262.16 244.455 262.16 244.869Z" fill="#E0767A"/>
<path id="Vector_25" d="M230.921 244.868C248.174 244.868 262.16 243.622 262.16 242.085C262.16 240.548 248.174 239.302 230.921 239.302C213.668 239.302 199.682 240.548 199.682 242.085C199.682 243.622 213.668 244.868 230.921 244.868Z" fill="#F8E6BA"/>
<path id="Vector_26" d="M222.742 286.322H239.071C240.066 286.322 240.872 287.129 240.872 288.124C240.872 289.118 240.066 289.925 239.071 289.925H222.742C221.747 289.925 220.941 289.118 220.941 288.124C220.941 287.129 221.747 286.322 222.742 286.322Z" fill="#F8E6BA"/>
<path id="Vector_27" d="M200.838 239.883L218.363 240.86L227.69 221.4" stroke="#F0BABC" stroke-width="4" stroke-linecap="round"/>
<path id="Vector_28" d="M259.31 240.473H242.466L239.25 219.899" stroke="#F0BABC" stroke-width="4" stroke-linecap="round"/>
<path id="Vector_29" fill-rule="evenodd" clip-rule="evenodd" d="M180.336 218.505C181.143 226.906 183.115 232.947 184.776 235.376L160.236 252.169C154.268 243.445 151.692 231.29 150.737 221.347C150.293 216.719 150.808 210.246 152.988 205.128C156.075 197.884 161.637 192.648 169.77 195.615L174.888 199.464C178.852 204.562 179.552 210.338 180.336 218.505Z" fill="#7E92CA"/>
<path id="Vector_30" d="M206.412 232.779C203.745 229.902 198.036 230.073 195.762 230.611C195.232 231.564 194.666 233.965 194.666 235.204C194.667 236.753 200.821 238.132 201.817 238.132C203.157 238.132 204.32 239.651 208.179 239.084C208.701 238.182 209.079 235.657 206.412 232.779Z" fill="#DFB28B"/>
<path id="Vector_31" fill-rule="evenodd" clip-rule="evenodd" d="M288.933 120.126C290.02 118.801 290.614 117.14 290.614 115.425H283.204L288.444 110.185C287.232 108.972 285.637 108.218 283.93 108.05C282.225 107.881 280.512 108.31 279.087 109.263C277.662 110.215 276.611 111.633 276.113 113.274C275.616 114.914 275.702 116.677 276.358 118.261C277.014 119.845 278.199 121.153 279.711 121.961C281.223 122.769 282.968 123.028 284.65 122.694C286.331 122.359 287.845 121.452 288.933 120.126ZM160.291 252.129L160.315 252.931C161.223 252.843 164.575 253.063 168.484 253.32C170.071 253.425 171.826 253.339 173.657 253.25H173.657C176.11 253.131 178.698 253.004 181.195 253.32C182.948 253.542 184.953 253.632 187.027 253.724C190.838 253.894 194.875 254.073 197.973 255.107L207.014 287.356L215.617 285.632C214.146 276.124 210.584 255.107 207.014 245.338C205.256 243.487 202.876 242.555 201.619 242.099C200.004 241.513 198.138 241.014 196.232 240.583C192.392 239.714 187.711 238.973 183.087 238.387C182.321 238.29 181.552 238.197 180.784 238.107L160.291 252.129ZM219.553 286.735C219.701 286.469 219.606 286.134 219.341 285.985C219.075 285.837 218.74 285.932 218.592 286.198L217.328 288.462L214.834 289.169C214.541 289.252 214.371 289.556 214.454 289.849C214.537 290.141 214.842 290.311 215.134 290.229L216.568 289.822L215.842 291.124C215.694 291.389 215.789 291.725 216.054 291.873C216.32 292.022 216.655 291.926 216.803 291.661L218.067 289.397L220.561 288.69C220.854 288.607 221.024 288.302 220.941 288.01C220.858 287.717 220.553 287.547 220.261 287.63L218.826 288.037L219.553 286.735ZM254.04 281.47C254.305 281.322 254.641 281.417 254.789 281.682L255.941 283.746L258.215 284.391C258.507 284.474 258.677 284.778 258.594 285.071C258.511 285.364 258.207 285.533 257.914 285.451L256.7 285.106L257.315 286.208C257.463 286.474 257.368 286.809 257.103 286.958C256.837 287.106 256.502 287.011 256.354 286.745L255.202 284.681L252.927 284.037C252.635 283.954 252.465 283.649 252.548 283.356C252.631 283.064 252.936 282.894 253.228 282.977L254.443 283.321L253.827 282.219C253.679 281.953 253.774 281.618 254.04 281.47ZM358.712 146.895H297.142V222.976C297.899 222.065 299.166 221.667 300.353 222.073C301.888 222.597 302.706 224.267 302.182 225.802C299.315 234.189 298.278 241.656 297.957 247.01C297.796 249.686 297.815 251.827 297.872 253.284C297.9 254.013 297.939 254.569 297.968 254.935C297.983 255.118 297.996 255.253 298.005 255.338C298.007 255.362 298.01 255.382 298.011 255.397C298.012 255.41 298.014 255.42 298.014 255.427L298.016 255.44L298.016 255.443V255.444V255.444L298.411 258.728H297.142V263.892H358.712V146.895ZM301.951 164.191H353.903V162.722H301.951V164.191ZM353.903 194.063H301.951V192.594H353.903V194.063ZM301.951 195.709H353.903V194.241H301.951V195.709ZM301.952 234.935H353.904V233.466H301.952V234.935ZM353.903 179.193H327.793V177.725H353.903V179.193ZM301.952 209.892H353.904V208.423H301.952V209.892ZM353.904 233.29H301.952V231.821H353.904V233.29ZM301.953 257.497H353.905V256.028H301.953V257.497ZM279.799 260.021C280.158 259.551 280.521 259.118 280.888 258.729H281.892C281.387 259.205 280.877 259.784 280.365 260.454C278.686 262.648 277.028 265.763 275.478 269.275C272.38 276.295 269.749 284.825 268.275 290.538L267.585 290.36C269.066 284.624 271.708 276.055 274.826 268.987C276.385 265.456 278.07 262.281 279.799 260.021ZM289.891 261.017C289.263 260.106 288.626 259.335 287.989 258.729H288.987C289.494 259.276 289.992 259.909 290.477 260.612C292.103 262.968 293.625 266.152 294.936 269.644C297.557 276.626 299.365 284.916 299.468 290.443L298.756 290.456C298.655 285.033 296.871 276.825 294.269 269.895C292.969 266.431 291.471 263.306 289.891 261.017ZM170.164 259.069C170.013 258.871 169.861 258.68 169.708 258.495H168.741C169.02 258.807 169.3 259.148 169.581 259.515C171.311 261.777 173.021 264.99 174.62 268.612C177.813 275.85 180.527 284.646 182.048 290.538L182.758 290.354C181.232 284.439 178.507 275.602 175.291 268.315C173.684 264.674 171.947 261.399 170.164 259.069ZM159.153 259.678C159.442 259.259 159.736 258.863 160.034 258.495H160.993C160.579 258.967 160.166 259.503 159.757 260.096C158.127 262.456 156.583 265.678 155.242 269.25C152.56 276.397 150.72 284.861 150.616 290.453L149.882 290.439C149.988 284.74 151.852 276.191 154.555 268.992C155.907 265.391 157.476 262.108 159.153 259.678ZM106.281 238.841H129.464V257.42C129.464 259.65 127.656 267.333 125.426 267.333H110.319C108.089 267.333 106.281 259.65 106.281 257.42V238.841ZM170.529 204.551C169.417 201.395 165.959 199.737 162.803 200.849C159.648 201.96 157.991 205.419 159.102 208.574L167.814 233.319L169.119 237.027L173.037 237.345L197.136 239.302L198.117 227.226L177.935 225.587L170.529 204.551Z" fill="white"/>
<path id="Vector_32" d="M238.189 136.554H200.919C197.053 136.554 193.919 139.688 193.919 143.555C193.919 147.421 197.053 150.556 200.919 150.556H238.189C242.055 150.556 245.189 147.421 245.189 143.555C245.189 139.688 242.055 136.554 238.189 136.554Z" fill="#E6E7E9"/>
<path id="Vector_33" d="M170.546 204.563C169.434 201.408 165.976 199.75 162.82 200.861C159.665 201.972 158.008 205.432 159.119 208.587L170.546 204.563ZM173.544 231.32L167.831 233.332L169.136 237.04L173.054 237.358L173.544 231.32ZM159.119 208.587L167.831 233.332L179.257 229.308L170.546 204.563L159.119 208.587ZM173.054 237.358L197.153 239.315L198.134 227.239L174.034 225.282L173.054 237.358Z" fill="white" fill-opacity="0.22"/>
<path id="Vector_34" d="M161.735 195.737C161.735 195.737 163.189 191.824 164.591 191.291C165.993 190.758 167.025 193.471 168.191 194.416C169.358 195.361 170.981 194.959 171.926 195.181C172.682 195.359 172.241 198 171.926 198.964L169.981 200.516L164.591 200.238L161.735 195.737Z" fill="#7E92CA"/>
<path id="Vector_35" d="M98.5446 193.132C84.7303 162.399 103.337 144.354 130.12 151.403C145.412 155.428 171.28 146.095 171.28 133.076C171.28 118.781 193.725 117.066 195.698 116.784" stroke="#E0767A" stroke-dasharray="4 4"/>
<path id="Vector_36" d="M203.5 114.6L198.81 108.94L222.303 112.166L199.258 125.034L203.5 114.6Z" fill="#F1CC76"/>
<path id="Vector_37" d="M200.216 117.365L203.756 114.566L221.792 112.232L200.216 117.365Z" fill="#E0767A"/>
<path id="Vector_38" fill-rule="evenodd" clip-rule="evenodd" d="M300.372 222.082C301.907 222.607 302.726 224.277 302.201 225.811C299.335 234.198 298.298 241.665 297.976 247.019C297.816 249.695 297.835 251.836 297.892 253.293C297.92 254.022 297.958 254.578 297.988 254.944C298.003 255.127 298.016 255.262 298.025 255.347C298.029 255.39 298.032 255.419 298.034 255.437L298.036 255.449L298.036 255.452V255.452V255.453L298.431 258.737H270.637C269.015 258.737 267.7 257.423 267.7 255.8C267.7 254.178 269.015 252.863 270.637 252.863H292.001C291.957 251.286 291.962 249.186 292.113 246.667C292.46 240.895 293.574 232.892 296.644 223.911C297.168 222.376 298.838 221.557 300.372 222.082Z" fill="#E6E7E9"/>
<path id="Vector_39" fill-rule="evenodd" clip-rule="evenodd" d="M282.388 239.932H284.782L285.176 238.463L292.391 238.903C292.391 238.903 292.553 239.333 292.78 240.053C292.438 242.483 292.231 244.704 292.113 246.667C291.962 249.186 291.957 251.285 292.001 252.863H270.637C269.015 252.863 267.7 254.178 267.7 255.8C267.7 256.538 267.973 257.212 268.422 257.728C268.25 258.707 268.422 259.978 268.621 261.456C268.799 262.77 268.999 264.248 268.999 265.83L249.694 258.69C249.694 258.69 249.518 250.406 251.281 247.41C253.043 244.414 260.155 239.856 268.999 241.505C271.433 241.958 272.645 240.734 273.24 239.22L282.388 239.932Z" fill="#F8E6BA"/>
<path id="collaboration__female-foot" fill-rule="evenodd" clip-rule="evenodd" d="M264.063 289.822L264.534 290.303C264.746 290.52 264.742 290.869 264.525 291.081C264.308 291.294 263.959 291.29 263.746 291.073L261.933 289.219L260.52 289.204C256.263 291.285 252.509 293.881 253.162 294.831C254.221 296.373 267.317 292.281 267.317 292.281C267.317 292.281 267.031 288.363 266.155 288.225L265.772 288.943C265.772 288.943 265.513 290.024 264.063 289.822Z" fill="#E0767A"/>
<path id="Vector_40" fill-rule="evenodd" clip-rule="evenodd" d="M281.21 202.827C282.712 202.554 284.114 201.992 285.355 201.201L285.949 205.471C285.847 206.484 285.38 206.727 284.682 207.09L284.623 207.121C283.41 207.752 281.539 206.765 281.539 206.765L281.21 202.827Z" fill="#CEA28B"/>
<path id="Vector_41" fill-rule="evenodd" clip-rule="evenodd" d="M282.322 225.013L279.97 233.783L259.602 234.558C257.901 233.668 254.14 232.505 251.72 233.897C249.15 235.376 248.538 238.79 248.538 238.79C248.538 238.79 251.769 238.877 253.836 238.79C254.543 238.761 255.338 238.808 256.109 238.854H256.109C257.822 238.956 259.414 239.051 259.654 238.28C259.665 238.244 259.676 238.206 259.687 238.166L282.388 239.932H284.782L285.402 237.62L288.507 226.041L282.322 225.013Z" fill="#E4B69D"/>
<path id="Vector_42" fill-rule="evenodd" clip-rule="evenodd" d="M305.178 153.663H308.911V162.272H305.178V153.663ZM305.178 171.655H308.911V192.145H305.178V171.655ZM309.899 171.655H313.632V192.145H309.899V171.655ZM318.352 178.458H314.619V192.145H318.352V178.458ZM319.339 178.458H323.073V192.145H319.339V178.458ZM327.793 183.536H324.059V192.146H327.793V183.536ZM313.632 153.663H309.899V162.272H313.632V153.663ZM314.619 153.663H318.352V162.272H314.619V153.663ZM323.073 153.663H319.339V162.272H323.073V153.663ZM324.059 153.663H327.793V162.272H324.059V153.663ZM347.999 168.534H344.266V177.143H347.999V168.534ZM349.315 168.534H353.048V177.143H349.315V168.534ZM346.925 198.407H344.265V207.842H346.925V198.407ZM347.913 198.407H350.573V207.842H347.913V198.407ZM341.962 215.154H339.302V231.24H341.962V215.154ZM342.949 215.154H345.61V231.24H342.949V215.154ZM349.256 215.154H346.596V231.24H349.256V215.154ZM350.243 215.154H352.903V231.24H350.243V215.154ZM349.214 245.978H347.659V255.413H349.214V245.978ZM349.993 245.978H351.547V255.413H349.993V245.978ZM344.546 245.978H342.992V255.413H344.546V245.978ZM345.325 245.978H346.88V255.413H345.325V245.978ZM339.88 245.978H338.325V255.413H339.88V245.978ZM340.658 245.978H342.213V255.413H340.658V245.978ZM335.212 245.978H333.657V255.413H335.212V245.978ZM335.99 245.978H337.546V255.413H335.99V245.978ZM330.545 245.978H328.99V255.413H330.545V245.978ZM331.324 245.978H332.878V255.413H331.324V245.978ZM325.877 245.978H324.323V255.413H325.877V245.978ZM326.656 245.978H328.211V255.413H326.656V245.978ZM321.21 245.978H319.655V255.413H321.21V245.978ZM321.989 245.978H323.544V255.413H321.989V245.978Z" fill="#E6E7E9"/>
<path id="Vector_43" d="M307.898 105.967C309.4 105.967 310.617 104.75 310.617 103.247C310.617 101.745 309.4 100.528 307.898 100.528C306.396 100.528 305.178 101.745 305.178 103.247C305.178 104.75 306.396 105.967 307.898 105.967Z" fill="#FDF2D8"/>
<path id="Vector_44" fill-rule="evenodd" clip-rule="evenodd" d="M288.444 110.185L283.211 115.419L283.188 115.432L275.828 114.722C275.874 114.234 275.969 113.749 276.114 113.274C276.611 111.633 277.662 110.215 279.088 109.263C280.513 108.31 282.225 107.881 283.931 108.05C285.637 108.218 287.232 108.972 288.444 110.185ZM294.201 143.452H296.587H359.269H361.655V145.838V264.947V267.333H359.269H296.587H294.201V264.947V258.728H270.617C268.996 258.728 267.681 257.413 267.681 255.791C267.681 254.169 268.996 252.854 270.617 252.854H291.981C291.937 251.277 291.943 249.178 292.094 246.659C292.327 242.771 292.908 237.872 294.201 232.345V145.838V143.452ZM297.143 263.892V258.728H298.412L298.016 255.444V255.444V255.443L298.016 255.44L298.014 255.427L298.011 255.4C298.01 255.384 298.007 255.363 298.005 255.338C297.999 255.283 297.992 255.206 297.984 255.109L297.981 255.085L297.978 255.051C297.975 255.014 297.972 254.976 297.968 254.935C297.939 254.569 297.901 254.013 297.872 253.284C297.815 251.827 297.796 249.686 297.957 247.01C298.278 241.656 299.315 234.189 302.182 225.802C302.706 224.267 301.888 222.597 300.353 222.073C299.166 221.667 297.899 222.065 297.143 222.976V146.895H358.712V263.892H297.143ZM353.903 164.191H301.951V162.722H353.903V164.191ZM301.951 194.063H353.903V192.594H301.951V194.063ZM353.903 195.709H301.952V194.241H353.903V195.709ZM353.905 234.935H301.952V233.466H353.905V234.935ZM327.793 179.193H353.903V177.725H327.793V179.193ZM353.904 209.892H301.952V208.423H353.904V209.892ZM301.952 233.29H353.904V231.821H301.952V233.29ZM353.905 257.497H301.953V256.028H353.905V257.497ZM108.911 238.841H122.252C132.695 227.913 144.886 212.366 141.757 197.377C136.848 173.861 136.848 163.265 141.757 152.928C139.866 154.86 137.907 156.765 135.967 158.651C125.537 168.792 115.655 178.401 119.794 188.849C123.909 199.236 120.765 205.04 117.264 211.504C115.5 214.762 113.644 218.187 112.582 222.451C111.777 219.989 111.562 217.376 112.878 214.053C114.495 209.973 111.104 206.961 106.783 203.123L106.783 203.122L106.783 203.122L106.782 203.122C105.359 201.858 103.836 200.504 102.357 198.994C104.328 203.144 103.303 207.694 101.547 215.477V215.477C101.139 217.29 100.691 219.278 100.231 221.478C98.9341 227.692 103.903 233.886 108.911 238.841ZM150.924 223.136C151.629 229.364 152.98 236.294 155.381 242.636C155.525 243.984 155.627 245.251 155.697 246.425C155.848 248.944 155.853 251.043 155.81 252.62H177.174C178.796 252.62 180.11 253.935 180.11 255.557C180.11 257.179 178.796 258.495 177.174 258.495H149.379L149.774 255.21L149.775 255.21V255.209L149.775 255.206L149.777 255.194C149.778 255.183 149.779 255.168 149.781 255.147L149.786 255.104C149.795 255.019 149.807 254.884 149.823 254.701C149.852 254.336 149.89 253.779 149.919 253.051C149.976 251.593 149.995 249.452 149.834 246.776C149.513 241.422 148.476 233.955 145.609 225.568C145.084 224.033 145.903 222.364 147.438 221.839C148.784 221.379 150.234 221.952 150.924 223.136ZM174.693 176.141C174.689 176.27 174.581 176.372 174.452 176.368C174.323 176.365 174.221 176.257 174.225 176.127C174.251 175.212 174.099 173.96 173.592 173.127C172.967 172.102 171.884 172.11 170.884 172.589C169.976 173.024 169.467 173.639 169.225 174.304C168.98 174.975 169.001 175.718 169.191 176.412C169.381 177.107 169.738 177.738 170.145 178.175C170.562 178.623 170.985 178.824 171.31 178.78C171.71 178.725 172.007 178.582 172.218 178.387C172.429 178.192 172.566 177.934 172.626 177.631C172.749 177.02 172.557 176.224 172.029 175.469C171.955 175.363 171.981 175.217 172.087 175.143C172.193 175.069 172.339 175.095 172.413 175.201C172.992 176.029 173.239 176.952 173.085 177.723C173.008 178.111 172.827 178.461 172.536 178.731C172.244 179 171.854 179.178 171.374 179.243C170.82 179.319 170.255 178.98 169.802 178.494C169.34 177.998 168.948 177.299 168.739 176.536C168.53 175.772 168.5 174.927 168.785 174.144C169.137 173.261 170.381 171.604 172.536 172.042C174.69 172.48 174.872 174.957 174.693 176.141Z" fill="#EAB331"/>
<path id="Vector_45" fill-rule="evenodd" clip-rule="evenodd" d="M281.448 205.675C278.477 206.678 276.651 209.867 276.079 211.616C275.918 212.108 275.757 212.59 275.596 213.068L275.596 213.071C274.302 216.935 273.077 220.596 272.524 227.862C272.312 230.646 272.591 232.633 273.059 234.046L279.97 233.783L282.322 225.014L288.508 226.042L285.402 237.621L284.782 239.933H282.388L279.123 239.679C282.111 241.413 286.451 243.293 289.562 241.921C290.073 241.696 290.541 241.505 290.969 241.329C291.64 241.055 292.215 240.82 292.711 240.554C293.321 236.031 294.4 230.755 296.261 225.057C296.251 222.122 295.933 219.092 294.889 216.003C292.935 210.222 289.349 206.893 285.901 205.784C285.74 206.541 285.302 206.769 284.682 207.091L284.623 207.121C283.41 207.753 281.539 206.766 281.539 206.766L281.448 205.675Z" fill="#E0767A"/>
<path id="Vector_46" d="M288.214 209.713C284.914 209.165 281.794 211.396 281.246 214.696L279.607 224.563L291.558 226.548L293.197 216.681C293.745 213.381 291.514 210.261 288.214 209.713Z" fill="#D13137"/>
<path id="Vector_47" fill-rule="evenodd" clip-rule="evenodd" d="M312.983 108.49C312.637 108.017 311.973 107.915 311.5 108.261C311.027 108.607 310.925 109.272 311.272 109.745C321.649 123.909 318.581 143.805 304.419 154.184C303.946 154.53 303.844 155.194 304.19 155.667C304.536 156.14 305.2 156.242 305.673 155.896C320.781 144.824 324.054 123.599 312.983 108.49ZM271.439 131.706C271.439 132.521 270.778 133.182 269.963 133.182C269.148 133.182 268.486 132.521 268.486 131.706C268.486 130.89 269.148 130.229 269.963 130.229C270.778 130.229 271.439 130.89 271.439 131.706ZM273.264 130.361H293.558C293.688 130.361 293.794 130.466 293.794 130.597V132.89C293.794 133.02 293.688 133.126 293.558 133.126H273.264C273.133 133.126 273.028 133.02 273.028 132.89V130.597C273.028 130.466 273.133 130.361 273.264 130.361ZM273.264 135.644H298.555C298.685 135.644 298.791 135.75 298.791 135.88V138.173C298.791 138.303 298.685 138.409 298.555 138.409H273.264C273.133 138.409 273.028 138.303 273.028 138.173V135.88C273.028 135.75 273.133 135.644 273.264 135.644ZM269.963 138.562C270.778 138.562 271.439 137.9 271.439 137.085C271.439 136.269 270.778 135.609 269.963 135.609C269.147 135.609 268.486 136.269 268.486 137.085C268.486 137.9 269.147 138.562 269.963 138.562Z" fill="#F1CC76"/>
<path id="Vector_48" fill-rule="evenodd" clip-rule="evenodd" d="M288.933 120.127C290.021 118.801 290.615 117.14 290.615 115.425H283.205L283.218 115.412L283.164 115.422L284.278 122.758C284.403 122.74 284.527 122.718 284.65 122.694C286.332 122.359 287.845 121.452 288.933 120.127Z" fill="#E0767A"/>
<path id="Vector_49" fill-rule="evenodd" clip-rule="evenodd" d="M283.895 201.991C283.049 202.373 282.149 202.657 281.21 202.828L281.33 204.266C282.227 203.704 283.694 202.653 283.895 201.991Z" fill="#B08874"/>
<path id="Vector_50" d="M288.511 226.05L282.317 225.011L287.955 228.039L288.511 226.05Z" fill="#E6E7E9"/>
<path id="Vector_51" fill-rule="evenodd" clip-rule="evenodd" d="M92.5083 120.498L92.1541 120.187L92.2047 120.655C94.5854 142.682 100.235 162.157 105.614 180.695C106.443 183.555 107.266 186.393 108.07 189.214C112.827 205.91 116.903 222.036 117.622 238.841H117.989C117.27 221.982 113.182 205.817 108.423 189.113C107.619 186.29 106.795 183.45 105.965 180.59C100.625 162.182 95.0273 142.886 92.621 121.087C112.394 138.578 121.846 158.355 124.75 180.21C127.16 198.355 125.058 217.937 120.587 238.841H120.963C125.426 217.945 127.529 198.341 125.114 180.162C122.181 158.09 112.591 138.126 92.5083 120.498Z" fill="#E0767A"/>
<path id="Vector_52" d="M106.281 146.426C115.726 163.638 121.689 181.516 119.64 216.038" stroke="#E0767A"/>
<path id="Vector_53" d="M197.331 237.052L197.871 230.34C198.356 232.757 199.269 237.593 199.049 237.593C198.828 237.593 197.811 237.232 197.331 237.052Z" fill="#E6E7E9"/>
<path id="Vector_54" fill-rule="evenodd" clip-rule="evenodd" d="M173.136 171.334L179.635 174.893L183.912 171.604C185.446 173.523 189.471 176.571 193.287 173.413C198.056 169.465 174.372 155.812 172.398 162.885C169.692 159.773 166.096 162.471 165.638 165.43C165.61 165.423 165.595 165.42 165.595 165.42C165.595 165.42 160.816 174.29 162.881 178.43C163.136 178.94 164.267 178.998 165.456 179.059C166.424 179.109 167.429 179.16 168.028 179.46C166.618 173.552 168.529 170.635 173.136 171.334Z" fill="#383838"/>
<path id="Vector_55" fill-rule="evenodd" clip-rule="evenodd" d="M293.029 194.588L278.28 198.108L274.33 186.89C272.769 188.246 265.846 189.618 265.846 189.618C265.846 189.618 265.295 186.952 267.436 183.362C273.044 173.962 286.041 176.739 286.27 179.245C289.565 176.612 294.636 191.955 293.029 194.588Z" fill="#212121"/>
<path id="Vector_56" d="M170.402 187.095C171.049 187.932 172.909 188.839 173.758 189.188L172.81 191.202C171.831 190.854 170.796 188.319 170.402 187.095Z" fill="#CEA28B"/>
<path id="Vector_57" fill-rule="evenodd" clip-rule="evenodd" d="M280.675 205.995C278.16 207.239 276.6 210.026 276.079 211.616C275.917 212.108 275.756 212.592 275.594 213.069C274.948 215.001 274.321 216.884 273.781 219.19C273.722 219.45 273.66 219.715 273.601 219.986L273.568 219.975L273.572 219.968L271.677 219.245L275.231 209.897C276.123 207.551 278.315 206.083 280.675 205.995Z" fill="#D13137"/>
<path id="Vector_58" fill-rule="evenodd" clip-rule="evenodd" d="M272.97 233.765L272.408 233.908L271.656 234.099L259.6 234.558C257.9 233.67 254.141 232.506 251.718 233.897C249.725 235.046 248.91 237.363 248.646 238.34C248.547 238.321 248.492 238.31 248.492 238.31C248.492 238.31 247.666 235.843 249.909 233.905C252.148 231.973 256.41 232.575 258.08 233.167L268.902 229.528L268.84 229.495L273.568 219.975L273.601 219.986C273.146 222.127 272.772 224.638 272.526 227.861C272.327 230.464 272.559 232.37 272.97 233.765Z" fill="#CEA28B"/>
<path id="Vector_59" d="M264.997 288.703L259.356 288.641" stroke="#D13137" stroke-width="3" stroke-miterlimit="10" stroke-linecap="round"/>
<path id="Vector_60" d="M264.149 290.689L260.204 286.656" stroke="#D13137" stroke-width="3" stroke-miterlimit="10" stroke-linecap="round"/>
</g>
</g>
<g id="content__research">
<rect id="site-header_2" x="5" y="71" width="450" height="16" fill="white" stroke="#CCCFD4" stroke-width="4"/>
<g id="process__tabBar">
<g id="process__tab">
<rect id="tab__background" x="1.74" y="89.74" width="49.52" height="10.52" fill="white" stroke="#E6E7E9" stroke-width="1.48"/>
<rect id="tab__description" x="8.3999" y="93.4399" width="37.52" height="2.96" rx="1.48" fill="#C4C4C4"/>
</g>
<g id="process__tab_2">
<rect id="tab__background_2" x="52.74" y="89.74" width="48.52" height="10.52" fill="white" stroke="#E6E7E9" stroke-width="1.48"/>
<rect id="tab__description_2" x="59.3999" y="93.4399" width="39" height="2.96" rx="1.48" fill="#C4C4C4"/>
</g>
<g id="process__tab_3">
<rect id="tab__background_3" x="102.74" y="89.74" width="49.52" height="10.52" fill="white" stroke="#E6E7E9" stroke-width="1.48"/>
<rect id="tab__description_3" x="109.4" y="93.4399" width="38.52" height="2.96" rx="1.48" fill="#C4C4C4"/>
</g>
<g id="process__tab_4">
<rect id="tab__background_4" x="153.74" y="89.74" width="49.52" height="10.52" fill="white" stroke="#E6E7E9" stroke-width="1.48"/>
<rect id="tab__description_4" x="160.4" y="93.4399" width="37.04" height="2.96" rx="1.48" fill="#C4C4C4"/>
</g>
<g id="process__tab_5">
<rect id="tab__background_5" x="204.74" y="89.74" width="49.52" height="10.52" fill="white" stroke="#E6E7E9" stroke-width="1.48"/>
<rect id="tab__description_5" x="211.4" y="93.4399" width="41.48" height="2.96" rx="1.48" fill="#C4C4C4"/>
</g>
<g id="process__tab_6">
<rect id="tab__background_6" x="255.74" y="89.74" width="49.52" height="10.52" fill="white" stroke="#E6E7E9" stroke-width="1.48"/>
<rect id="tab__description_6" x="262.4" y="93.4399" width="37.04" height="2.96" rx="1.48" fill="#C4C4C4"/>
</g>
<g id="process__tab_7">
<rect id="tab__background_7" x="306.74" y="89.74" width="50.36" height="10.36" fill="white" stroke="#E6E7E9" stroke-width="1.48"/>
<rect id="tab__description_7" x="313.4" y="93.4399" width="38.52" height="2.96" rx="1.48" fill="#C4C4C4"/>
</g>
<g id="process__tab_8">
<rect id="tab__background_8" x="358.74" y="89.74" width="48.52" height="10.52" fill="white" stroke="#E6E7E9" stroke-width="1.48"/>
<rect id="tab__description_8" x="365.4" y="93.4399" width="39" height="2.96" rx="1.48" fill="#C4C4C4"/>
</g>
<g id="process__tab_9">
<rect id="tab__background_9" x="408.74" y="89.74" width="49.52" height="10.52" fill="white" stroke="#E6E7E9" stroke-width="1.48"/>
<rect id="tab__description_9" x="415.4" y="93.4399" width="37.52" height="2.96" rx="1.48" fill="#C4C4C4"/>
</g>
</g>
<g id="research-container">
<g clip-path="url(#clip2)">
<g id="research__scroll">
<rect id="Rectangle 5" x="49.5" y="117" width="348" height="110" fill="#E6E7E9"/>
<g id="Frame 5">
<g clip-path="url(#clip3)">
<g id="Frame 9">
<g clip-path="url(#clip4)">
<g id="Frame 6">
<g clip-path="url(#clip5)">
<g id="Frame 7">
<g clip-path="url(#clip6)">
<rect id="Rectangle 5_2" x="50.5" y="237" width="64" height="10" rx="5" fill="#B3B7BE"/>
</g>
</g>
<rect id="Rectangle 6" x="50.5" y="255" width="130" height="6" rx="3" fill="#CCCFD4"/>
<rect id="Rectangle 6_2" x="50.5" y="265" width="130" height="6" rx="3" fill="#CCCFD4"/>
<rect id="Rectangle 7" x="50.5" y="275" width="130" height="6" rx="3" fill="#CCCFD4"/>
<rect id="Rectangle 8" x="50.5" y="285" width="130" height="6" rx="3" fill="#CCCFD4"/>
</g>
</g>
<g id="Frame 6_2">
<g clip-path="url(#clip7)">
<g id="Frame 7_2">
<g clip-path="url(#clip8)">
<rect id="Rectangle 5_3" x="50.5" y="322" width="64" height="10" rx="5" fill="#B3B7BE"/>
</g>
</g>
<rect id="Rectangle 6_3" x="50.5" y="340" width="130" height="6" rx="3" fill="#CCCFD4"/>
</g>
</g>
</g>
</g>
<g id="Frame 8">
<g clip-path="url(#clip9)">
<rect id="Rectangle 5_4" x="190.5" y="237" width="103" height="10" rx="5" fill="#B3B7BE"/>
<rect id="Rectangle 5_5" x="190.5" y="257" width="206" height="140" rx="8" fill="#E6E7E9"/>
</g>
</g>
</g>
</g>
</g>
<g id="process__scroll-container">
<g id="tab__background_10">
<mask id="path-192-inside-1" fill="white">
<path d="M459.5 99.52L459.5 361.48H446.18L446.18 99.52L459.5 99.52Z"/>
</mask>
<path d="M459.5 99.52L459.5 361.48H446.18L446.18 99.52L459.5 99.52Z" fill="white" stroke="#E6E7E9" stroke-width="2.96" mask="url(#path-192-inside-1)"/>
</g>
<path id="process__scrollbar" d="M452.1 108.4C452.917 108.4 453.58 109.063 453.58 109.88L453.58 118.76C453.58 119.578 452.917 120.24 452.1 120.24C451.283 120.24 450.62 119.578 450.62 118.76L450.62 109.88C450.62 109.063 451.283 108.4 452.1 108.4Z" fill="#C4C4C4"/>
</g>
</g>
</g>
</g>
</g>
<rect x="1.48" y="46.48" width="457.04" height="293.04" rx="6.52" stroke="#E6E7E9" stroke-width="2.96"/>
</g>
<g id="process-bar">
<circle id="progress--section-1" cx="268" cy="15" r="14" fill="#E6E7E9"/>
<circle id="progress--section-2" cx="326.213" cy="15" r="14" fill="#E6E7E9"/>
<circle id="progress--section-3" cx="384.427" cy="15" r="14" fill="#E6E7E9"/>
<circle id="progress--section-4" cx="442.64" cy="15" r="14" fill="#E6E7E9"/>
<rect id="progress--separator-3" x="398.041" y="13.5264" width="32.0919" height="2.94737" fill="#E6E7E9"/>
<rect id="progress--separator-2" x="339.081" y="13.5264" width="32.0919" height="2.94737" fill="#E6E7E9"/>
<path id="progress--separator-1" d="M280.868 13.5264L312.96 13.5264V16.4737L280.868 16.4737V13.5264Z" fill="#E6E7E9"/>
<text id="progress--indicator-1" transform="translate(265.195 8.36841)" fill="#111214" xml:space="preserve" style="white-space: pre" font-family="Nunito Sans" font-size="10.4485" font-weight="900" letter-spacing="0.02em"><tspan x="0" y="9.93757">1</tspan></text>
<text id="progress--indicator-2" transform="translate(323.408 8.36841)" fill="#111214" xml:space="preserve" style="white-space: pre" font-family="Nunito Sans" font-size="10.4485" font-weight="900" letter-spacing="0.02em"><tspan x="0" y="9.93757">2</tspan></text>
<text id="progress--indicator-3" transform="translate(381.621 8.36841)" fill="#111214" xml:space="preserve" style="white-space: pre" font-family="Nunito Sans" font-size="10.4485" font-weight="900" letter-spacing="0.02em"><tspan x="0" y="9.93757">3</tspan></text>
<text id="progress--indicator-4" transform="translate(439.834 8.36841)" fill="#111214" xml:space="preserve" style="white-space: pre" font-family="Nunito Sans" font-size="10.4485" font-weight="900" letter-spacing="0.02em"><tspan x="0" y="9.93757">4</tspan></text>
</g>
<text id="section-name" transform="translate(0 6)" fill="#D13137" xml:space="preserve" style="white-space: pre" font-family="Nunito Sans" font-size="14" font-weight="900" letter-spacing="0.02em"><tspan x="0" y="13.606">RESEARCH</tspan></text>
</g>
<defs>
<clipPath id="clip0">
<rect width="460" height="340" rx="20" ry="20" fill="white"/>
</clipPath>
<clipPath id="clip1">
<rect y="2" width="460" height="340" fill="white"/>
</clipPath>
<clipPath id="clip2">
<rect x="0.5" y="101" width="459" height="482" fill="white"/>
</clipPath>
<clipPath id="clip3">
<rect x="50.5" y="237" width="346" height="160" fill="white"/>
</clipPath>
<clipPath id="clip4">
<rect x="50.5" y="237" width="130" height="160" fill="white"/>
</clipPath>
<clipPath id="clip5">
<rect x="50.5" y="237" width="130" height="54" fill="white"/>
</clipPath>
<clipPath id="clip6">
<rect x="50.5" y="237" width="64" height="14" fill="white"/>
</clipPath>
<clipPath id="clip7">
<rect x="50.5" y="301" width="130" height="96" fill="white"/>
</clipPath>
<clipPath id="clip8">
<rect x="50.5" y="322" width="64" height="14" fill="white"/>
</clipPath>
<clipPath id="clip9">
<rect x="190.5" y="237" width="206" height="160" fill="white"/>
</clipPath>
</defs>
</svg>
